<svg width="24" height="24" viewBox="0 0 24 24" fill="none" xmlns="http://www.w3.org/2000/svg">
<path d="M16.96 6.16998C18.96 7.55998 20.34 9.76998 20.62 12.32" stroke="#EDE7DB" stroke-linecap="round" stroke-linejoin="round"/>
<path d="M3.49048 12.37C3.75048 9.82997 5.11048 7.61997 7.09048 6.21997" stroke="#EDE7DB" stroke-linecap="round" stroke-linejoin="round"/>
<path d="M8.18994 20.94C9.34994 21.53 10.6699 21.86 12.0599 21.86C13.3999 21.86 14.6599 21.56 15.7899 21.01" stroke="#EDE7DB" stroke-linecap="round" stroke-linejoin="round"/>
<path d="M12.0595 7.69995C13.5949 7.69995 14.8395 6.45531 14.8395 4.91995C14.8395 3.3846 13.5949 2.13995 12.0595 2.13995C10.5242 2.13995 9.27954 3.3846 9.27954 4.91995C9.27954 6.45531 10.5242 7.69995 12.0595 7.69995Z" stroke="#EDE7DB" stroke-linecap="round" stroke-linejoin="round"/>
<path d="M4.83078 19.92C6.36613 19.92 7.61078 18.6754 7.61078 17.14C7.61078 15.6047 6.36613 14.36 4.83078 14.36C3.29543 14.36 2.05078 15.6047 2.05078 17.14C2.05078 18.6754 3.29543 19.92 4.83078 19.92Z" stroke="#EDE7DB" stroke-linecap="round" stroke-linejoin="round"/>
<path d="M19.1694 19.92C20.7048 19.92 21.9494 18.6754 21.9494 17.14C21.9494 15.6047 20.7048 14.36 19.1694 14.36C17.6341 14.36 16.3894 15.6047 16.3894 17.14C16.3894 18.6754 17.6341 19.92 19.1694 19.92Z" stroke="#EDE7DB" stroke-linecap="round" stroke-linejoin="round"/>
</svg>
