<svg width="24" height="24" viewBox="0 0 24 24" fill="none" xmlns="http://www.w3.org/2000/svg">
<rect width="24" height="24" rx="12" fill="#EDEFEF"/>
<path d="M17.8158 15.6928C17.8158 15.9028 17.7691 16.1187 17.67 16.3287C17.5708 16.5387 17.4425 16.737 17.2733 16.9237C16.9875 17.2387 16.6725 17.4662 16.3166 17.612C15.9666 17.7578 15.5875 17.8337 15.1791 17.8337C14.5841 17.8337 13.9483 17.6937 13.2775 17.4078C12.6066 17.122 11.9358 16.737 11.2708 16.2528C10.6 15.7628 9.96413 15.2203 9.35746 14.6195C8.75663 14.0128 8.21413 13.377 7.72996 12.712C7.25163 12.047 6.86663 11.382 6.58663 10.7228C6.30663 10.0578 6.16663 9.42199 6.16663 8.81533C6.16663 8.41866 6.23663 8.03949 6.37663 7.68949C6.51663 7.33366 6.73829 7.00699 7.04746 6.71533C7.42079 6.34783 7.82913 6.16699 8.26079 6.16699C8.42413 6.16699 8.58746 6.20199 8.73329 6.27199C8.88496 6.34199 9.01913 6.44699 9.12413 6.59866L10.4775 8.50616C10.5825 8.65199 10.6583 8.78616 10.7108 8.91449C10.7633 9.03699 10.7925 9.15949 10.7925 9.27033C10.7925 9.41033 10.7516 9.55033 10.67 9.68449C10.5941 9.81866 10.4833 9.95866 10.3433 10.0987L9.89996 10.5595C9.83579 10.6237 9.80663 10.6995 9.80663 10.7928C9.80663 10.8395 9.81246 10.8803 9.82413 10.927C9.84163 10.9737 9.85913 11.0087 9.87079 11.0437C9.97579 11.2362 10.1566 11.487 10.4133 11.7903C10.6758 12.0937 10.9558 12.4028 11.2591 12.712C11.5741 13.0212 11.8775 13.307 12.1866 13.5695C12.49 13.8262 12.7408 14.0012 12.9391 14.1062C12.9683 14.1178 13.0033 14.1353 13.0441 14.1528C13.0908 14.1703 13.1375 14.1762 13.19 14.1762C13.2891 14.1762 13.365 14.1412 13.4291 14.077L13.8725 13.6395C14.0183 13.4937 14.1583 13.3828 14.2925 13.3128C14.4266 13.2312 14.5608 13.1903 14.7066 13.1903C14.8175 13.1903 14.9341 13.2137 15.0625 13.2662C15.1908 13.3187 15.325 13.3945 15.4708 13.4937L17.4016 14.8645C17.5533 14.9695 17.6583 15.092 17.7225 15.2378C17.7808 15.3837 17.8158 15.5295 17.8158 15.6928Z" stroke="#4A4A4A" stroke-width="0.875" stroke-miterlimit="10"/>
</svg>
