<svg width="18" height="16" viewBox="0 0 18 16" fill="none" xmlns="http://www.w3.org/2000/svg">
<path d="M8.08521 14.5584H13.4769C16.5602 14.5584 17.3269 13.7917 17.3269 10.7084C16.2602 10.7084 15.4019 9.84173 15.4019 8.7834C15.4019 7.71673 16.2602 6.85006 17.3269 6.85006V6.0834C17.3269 3.00006 16.5602 2.2334 13.4769 2.2334H8.16021V7.89173" stroke="#9D5A46" stroke-linecap="round" stroke-linejoin="round"/>
<path d="M8.16139 12.0583V14.5583H5.85305C4.61972 14.5583 3.89472 13.7166 3.09472 11.7833L2.94472 11.4083C3.95305 11.0083 4.44472 9.84165 4.01972 8.83331C3.61139 7.82498 2.45305 7.34165 1.43639 7.75831L1.29472 7.39998C0.0947189 4.46665 0.511386 3.44165 3.44472 2.23331L5.64472 1.33331L8.16139 7.43331V9.55831" stroke="#9D5A46" stroke-linecap="round" stroke-linejoin="round"/>
<path d="M5.80182 14.5584H5.66016" stroke="#9D5A46" stroke-linecap="round" stroke-linejoin="round"/>
</svg>
