<svg width="8" height="12" viewBox="0 0 8 12" fill="none" xmlns="http://www.w3.org/2000/svg">
<path d="M7.13 9.964V11.028H0.886L0.662 10.3C1.054 9.86133 1.34333 9.44133 1.53 9.04C1.726 8.63867 1.824 8.144 1.824 7.556C1.824 7.31333 1.782 7.024 1.698 6.688H0.116V5.792H1.39C1.26867 5.46533 1.17533 5.15733 1.11 4.868C1.04467 4.56933 1.012 4.24267 1.012 3.888C1.012 3.29067 1.138 2.77267 1.39 2.334C1.65133 1.886 2.01067 1.54067 2.468 1.298C2.93467 1.05533 3.46667 0.933999 4.064 0.933999C5.016 0.933999 5.74867 1.20933 6.262 1.76C6.77533 2.31067 7.05067 3.006 7.088 3.846H5.912C5.89333 3.29533 5.72533 2.852 5.408 2.516C5.1 2.18 4.652 2.012 4.064 2.012C3.52267 2.012 3.07933 2.17067 2.734 2.488C2.398 2.80533 2.23 3.29067 2.23 3.944C2.23 4.252 2.26267 4.546 2.328 4.826C2.39333 5.09667 2.49133 5.41867 2.622 5.792H5.338V6.688H2.902C2.986 7.024 3.028 7.31333 3.028 7.556C3.028 8.44267 2.69667 9.24533 2.034 9.964H7.13Z" fill="#222222"/>
</svg>
