<svg width="60" height="60" viewBox="0 0 60 60" fill="none" xmlns="http://www.w3.org/2000/svg">
<g filter="url(#filter0_b_143_9823)">
<circle cx="30" cy="30" r="30" fill="#9D5A46"/>
</g>
<path d="M12.4166 27.7587V29.936H15.9278V31.9599H12.4166V34.3212H16.3878V36.4219H9.79459V25.658H16.3878V27.7587H12.4166ZM17.9521 31.0246C17.9521 29.9615 18.182 29.016 18.642 28.188C19.102 27.3498 19.7409 26.7007 20.5587 26.2407C21.3867 25.7705 22.322 25.5354 23.3646 25.5354C24.6424 25.5354 25.7362 25.8727 26.6459 26.5473C27.5557 27.222 28.1639 28.142 28.4706 29.3073H25.588C25.3733 28.8575 25.0666 28.5151 24.668 28.28C24.2795 28.0449 23.8349 27.9273 23.334 27.9273C22.5264 27.9273 21.8722 28.2084 21.3713 28.7706C20.8705 29.3329 20.62 30.0842 20.62 31.0246C20.62 31.965 20.8705 32.7164 21.3713 33.2786C21.8722 33.8408 22.5264 34.1219 23.334 34.1219C23.8349 34.1219 24.2795 34.0044 24.668 33.7692C25.0666 33.5341 25.3733 33.1917 25.588 32.7419H28.4706C28.1639 33.9072 27.5557 34.8272 26.6459 35.5019C25.7362 36.1663 24.6424 36.4985 23.3646 36.4985C22.322 36.4985 21.3867 36.2685 20.5587 35.8085C19.7409 35.3383 19.102 34.6892 18.642 33.8612C18.182 33.0333 17.9521 32.0877 17.9521 31.0246ZM39.7055 25.658V36.4219H37.0835V31.9906H33.0049V36.4219H30.3829V25.658H33.0049V29.8746H37.0835V25.658H39.7055ZM46.9955 36.5292C45.9835 36.5292 45.0533 36.2941 44.2049 35.8239C43.3667 35.3537 42.6971 34.6995 42.1962 33.8612C41.7056 33.0128 41.4603 32.0622 41.4603 31.0093C41.4603 29.9564 41.7056 29.0109 42.1962 28.1727C42.6971 27.3344 43.3667 26.6802 44.2049 26.21C45.0533 25.7398 45.9835 25.5047 46.9955 25.5047C48.0075 25.5047 48.9326 25.7398 49.7708 26.21C50.6192 26.6802 51.2837 27.3344 51.7641 28.1727C52.2548 29.0109 52.5001 29.9564 52.5001 31.0093C52.5001 32.0622 52.2548 33.0128 51.7641 33.8612C51.2735 34.6995 50.609 35.3537 49.7708 35.8239C48.9326 36.2941 48.0075 36.5292 46.9955 36.5292ZM46.9955 34.1372C47.8542 34.1372 48.5391 33.851 49.0502 33.2786C49.5715 32.7061 49.8321 31.9497 49.8321 31.0093C49.8321 30.0586 49.5715 29.3022 49.0502 28.74C48.5391 28.1675 47.8542 27.8813 46.9955 27.8813C46.1266 27.8813 45.4315 28.1624 44.9102 28.7246C44.3991 29.2869 44.1436 30.0484 44.1436 31.0093C44.1436 31.9599 44.3991 32.7215 44.9102 33.2939C45.4315 33.8561 46.1266 34.1372 46.9955 34.1372Z" fill="#EDE7DB"/>
<defs>
<filter id="filter0_b_143_9823" x="-19.4985" y="-19.4985" width="98.997" height="98.997" filterUnits="userSpaceOnUse" color-interpolation-filters="sRGB">
<feFlood flood-opacity="0" result="BackgroundImageFix"/>
<feGaussianBlur in="BackgroundImageFix" stdDeviation="9.74925"/>
<feComposite in2="SourceAlpha" operator="in" result="effect1_backgroundBlur_143_9823"/>
<feBlend mode="normal" in="SourceGraphic" in2="effect1_backgroundBlur_143_9823" result="shape"/>
</filter>
</defs>
</svg>
