<svg width="20" height="20" viewBox="0 0 20 20" fill="none" xmlns="http://www.w3.org/2000/svg">
<path d="M10.0001 11.6667H10.8335C11.7501 11.6667 12.5001 10.9167 12.5001 10V1.66669H5.00012C3.75012 1.66669 2.65846 2.35834 2.0918 3.37501" stroke="#9D5A47" stroke-linecap="round" stroke-linejoin="round"/>
<path d="M1.66675 14.1667C1.66675 15.55 2.78341 16.6667 4.16675 16.6667H5.00008C5.00008 15.75 5.75008 15 6.66675 15C7.58342 15 8.33342 15.75 8.33342 16.6667H11.6667C11.6667 15.75 12.4167 15 13.3334 15C14.2501 15 15.0001 15.75 15.0001 16.6667H15.8334C17.2167 16.6667 18.3334 15.55 18.3334 14.1667V11.6667H15.8334C15.3751 11.6667 15.0001 11.2917 15.0001 10.8334V8.33335C15.0001 7.87502 15.3751 7.50002 15.8334 7.50002H16.9084L15.4834 5.00836C15.1834 4.4917 14.6334 4.16669 14.0334 4.16669H12.5001V10C12.5001 10.9167 11.7501 11.6667 10.8334 11.6667H10.0001" stroke="#9D5A47" stroke-linecap="round" stroke-linejoin="round"/>
<path d="M6.66667 18.3333C7.58714 18.3333 8.33333 17.5871 8.33333 16.6667C8.33333 15.7462 7.58714 15 6.66667 15C5.74619 15 5 15.7462 5 16.6667C5 17.5871 5.74619 18.3333 6.66667 18.3333Z" stroke="#9D5A47" stroke-linecap="round" stroke-linejoin="round"/>
<path d="M13.3334 18.3333C14.2539 18.3333 15.0001 17.5871 15.0001 16.6667C15.0001 15.7462 14.2539 15 13.3334 15C12.4129 15 11.6667 15.7462 11.6667 16.6667C11.6667 17.5871 12.4129 18.3333 13.3334 18.3333Z" stroke="#9D5A47" stroke-linecap="round" stroke-linejoin="round"/>
<path d="M18.3333 10V11.6667H15.8333C15.375 11.6667 15 11.2917 15 10.8333V8.33333C15 7.875 15.375 7.5 15.8333 7.5H16.9083L18.3333 10Z" stroke="#9D5A47" stroke-linecap="round" stroke-linejoin="round"/>
<path d="M1.66675 6.66669H6.66675" stroke="#9D5A47" stroke-linecap="round" stroke-linejoin="round"/>
<path d="M1.66675 9.16669H5.00008" stroke="#9D5A47" stroke-linecap="round" stroke-linejoin="round"/>
<path d="M1.66675 11.6667H3.33341" stroke="#9D5A47" stroke-linecap="round" stroke-linejoin="round"/>
</svg>
