<svg width="32" height="32" viewBox="0 0 32 32" fill="none" xmlns="http://www.w3.org/2000/svg">
<path d="M16.0001 2.66665C23.3639 2.66665 29.3334 8.63618 29.3334 16C29.3334 23.3638 23.3639 29.3333 16.0001 29.3333C8.63628 29.3333 2.66675 23.3638 2.66675 16C2.66675 8.63618 8.63628 2.66665 16.0001 2.66665Z" fill="#1B3F6D"/>
<path d="M16 13.6666C16.5467 13.6666 17 14.12 17 14.6666V21.3333C17 21.88 16.5467 22.3333 16 22.3333C15.4533 22.3333 15 21.88 15 21.3333V14.6666C15 14.12 15.4533 13.6666 16 13.6666Z" fill="white"/>
<path d="M17.2267 11.1735C17.1601 11.3335 17.0667 11.4801 16.9467 11.6135C16.8134 11.7335 16.6667 11.8268 16.5067 11.8935C16.1867 12.0268 15.8134 12.0268 15.4934 11.8935C15.3334 11.8268 15.1867 11.7335 15.0534 11.6135C14.9334 11.4801 14.8401 11.3335 14.7734 11.1735C14.7067 11.0135 14.6667 10.8401 14.6667 10.6668C14.6667 10.4935 14.7067 10.3201 14.7734 10.1601C14.8401 9.9868 14.9334 9.85347 15.0534 9.72014C15.1867 9.60014 15.3334 9.5068 15.4934 9.44014C15.6534 9.37347 15.8267 9.33347 16.0001 9.33347C16.1734 9.33347 16.3467 9.37347 16.5067 9.44014C16.6667 9.5068 16.8134 9.60014 16.9467 9.72014C17.0667 9.85347 17.1601 9.9868 17.2267 10.1601C17.2934 10.3201 17.3334 10.4935 17.3334 10.6668C17.3334 10.8401 17.2934 11.0135 17.2267 11.1735Z" fill="white"/>
</svg>
