<svg width="20" height="20" viewBox="0 0 20 20" fill="none" xmlns="http://www.w3.org/2000/svg">
<path d="M9.9999 11.8083C8.2249 11.8083 6.7749 10.3666 6.7749 8.5833C6.7749 6.79997 8.2249 5.36664 9.9999 5.36664C11.7749 5.36664 13.2249 6.80831 13.2249 8.59164C13.2249 10.375 11.7749 11.8083 9.9999 11.8083ZM9.9999 6.61664C8.91657 6.61664 8.0249 7.49997 8.0249 8.59164C8.0249 9.6833 8.90824 10.5666 9.9999 10.5666C11.0916 10.5666 11.9749 9.6833 11.9749 8.59164C11.9749 7.49997 11.0832 6.61664 9.9999 6.61664Z" fill="#9D5A46"/>
<path d="M9.9999 18.9667C8.76657 18.9667 7.5249 18.5 6.55824 17.575C4.0999 15.2084 1.38324 11.4334 2.40824 6.94169C3.33324 2.86669 6.89157 1.04169 9.9999 1.04169C9.9999 1.04169 9.9999 1.04169 10.0082 1.04169C13.1166 1.04169 16.6749 2.86669 17.5999 6.95002C18.6166 11.4417 15.8999 15.2084 13.4416 17.575C12.4749 18.5 11.2332 18.9667 9.9999 18.9667ZM9.9999 2.29169C7.5749 2.29169 4.45824 3.58335 3.63324 7.21669C2.73324 11.1417 5.1999 14.525 7.43324 16.6667C8.8749 18.0584 11.1332 18.0584 12.5749 16.6667C14.7999 14.525 17.2666 11.1417 16.3832 7.21669C15.5499 3.58335 12.4249 2.29169 9.9999 2.29169Z" fill="#9D5A46"/>
</svg>
