<svg width="92" height="124" viewBox="0 0 92 124" fill="none" xmlns="http://www.w3.org/2000/svg">
<path d="M48.322 0.077825C23.236 -1.37845 1.71965 17.7775 0.263372 42.8635C-1.1929 67.9495 17.9631 89.4659 43.0507 90.9222C68.1367 92.3785 89.6531 73.2225 91.1093 48.1365C92.5656 23.0505 73.4096 1.5341 48.3236 0.077825H48.322ZM58.2899 80.1293C57.9589 81.3063 57.4988 82.4445 56.6996 83.4342C56.3299 83.8927 55.9602 84.3528 55.5792 84.8049C55.5178 84.8775 55.3741 84.9744 55.3192 84.9518C55.2224 84.913 55.1239 84.7984 55.0964 84.6999C54.9205 84.0961 54.7913 83.481 54.5943 82.8852C54.2892 81.9617 53.955 81.0447 53.6079 80.1341C53.1574 78.9539 52.5132 77.8593 51.7431 76.8293C50.7421 75.4908 49.541 74.3349 48.0782 73.4114C47.2516 72.8915 46.383 72.4556 45.4644 72.0891C43.5044 71.3061 41.4814 70.8573 39.3406 70.9493C37.9634 71.009 36.583 71.051 35.2091 71.1398C33.5042 71.2496 31.7961 71.39 30.0911 71.2076C29.1612 71.1075 28.2313 70.9057 27.3336 70.649C26.6862 70.4633 26.0565 70.1646 25.4834 69.824C24.6923 69.3525 24.019 68.7358 23.5395 67.9802C23.2247 67.4846 22.9325 66.9647 22.7307 66.4238C22.4336 65.6279 22.5192 64.8077 22.8631 64.0457C23.2021 63.295 23.6429 62.583 24.0077 61.8403C24.2208 61.4092 24.3258 60.9313 24.1627 60.4696C24.0965 60.2823 23.8495 60.095 23.638 60.0111C22.8292 59.6882 22.3238 59.1231 22.0171 58.395C21.9089 58.1383 21.8443 57.8557 21.8249 57.5813C21.7668 56.7692 22.2609 56.2235 22.9276 55.7908C23.1747 55.6293 23.4669 55.526 23.7333 55.3904C23.8011 55.3565 23.8576 55.3 23.9189 55.2532C23.8608 55.1918 23.814 55.1143 23.743 55.0707C23.2005 54.7252 22.6257 54.4282 22.2253 53.9147C21.6764 53.2076 21.6974 52.5618 22.3012 51.9531C22.6209 51.6319 23.0455 51.3735 23.4701 51.1717C24.032 50.9069 24.3258 50.4662 24.463 49.9608C24.6907 49.1294 24.5341 48.2898 24.1078 47.5375C23.8689 47.1161 23.4701 46.7561 23.0891 46.4203C22.2399 45.6679 21.297 44.9963 20.5075 44.1955C19.8214 43.4996 19.7632 42.6084 20.6125 41.9013C21.2356 41.3814 21.9299 40.9294 22.629 40.4935C23.9916 39.6426 25.3914 38.8402 26.7524 37.9878C28.0456 37.1805 29.2032 36.2296 30.1138 35.0478C30.5335 34.5021 30.8564 33.8982 30.963 33.2411C31.013 32.9312 30.8822 32.5582 30.7224 32.2628C30.3527 31.5814 29.7004 31.1132 29.0837 30.6289C28.1069 29.8604 27.093 29.129 26.247 28.2281C26.1857 28.1636 26.134 28.0925 26.0759 28.0247C26.0985 28.0053 26.1227 27.9844 26.1453 27.965C26.9542 28.7109 27.8131 29.3922 28.8012 29.9153C28.8254 29.8927 28.8496 29.8701 28.8738 29.8475C28.3653 29.1129 27.8551 28.3767 27.3465 27.6405C27.3756 27.6179 27.4062 27.5953 27.4353 27.5727C27.5596 27.6889 27.7017 27.7922 27.8034 27.923C28.5606 28.8982 29.497 29.7102 30.5012 30.461C30.6498 30.5724 30.7967 30.687 30.9597 30.7774C31.1842 30.9001 31.3424 30.8307 31.4102 30.5966C31.6394 29.799 31.8429 28.9934 32.1028 28.2039C32.3418 27.479 32.634 26.7686 32.9133 26.055C33.1199 25.5255 33.325 24.9927 33.5655 24.4744C33.9046 23.7415 34.2501 23.0101 34.6376 22.2981C35.0864 21.4731 35.5433 20.6481 36.068 19.8635C36.7041 18.9125 37.3822 17.9826 38.0974 17.0801C39.1016 15.8111 40.2689 14.6648 41.5395 13.6202C42.421 12.8953 43.3591 12.2269 44.2987 11.565C45.7921 10.5107 47.4131 9.63402 49.0631 8.80739C50.1367 8.26815 51.2297 7.76282 52.3179 7.24618C52.5052 7.15738 52.707 7.09442 52.9023 7.02015C52.9233 7.04437 52.9459 7.06859 52.9669 7.0928C52.7716 7.31237 52.5891 7.54002 52.3809 7.74829C51.1038 9.01728 49.7686 10.2411 48.5561 11.5601C47.7021 12.4901 46.9755 13.5282 46.2571 14.5566C45.6759 15.3865 45.1721 16.2647 44.67 17.1382C44.4004 17.608 44.2002 18.1133 43.9758 18.6058C43.7191 19.1692 43.4559 19.7311 43.2202 20.301C43.062 20.682 42.9425 21.0759 42.8101 21.465C42.6729 21.8735 42.5244 22.2787 42.4114 22.6937C42.1207 23.7592 41.7801 24.8183 41.5799 25.9C41.2602 27.6211 40.9777 29.3518 40.7936 31.0906C40.6225 32.7035 40.4998 34.3261 40.6709 35.9551C40.7581 36.7817 40.7581 37.6164 40.8744 38.4382C40.9954 39.2971 41.2005 40.1463 41.3861 40.9972C41.5315 41.6656 41.6735 42.3372 41.8721 42.9927C42.0917 43.7224 42.3694 44.4393 42.6261 45.1593C42.8376 45.7535 43.0459 46.3476 43.2751 46.9353C43.4398 47.3583 43.6093 47.7845 43.8224 48.1881C44.2325 48.9679 44.6862 49.7284 45.0995 50.5082C45.2561 50.8036 45.3142 51.1443 45.4854 51.4317C45.7776 51.9257 46.1699 52.3713 46.4379 52.875C47.2338 54.3717 48.2332 55.7569 49.2471 57.1276C50.6275 58.9923 52.0693 60.8183 53.4513 62.6831C53.8565 63.2288 54.1584 63.8407 54.4845 64.4316C54.9043 65.1904 55.3209 65.9524 55.7003 66.7274C56.0748 67.4926 56.4235 68.2724 56.7464 69.0571C57.1033 69.9225 57.4488 70.7943 57.7442 71.679C57.9525 72.3022 58.08 72.9496 58.2269 73.589C58.3464 74.1137 58.4417 74.6416 58.5482 75.1679C58.5595 75.2261 58.5773 75.2826 58.5805 75.3407C58.7 76.9471 58.729 78.5552 58.2899 80.1212V80.1293Z" fill="url(#paint0_linear_3700_15553)"/>
<path d="M60.5227 43.3027C61.566 43.3027 62.4117 42.457 62.4117 41.4137C62.4117 40.3705 61.566 39.5248 60.5227 39.5248C59.4795 39.5248 58.6338 40.3705 58.6338 41.4137C58.6338 42.457 59.4795 43.3027 60.5227 43.3027Z" stroke="white" stroke-width="1.61118" stroke-miterlimit="10"/>
<path d="M60.5226 45.5C62.7794 45.5 64.6088 43.6705 64.6088 41.4137C64.6088 39.1569 62.7794 37.3275 60.5226 37.3275C58.2658 37.3275 56.4363 39.1569 56.4363 41.4137C56.4363 43.6705 58.2658 45.5 60.5226 45.5Z" stroke="white" stroke-width="1.61118" stroke-miterlimit="10"/>
<path d="M60.5226 47.9347C64.1241 47.9347 67.0436 45.0151 67.0436 41.4137C67.0436 37.8123 64.1241 34.8928 60.5226 34.8928C56.9212 34.8928 54.0017 37.8123 54.0017 41.4137C54.0017 45.0151 56.9212 47.9347 60.5226 47.9347Z" stroke="white" stroke-width="1.61118" stroke-miterlimit="10"/>
<path d="M60.5228 50.5857C65.5883 50.5857 69.6947 46.4793 69.6947 41.4137C69.6947 36.3482 65.5883 32.2418 60.5228 32.2418C55.4572 32.2418 51.3508 36.3482 51.3508 41.4137C51.3508 46.4793 55.4572 50.5857 60.5228 50.5857Z" stroke="white" stroke-width="1.61118" stroke-miterlimit="10"/>
<path d="M27.1446 116.911C27.1446 117.063 27.1217 117.435 27.076 118.027H17.3496C17.5468 119.105 18.0024 119.956 18.7163 120.579C19.4302 121.201 20.4024 121.513 21.6318 121.513C22.361 121.513 23.1119 121.387 23.8869 121.137C24.6618 120.886 25.3299 120.556 25.8912 120.146L26.8253 121.809C26.1877 122.295 25.3975 122.702 24.4558 123.028C23.5141 123.355 22.5572 123.517 21.5861 123.517C20.4776 123.517 19.4934 123.335 18.6357 122.97C17.7779 122.606 17.0978 122.112 16.5964 121.49C16.0951 120.868 15.7158 120.184 15.4575 119.44C15.1992 118.695 15.0706 117.914 15.0706 117.093C15.0706 115.271 15.6395 113.753 16.7785 112.537C17.9327 111.338 19.4204 110.738 21.2427 110.738C23.0651 110.738 24.3861 111.293 25.4792 112.401C26.5877 113.51 27.1425 115.014 27.1425 116.911H27.1446ZM17.3496 116.136H24.8896C24.8286 115.089 24.4602 114.25 23.7844 113.62C23.1087 112.99 22.2618 112.675 21.2449 112.675C20.228 112.675 19.4073 112.997 18.6934 113.642C17.9795 114.288 17.5316 115.119 17.3496 116.137V116.136Z" fill="#242424"/>
<path d="M37.6917 123.517C35.7931 123.517 34.2443 122.918 33.0443 121.718C31.8443 120.518 31.2449 118.992 31.2449 117.139C31.2449 115.286 31.852 113.753 33.0672 112.537C34.2825 111.338 35.8607 110.738 37.8051 110.738C39.0051 110.738 40.1091 111.027 41.1195 111.603C42.1288 112.181 42.8699 112.955 43.3407 113.927L41.5413 114.974C41.1315 114.276 40.5963 113.73 39.9359 113.334C39.2754 112.939 38.5647 112.742 37.8062 112.742C36.5604 112.742 35.5206 113.16 34.6857 113.996C33.8661 114.846 33.4552 115.894 33.4552 117.139C33.4552 118.384 33.8574 119.409 34.6628 120.259C35.4519 121.095 36.4623 121.513 37.6928 121.513C38.4525 121.513 39.1849 121.308 39.8912 120.898C40.5974 120.488 41.1249 119.964 41.4748 119.326L43.2971 120.374C42.7805 121.331 42.0219 122.09 41.0192 122.652C39.986 123.229 38.8775 123.517 37.6939 123.517H37.6917Z" fill="#242424"/>
<path d="M50.1058 123.244H47.9194V106H50.0382V112.537C50.4175 111.976 50.9527 111.531 51.6437 111.204C52.3347 110.877 53.09 110.715 53.9096 110.715C55.2611 110.715 56.4001 111.155 57.3265 112.036C58.2529 112.917 58.7161 114.185 58.7161 115.84V123.242H56.5516V116.454C56.5516 115.285 56.2704 114.374 55.7091 113.721C55.1467 113.068 54.3957 112.741 53.454 112.741C52.5123 112.741 51.6622 113.087 51.0399 113.778C50.4175 114.469 50.1058 115.361 50.1058 116.454V123.242V123.244Z" fill="#242424"/>
<path d="M69.9008 123.54C68.0326 123.54 66.4915 122.925 65.2763 121.695C64.0763 120.45 63.4768 118.923 63.4768 117.116C63.4768 115.309 64.0763 113.798 65.2763 112.583C66.4752 111.338 68.0174 110.715 69.9008 110.715C71.7841 110.715 73.2795 111.337 74.4795 112.583C75.6947 113.844 76.3018 115.355 76.3018 117.116C76.3018 118.877 75.6937 120.435 74.4795 121.695C73.2642 122.925 71.7384 123.54 69.9008 123.54ZM74.1155 117.116C74.1155 115.917 73.7057 114.892 72.8849 114.041C72.0653 113.176 71.0702 112.743 69.9008 112.743C68.7313 112.743 67.7373 113.176 66.9166 114.041C66.097 114.892 65.6861 115.917 65.6861 117.116C65.6861 118.315 66.0959 119.371 66.9166 120.236C67.7362 121.102 68.7313 121.535 69.9008 121.535C71.0702 121.535 72.0653 121.102 72.8849 120.236C73.7046 119.371 74.1155 118.331 74.1155 117.116Z" fill="#242424"/>
<defs>
<linearGradient id="paint0_linear_3700_15553" x1="0.264855" y1="42.865" x2="91.1099" y2="48.1349" gradientUnits="userSpaceOnUse">
<stop stop-color="#C0A17E"/>
<stop offset="0.23" stop-color="#A96E53"/>
<stop offset="0.33" stop-color="#9C5F49"/>
<stop offset="0.46" stop-color="#915442"/>
<stop offset="0.63" stop-color="#9A5534"/>
<stop offset="0.72" stop-color="#955435"/>
<stop offset="0.82" stop-color="#88543A"/>
<stop offset="0.92" stop-color="#735443"/>
<stop offset="0.95" stop-color="#6B5447"/>
</linearGradient>
</defs>
</svg>
