<svg width="122" height="30" viewBox="0 0 122 30" fill="none" xmlns="http://www.w3.org/2000/svg">
<path d="M15.8167 0.0255717C7.57392 -0.45293 0.504074 5.84133 0.0255717 14.0841C-0.45293 22.3268 5.84133 29.3967 14.0846 29.8752C22.3274 30.3537 29.3972 24.0594 29.8757 15.8167C30.3542 7.57391 24.06 0.504074 15.8172 0.0255717H15.8167ZM19.0919 26.3289C18.9832 26.7156 18.832 27.0896 18.5694 27.4148C18.4479 27.5654 18.3264 27.7166 18.2012 27.8652C18.1811 27.889 18.1339 27.9209 18.1158 27.9134C18.084 27.9007 18.0516 27.863 18.0426 27.8307C17.9848 27.6323 17.9423 27.4302 17.8776 27.2344C17.7774 26.931 17.6676 26.6296 17.5535 26.3305C17.4055 25.9427 17.1938 25.583 16.9408 25.2445C16.6119 24.8048 16.2172 24.4249 15.7366 24.1215C15.465 23.9507 15.1796 23.8074 14.8777 23.687C14.2337 23.4297 13.569 23.2823 12.8656 23.3125C12.413 23.3321 11.9595 23.3459 11.508 23.3751C10.9478 23.4112 10.3866 23.4573 9.82638 23.3974C9.52081 23.3645 9.21525 23.2982 8.9203 23.2138C8.70757 23.1528 8.50068 23.0547 8.31236 22.9427C8.05242 22.7878 7.8312 22.5852 7.67365 22.3369C7.5702 22.1741 7.47418 22.0032 7.40787 21.8255C7.31026 21.564 7.33838 21.2945 7.45137 21.0441C7.56277 20.7974 7.7076 20.5635 7.82749 20.3195C7.89751 20.1778 7.932 20.0208 7.87842 19.8691C7.85667 19.8075 7.7755 19.746 7.70601 19.7184C7.44023 19.6123 7.27419 19.4267 7.17339 19.1874C7.13785 19.1031 7.11663 19.0102 7.11027 18.92C7.09117 18.6532 7.2535 18.4739 7.47259 18.3317C7.55376 18.2787 7.64978 18.2447 7.73731 18.2002C7.75959 18.189 7.77815 18.1705 7.79831 18.1551C7.77921 18.1349 7.76383 18.1094 7.74049 18.0951C7.56224 17.9816 7.37339 17.884 7.24183 17.7153C7.06146 17.4829 7.06836 17.2707 7.26676 17.0707C7.3718 16.9652 7.51132 16.8803 7.65084 16.814C7.83545 16.727 7.932 16.5822 7.97709 16.4161C8.05189 16.1429 8.00043 15.8671 7.86038 15.6199C7.78187 15.4814 7.65084 15.3631 7.52564 15.2528C7.2466 15.0055 6.9368 14.7849 6.67739 14.5217C6.45193 14.2931 6.43283 14.0003 6.71187 13.7679C6.91664 13.5971 7.14475 13.4486 7.37445 13.3053C7.82218 13.0258 8.28212 12.7621 8.72932 12.482C9.15424 12.2168 9.53461 11.9043 9.8338 11.516C9.97173 11.3367 10.0778 11.1383 10.1128 10.9224C10.1293 10.8205 10.0863 10.698 10.0338 10.6009C9.91232 10.377 9.698 10.2232 9.49535 10.064C9.1744 9.81152 8.84126 9.57121 8.56328 9.2752C8.54312 9.25398 8.52614 9.23063 8.50705 9.20835C8.51447 9.20199 8.52243 9.19509 8.52986 9.18873C8.79563 9.43381 9.07785 9.65768 9.40251 9.82956C9.41047 9.82213 9.41843 9.8147 9.42639 9.80728C9.25928 9.5659 9.09165 9.324 8.92454 9.0821C8.93409 9.07467 8.94417 9.06724 8.95372 9.05982C8.99457 9.09801 9.04125 9.13196 9.07467 9.17493C9.32347 9.49535 9.63116 9.76219 9.96112 10.0089C10.0099 10.0455 10.0582 10.0831 10.1118 10.1128C10.1855 10.1532 10.2375 10.1303 10.2598 10.0534C10.3351 9.79136 10.402 9.52665 10.4874 9.26724C10.5659 9.02905 10.6619 8.79563 10.7537 8.56116C10.8216 8.38715 10.8889 8.21209 10.968 8.04181C11.0794 7.80096 11.1929 7.56065 11.3202 7.32671C11.4677 7.05563 11.6178 6.78455 11.7902 6.52673C11.9993 6.21427 12.2221 5.90871 12.4571 5.61216C12.787 5.1952 13.1706 4.81855 13.5881 4.47532C13.8777 4.23713 14.1859 4.01751 14.4947 3.80001C14.9854 3.4536 15.518 3.16554 16.0602 2.89393C16.4129 2.71675 16.7721 2.5507 17.1296 2.38095C17.1912 2.35177 17.2575 2.33108 17.3217 2.30668C17.3286 2.31464 17.336 2.32259 17.3429 2.33055C17.2787 2.4027 17.2188 2.4775 17.1503 2.54593C16.7307 2.9629 16.292 3.36501 15.8936 3.79842C15.613 4.10398 15.3742 4.44508 15.1382 4.78301C14.9472 5.05568 14.7817 5.34426 14.6167 5.63126C14.5281 5.78563 14.4623 5.95168 14.3886 6.11348C14.3042 6.29862 14.2178 6.48323 14.1403 6.67049C14.0883 6.79569 14.0491 6.92512 14.0056 7.05297C13.9605 7.18719 13.9117 7.32034 13.8745 7.45668C13.7791 7.8068 13.6671 8.1548 13.6013 8.51023C13.4963 9.07573 13.4035 9.64442 13.343 10.2158C13.2868 10.7457 13.2464 11.2789 13.3027 11.8141C13.3313 12.0857 13.3313 12.36 13.3695 12.63C13.4093 12.9122 13.4767 13.1913 13.5377 13.4708C13.5854 13.6905 13.6321 13.9111 13.6974 14.1265C13.7695 14.3663 13.8608 14.6018 13.9451 14.8384C14.0146 15.0337 14.083 15.2289 14.1584 15.422C14.2125 15.561 14.2682 15.701 14.3382 15.8336C14.4729 16.0899 14.622 16.3397 14.7578 16.596C14.8093 16.693 14.8284 16.805 14.8846 16.8994C14.9806 17.0617 15.1095 17.2081 15.1976 17.3737C15.4591 17.8654 15.7875 18.3206 16.1206 18.771C16.5742 19.3837 17.0479 19.9837 17.502 20.5964C17.6352 20.7757 17.7344 20.9767 17.8416 21.1709C17.9795 21.4202 18.1163 21.6706 18.241 21.9253C18.3641 22.1767 18.4787 22.4329 18.5848 22.6908C18.702 22.9751 18.8155 23.2616 18.9126 23.5523C18.981 23.757 19.023 23.9698 19.0712 24.1798C19.1105 24.3523 19.1418 24.5257 19.1768 24.6987C19.1805 24.7178 19.1863 24.7363 19.1874 24.7554C19.2267 25.2833 19.2362 25.8116 19.0919 26.3262V26.3289Z" fill="url(#paint0_linear_3700_15520)"/>
<path d="M19.8255 14.2283C20.1683 14.2283 20.4462 13.9505 20.4462 13.6077C20.4462 13.2649 20.1683 12.987 19.8255 12.987C19.4827 12.987 19.2048 13.2649 19.2048 13.6077C19.2048 13.9505 19.4827 14.2283 19.8255 14.2283Z" stroke="white" stroke-width="0.53049" stroke-miterlimit="10"/>
<path d="M19.8253 14.9504C20.5669 14.9504 21.168 14.3492 21.168 13.6077C21.168 12.8661 20.5669 12.265 19.8253 12.265C19.0838 12.265 18.4827 12.8661 18.4827 13.6077C18.4827 14.3492 19.0838 14.9504 19.8253 14.9504Z" stroke="white" stroke-width="0.53049" stroke-miterlimit="10"/>
<path d="M19.8253 15.7503C21.0086 15.7503 21.9679 14.791 21.9679 13.6077C21.9679 12.4243 21.0086 11.465 19.8253 11.465C18.6419 11.465 17.6826 12.4243 17.6826 13.6077C17.6826 14.791 18.6419 15.7503 19.8253 15.7503Z" stroke="white" stroke-width="0.53049" stroke-miterlimit="10"/>
<path d="M19.8257 16.6214C21.4902 16.6214 22.8394 15.2721 22.8394 13.6077C22.8394 11.9433 21.4902 10.594 19.8257 10.594C18.1613 10.594 16.812 11.9433 16.812 13.6077C16.812 15.2721 18.1613 16.6214 19.8257 16.6214Z" stroke="white" stroke-width="0.53049" stroke-miterlimit="10"/>
<path d="M54.4223 17.8801C54.4223 18.0874 54.391 18.5975 54.3284 19.4073H41.0197C41.2897 20.8822 41.913 22.0469 42.8899 22.8985C43.8667 23.75 45.197 24.1765 46.8792 24.1765C47.8769 24.1765 48.9044 24.005 49.9647 23.662C51.0251 23.319 51.9393 22.8671 52.7073 22.3064L53.9854 24.5822C53.1129 25.2473 52.0317 25.8036 50.7432 26.2495C49.4547 26.6969 48.1453 26.9191 46.8165 26.9191C45.2999 26.9191 43.9532 26.67 42.7795 26.1704C41.6058 25.6723 40.6752 24.9968 39.9892 24.1452C39.3032 23.2937 38.7842 22.3586 38.4308 21.34C38.0773 20.3214 37.9014 19.2522 37.9014 18.1292C37.9014 15.6357 38.6798 13.5583 40.2383 11.8954C41.8176 10.255 43.8533 9.43323 46.3468 9.43323C48.8403 9.43323 50.6478 10.1923 52.1436 11.709C53.6603 13.2257 54.4194 15.2837 54.4194 17.8801H54.4223ZM41.0197 16.8198H51.3368C51.2533 15.3866 50.7492 14.2383 49.8246 13.3763C48.8999 12.5143 47.7412 12.0833 46.3498 12.0833C44.9583 12.0833 43.8354 12.5248 42.8586 13.4076C41.8817 14.2905 41.2688 15.4284 41.0197 16.8213V16.8198Z" fill="#242424"/>
<path d="M68.8539 26.9191C66.256 26.9191 64.1369 26.0989 62.4949 24.4569C60.8529 22.8149 60.0327 20.7271 60.0327 18.1918C60.0327 15.6566 60.8634 13.5583 62.5262 11.8954C64.1891 10.255 66.3485 9.43323 69.009 9.43323C70.651 9.43323 72.1617 9.82843 73.5442 10.6173C74.9251 11.4078 75.9393 12.4666 76.5835 13.7969L74.1213 15.23C73.5606 14.2741 72.8283 13.5269 71.9246 12.9856C71.0208 12.4457 70.0485 12.1758 69.0105 12.1758C67.3059 12.1758 65.8832 12.747 64.7408 13.8908C63.6194 15.0541 63.0571 16.4887 63.0571 18.1918C63.0571 19.8949 63.6074 21.2983 64.7095 22.4615C65.7893 23.6053 67.1717 24.1765 68.8554 24.1765C69.8949 24.1765 70.8971 23.8962 71.8634 23.3354C72.8298 22.7747 73.5516 22.0573 74.0303 21.1849L76.5239 22.6181C75.817 23.9275 74.779 24.9669 73.407 25.735C71.9932 26.5254 70.4765 26.9191 68.8569 26.9191H68.8539Z" fill="#242424"/>
<path d="M85.84 26.5447H82.8484V2.95038H85.7475V11.8954C86.2665 11.1274 86.9988 10.5189 87.9443 10.0715C88.8898 9.62409 89.9233 9.40188 91.0447 9.40188C92.894 9.40188 94.4524 10.0044 95.7201 11.2094C96.9877 12.4144 97.6215 14.1503 97.6215 16.4141V26.5432H94.6597V17.2552C94.6597 15.655 94.275 14.4083 93.5069 13.515C92.7374 12.6217 91.7099 12.1743 90.4214 12.1743C89.1329 12.1743 87.9696 12.647 87.1181 13.5925C86.2665 14.538 85.84 15.7594 85.84 17.2552V26.5432V26.5447Z" fill="#242424"/>
<path d="M112.926 26.9504C110.37 26.9504 108.261 26.1092 106.598 24.4255C104.956 22.7224 104.136 20.6331 104.136 18.1604C104.136 15.6878 104.956 13.6208 106.598 11.958C108.238 10.2549 110.349 9.40186 112.926 9.40186C115.503 9.40186 117.549 10.2534 119.191 11.958C120.854 13.6835 121.684 15.7505 121.684 18.1604C121.684 20.5704 120.852 22.7015 119.191 24.4255C117.528 26.1092 115.44 26.9504 112.926 26.9504ZM118.693 18.1604C118.693 16.52 118.132 15.1166 117.009 13.9534C115.887 12.7693 114.526 12.1772 112.926 12.1772C111.325 12.1772 109.965 12.7693 108.842 13.9534C107.721 15.1166 107.159 16.52 107.159 18.1604C107.159 19.8009 107.719 21.246 108.842 22.4301C109.964 23.6142 111.325 24.2063 112.926 24.2063C114.526 24.2063 115.887 23.6142 117.009 22.4301C118.13 21.246 118.693 19.8233 118.693 18.1604Z" fill="#242424"/>
<defs>
<linearGradient id="paint0_linear_3700_15520" x1="0.026059" y1="14.0846" x2="29.8759" y2="15.8162" gradientUnits="userSpaceOnUse">
<stop stop-color="#C0A17E"/>
<stop offset="0.23" stop-color="#A96E53"/>
<stop offset="0.33" stop-color="#9C5F49"/>
<stop offset="0.46" stop-color="#915442"/>
<stop offset="0.63" stop-color="#9A5534"/>
<stop offset="0.72" stop-color="#955435"/>
<stop offset="0.82" stop-color="#88543A"/>
<stop offset="0.92" stop-color="#735443"/>
<stop offset="0.95" stop-color="#6B5447"/>
</linearGradient>
</defs>
</svg>
