<svg width="107" height="139" viewBox="0 0 107 139" fill="none" xmlns="http://www.w3.org/2000/svg">
<path d="M107 26.4649V131.218C107 135.186 103.783 138.403 99.8149 138.403H7.18509C3.21689 138.403 0 135.186 0 131.218V7.18509C0 3.21689 3.21689 0 7.18509 0H80.0538L80.5349 0.472386L107 26.4649Z" fill="#EDE7DB"/>
<path opacity="0.15" d="M107 26.4644H86.384C83.1539 26.4644 80.5352 23.8457 80.5352 20.6155V0.47168L107 26.4644Z" fill="black"/>
<path d="M79.1944 86.9C78.3822 86.9 77.6698 86.3762 77.4093 85.6069C76.731 83.6044 74.5137 81.629 71.0976 80.0379C66.4283 77.8633 60.1787 76.6659 53.5 76.6659C46.8213 76.6659 40.5717 77.8635 35.9024 80.0379C32.4862 81.629 30.2688 83.6044 29.5907 85.6069C29.3302 86.3762 28.6179 86.9 27.8056 86.9C26.5244 86.9 25.6134 85.6454 26.018 84.4297C27.0235 81.4072 29.8835 78.6979 34.3169 76.6333C39.4722 74.2324 46.2849 72.9104 53.5 72.9104C60.715 72.9104 67.5278 74.2326 72.6831 76.6333C77.1166 78.6981 79.9766 81.4072 80.9821 84.4297C81.3866 85.6454 80.4757 86.9 79.1944 86.9Z" fill="white"/>
<path d="M39.6973 67.0889C44.0012 67.0889 47.4903 63.5999 47.4903 59.2959C47.4903 54.992 44.0012 51.5029 39.6973 51.5029C35.3933 51.5029 31.9043 54.992 31.9043 59.2959C31.9043 63.5999 35.3933 67.0889 39.6973 67.0889Z" fill="white"/>
<path d="M67.3018 67.0889C71.6057 67.0889 75.0948 63.5999 75.0948 59.2959C75.0948 54.992 71.6057 51.5029 67.3018 51.5029C62.9978 51.5029 59.5088 54.992 59.5088 59.2959C59.5088 63.5999 62.9978 67.0889 67.3018 67.0889Z" fill="white"/>
</svg>
