<svg width="50" height="50" viewBox="0 0 50 50" fill="none" xmlns="http://www.w3.org/2000/svg">
<rect x="0.25" y="0.25" width="49.5" height="49.5" rx="24.75" stroke="#B5B5B5" stroke-width="0.5"/>
<path d="M25.0201 15.91C21.7101 15.91 19.0201 18.6 19.0201 21.91V24.8C19.0201 25.41 18.7601 26.34 18.4501 26.86L17.3001 28.77C16.5901 29.95 17.0801 31.26 18.3801 31.7C22.6901 33.14 27.3401 33.14 31.6501 31.7C32.8601 31.3 33.3901 29.87 32.7301 28.77L31.5801 26.86C31.2801 26.34 31.0201 25.41 31.0201 24.8V21.91C31.0201 18.61 28.3201 15.91 25.0201 15.91Z" stroke="#222222" stroke-width="1.5" stroke-miterlimit="10" stroke-linecap="round"/>
<path d="M26.8699 16.2C26.5599 16.11 26.2399 16.04 25.9099 16C24.9499 15.88 24.0299 15.95 23.1699 16.2C23.4599 15.46 24.1799 14.94 25.0199 14.94C25.8599 14.94 26.5799 15.46 26.8699 16.2Z" stroke="#222222" stroke-width="1.5" stroke-miterlimit="10" stroke-linecap="round" stroke-linejoin="round"/>
<path d="M28.02 32.06C28.02 33.71 26.67 35.06 25.02 35.06C24.2 35.06 23.44 34.72 22.9 34.18C22.36 33.64 22.02 32.88 22.02 32.06" stroke="#222222" stroke-width="1.5" stroke-miterlimit="10"/>
</svg>
