<svg width="24" height="24" viewBox="0 0 24 24" fill="none" xmlns="http://www.w3.org/2000/svg">
<rect width="24" height="24" rx="12" fill="#EDEFEF"/>
<path d="M17.8157 15.6928C17.8157 15.9028 17.769 16.1187 17.6698 16.3287C17.5707 16.5387 17.4423 16.737 17.2732 16.9237C16.9873 17.2387 16.6723 17.4662 16.3165 17.612C15.9665 17.7578 15.5873 17.8337 15.179 17.8337C14.584 17.8337 13.9482 17.6937 13.2773 17.4078C12.6065 17.122 11.9357 16.737 11.2707 16.2528C10.5998 15.7628 9.964 15.2203 9.35734 14.6195C8.7565 14.0128 8.214 13.377 7.72984 12.712C7.2515 12.047 6.8665 11.382 6.5865 10.7228C6.3065 10.0578 6.1665 9.42199 6.1665 8.81533C6.1665 8.41866 6.2365 8.03949 6.3765 7.68949C6.5165 7.33366 6.73817 7.00699 7.04734 6.71533C7.42067 6.34783 7.829 6.16699 8.26067 6.16699C8.424 6.16699 8.58734 6.20199 8.73317 6.27199C8.88484 6.34199 9.019 6.44699 9.124 6.59866L10.4773 8.50616C10.5823 8.65199 10.6582 8.78616 10.7107 8.91449C10.7632 9.03699 10.7923 9.15949 10.7923 9.27033C10.7923 9.41033 10.7515 9.55033 10.6698 9.68449C10.594 9.81866 10.4832 9.95866 10.3432 10.0987L9.89984 10.5595C9.83567 10.6237 9.8065 10.6995 9.8065 10.7928C9.8065 10.8395 9.81234 10.8803 9.824 10.927C9.8415 10.9737 9.859 11.0087 9.87067 11.0437C9.97567 11.2362 10.1565 11.487 10.4132 11.7903C10.6757 12.0937 10.9557 12.4028 11.259 12.712C11.574 13.0212 11.8773 13.307 12.1865 13.5695C12.4898 13.8262 12.7407 14.0012 12.939 14.1062C12.9682 14.1178 13.0032 14.1353 13.044 14.1528C13.0907 14.1703 13.1373 14.1762 13.1898 14.1762C13.289 14.1762 13.3648 14.1412 13.429 14.077L13.8723 13.6395C14.0182 13.4937 14.1582 13.3828 14.2923 13.3128C14.4265 13.2312 14.5607 13.1903 14.7065 13.1903C14.8173 13.1903 14.934 13.2137 15.0623 13.2662C15.1907 13.3187 15.3248 13.3945 15.4707 13.4937L17.4015 14.8645C17.5532 14.9695 17.6582 15.092 17.7223 15.2378C17.7807 15.3837 17.8157 15.5295 17.8157 15.6928Z" stroke="#4A4A4A" stroke-width="0.875" stroke-miterlimit="10"/>
</svg>
