<svg width="274" height="81" viewBox="0 0 274 81" fill="none" xmlns="http://www.w3.org/2000/svg">
<path d="M263.743 80.0449H10.2567C4.68248 80.0449 0.117188 75.5938 0.117188 70.1589V10.8431C0.117188 5.40824 4.68248 0.957083 10.2567 0.957083H263.743C269.317 0.957083 273.883 5.40824 273.883 10.8431V70.1589C273.883 75.5938 269.317 80.0449 263.743 80.0449Z" fill="black"/>
<path d="M263.743 2.54131C268.438 2.54131 272.258 6.26585 272.258 10.8431V70.1589C272.258 74.7362 268.438 78.4607 263.743 78.4607H10.2567C5.56208 78.4607 1.74204 74.7362 1.74204 70.1589V10.8431C1.74204 6.26585 5.56208 2.54131 10.2567 2.54131H263.743ZM263.743 0.957083H10.2567C4.68248 0.957083 0.117188 5.40824 0.117188 10.8431V70.1589C0.117188 75.5938 4.68248 80.0449 10.2567 80.0449H263.743C269.317 80.0449 273.883 75.5938 273.883 70.1589V10.8431C273.883 5.40824 269.317 0.957083 263.743 0.957083Z" fill="#A6A6A6"/>
<path d="M21.2783 15.8632C20.6826 16.4712 20.3379 17.4178 20.3379 18.6436V62.3693C20.3379 63.5952 20.6826 64.5418 21.2783 65.1497L21.4253 65.2832L46.556 40.7907V40.2124L21.4253 15.7198L21.2783 15.8632Z" fill="url(#paint0_linear_3879_6278)"/>
<path d="M54.9237 48.959L46.5562 40.7907V40.2124L54.9339 32.0441L55.1215 32.1504L65.0429 37.6544C67.8744 39.2164 67.8744 41.7867 65.0429 43.3586L55.1215 48.8527L54.9237 48.959Z" fill="url(#paint1_linear_3879_6278)"/>
<path d="M55.1213 48.8529L46.556 40.5018L21.2783 65.15C22.2188 66.1139 23.7523 66.23 25.4963 65.2661L55.1213 48.8529Z" fill="url(#paint2_linear_3879_6278)"/>
<path d="M55.1213 32.1508L25.4963 15.7376C23.7523 14.7836 22.2188 14.8997 21.2783 15.8636L46.556 40.502L55.1213 32.1508Z" fill="url(#paint3_linear_3879_6278)"/>
<path d="M96.2752 21.2117C96.2752 22.8627 95.7683 24.1849 94.7695 25.171C93.6212 26.3401 92.1257 26.9283 90.293 26.9283C88.5414 26.9283 87.0458 26.3302 85.8189 25.1513C84.5895 23.9551 83.9761 22.487 83.9761 20.7298C83.9761 18.9725 84.5895 17.5045 85.8189 16.3181C87.0458 15.1294 88.5414 14.5312 90.293 14.5312C91.165 14.5312 91.9964 14.7067 92.7898 15.033C93.5807 15.3617 94.2245 15.8065 94.6909 16.3552L93.6314 17.3982C92.8177 16.4615 91.71 15.9993 90.293 15.9993C89.0154 15.9993 87.9077 16.4343 86.9672 17.3117C86.0369 18.1915 85.5705 19.3309 85.5705 20.7298C85.5705 22.1286 86.0369 23.2779 86.9672 24.1577C87.9077 25.0252 89.0154 25.4701 90.293 25.4701C91.6491 25.4701 92.7898 25.0252 93.6897 24.1478C94.2828 23.567 94.62 22.7663 94.7087 21.7431H90.293V20.3145H96.184C96.255 20.6235 96.2752 20.9225 96.2752 21.2117Z" fill="white" stroke="white" stroke-width="0.16" stroke-miterlimit="10"/>
<path d="M105.621 16.2584H100.088V20.0151H105.076V21.4436H100.088V25.2003H105.621V26.656H98.521V14.8027H105.621V16.2584Z" fill="white" stroke="white" stroke-width="0.16" stroke-miterlimit="10"/>
<path d="M112.217 26.656H110.651V16.2584H107.256V14.8027H115.614V16.2584H112.217V26.656Z" fill="white" stroke="white" stroke-width="0.16" stroke-miterlimit="10"/>
<path d="M121.662 26.656V14.8027H123.226V26.656H121.662Z" fill="white" stroke="white" stroke-width="0.16" stroke-miterlimit="10"/>
<path d="M130.159 26.656H128.605V16.2584H125.198V14.8027H133.566V16.2584H130.159V26.656Z" fill="white" stroke="white" stroke-width="0.16" stroke-miterlimit="10"/>
<path d="M149.388 25.1315C148.189 26.3302 146.704 26.9283 144.932 26.9283C143.15 26.9283 141.664 26.3302 140.465 25.1315C139.269 23.9353 138.673 22.4672 138.673 20.7298C138.673 18.9923 139.269 17.5242 140.465 16.328C141.664 15.1294 143.15 14.5312 144.932 14.5312C146.694 14.5312 148.179 15.1294 149.378 16.3379C150.585 17.544 151.18 19.0022 151.18 20.7298C151.18 22.4672 150.585 23.9353 149.388 25.1315ZM141.624 24.1379C142.526 25.0252 143.624 25.4701 144.932 25.4701C146.23 25.4701 147.338 25.0252 148.23 24.1379C149.13 23.2507 149.586 22.1113 149.586 20.7298C149.586 19.3482 149.13 18.2088 148.23 17.3216C147.338 16.4343 146.23 15.9894 144.932 15.9894C143.624 15.9894 142.526 16.4343 141.624 17.3216C140.724 18.2088 140.268 19.3482 140.268 20.7298C140.268 22.1113 140.724 23.2507 141.624 24.1379Z" fill="white" stroke="white" stroke-width="0.16" stroke-miterlimit="10"/>
<path d="M153.378 26.656V14.8027H155.28L161.191 24.0214H161.259L161.191 21.7427V14.8027H162.755V26.656H161.122L154.932 16.9826H154.864L154.932 19.2712V26.656H153.378Z" fill="white" stroke="white" stroke-width="0.16" stroke-miterlimit="10"/>
<path d="M138.288 43.967C133.525 43.967 129.634 47.5012 129.634 52.3775C129.634 57.2142 133.525 60.7855 138.288 60.7855C143.061 60.7855 146.952 57.2142 146.952 52.3775C146.952 47.5012 143.061 43.967 138.288 43.967ZM138.288 57.4737C135.675 57.4737 133.426 55.3705 133.426 52.3775C133.426 49.345 135.675 47.2788 138.288 47.2788C140.901 47.2788 143.16 49.345 143.16 52.3775C143.16 55.3705 140.901 57.4737 138.288 57.4737ZM119.406 43.967C114.633 43.967 110.752 47.5012 110.752 52.3775C110.752 57.2142 114.633 60.7855 119.406 60.7855C124.176 60.7855 128.06 57.2142 128.06 52.3775C128.06 47.5012 124.176 43.967 119.406 43.967ZM119.406 57.4737C116.79 57.4737 114.534 55.3705 114.534 52.3775C114.534 49.345 116.79 47.2788 119.406 47.2788C122.019 47.2788 124.268 49.345 124.268 52.3775C124.268 55.3705 122.019 57.4737 119.406 57.4737ZM96.9368 46.5448V50.1186H105.69C105.434 52.1155 104.749 53.5836 103.7 54.6068C102.422 55.8425 100.432 57.2142 96.9368 57.2142C91.5502 57.2142 87.3322 52.9756 87.3322 47.7237C87.3322 42.4718 91.5502 38.2331 96.9368 38.2331C99.8493 38.2331 101.968 39.3428 103.532 40.7812L106.116 38.2628C103.928 36.2263 101.018 34.6618 96.9368 34.6618C89.5502 34.6618 83.3423 40.5217 83.3423 47.7237C83.3423 54.9256 89.5502 60.7855 96.9368 60.7855C100.929 60.7855 103.928 59.5102 106.285 57.1178C108.701 54.7625 109.454 51.4507 109.454 48.7765C109.454 47.9461 109.383 47.1824 109.256 46.5448H96.9368ZM188.816 49.3153C188.103 47.4345 185.905 43.967 181.429 43.967C176.993 43.967 173.3 47.3752 173.3 52.3775C173.3 57.0882 176.955 60.7855 181.855 60.7855C185.817 60.7855 188.103 58.4302 189.044 57.0585L186.103 55.148C185.122 56.5469 183.786 57.4737 181.855 57.4737C179.936 57.4737 178.559 56.6161 177.677 54.9256L189.213 50.2718L188.816 49.3153ZM177.054 52.1155C176.955 48.8729 179.637 47.2121 181.558 47.2121C183.064 47.2121 184.341 47.9461 184.767 48.9965L177.054 52.1155ZM167.677 60.2739H171.469V35.559H167.677V60.2739ZM161.467 45.8404H161.34C160.488 44.8567 158.864 43.967 156.805 43.967C152.486 43.967 148.537 47.6644 148.537 52.4047C148.537 57.1178 152.486 60.7855 156.805 60.7855C158.864 60.7855 160.488 59.8884 161.34 58.8751H161.467V60.0811C161.467 63.2966 159.705 65.0241 156.864 65.0241C154.547 65.0241 153.109 63.3929 152.516 62.0213L149.218 63.3633C150.169 65.5926 152.686 68.3359 156.864 68.3359C161.31 68.3359 165.061 65.7854 165.061 59.5794V44.4786H161.467V45.8404ZM157.13 57.4737C154.516 57.4737 152.329 55.3408 152.329 52.4047C152.329 49.4414 154.516 47.2788 157.13 47.2788C159.705 47.2788 161.736 49.4414 161.736 52.4047C161.736 55.3408 159.705 57.4737 157.13 57.4737ZM206.57 35.559H197.5V60.2739H201.282V50.9094H206.57C210.77 50.9094 214.889 47.9461 214.889 43.233C214.889 38.5223 210.76 35.559 206.57 35.559ZM206.669 47.4716H201.282V38.9968H206.669C209.492 38.9968 211.105 41.283 211.105 43.233C211.105 45.1459 209.492 47.4716 206.669 47.4716ZM230.048 43.92C227.315 43.92 224.473 45.0965 223.305 47.7039L226.661 49.0756C227.384 47.7039 228.712 47.259 230.116 47.259C232.078 47.259 234.068 48.4083 234.098 50.4374V50.6969C233.414 50.3113 231.949 49.7404 230.147 49.7404C226.532 49.7404 222.849 51.6805 222.849 55.3013C222.849 58.6131 225.809 60.746 229.138 60.746C231.683 60.746 233.087 59.6264 233.969 58.3239H234.098V60.2344H237.751V50.7537C237.751 46.3718 234.395 43.92 230.048 43.92ZM229.591 57.4638C228.354 57.4638 226.631 56.8657 226.631 55.3705C226.631 53.4575 228.78 52.7235 230.641 52.7235C232.306 52.7235 233.087 53.0819 234.098 53.5539C233.802 55.8425 231.782 57.4638 229.591 57.4638ZM251.059 44.4613L246.712 55.1752H246.583L242.088 44.4613H238.01L244.763 59.4336L240.91 67.765H244.861L255.267 44.4613H251.059ZM216.968 60.2739H220.76V35.559H216.968V60.2739Z" fill="white"/>
<defs>
<linearGradient id="paint0_linear_3879_6278" x1="44.3247" y1="62.8247" x2="11.1532" y2="28.8027" gradientUnits="userSpaceOnUse">
<stop stop-color="#00A0FF"/>
<stop offset="0.0066" stop-color="#00A1FF"/>
<stop offset="0.2601" stop-color="#00BEFF"/>
<stop offset="0.5122" stop-color="#00D2FF"/>
<stop offset="0.7604" stop-color="#00DFFF"/>
<stop offset="1" stop-color="#00E3FF"/>
</linearGradient>
<linearGradient id="paint1_linear_3879_6278" x1="68.7299" y1="40.4988" x2="19.6612" y2="40.4988" gradientUnits="userSpaceOnUse">
<stop stop-color="#FFE000"/>
<stop offset="0.4087" stop-color="#FFBD00"/>
<stop offset="0.7754" stop-color="#FFA500"/>
<stop offset="1" stop-color="#FF9C00"/>
</linearGradient>
<linearGradient id="paint2_linear_3879_6278" x1="50.4638" y1="35.9619" x2="5.48056" y2="-10.1747" gradientUnits="userSpaceOnUse">
<stop stop-color="#FF3A44"/>
<stop offset="1" stop-color="#C31162"/>
</linearGradient>
<linearGradient id="paint3_linear_3879_6278" x1="14.9154" y1="79.6975" x2="35.0024" y2="59.0956" gradientUnits="userSpaceOnUse">
<stop stop-color="#32A071"/>
<stop offset="0.0685" stop-color="#2DA771"/>
<stop offset="0.4762" stop-color="#15CF74"/>
<stop offset="0.8009" stop-color="#06E775"/>
<stop offset="1" stop-color="#00F076"/>
</linearGradient>
</defs>
</svg>
