<svg width="20" height="21" viewBox="0 0 20 21" fill="none" xmlns="http://www.w3.org/2000/svg">
<path d="M10 2.375C8.39303 2.375 6.82214 2.85152 5.486 3.74431C4.14985 4.6371 3.10844 5.90605 2.49348 7.3907C1.87852 8.87535 1.71762 10.509 2.03112 12.0851C2.34463 13.6612 3.11846 15.1089 4.25476 16.2452C5.39106 17.3815 6.8388 18.1554 8.4149 18.4689C9.99099 18.7824 11.6247 18.6215 13.1093 18.0065C14.594 17.3916 15.8629 16.3502 16.7557 15.014C17.6485 13.6779 18.125 12.107 18.125 10.5C18.1209 8.34638 17.2635 6.28216 15.7407 4.75932C14.2178 3.23648 12.1536 2.37913 10 2.375ZM10 17.375C8.64026 17.375 7.31105 16.9718 6.18046 16.2164C5.04987 15.4609 4.16868 14.3872 3.64833 13.1309C3.12798 11.8747 2.99183 10.4924 3.2571 9.15875C3.52238 7.82513 4.17716 6.60013 5.13864 5.63864C6.10013 4.67716 7.32514 4.02237 8.65876 3.7571C9.99238 3.49183 11.3747 3.62798 12.631 4.14833C13.8872 4.66868 14.9609 5.54987 15.7164 6.68045C16.4718 7.81104 16.875 9.14025 16.875 10.5C16.8729 12.3227 16.1479 14.0702 14.8591 15.3591C13.5702 16.6479 11.8227 17.3729 10 17.375ZM12.8125 8.3125V12.0625C12.8125 12.2283 12.7467 12.3872 12.6294 12.5044C12.5122 12.6217 12.3533 12.6875 12.1875 12.6875C12.0217 12.6875 11.8628 12.6217 11.7456 12.5044C11.6284 12.3872 11.5625 12.2283 11.5625 12.0625V9.82031L8.25782 13.1328C8.13835 13.2483 7.97868 13.3129 7.8125 13.3129C7.64633 13.3129 7.48665 13.2483 7.36719 13.1328C7.24983 13.0143 7.18399 12.8543 7.18399 12.6875C7.18399 12.5207 7.24983 12.3607 7.36719 12.2422L10.6797 8.9375H8.4375C8.27174 8.9375 8.11277 8.87165 7.99556 8.75444C7.87835 8.63723 7.8125 8.47826 7.8125 8.3125C7.8125 8.14674 7.87835 7.98777 7.99556 7.87056C8.11277 7.75335 8.27174 7.6875 8.4375 7.6875H12.1875C12.3533 7.6875 12.5122 7.75335 12.6294 7.87056C12.7467 7.98777 12.8125 8.14674 12.8125 8.3125Z" fill="#222222"/>
</svg>
