<svg width="50" height="41" viewBox="0 0 50 41" fill="none" xmlns="http://www.w3.org/2000/svg">
<path opacity="0.3" d="M7.5 30.4997C5.51088 30.4997 3.60322 29.7096 2.1967 28.303C0.790177 26.8965 0 24.9888 0 22.9997C0 21.0106 0.790177 19.1029 2.1967 17.6964C3.60322 16.2899 5.51088 15.4997 7.5 15.4997H7.75C7.59164 14.6756 7.50797 13.8389 7.5 12.9997C7.52039 10.2603 8.44013 7.60352 10.1178 5.43784C11.7954 3.27216 14.138 1.71756 16.7853 1.01312C19.4327 0.308682 22.2381 0.493414 24.7702 1.53891C27.3023 2.5844 29.4208 4.43276 30.8 6.79973C32.0387 5.95656 33.5016 5.50377 35 5.49972C36.9891 5.49972 38.8968 6.2899 40.3033 7.69642C41.7098 9.10295 42.5 11.0106 42.5 12.9997C42.4908 13.8546 42.33 14.7011 42.025 15.4997H42.5C44.4891 15.4997 46.3968 16.2899 47.8033 17.6964C49.2098 19.1029 50 21.0106 50 22.9997C50 24.9888 49.2098 26.8965 47.8033 28.303C46.3968 29.7096 44.4891 30.4997 42.5 30.4997H7.5ZM15 24.4747H35L26.775 16.2247C26.5426 15.9904 26.2661 15.8044 25.9614 15.6775C25.6568 15.5506 25.33 15.4852 25 15.4852C24.67 15.4852 24.3432 15.5506 24.0386 15.6775C23.7339 15.8044 23.4574 15.9904 23.225 16.2247L15 24.4747Z" fill="#9D5A46"/>
<path d="M22.5 24.4747V37.9997C22.5 38.6628 22.7634 39.2987 23.2322 39.7675C23.7011 40.2363 24.337 40.4997 25 40.4997C25.663 40.4997 26.2989 40.2363 26.7678 39.7675C27.2366 39.2987 27.5 38.6628 27.5 37.9997V24.4747H22.5Z" fill="#9D5A46"/>
</svg>
