<svg width="32" height="32" viewBox="0 0 32 32" fill="none" xmlns="http://www.w3.org/2000/svg">
<path d="M29.0133 21.2267L20.48 5.86669C19.3333 3.80002 17.7466 2.66669 16 2.66669C14.2533 2.66669 12.6666 3.80002 11.52 5.86669L2.98664 21.2267C1.90664 23.1867 1.78664 25.0667 2.6533 26.5467C3.51997 28.0267 5.22664 28.84 7.46664 28.84H24.5333C26.7733 28.84 28.48 28.0267 29.3466 26.5467C30.2133 25.0667 30.0933 23.1734 29.0133 21.2267Z" fill="#E51C26"/>
<path d="M16 19.6667C15.4533 19.6667 15 19.2133 15 18.6667V12C15 11.4533 15.4533 11 16 11C16.5467 11 17 11.4533 17 12V18.6667C17 19.2133 16.5467 19.6667 16 19.6667Z" fill="white"/>
<path d="M16.0001 24C15.9201 24 15.8267 23.9867 15.7334 23.9733C15.6534 23.96 15.5734 23.9334 15.4934 23.8934C15.4134 23.8667 15.3334 23.8267 15.2534 23.7733C15.1867 23.72 15.1201 23.6667 15.0534 23.6133C14.8134 23.36 14.6667 23.0133 14.6667 22.6667C14.6667 22.32 14.8134 21.9734 15.0534 21.72C15.1201 21.6667 15.1867 21.6133 15.2534 21.56C15.3334 21.5067 15.4134 21.4667 15.4934 21.44C15.5734 21.4 15.6534 21.3734 15.7334 21.36C15.9067 21.32 16.0934 21.32 16.2534 21.36C16.3467 21.3734 16.4267 21.4 16.5067 21.44C16.5867 21.4667 16.6667 21.5067 16.7467 21.56C16.8134 21.6133 16.8801 21.6667 16.9467 21.72C17.1867 21.9734 17.3334 22.32 17.3334 22.6667C17.3334 23.0133 17.1867 23.36 16.9467 23.6133C16.8801 23.6667 16.8134 23.72 16.7467 23.7733C16.6667 23.8267 16.5867 23.8667 16.5067 23.8934C16.4267 23.9334 16.3467 23.96 16.2534 23.9733C16.1734 23.9867 16.0801 24 16.0001 24Z" fill="white"/>
</svg>
