<svg width="30" height="31" viewBox="0 0 30 31" fill="none" xmlns="http://www.w3.org/2000/svg">
<path d="M21.375 0.488281H8.625C3.86154 0.488281 0 4.34983 0 9.11328V21.8633C0 26.6267 3.86154 30.4883 8.625 30.4883H21.375C26.1385 30.4883 30 26.6267 30 21.8633V9.11328C30 4.34983 26.1385 0.488281 21.375 0.488281Z" fill="#F1F1F1"/>
<path d="M15.5549 17.3169C16.665 17.3169 17.5649 16.417 17.5649 15.3069C17.5649 14.1968 16.665 13.2969 15.5549 13.2969C14.4448 13.2969 13.5449 14.1968 13.5449 15.3069C13.5449 16.417 14.4448 17.3169 15.5549 17.3169Z" fill="#666666"/>
<path d="M8.02562 17.3169C9.13572 17.3169 10.0356 16.417 10.0356 15.3069C10.0356 14.1968 9.13572 13.2969 8.02562 13.2969C6.91553 13.2969 6.01562 14.1968 6.01562 15.3069C6.01562 16.417 6.91553 17.3169 8.02562 17.3169Z" fill="#666666"/>
<path d="M23.0686 17.3169C24.1787 17.3169 25.0786 16.417 25.0786 15.3069C25.0786 14.1968 24.1787 13.2969 23.0686 13.2969C21.9585 13.2969 21.0586 14.1968 21.0586 15.3069C21.0586 16.417 21.9585 17.3169 23.0686 17.3169Z" fill="#666666"/>
</svg>
