<svg width="16" height="16" viewBox="0 0 16 16" fill="none" xmlns="http://www.w3.org/2000/svg">
<path d="M7.99938 12.6268C8.13179 12.6275 8.26144 12.5888 8.37179 12.5156C8.48213 12.4424 8.56818 12.338 8.61896 12.2157C8.66974 12.0934 8.68294 11.9588 8.6569 11.829C8.63085 11.6991 8.56673 11.58 8.47271 11.4868L4.98604 8.00009L8.47271 4.51342C8.59688 4.38851 8.66657 4.21954 8.66657 4.04342C8.66657 3.8673 8.59688 3.69833 8.47271 3.57342C8.41074 3.51093 8.337 3.46134 8.25576 3.42749C8.17452 3.39365 8.08739 3.37622 7.99938 3.37622C7.91137 3.37622 7.82423 3.39365 7.74299 3.42749C7.66175 3.46134 7.58802 3.51093 7.52604 3.57342L3.57271 7.52675C3.50972 7.5885 3.45961 7.66213 3.42528 7.74338C3.39094 7.82463 3.37308 7.91188 3.37271 8.00009C3.37308 8.08829 3.39094 8.17555 3.42528 8.2568C3.45961 8.33805 3.50972 8.41168 3.57271 8.47342L7.52604 12.4268C7.58779 12.4897 7.66142 12.5399 7.74267 12.5742C7.82392 12.6085 7.91117 12.6264 7.99938 12.6268Z" fill="#666666"/>
<path opacity="0.3" d="M4.04029 8.66683H11.9603C12.1371 8.66683 12.3067 8.59659 12.4317 8.47157C12.5567 8.34654 12.627 8.17697 12.627 8.00016C12.627 7.82335 12.5567 7.65378 12.4317 7.52876C12.3067 7.40373 12.1371 7.3335 11.9603 7.3335H4.04029C3.86347 7.3335 3.69391 7.40373 3.56888 7.52876C3.44386 7.65378 3.37362 7.82335 3.37362 8.00016C3.37362 8.17697 3.44386 8.34654 3.56888 8.47157C3.69391 8.59659 3.86347 8.66683 4.04029 8.66683Z" fill="#666666"/>
</svg>
