<svg width="16" height="16" viewBox="0 0 16 16" fill="none" xmlns="http://www.w3.org/2000/svg">
<path d="M8.00062 12.6268C7.86821 12.6275 7.73856 12.5888 7.62821 12.5156C7.51787 12.4424 7.43182 12.338 7.38104 12.2157C7.33026 12.0934 7.31706 11.9588 7.3431 11.829C7.36915 11.6991 7.43327 11.58 7.52729 11.4868L11.014 8.00009L7.52729 4.51342C7.40312 4.38851 7.33343 4.21954 7.33343 4.04342C7.33343 3.8673 7.40312 3.69833 7.52729 3.57342C7.58926 3.51093 7.663 3.46134 7.74424 3.42749C7.82548 3.39365 7.91261 3.37622 8.00062 3.37622C8.08863 3.37622 8.17577 3.39365 8.25701 3.42749C8.33825 3.46134 8.41198 3.51093 8.47396 3.57342L12.4273 7.52675C12.4903 7.5885 12.5404 7.66213 12.5747 7.74338C12.6091 7.82463 12.6269 7.91188 12.6273 8.00009C12.6269 8.08829 12.6091 8.17555 12.5747 8.2568C12.5404 8.33805 12.4903 8.41168 12.4273 8.47342L8.47396 12.4268C8.41221 12.4897 8.33858 12.5399 8.25733 12.5742C8.17608 12.6085 8.08883 12.6264 8.00062 12.6268Z" fill="white"/>
<path opacity="0.3" d="M11.9597 8.66683H4.03971C3.8629 8.66683 3.69333 8.59659 3.56831 8.47157C3.44328 8.34654 3.37305 8.17697 3.37305 8.00016C3.37305 7.82335 3.44328 7.65378 3.56831 7.52876C3.69333 7.40373 3.8629 7.3335 4.03971 7.3335H11.9597C12.1365 7.3335 12.3061 7.40373 12.4311 7.52876C12.5561 7.65378 12.6264 7.82335 12.6264 8.00016C12.6264 8.17697 12.5561 8.34654 12.4311 8.47157C12.3061 8.59659 12.1365 8.66683 11.9597 8.66683Z" fill="white"/>
</svg>
