<svg width="16" height="17" viewBox="0 0 16 17" fill="none" xmlns="http://www.w3.org/2000/svg">
<path d="M11.7511 13.556H10.7719C10.4963 13.5543 10.2326 13.4437 10.0384 13.2482C9.8441 13.0528 9.73508 12.7884 9.73508 12.5128V7.2904H9.20388V12.5128C9.20473 12.6495 9.17853 12.785 9.1268 12.9115C9.07508 13.0381 8.99884 13.1531 8.90248 13.2501C8.80612 13.347 8.69154 13.424 8.56533 13.4765C8.43912 13.529 8.30378 13.556 8.16708 13.556H7.19428C7.05759 13.556 6.92224 13.529 6.79603 13.4765C6.66982 13.424 6.55524 13.347 6.45888 13.2501C6.36252 13.1531 6.28628 13.0381 6.23456 12.9115C6.18283 12.785 6.15664 12.6495 6.15748 12.5128V7.2904H5.54948V12.5128C5.54952 12.652 5.52172 12.7898 5.4677 12.918C5.41368 13.0463 5.33454 13.1624 5.23494 13.2597C5.13534 13.3569 5.0173 13.4332 4.88776 13.4841C4.75823 13.535 4.61982 13.5594 4.48068 13.556H3.53348C3.39679 13.556 3.26144 13.529 3.13523 13.4765C3.00902 13.424 2.89444 13.347 2.79808 13.2501C2.70172 13.1531 2.62548 13.0381 2.57376 12.9115C2.52203 12.785 2.49584 12.6495 2.49668 12.5128V7.2904H2.18308C1.88931 7.30335 1.59939 7.21959 1.35779 7.05197C1.11618 6.88435 0.936215 6.64212 0.845481 6.3624C0.783757 6.11822 0.804225 5.86049 0.90372 5.62911C1.00321 5.39773 1.17619 5.20558 1.39588 5.0824L6.34308 1.9976C6.74563 1.75092 7.20856 1.62036 7.68068 1.62036C8.1528 1.62036 8.61573 1.75092 9.01828 1.9976L13.9655 5.0504C14.1917 5.17504 14.3691 5.37245 14.469 5.6106C14.569 5.84876 14.5855 6.11369 14.5159 6.3624C14.4251 6.64212 14.2452 6.88435 14.0036 7.05197C13.762 7.21959 13.4721 7.30335 13.1783 7.2904H12.8007V12.5128C12.8007 12.6503 12.7735 12.7865 12.7207 12.9135C12.6678 13.0405 12.5904 13.1558 12.4929 13.2527C12.3953 13.3497 12.2796 13.4264 12.1523 13.4784C12.025 13.5305 11.8886 13.5568 11.7511 13.556ZM8.72388 6.3304H10.2407C10.304 6.32954 10.3668 6.34137 10.4254 6.36519C10.484 6.38901 10.5373 6.42433 10.582 6.46908C10.6268 6.51382 10.6621 6.56708 10.6859 6.6257C10.7097 6.68433 10.7215 6.74713 10.7207 6.8104V12.5128C10.7206 12.5338 10.7285 12.5541 10.7427 12.5695C10.757 12.5849 10.7765 12.5944 10.7975 12.596H11.7767C11.7873 12.596 11.7979 12.5939 11.8076 12.5896C11.8174 12.5854 11.8262 12.5791 11.8334 12.5713C11.8406 12.5635 11.8461 12.5542 11.8496 12.5442C11.853 12.5341 11.8544 12.5234 11.8535 12.5128V6.8104C11.8535 6.6831 11.9041 6.56101 11.9941 6.47099C12.0841 6.38098 12.2062 6.3304 12.3335 6.3304H13.2039C13.4471 6.3304 13.5879 6.2152 13.6199 6.1C13.6519 5.9848 13.6199 5.9336 13.4855 5.8632L8.51268 2.8168C8.26353 2.65994 7.9751 2.57671 7.68068 2.57671C7.38626 2.57671 7.09784 2.65994 6.84868 2.8168L1.92068 5.8632C1.80548 5.9336 1.76068 6.0104 1.78628 6.1C1.81188 6.1896 1.95908 6.3304 2.20228 6.3304H2.97668C3.10399 6.3304 3.22608 6.38098 3.31609 6.47099C3.40611 6.56101 3.45668 6.6831 3.45668 6.8104V12.5128C3.45579 12.5234 3.45712 12.5341 3.46058 12.5442C3.46404 12.5542 3.46956 12.5635 3.47678 12.5713C3.484 12.5791 3.49277 12.5854 3.50253 12.5896C3.5123 12.5939 3.52283 12.596 3.53348 12.596H4.48068C4.50275 12.596 4.52391 12.5872 4.53951 12.5716C4.55512 12.556 4.56388 12.5349 4.56388 12.5128V6.8104C4.56302 6.74713 4.57485 6.68433 4.59867 6.6257C4.62248 6.56708 4.65781 6.51382 4.70255 6.46908C4.7473 6.42433 4.80055 6.38901 4.85918 6.36519C4.9178 6.34137 4.98061 6.32954 5.04388 6.3304H6.61188C6.73918 6.3304 6.86127 6.38098 6.95129 6.47099C7.04131 6.56101 7.09188 6.6831 7.09188 6.8104V12.5128C7.09099 12.5234 7.09232 12.5341 7.09578 12.5442C7.09924 12.5542 7.10476 12.5635 7.11198 12.5713C7.1192 12.5791 7.12797 12.5854 7.13773 12.5896C7.14749 12.5939 7.15803 12.596 7.16868 12.596H8.14148C8.15213 12.596 8.16267 12.5939 8.17243 12.5896C8.18219 12.5854 8.19096 12.5791 8.19818 12.5713C8.2054 12.5635 8.21092 12.5542 8.21438 12.5442C8.21784 12.5341 8.21917 12.5234 8.21828 12.5128V6.8104C8.21819 6.74516 8.2314 6.68058 8.25711 6.62061C8.28281 6.56064 8.32048 6.50654 8.3678 6.46161C8.41512 6.41669 8.4711 6.38188 8.53232 6.35932C8.59355 6.33676 8.65873 6.32692 8.72388 6.3304ZM14.0807 14.9128C14.0807 14.7855 14.0301 14.6634 13.9401 14.5734C13.8501 14.4834 13.728 14.4328 13.6007 14.4328H1.53028C1.40298 14.4328 1.28089 14.4834 1.19087 14.5734C1.10085 14.6634 1.05028 14.7855 1.05028 14.9128C1.05028 15.0401 1.10085 15.1622 1.19087 15.2522C1.28089 15.3422 1.40298 15.3928 1.53028 15.3928H13.5943C13.7222 15.3928 13.8449 15.3425 13.936 15.2526C14.027 15.1628 14.079 15.0407 14.0807 14.9128Z" fill="#00C47D"/>
</svg>
