<svg width="17" height="16" viewBox="0 0 17 16" fill="none" xmlns="http://www.w3.org/2000/svg">
<path d="M12.6817 13.0567H11.7025C11.427 13.055 11.1633 12.9444 10.969 12.7489C10.7748 12.5535 10.6657 12.2891 10.6657 12.0135V6.79114H10.1345V12.0135C10.1354 12.1502 10.1092 12.2857 10.0575 12.4123C10.0057 12.5388 9.92951 12.6539 9.83315 12.7508C9.73679 12.8478 9.6222 12.9247 9.496 12.9772C9.36979 13.0297 9.23444 13.0567 9.09775 13.0567H8.12495C7.98825 13.0567 7.8529 13.0297 7.72669 12.9772C7.60049 12.9247 7.4859 12.8478 7.38954 12.7508C7.29318 12.6539 7.21695 12.5388 7.16522 12.4123C7.1135 12.2857 7.0873 12.1502 7.08815 12.0135V6.79114H6.48015V12.0135C6.48019 12.1527 6.45238 12.2905 6.39836 12.4188C6.34434 12.547 6.2652 12.6632 6.1656 12.7604C6.06601 12.8576 5.94796 12.9339 5.81843 12.9848C5.68889 13.0357 5.55048 13.0602 5.41135 13.0567H4.46415C4.32745 13.0567 4.1921 13.0297 4.0659 12.9772C3.93969 12.9247 3.8251 12.8478 3.72875 12.7508C3.63239 12.6539 3.55615 12.5388 3.50442 12.4123C3.4527 12.2857 3.4265 12.1502 3.42735 12.0135V6.79114H3.11375C2.81997 6.80408 2.53006 6.72033 2.28845 6.55271C2.04684 6.38508 1.86688 6.14285 1.77615 5.86314C1.71442 5.61895 1.73489 5.36123 1.83438 5.12984C1.93388 4.89846 2.10685 4.70632 2.32655 4.58314L7.27375 1.49834C7.6763 1.25165 8.13922 1.12109 8.61135 1.12109C9.08347 1.12109 9.54639 1.25165 9.94895 1.49834L14.8961 4.55114C15.1223 4.67577 15.2998 4.87318 15.3997 5.11134C15.4996 5.34949 15.5161 5.61442 15.4465 5.86314C15.3558 6.14285 15.1758 6.38508 14.9342 6.55271C14.6926 6.72033 14.4027 6.80408 14.1089 6.79114H13.7313V12.0135C13.7313 12.1511 13.7042 12.2872 13.6513 12.4142C13.5985 12.5412 13.5211 12.6565 13.4235 12.7535C13.326 12.8504 13.2102 12.9271 13.0829 12.9792C12.9556 13.0312 12.8193 13.0576 12.6817 13.0567ZM9.65455 5.83114H11.1713C11.2346 5.83028 11.2974 5.8421 11.356 5.86592C11.4147 5.88974 11.4679 5.92506 11.5127 5.96981C11.5574 6.01455 11.5927 6.06781 11.6166 6.12644C11.6404 6.18506 11.6522 6.24786 11.6513 6.31114V12.0135C11.6513 12.0345 11.6592 12.0548 11.6734 12.0702C11.6877 12.0856 11.7072 12.0951 11.7281 12.0967H12.7073C12.718 12.0968 12.7285 12.0946 12.7383 12.0903C12.7481 12.0861 12.7568 12.0799 12.764 12.072C12.7713 12.0642 12.7768 12.055 12.7802 12.0449C12.7837 12.0348 12.785 12.0241 12.7841 12.0135V6.31114C12.7841 6.18383 12.8347 6.06174 12.9247 5.97173C13.0148 5.88171 13.1368 5.83114 13.2641 5.83114H14.1345C14.3777 5.83114 14.5185 5.71594 14.5505 5.60074C14.5825 5.48554 14.5505 5.43434 14.4161 5.36394L9.44335 2.31754C9.19419 2.16067 8.90577 2.07744 8.61135 2.07744C8.31692 2.07744 8.0285 2.16067 7.77935 2.31754L2.85135 5.36394C2.73615 5.43434 2.69135 5.51114 2.71695 5.60074C2.74255 5.69034 2.88975 5.83114 3.13295 5.83114H3.90735C4.03465 5.83114 4.15674 5.88171 4.24676 5.97173C4.33677 6.06174 4.38735 6.18383 4.38735 6.31114V12.0135C4.38646 12.0241 4.38779 12.0348 4.39125 12.0449C4.39471 12.055 4.40022 12.0642 4.40745 12.072C4.41467 12.0799 4.42344 12.0861 4.4332 12.0903C4.44296 12.0946 4.4535 12.0968 4.46415 12.0967H5.41135C5.43341 12.0967 5.45457 12.088 5.47018 12.0724C5.48578 12.0568 5.49455 12.0356 5.49455 12.0135V6.31114C5.49368 6.24786 5.50551 6.18506 5.52933 6.12644C5.55315 6.06781 5.58847 6.01455 5.63322 5.96981C5.67796 5.92506 5.73122 5.88974 5.78984 5.86592C5.84847 5.8421 5.91127 5.83028 5.97455 5.83114H7.54254C7.66985 5.83114 7.79194 5.88171 7.88196 5.97173C7.97197 6.06174 8.02254 6.18383 8.02254 6.31114V12.0135C8.02166 12.0241 8.02299 12.0348 8.02645 12.0449C8.02991 12.055 8.03542 12.0642 8.04264 12.072C8.04987 12.0799 8.05864 12.0861 8.0684 12.0903C8.07816 12.0946 8.0887 12.0968 8.09934 12.0967H9.07214C9.08279 12.0968 9.09333 12.0946 9.10309 12.0903C9.11285 12.0861 9.12162 12.0799 9.12885 12.072C9.13607 12.0642 9.14158 12.055 9.14504 12.0449C9.1485 12.0348 9.14983 12.0241 9.14895 12.0135V6.31114C9.14885 6.24589 9.16206 6.18131 9.18777 6.12134C9.21348 6.06137 9.25114 6.00727 9.29846 5.96234C9.34578 5.91742 9.40176 5.88262 9.46299 5.86006C9.52421 5.8375 9.58939 5.82766 9.65455 5.83114ZM15.0113 14.4135C15.0113 14.2862 14.9608 14.1641 14.8708 14.0741C14.7807 13.9841 14.6586 13.9335 14.5313 13.9335H2.46095C2.33364 13.9335 2.21155 13.9841 2.12153 14.0741C2.03152 14.1641 1.98095 14.2862 1.98095 14.4135C1.98095 14.5408 2.03152 14.6629 2.12153 14.7529C2.21155 14.843 2.33364 14.8935 2.46095 14.8935H14.5249C14.6528 14.8935 14.7756 14.8432 14.8666 14.7533C14.9577 14.6635 15.0097 14.5414 15.0113 14.4135Z" fill="#009EF7"/>
</svg>
