<svg width="18" height="21" viewBox="0 0 18 21" fill="none" xmlns="http://www.w3.org/2000/svg">
<path d="M14.8569 2.64537H14.8558H13.1464V1.93592C13.1464 1.76163 13.0488 1.6374 12.9223 1.56151C12.7987 1.48736 12.6428 1.45501 12.4989 1.45501H11.1641C10.7996 0.501394 9.94153 0.0271558 8.97724 0.0265421C8.01626 -0.008793 7.14033 0.565762 6.78745 1.45501H5.47564C5.33158 1.45501 5.18045 1.48742 5.06185 1.56289C4.93959 1.64069 4.85186 1.76548 4.85186 1.93592V2.64537H3.14244V2.64536L3.14137 2.64538C2.01614 2.65738 1.09558 3.54503 1.04269 4.66908L1.04258 4.66907V4.67378V18.3156C1.04258 19.4309 2.05308 20.2249 3.14244 20.2249H14.8558C15.9452 20.2249 16.9557 19.4309 16.9557 18.3156V4.67382H16.9558L16.9556 4.66912C16.9027 3.54503 15.9821 2.65738 14.8569 2.64537ZM11.9942 2.60731V4.31193H6.00412V2.60731H7.21356V2.60806L7.22567 2.60658C7.49699 2.57348 7.7151 2.36763 7.76392 2.09887C7.8953 1.53145 8.39301 1.12409 8.97517 1.10749C9.5514 1.12624 10.0411 1.53467 10.1629 2.09833C10.2143 2.37688 10.4471 2.58586 10.7296 2.60704L10.7296 2.60731H10.7371H11.9942ZM3.14338 3.79772H4.85182V4.91192H4.85137L4.85226 4.92131C4.88236 5.24053 5.15812 5.47954 5.47808 5.46429H12.4962C12.8196 5.48051 13.1018 5.24655 13.1455 4.92539L13.1464 4.92552V4.91192V3.79768H14.8548C15.3492 3.80718 15.7573 4.18642 15.8033 4.67833V18.3156V18.3236C15.8007 18.5451 15.6898 18.7289 15.5156 18.8609C15.3381 18.9954 15.0978 19.0727 14.8558 19.0727H3.14244C2.90043 19.0727 2.6602 18.9954 2.48263 18.8609C2.30641 18.7274 2.19489 18.5407 2.19489 18.3156V4.67837C2.2409 4.18646 2.64902 3.80718 3.14338 3.79772Z" fill="#009EF7" stroke="#009EF7" stroke-width="0.2"/>
<path d="M7.26681 10.7288C7.25674 10.7177 7.24627 10.7071 7.23554 10.6972C7.0192 10.4719 6.66228 10.4599 6.43134 10.671L6.43132 10.6709L6.42981 10.6724L4.97807 12.056L4.40455 11.4613C4.18842 11.2338 3.8299 11.2211 3.59821 11.4328L3.59805 11.4326L3.59332 11.4376C3.37202 11.6694 3.37202 12.0342 3.59332 12.2661L3.59332 12.2661L3.5941 12.2669L4.56873 13.2653C4.67267 13.3807 4.82209 13.4445 4.97736 13.4398C5.12838 13.4374 5.27241 13.3758 5.37844 13.2683L7.23359 11.5083C7.45766 11.3021 7.47256 10.9534 7.26681 10.7288ZM7.26681 10.7288C7.26692 10.7289 7.26703 10.7291 7.26713 10.7292L7.19282 10.7961L7.26649 10.7285C7.2666 10.7286 7.26671 10.7287 7.26681 10.7288Z" fill="#009EF7" stroke="#009EF7" stroke-width="0.2"/>
<path d="M13.9988 11.6925H8.52303C8.20482 11.6925 7.94687 11.9504 7.94687 12.2686C7.94687 12.5868 8.20482 12.8448 8.52303 12.8448H13.9988C14.317 12.8448 14.5749 12.5868 14.5749 12.2686C14.5749 11.9504 14.317 11.6925 13.9988 11.6925Z" fill="#009EF7" stroke="#009EF7" stroke-width="0.2"/>
<path d="M7.26681 6.91974C7.25674 6.90857 7.24627 6.89804 7.23554 6.8881C7.0192 6.66278 6.66228 6.65082 6.43134 6.86188L6.43132 6.86186L6.42981 6.86331L4.97807 8.24696L4.40455 7.65218C4.18843 7.4247 3.82991 7.41195 3.5982 7.62371L3.59804 7.62353L3.59332 7.62848C3.37202 7.86033 3.37202 8.22513 3.59332 8.45699L3.59332 8.45699L3.5941 8.4578L4.56873 9.45622C4.67267 9.57158 4.82209 9.63542 4.97736 9.63071C5.12838 9.62834 5.27241 9.56673 5.37844 9.45922L7.23359 7.69921C7.45766 7.49302 7.47256 7.14428 7.26681 6.91974ZM7.26681 6.91974C7.26692 6.91985 7.26703 6.91997 7.26713 6.92009L7.19282 6.987L7.26649 6.91939C7.2666 6.9195 7.26671 6.91962 7.26681 6.91974Z" fill="#009EF7" stroke="#009EF7" stroke-width="0.2"/>
<path d="M13.9988 7.88291H8.52303C8.20482 7.88291 7.94687 8.14086 7.94687 8.45907C7.94687 8.77727 8.20482 9.03522 8.52303 9.03522H13.9988C14.317 9.03522 14.5749 8.77727 14.5749 8.45907C14.5749 8.14086 14.317 7.88291 13.9988 7.88291Z" fill="#009EF7" stroke="#009EF7" stroke-width="0.2"/>
<path d="M6.43135 14.48L6.43133 14.48L6.42981 14.4815L4.97807 15.8651L4.40455 15.2703C4.18842 15.0428 3.8299 15.0302 3.59821 15.2418L3.59805 15.2417L3.59332 15.2466C3.37202 15.4785 3.37202 15.8433 3.59332 16.0751L3.59332 16.0751L3.5941 16.0759L4.56873 17.0744C4.67267 17.1897 4.82209 17.2536 4.97736 17.2489C5.12837 17.2465 5.2724 17.1849 5.37844 17.0774L7.23359 15.3174C7.45778 15.1111 7.47257 14.7621 7.26649 14.5375L7.19282 14.6052L7.26697 14.5381C7.25687 14.5269 7.24637 14.5163 7.23562 14.5063C7.01928 14.2809 6.66231 14.269 6.43135 14.48Z" fill="#009EF7" stroke="#009EF7" stroke-width="0.2"/>
<path d="M13.9988 15.5016H8.52303C8.20482 15.5016 7.94687 15.7595 7.94687 16.0777C7.94687 16.3959 8.20482 16.6539 8.52303 16.6539H13.9988C14.317 16.6539 14.5749 16.3959 14.5749 16.0777C14.5749 15.7595 14.317 15.5016 13.9988 15.5016Z" fill="#009EF7" stroke="#009EF7" stroke-width="0.2"/>
</svg>
