<svg width="16" height="16" viewBox="0 0 16 16" fill="none" xmlns="http://www.w3.org/2000/svg">
<path d="M11.694 2.28666V1.29333C11.6804 1.18002 11.6257 1.07562 11.5403 0.999891C11.4549 0.924159 11.3448 0.882338 11.2306 0.882338C11.1165 0.882338 11.0064 0.924159 10.921 0.999891C10.8356 1.07562 10.7809 1.18002 10.7673 1.29333V2.13999H10.554H8.59398V1.29333C8.59398 1.16956 8.54482 1.05086 8.4573 0.963344C8.36978 0.875827 8.25108 0.82666 8.12732 0.82666C8.00355 0.82666 7.88485 0.875827 7.79733 0.963344C7.70982 1.05086 7.66065 1.16956 7.66065 1.29333V2.12666H5.44732H5.23398V1.29333C5.22037 1.18002 5.1657 1.07562 5.08032 0.999891C4.99495 0.924159 4.88478 0.882338 4.77065 0.882338C4.65653 0.882338 4.54636 0.924159 4.46098 0.999891C4.3756 1.07562 4.32093 1.18002 4.30732 1.29333V2.28666C3.45108 2.53364 2.69821 3.05201 2.16198 3.76377C1.62576 4.47553 1.33518 5.34218 1.33398 6.23333V11.06C1.33752 12.1515 1.77406 13.1971 2.54777 13.967C3.32148 14.737 4.36911 15.1684 5.46065 15.1667H10.5673C11.6542 15.1614 12.695 14.7268 13.463 13.9576C14.2309 13.1884 14.6638 12.1469 14.6673 11.06V6.23333C14.6661 5.34218 14.3755 4.47553 13.8393 3.76377C13.3031 3.05201 12.5502 2.53364 11.694 2.28666ZM4.30732 3.26666V3.80666C4.32093 3.91997 4.3756 4.02436 4.46098 4.1001C4.54636 4.17583 4.65653 4.21765 4.77065 4.21765C4.88478 4.21765 4.99495 4.17583 5.08032 4.1001C5.1657 4.02436 5.22037 3.91997 5.23398 3.80666V3.07333C5.30732 3.07333 5.37398 3.07333 5.44732 3.07333H7.66065V3.80666C7.66065 3.93043 7.70982 4.04913 7.79733 4.13664C7.88485 4.22416 8.00355 4.27333 8.12732 4.27333C8.25108 4.27333 8.36978 4.22416 8.4573 4.13664C8.54482 4.04913 8.59398 3.93043 8.59398 3.80666V3.05333H10.554C10.6273 3.05333 10.694 3.05333 10.7673 3.05333V3.78666C10.7809 3.89997 10.8356 4.00436 10.921 4.0801C11.0064 4.15583 11.1165 4.19765 11.2306 4.19765C11.3448 4.19765 11.4549 4.15583 11.5403 4.0801C11.6257 4.00436 11.6804 3.89997 11.694 3.78666V3.26666C12.2179 3.47045 12.6787 3.80894 13.0299 4.24791C13.3811 4.68689 13.6102 5.21078 13.694 5.76666H2.29398C2.37901 5.20931 2.61008 4.68441 2.9637 4.24531C3.31733 3.8062 3.78091 3.46855 4.30732 3.26666ZM10.554 14.24H5.44732C4.60154 14.2418 3.78961 13.9079 3.18969 13.3118C2.58976 12.7156 2.25085 11.9058 2.24732 11.06V6.66666H13.754V11.0333C13.7557 11.4544 13.6742 11.8716 13.5141 12.261C13.354 12.6504 13.1185 13.0043 12.8211 13.3023C12.5236 13.6004 12.1702 13.8366 11.7812 13.9976C11.3921 14.1585 10.975 14.2409 10.554 14.24ZM6.39398 9.22666C6.39797 9.34214 6.36737 9.45618 6.30611 9.55416C6.24485 9.65213 6.15572 9.72957 6.05015 9.77656C5.94458 9.82354 5.82739 9.83791 5.71359 9.81784C5.5998 9.79778 5.49459 9.74417 5.41146 9.66391C5.32834 9.58365 5.27108 9.48039 5.24703 9.36737C5.22298 9.25435 5.23324 9.13672 5.27649 9.02957C5.31974 8.92242 5.39401 8.83063 5.48977 8.76597C5.58554 8.70131 5.69843 8.66673 5.81398 8.66666C5.96441 8.66657 6.10898 8.72492 6.21719 8.82941C6.32541 8.93389 6.3888 9.07633 6.39398 9.22666ZM8.56732 9.22666C8.57262 9.34452 8.54225 9.46124 8.4802 9.56159C8.41814 9.66193 8.32727 9.74123 8.21945 9.78913C8.11164 9.83704 7.99188 9.85132 7.87582 9.83012C7.75976 9.80892 7.65279 9.75322 7.56887 9.67029C7.48495 9.58736 7.42799 9.48105 7.40541 9.36525C7.38284 9.24945 7.39571 9.12953 7.44233 9.02116C7.48896 8.91278 7.56718 8.82098 7.66678 8.75774C7.76638 8.6945 7.88273 8.66276 8.00065 8.66666C8.14875 8.66998 8.28998 8.72984 8.39535 8.83397C8.50071 8.9381 8.56225 9.07861 8.56732 9.22666ZM10.754 9.22666C10.7566 9.34351 10.7243 9.45848 10.6612 9.55684C10.5981 9.6552 10.507 9.73246 10.3997 9.77872C10.2923 9.82498 10.1736 9.83812 10.0588 9.81647C9.94392 9.79481 9.83816 9.73935 9.75504 9.65718C9.67192 9.57502 9.61523 9.4699 9.59225 9.35531C9.56927 9.24071 9.58105 9.12187 9.62606 9.01401C9.67107 8.90615 9.74728 8.81419 9.8449 8.74993C9.94252 8.68567 10.0571 8.65203 10.174 8.65333C10.3267 8.65332 10.4732 8.71351 10.5818 8.82084C10.6903 8.92817 10.7522 9.07399 10.754 9.22666ZM6.38732 11.38C6.38645 11.4553 6.37075 11.5297 6.34113 11.5989C6.31151 11.6681 6.26855 11.7308 6.21469 11.7835C6.16083 11.8361 6.09713 11.8776 6.02724 11.9056C5.95734 11.9336 5.88261 11.9475 5.80732 11.9467C5.69393 11.9453 5.58349 11.9104 5.48995 11.8463C5.39641 11.7822 5.32398 11.6918 5.28181 11.5866C5.23964 11.4813 5.22963 11.3659 5.25305 11.255C5.27646 11.144 5.33225 11.0425 5.41336 10.9633C5.49446 10.884 5.59725 10.8306 5.70871 10.8098C5.82017 10.789 5.9353 10.8017 6.03955 10.8463C6.1438 10.8909 6.23249 10.9654 6.29439 11.0604C6.35629 11.1554 6.38863 11.2666 6.38732 11.38ZM8.56065 11.38C8.5633 11.4966 8.53116 11.6113 8.46833 11.7095C8.4055 11.8077 8.31482 11.885 8.20788 11.9314C8.10095 11.9779 7.98259 11.9914 7.86792 11.9703C7.75326 11.9492 7.64748 11.8944 7.5641 11.8129C7.48071 11.7314 7.4235 11.6269 7.39976 11.5128C7.37602 11.3986 7.38683 11.28 7.43082 11.172C7.4748 11.064 7.54996 10.9716 7.64671 10.9065C7.74345 10.8415 7.85739 10.8067 7.97398 10.8067C8.05039 10.8049 8.12638 10.8184 8.19749 10.8464C8.26859 10.8744 8.33338 10.9164 8.38804 10.9698C8.4427 11.0232 8.48613 11.087 8.51577 11.1575C8.54541 11.2279 8.56067 11.3036 8.56065 11.38ZM10.7473 11.38C10.75 11.4966 10.7178 11.6113 10.655 11.7095C10.5922 11.8077 10.5015 11.885 10.3946 11.9314C10.2876 11.9779 10.1693 11.9914 10.0546 11.9703C9.93992 11.9492 9.83415 11.8944 9.75076 11.8129C9.66738 11.7314 9.61016 11.6269 9.58642 11.5128C9.56269 11.3986 9.5735 11.28 9.61748 11.172C9.66147 11.064 9.73663 10.9716 9.83337 10.9065C9.93012 10.8415 10.0441 10.8067 10.1607 10.8067C10.2371 10.8049 10.313 10.8184 10.3842 10.8464C10.4553 10.8744 10.52 10.9164 10.5747 10.9698C10.6294 11.0232 10.6728 11.087 10.7024 11.1575C10.7321 11.2279 10.7473 11.3036 10.7473 11.38Z" fill="#F6C000"/>
</svg>
