<svg width="25" height="17" viewBox="0 0 25 17" fill="none" xmlns="http://www.w3.org/2000/svg">
<path opacity="0.3" d="M20.7969 0.476562H4.79688C4.76907 1.51883 4.3354 2.50905 3.58825 3.23628C2.84109 3.96351 1.83952 4.37027 0.796875 4.3699V12.1566C1.83952 12.1562 2.84109 12.5629 3.58825 13.2902C4.3354 14.0174 4.76907 15.0076 4.79688 16.0499H20.7969C20.8247 15.0076 21.2584 14.0174 22.0055 13.2902C22.7527 12.5629 23.7542 12.1562 24.7969 12.1566V4.3699C23.7542 4.37027 22.7527 3.96351 22.0055 3.23628C21.2584 2.50905 20.8247 1.51883 20.7969 0.476562Z" fill="#666666"/>
<path d="M22.1302 0.476562H20.7969C20.8247 1.51883 21.2584 2.50905 22.0055 3.23628C22.7527 3.96351 23.7542 4.37027 24.7969 4.3699V3.62323C24.8491 2.85489 24.5997 2.09647 24.1019 1.50896C23.604 0.921447 22.8967 0.551109 22.1302 0.476562Z" fill="#666666"/>
<path d="M4.79685 0.476562H3.46351C2.69702 0.551109 1.98976 0.921447 1.49187 1.50896C0.993983 2.09647 0.744665 2.85489 0.796847 3.62323V4.3699C1.83949 4.37027 2.84107 3.96351 3.58822 3.23628C4.33537 2.50905 4.76904 1.51883 4.79685 0.476562Z" fill="#666666"/>
<path d="M20.7969 16.0496H22.1302C22.8967 15.975 23.604 15.6047 24.1019 15.0172C24.5997 14.4297 24.8491 13.6713 24.7969 12.9029V12.1563C23.7542 12.1559 22.7527 12.5626 22.0055 13.2899C21.2584 14.0171 20.8247 15.0073 20.7969 16.0496Z" fill="#666666"/>
<path d="M0.796847 12.1563V12.9029C0.744665 13.6713 0.993983 14.4297 1.49187 15.0172C1.98976 15.6047 2.69702 15.975 3.46351 16.0496H4.79685C4.76904 15.0073 4.33537 14.0171 3.58822 13.2899C2.84107 12.5626 1.83949 12.1559 0.796847 12.1563Z" fill="#666666"/>
<path d="M12.7969 12.7042C15.006 12.7042 16.7969 10.7164 16.7969 8.26422C16.7969 5.81207 15.006 3.82422 12.7969 3.82422C10.5877 3.82422 8.79688 5.81207 8.79688 8.26422C8.79688 10.7164 10.5877 12.7042 12.7969 12.7042Z" fill="#666666"/>
</svg>
