<svg width="22" height="22" viewBox="0 0 22 22" fill="none" xmlns="http://www.w3.org/2000/svg">
<path d="M7.08453 1.81494H4.4262C2.99348 1.81494 1.83203 2.97639 1.83203 4.40911V7.06744C1.83203 8.50016 2.99348 9.66161 4.4262 9.66161H7.08453C8.51725 9.66161 9.6787 8.50016 9.6787 7.06744V4.40911C9.6787 2.97639 8.51725 1.81494 7.08453 1.81494Z" fill="#999999"/>
<path opacity="0.3" d="M17.5709 1.84253H14.9125C13.4798 1.84253 12.3184 3.00398 12.3184 4.4367V7.09503C12.3184 8.52775 13.4798 9.6892 14.9125 9.6892H17.5709C19.0036 9.6892 20.165 8.52775 20.165 7.09503V4.4367C20.165 3.00398 19.0036 1.84253 17.5709 1.84253Z" fill="#999999"/>
<path opacity="0.3" d="M7.08453 12.3108H4.4262C2.99348 12.3108 1.83203 13.4722 1.83203 14.905V17.5633C1.83203 18.996 2.99348 20.1575 4.4262 20.1575H7.08453C8.51725 20.1575 9.6787 18.996 9.6787 17.5633V14.905C9.6787 13.4722 8.51725 12.3108 7.08453 12.3108Z" fill="#999999"/>
<path d="M17.5709 12.3384H14.9125C13.4798 12.3384 12.3184 13.4998 12.3184 14.9325V17.5909C12.3184 19.0236 13.4798 20.185 14.9125 20.185H17.5709C19.0036 20.185 20.165 19.0236 20.165 17.5909V14.9325C20.165 13.4998 19.0036 12.3384 17.5709 12.3384Z" fill="#999999"/>
</svg>
