<svg width="35" height="35" viewBox="0 0 35 35" fill="none" xmlns="http://www.w3.org/2000/svg">
<path d="M32.0837 17.4993C32.0837 20.3837 31.2284 23.2032 29.6259 25.6014C28.0235 27.9996 25.7459 29.8688 23.0811 30.9726C20.4164 32.0764 17.4842 32.3652 14.6553 31.8025C11.8264 31.2398 9.22787 29.8508 7.18836 27.8113C5.14884 25.7718 3.75991 23.1733 3.19721 20.3444C2.63451 17.5155 2.92331 14.5833 4.02709 11.9185C5.13087 9.25379 7.00005 6.97619 9.39827 5.37375C11.7965 3.77131 14.616 2.91602 17.5003 2.91602C19.4154 2.91602 21.3118 3.29322 23.0811 4.02611C24.8505 4.75899 26.4581 5.83319 27.8123 7.18738C29.1665 8.54156 30.2407 10.1492 30.9736 11.9185C31.7065 13.6879 32.0837 15.5842 32.0837 17.4993ZM17.0628 22.9098L25.8128 14.1598C26.0844 13.8865 26.2369 13.5169 26.2369 13.1316C26.2369 12.7464 26.0844 12.3768 25.8128 12.1035C25.5396 11.8319 25.17 11.6794 24.7847 11.6794C24.3994 11.6794 24.0298 11.8319 23.7566 12.1035L16.042 19.8181L11.2295 15.0056C10.9568 14.731 10.5862 14.5759 10.1992 14.5746C9.81225 14.5732 9.44057 14.7256 9.16596 14.9983C8.89135 15.271 8.7363 15.6416 8.73494 16.0286C8.73357 16.4156 8.88599 16.7872 9.15867 17.0618L14.992 22.8952C15.1266 23.0328 15.2871 23.1425 15.4643 23.2178C15.6415 23.293 15.8319 23.3325 16.0244 23.3339C16.2169 23.3352 16.4078 23.2984 16.586 23.2257C16.7642 23.1529 16.9263 23.0455 17.0628 22.9098Z" fill="#00C47D"/>
</svg>
