<svg width="28" height="20" viewBox="0 0 28 20" fill="none" xmlns="http://www.w3.org/2000/svg">
<path d="M22.1572 8.38672H0.463867V10.9867H22.1572V8.38672Z" fill="#666666"/>
<path opacity="0.3" d="M18.7972 4.5625H3.82387C1.96819 4.5625 0.463867 6.06682 0.463867 7.9225V16.3892C0.463867 18.2448 1.96819 19.7492 3.82387 19.7492H18.7972C20.6529 19.7492 22.1572 18.2448 22.1572 16.3892V7.9225C22.1572 6.06682 20.6529 4.5625 18.7972 4.5625Z" fill="#666666"/>
<path d="M23.7708 0.253906H8.7975C7.90637 0.253906 7.05174 0.607905 6.42162 1.23803C5.7915 1.86815 5.4375 2.72278 5.4375 3.61391V4.56057H18.7708C19.662 4.56057 20.5166 4.91457 21.1467 5.54469C21.7768 6.17482 22.1308 7.02944 22.1308 7.92057V15.4406H23.7442C24.1876 15.4441 24.6274 15.3598 25.0382 15.1925C25.4489 15.0252 25.8225 14.7783 26.1373 14.4659C26.4521 14.1536 26.702 13.782 26.8725 13.3726C27.0431 12.9632 27.1308 12.5241 27.1308 12.0806V3.61391C27.1308 2.72278 26.7768 1.86815 26.1467 1.23803C25.5166 0.607905 24.662 0.253906 23.7708 0.253906Z" fill="#666666"/>
<path d="M18.7305 15.7461H17.1172C16.852 15.7461 16.5976 15.6407 16.4101 15.4532C16.2225 15.2657 16.1172 15.0113 16.1172 14.7461C16.1172 14.4809 16.2225 14.2265 16.4101 14.039C16.5976 13.8514 16.852 13.7461 17.1172 13.7461H18.7305C18.9957 13.7461 19.2501 13.8514 19.4376 14.039C19.6252 14.2265 19.7305 14.4809 19.7305 14.7461C19.7305 15.0113 19.6252 15.2657 19.4376 15.4532C19.2501 15.6407 18.9957 15.7461 18.7305 15.7461Z" fill="#666666"/>
<path d="M7.73063 15.7461H3.89063C3.62541 15.7461 3.37105 15.6407 3.18352 15.4532C2.99598 15.2657 2.89062 15.0113 2.89062 14.7461C2.89062 14.4809 2.99598 14.2265 3.18352 14.039C3.37105 13.8514 3.62541 13.7461 3.89063 13.7461H7.73063C7.99584 13.7461 8.2502 13.8514 8.43773 14.039C8.62527 14.2265 8.73063 14.4809 8.73063 14.7461C8.73063 15.0113 8.62527 15.2657 8.43773 15.4532C8.2502 15.6407 7.99584 15.7461 7.73063 15.7461Z" fill="#666666"/>
</svg>
