<svg width="24" height="24" viewBox="0 0 24 24" fill="none" xmlns="http://www.w3.org/2000/svg">
<path d="M16.9997 16.9301C16.8123 17.1163 16.5589 17.2209 16.2947 17.2209C16.0305 17.2209 15.7771 17.1163 15.5897 16.9301L7.0497 8.49009C6.95598 8.39713 6.88158 8.28653 6.83081 8.16467C6.78004 8.04281 6.75391 7.9121 6.75391 7.78009C6.75391 7.64808 6.78004 7.51737 6.83081 7.39551C6.88158 7.27365 6.95598 7.16305 7.0497 7.07009C7.23707 6.88384 7.49052 6.7793 7.7547 6.7793C8.01889 6.7793 8.27234 6.88384 8.4597 7.07009L16.9997 15.5101C17.0934 15.6031 17.1678 15.7137 17.2186 15.8355C17.2694 15.9574 17.2955 16.0881 17.2955 16.2201C17.2955 16.3521 17.2694 16.4828 17.2186 16.6047C17.1678 16.7265 17.0934 16.8371 16.9997 16.9301Z" fill="#666666"/>
<path opacity="0.3" d="M8.46041 17.0002C8.26945 17.1938 8.00941 17.3036 7.73748 17.3055C7.46555 17.3073 7.20402 17.2011 7.01041 17.0102C6.8168 16.8192 6.70698 16.5592 6.7051 16.2872C6.70323 16.0153 6.80945 15.7538 7.00041 15.5602L15.5404 7.00015C15.7314 6.80655 15.9914 6.69672 16.2633 6.69485C16.5353 6.69297 16.7968 6.7992 16.9904 6.99015C17.184 7.18111 17.2938 7.44115 17.2957 7.71308C17.2976 7.98501 17.1914 8.24655 17.0004 8.44015L8.46041 17.0002Z" fill="#666666"/>
</svg>
