<svg width="20" height="21" viewBox="0 0 20 21" fill="none" xmlns="http://www.w3.org/2000/svg">
<path d="M8.9285 2.28564H2.14279C1.94636 2.28564 1.78564 2.44636 1.78564 2.64279V9.4285C1.78564 9.62493 1.94636 9.78564 2.14279 9.78564H8.9285C9.12493 9.78564 9.28564 9.62493 9.28564 9.4285V2.64279C9.28564 2.44636 9.12493 2.28564 8.9285 2.28564ZM7.76779 8.26779H3.3035V3.8035H7.76779V8.26779ZM17.8571 2.28564H11.0714C10.8749 2.28564 10.7142 2.44636 10.7142 2.64279V9.4285C10.7142 9.62493 10.8749 9.78564 11.0714 9.78564H17.8571C18.0535 9.78564 18.2142 9.62493 18.2142 9.4285V2.64279C18.2142 2.44636 18.0535 2.28564 17.8571 2.28564ZM16.6964 8.26779H12.2321V3.8035H16.6964V8.26779ZM8.9285 11.2142H2.14279C1.94636 11.2142 1.78564 11.3749 1.78564 11.5714V18.3571C1.78564 18.5535 1.94636 18.7142 2.14279 18.7142H8.9285C9.12493 18.7142 9.28564 18.5535 9.28564 18.3571V11.5714C9.28564 11.3749 9.12493 11.2142 8.9285 11.2142ZM7.76779 17.1964H3.3035V12.7321H7.76779V17.1964ZM17.8571 11.2142H11.0714C10.8749 11.2142 10.7142 11.3749 10.7142 11.5714V18.3571C10.7142 18.5535 10.8749 18.7142 11.0714 18.7142H17.8571C18.0535 18.7142 18.2142 18.5535 18.2142 18.3571V11.5714C18.2142 11.3749 18.0535 11.2142 17.8571 11.2142ZM16.6964 17.1964H12.2321V12.7321H16.6964V17.1964Z" fill="#A1A5B7"/>
</svg>
