<svg width="76" height="77" viewBox="0 0 76 77" fill="none" xmlns="http://www.w3.org/2000/svg">
<circle cx="38" cy="38.7383" r="38" fill="#FFF5F8"/>
<g opacity="0.3">
<path d="M44.7737 56.0812L31.5612 56.2387C30.4166 56.2549 29.3093 55.8324 28.4664 55.0579C27.6235 54.2834 27.1091 53.2156 27.0287 52.0737L25.7512 33.8037C25.7317 33.5364 25.7682 33.268 25.8583 33.0156C25.9485 32.7632 26.0904 32.5324 26.2749 32.3381C26.4594 32.1437 26.6824 31.99 26.9298 31.8867C27.1771 31.7835 27.4433 31.7331 27.7112 31.7387H48.2912C48.5576 31.7333 48.8222 31.7833 49.0682 31.8854C49.3143 31.9876 49.5365 32.1397 49.7207 32.3322C49.905 32.5246 50.0472 32.7532 50.1385 33.0035C50.2299 33.2538 50.2682 33.5203 50.2512 33.7862L49.2187 51.8462C49.1564 52.9854 48.6617 54.0578 47.8357 54.8448C47.0097 55.6318 45.9146 56.074 44.7737 56.0812Z" fill="#EC305E"/>
</g>
<path d="M41.9027 41.5391H34.0977C33.7496 41.5391 33.4157 41.4008 33.1696 41.1546C32.9234 40.9085 32.7852 40.5747 32.7852 40.2266C32.7852 39.8785 32.9234 39.5446 33.1696 39.2985C33.4157 39.0523 33.7496 38.9141 34.0977 38.9141H41.9027C42.2508 38.9141 42.5846 39.0523 42.8307 39.2985C43.0769 39.5446 43.2152 39.8785 43.2152 40.2266C43.2152 40.5747 43.0769 40.9085 42.8307 41.1546C42.5846 41.4008 42.2508 41.5391 41.9027 41.5391Z" fill="#EC305E"/>
<path d="M40.5379 48.0117H35.4629C35.1148 48.0117 34.781 47.8734 34.5348 47.6273C34.2887 47.3812 34.1504 47.0473 34.1504 46.6992C34.1504 46.3511 34.2887 46.0173 34.5348 45.7711C34.781 45.525 35.1148 45.3867 35.4629 45.3867H40.5379C40.886 45.3867 41.2198 45.525 41.466 45.7711C41.7121 46.0173 41.8504 46.3511 41.8504 46.6992C41.8504 47.0473 41.7121 47.3812 41.466 47.6273C41.2198 47.8734 40.886 48.0117 40.5379 48.0117Z" fill="#EC305E"/>
<path d="M52.4379 30.2678H52.2454C42.799 28.9689 33.2193 28.9689 23.7729 30.2678C23.4345 30.3124 23.0921 30.2233 22.8182 30.0196C22.5444 29.8159 22.3606 29.5135 22.306 29.1766C22.2514 28.8397 22.3301 28.4948 22.5256 28.2149C22.721 27.9351 23.0178 27.7425 23.3529 27.6778C33.0642 26.3105 42.9192 26.3105 52.6304 27.6778C52.954 27.7309 53.2459 27.9032 53.4488 28.1608C53.6517 28.4184 53.7508 28.7426 53.7267 29.0696C53.7026 29.3966 53.5569 29.7027 53.3184 29.9277C53.0799 30.1527 52.7658 30.2803 52.4379 30.2853V30.2678Z" fill="#EC305E"/>
<path d="M45 27.9583H31L31.7875 23.8983C31.9278 23.1609 32.3174 22.4941 32.8909 22.0099C33.4644 21.5256 34.187 21.2531 34.9375 21.2383H41.115C41.8791 21.2412 42.6185 21.51 43.206 21.9986C43.7936 22.4871 44.1927 23.165 44.335 23.9158L45 27.9583Z" fill="#EC305E"/>
</svg>
