<svg width="12" height="14" viewBox="0 0 12 14" fill="none" xmlns="http://www.w3.org/2000/svg">
<path opacity="0.3" d="M10.1333 3.66602H1.86667C0.835735 3.66602 0 4.50175 0 5.53268V9.13268C0 10.1636 0.835735 10.9993 1.86667 10.9993H10.1333C11.1643 10.9993 12 10.1636 12 9.13268V5.53268C12 4.50175 11.1643 3.66602 10.1333 3.66602Z" fill="#009EF7"/>
<path d="M4.83268 0.333008H7.17268C7.74616 0.334772 8.29555 0.563824 8.70044 0.969962C9.10533 1.3761 9.33268 1.92619 9.33268 2.49967V3.66634H2.66602V2.49967C2.66602 1.92504 2.89429 1.37394 3.30062 0.96761C3.70695 0.561281 4.25805 0.333008 4.83268 0.333008Z" fill="#009EF7"/>
<path d="M3.33398 9H8.66732V11.6133C8.66732 12.1579 8.45098 12.6802 8.06591 13.0653C7.68084 13.4503 7.15856 13.6667 6.61398 13.6667H5.38732C4.84274 13.6667 4.32047 13.4503 3.93539 13.0653C3.55032 12.6802 3.33398 12.1579 3.33398 11.6133V9Z" fill="#009EF7"/>
<path d="M4.66602 6.83301H2.66602C2.53341 6.83301 2.40623 6.78033 2.31246 6.68656C2.21869 6.59279 2.16602 6.46562 2.16602 6.33301C2.16602 6.2004 2.21869 6.07322 2.31246 5.97945C2.40623 5.88569 2.53341 5.83301 2.66602 5.83301H4.66602C4.79862 5.83301 4.9258 5.88569 5.01957 5.97945C5.11334 6.07322 5.16602 6.2004 5.16602 6.33301C5.16602 6.46562 5.11334 6.59279 5.01957 6.68656C4.9258 6.78033 4.79862 6.83301 4.66602 6.83301Z" fill="#009EF7"/>
<path d="M9.33268 9.5H2.66602C2.53341 9.5 2.40623 9.44732 2.31246 9.35355C2.21869 9.25978 2.16602 9.13261 2.16602 9C2.16602 8.86739 2.21869 8.74022 2.31246 8.64645C2.40623 8.55268 2.53341 8.5 2.66602 8.5H9.33268C9.46529 8.5 9.59247 8.55268 9.68624 8.64645C9.78 8.74022 9.83268 8.86739 9.83268 9C9.83268 9.13261 9.78 9.25978 9.68624 9.35355C9.59247 9.44732 9.46529 9.5 9.33268 9.5Z" fill="#009EF7"/>
</svg>
