<svg width="17" height="17" viewBox="0 0 17 17" fill="none" xmlns="http://www.w3.org/2000/svg">
<g clip-path="url(#clip0_350_16980)">
<path d="M7.5598 11.8335C7.38396 11.831 7.21622 11.7591 7.09314 11.6335L4.03314 8.55351C3.97065 8.49153 3.92105 8.4178 3.88721 8.33656C3.85336 8.25532 3.83594 8.16818 3.83594 8.08018C3.83594 7.99217 3.85336 7.90503 3.88721 7.82379C3.92105 7.74255 3.97065 7.66882 4.03314 7.60684C4.15804 7.48268 4.32701 7.41298 4.50314 7.41298C4.67926 7.41298 4.84823 7.48268 4.97314 7.60684L7.5598 10.1935L12.0065 5.74684C12.132 5.62131 12.3023 5.55078 12.4798 5.55078C12.6573 5.55078 12.8276 5.62131 12.9531 5.74684C13.0787 5.87238 13.1492 6.04264 13.1492 6.22018C13.1492 6.39771 13.0787 6.56797 12.9531 6.69351L8.03314 11.6068C7.97368 11.6747 7.90107 11.7298 7.81971 11.7687C7.73835 11.8077 7.64993 11.8297 7.5598 11.8335Z" fill="white"/>
<path opacity="0.3" d="M10.7735 11.8342C10.5977 11.8317 10.4299 11.7598 10.3068 11.6342L7.24684 8.58083C7.12131 8.45529 7.05078 8.28503 7.05078 8.10749C7.05078 7.92996 7.12131 7.7597 7.24684 7.63416C7.37238 7.50862 7.54264 7.4381 7.72018 7.4381C7.89771 7.4381 8.06797 7.50862 8.19351 7.63416L10.7735 10.2208L15.2202 5.77416C15.3472 5.67591 15.5053 5.62679 15.6656 5.63582C15.826 5.64486 15.9776 5.71144 16.0928 5.82334C16.2079 5.93524 16.2788 6.08494 16.2924 6.24492C16.306 6.4049 16.2614 6.56442 16.1668 6.69416L11.2468 11.6075C11.1874 11.6753 11.1148 11.7304 11.0334 11.7694C10.9521 11.8083 10.8636 11.8304 10.7735 11.8342Z" fill="white"/>
</g>
<defs>
<clipPath id="clip0_350_16980">
<rect width="16" height="16" fill="white" transform="translate(0.5 0.5)"/>
</clipPath>
</defs>
</svg>
