<svg width="25" height="25" viewBox="0 0 25 25" fill="none" xmlns="http://www.w3.org/2000/svg">
<path d="M12.83 19.4998C12.5677 19.4987 12.3163 19.3945 12.13 19.2098L6.13003 13.2098C5.95378 13.0163 5.86043 12.7613 5.87003 12.4998C5.86927 12.3682 5.89449 12.2377 5.94426 12.1159C5.99402 11.994 6.06735 11.8832 6.16003 11.7898L12.16 5.78977C12.3513 5.62595 12.5974 5.54034 12.8491 5.55006C13.1008 5.55978 13.3395 5.66412 13.5176 5.84221C13.6957 6.0203 13.8 6.25904 13.8097 6.51072C13.8195 6.7624 13.7339 7.00847 13.57 7.19977L8.28003 12.4998L13.54 17.7598C13.7263 17.9471 13.8308 18.2006 13.8308 18.4648C13.8308 18.729 13.7263 18.9824 13.54 19.1698C13.45 19.2697 13.3407 19.3504 13.2187 19.4071C13.0967 19.4639 12.9645 19.4954 12.83 19.4998Z" fill="#666666"/>
<path opacity="0.3" d="M18.2 19.5C17.9377 19.4989 17.6863 19.3947 17.5 19.21L11.5 13.21C11.4074 13.1165 11.334 13.0057 11.2843 12.8839C11.2345 12.762 11.2093 12.6316 11.21 12.5C11.2093 12.3684 11.2345 12.2379 11.2843 12.1161C11.334 11.9942 11.4074 11.8834 11.5 11.79L17.5 5.78997C17.5897 5.68529 17.7 5.60027 17.8241 5.54025C17.9481 5.48022 18.0833 5.44649 18.221 5.44117C18.3587 5.43586 18.496 5.45906 18.6244 5.50934C18.7527 5.55961 18.8692 5.63587 18.9667 5.73332C19.0641 5.83078 19.1404 5.94732 19.1907 6.07565C19.2409 6.20398 19.2642 6.34131 19.2588 6.47903C19.2535 6.61675 19.2198 6.75188 19.1598 6.87594C19.0997 7.00001 19.0147 7.11033 18.91 7.19997L13.7 12.5L18.96 17.76C19.1463 17.9473 19.2508 18.2008 19.2508 18.465C19.2508 18.7292 19.1463 18.9826 18.96 19.17C18.8643 19.2761 18.7469 19.3605 18.6158 19.4174C18.4847 19.4743 18.3429 19.5025 18.2 19.5Z" fill="#666666"/>
</svg>
