<svg width="25" height="25" viewBox="0 0 25 25" fill="none" xmlns="http://www.w3.org/2000/svg">
<path d="M12.37 19.4998C12.6324 19.4987 12.8838 19.3945 13.07 19.2098L19.07 13.2098C19.2463 13.0163 19.3396 12.7613 19.33 12.4998C19.3308 12.3682 19.3056 12.2377 19.2558 12.1159C19.206 11.994 19.1327 11.8832 19.04 11.7898L13.04 5.78977C12.8487 5.62595 12.6026 5.54034 12.351 5.55006C12.0993 5.55978 11.8605 5.66412 11.6825 5.84221C11.5044 6.0203 11.4 6.25904 11.3903 6.51072C11.3806 6.7624 11.4662 7.00847 11.63 7.19977L16.92 12.4998L11.66 17.7598C11.4738 17.9471 11.3692 18.2006 11.3692 18.4648C11.3692 18.729 11.4738 18.9824 11.66 19.1698C11.7501 19.2697 11.8594 19.3504 11.9814 19.4071C12.1034 19.4639 12.2356 19.4954 12.37 19.4998Z" fill="#666666"/>
<path opacity="0.3" d="M6.99997 19.5C7.26231 19.4989 7.51371 19.3947 7.69997 19.21L13.7 13.21C13.7927 13.1165 13.866 13.0057 13.9157 12.8839C13.9655 12.762 13.9907 12.6316 13.99 12.5C13.9907 12.3684 13.9655 12.2379 13.9157 12.1161C13.866 11.9942 13.7927 11.8834 13.7 11.79L7.69997 5.78997C7.61033 5.68529 7.50001 5.60027 7.37594 5.54025C7.25188 5.48022 7.11675 5.44649 6.97903 5.44117C6.84131 5.43586 6.70398 5.45906 6.57565 5.50934C6.44733 5.55961 6.33078 5.63587 6.23332 5.73332C6.13587 5.83078 6.05961 5.94732 6.00934 6.07565C5.95906 6.20398 5.93586 6.34131 5.94118 6.47903C5.9465 6.61675 5.98022 6.75188 6.04025 6.87594C6.10027 7.00001 6.18529 7.11033 6.28997 7.19997L11.5 12.5L6.23997 17.76C6.05372 17.9473 5.94918 18.2008 5.94918 18.465C5.94918 18.7292 6.05372 18.9826 6.23997 19.17C6.33571 19.2761 6.45309 19.3605 6.58419 19.4174C6.71529 19.4743 6.85707 19.5025 6.99997 19.5Z" fill="#666666"/>
</svg>
