<svg width="24" height="24" viewBox="0 0 24 24" fill="none" xmlns="http://www.w3.org/2000/svg">
<path opacity="0.3" d="M21.4 8.35009L19.25 10.5101L13.49 4.75009L15.65 2.60009C15.8366 2.40652 16.0603 2.25256 16.3077 2.1474C16.5551 2.04224 16.8212 1.98804 17.09 1.98804C17.3589 1.98804 17.625 2.04224 17.8724 2.1474C18.1198 2.25256 18.3435 2.40652 18.5301 2.60009L21.4 5.47009C21.5936 5.65666 21.7476 5.88033 21.8527 6.12775C21.9579 6.37517 22.0121 6.64125 22.0121 6.91009C22.0121 7.17893 21.9579 7.44501 21.8527 7.69243C21.7476 7.93984 21.5936 8.16352 21.4 8.35009ZM3.69005 21.9301L9.89005 19.8701L4.13005 14.1101L2.07005 20.3101C1.99455 20.5357 1.98344 20.778 2.03798 21.0096C2.09252 21.2412 2.21055 21.4531 2.37881 21.6213C2.54707 21.7896 2.7589 21.9076 2.99053 21.9622C3.22215 22.0167 3.46439 22.0056 3.69005 21.9301Z" fill="#666666"/>
<path d="M5.57005 21.3L3.69005 21.93C3.46439 22.0055 3.22215 22.0166 2.99053 21.9621C2.7589 21.9075 2.54707 21.7895 2.37881 21.6212C2.21055 21.453 2.09252 21.2411 2.03798 21.0095C1.98344 20.7779 1.99455 20.5357 2.07005 20.31L2.70005 18.43L5.57005 21.3ZM4.13005 14.11L9.89005 19.87L19.25 10.51L13.49 4.75L4.13005 14.11Z" fill="#666666"/>
</svg>
