<svg width="34" height="34" viewBox="0 0 34 34" fill="none" xmlns="http://www.w3.org/2000/svg">
<rect width="34.0069" height="33.9969" rx="4" fill="#FFE9ED"/>
<path opacity="0.3" d="M15.3174 25.5136L9.82685 22.3391C9.27069 22.0191 8.80886 21.558 8.48808 21.0023C8.16729 20.4467 7.99893 19.8161 8.00001 19.1745V12.8255C7.99893 12.1839 8.16729 11.5533 8.48808 10.9977C8.80886 10.442 9.27069 9.98088 9.82685 9.66095L15.3174 6.48643C15.8735 6.1677 16.5033 6 17.1442 6C17.7852 6 18.415 6.1677 18.9711 6.48643L24.4616 9.66095C25.0177 9.98088 25.4796 10.442 25.8003 10.9977C26.1211 11.5533 26.2895 12.1839 26.2884 12.8255V19.1745C26.2895 19.8161 26.1211 20.4467 25.8003 21.0023C25.4796 21.558 25.0177 22.0191 24.4616 22.3391L18.9711 25.5136C18.415 25.8323 17.7852 26 17.1442 26C16.5033 26 15.8735 25.8323 15.3174 25.5136V25.5136Z" fill="#EC305E"/>
<path d="M21.2367 19.7197C21.0868 19.8601 20.884 19.9389 20.6727 19.9389C20.4613 19.9389 20.2586 19.8601 20.1087 19.7197L13.2767 13.3563C13.2017 13.2862 13.1422 13.2028 13.1016 13.1109C13.0609 13.019 13.04 12.9205 13.04 12.821C13.04 12.7214 13.0609 12.6229 13.1016 12.531C13.1422 12.4391 13.2017 12.3557 13.2767 12.2857V12.2857C13.4266 12.1452 13.6293 12.0664 13.8407 12.0664C14.052 12.0664 14.2548 12.1452 14.4047 12.2857L21.2367 18.6491C21.3117 18.7192 21.3712 18.8025 21.4118 18.8944C21.4524 18.9863 21.4733 19.0848 21.4733 19.1844C21.4733 19.2839 21.4524 19.3825 21.4118 19.4743C21.3712 19.5662 21.3117 19.6496 21.2367 19.7197V19.7197Z" fill="#EC305E"/>
<path d="M14.4043 19.7698C14.2515 19.9158 14.0435 19.9986 13.8259 20C13.6084 20.0014 13.3991 19.9213 13.2443 19.7773C13.0894 19.6334 13.0015 19.4373 13 19.2323C12.9985 19.0273 13.0835 18.8301 13.2363 18.6841L20.0683 12.2302C20.221 12.0842 20.4291 12.0014 20.6466 12C20.8641 11.9986 21.0734 12.0787 21.2283 12.2227C21.3831 12.3666 21.471 12.5627 21.4725 12.7677C21.474 12.9727 21.389 13.1699 21.2363 13.3159L14.4043 19.7698Z" fill="#EC305E"/>
</svg>
