<svg width="17" height="16" viewBox="0 0 17 16" fill="none" xmlns="http://www.w3.org/2000/svg">
<path opacity="0.3" d="M4.52547 10.3C3.82517 10.2688 3.16533 9.96307 2.68872 9.44903C2.21212 8.935 1.95708 8.25396 1.9788 7.55331V4.66664C1.94989 3.96147 2.2017 3.27358 2.67906 2.75373C3.15642 2.23389 3.82039 1.92448 4.52547 1.89331H12.5255C13.2317 1.92276 13.8974 2.23143 14.3762 2.75146C14.855 3.2715 15.1077 3.96036 15.0788 4.66664V7.57998C15.0934 8.27719 14.8342 8.95237 14.357 9.46081C13.8797 9.96925 13.2222 10.2705 12.5255 10.3H4.52547Z" fill="white"/>
<path d="M8.02522 5.79321V12.3999L6.93188 11.3332C6.83813 11.2396 6.71105 11.187 6.57855 11.187C6.44605 11.187 6.31897 11.2396 6.22522 11.3332C6.17805 11.3792 6.14056 11.4341 6.11496 11.4948C6.08936 11.5555 6.07617 11.6207 6.07617 11.6865C6.07617 11.7524 6.08936 11.8176 6.11496 11.8783C6.14056 11.939 6.17805 11.9939 6.22522 12.0399L8.17189 13.9932C8.26564 14.0868 8.39272 14.1394 8.52522 14.1394C8.65772 14.1394 8.7848 14.0868 8.87855 13.9932L10.8252 11.9999C10.8723 11.9539 10.9095 11.899 10.9347 11.8382C10.9599 11.7775 10.9726 11.7123 10.9719 11.6465C10.9722 11.5809 10.9594 11.5158 10.9342 11.4551C10.909 11.3944 10.872 11.3394 10.8252 11.2932C10.7315 11.1996 10.6044 11.147 10.4719 11.147C10.3394 11.147 10.2123 11.1996 10.1186 11.2932L9.02522 12.3999V5.79321C9.02522 5.6606 8.97254 5.53343 8.87877 5.43966C8.785 5.34589 8.65783 5.29321 8.52522 5.29321C8.39261 5.29321 8.26543 5.34589 8.17167 5.43966C8.0779 5.53343 8.02522 5.6606 8.02522 5.79321Z" fill="white"/>
</svg>
