<svg width="20" height="21" viewBox="0 0 20 21" fill="none" xmlns="http://www.w3.org/2000/svg">
<g clip-path="url(#clip0_78_2480)">
<path d="M3.67932 2.76057C7.60733 -0.457813 13.4128 -0.233733 17.0794 3.43283C20.9846 7.33808 20.9846 13.6697 17.0794 17.575C13.1741 21.4802 6.84247 21.4802 2.93723 17.575C0.412737 15.0505 -0.479823 11.512 0.259527 8.27056L0.336167 7.95784L2.2706 8.46705C1.57309 11.1269 2.26671 14.076 4.35144 16.1608C7.47563 19.2849 12.5409 19.2849 15.6651 16.1608C18.7893 13.0366 18.7893 7.97124 15.6651 4.84705C12.8475 2.02941 8.45091 1.75294 5.32347 4.01765L5.10227 4.18373L6.11921 5.2006L1.52302 6.26126L2.58367 1.66508L3.67932 2.76057ZM11.0083 4.5039V6.5039H13.5083V8.5039H8.00831C7.73215 8.5039 7.50829 8.7278 7.50829 9.0039C7.50829 9.2494 7.68517 9.4535 7.91842 9.4958L8.00831 9.5039H12.0083C13.389 9.5039 14.5083 10.6232 14.5083 12.0039C14.5083 13.3846 13.389 14.5039 12.0083 14.5039H11.0083V16.5039H9.00831V14.5039H6.50829V12.5039H12.0083C12.2844 12.5039 12.5083 12.28 12.5083 12.0039C12.5083 11.7584 12.3314 11.5543 12.0982 11.512L12.0083 11.5039H8.00831C6.62758 11.5039 5.50829 10.3846 5.50829 9.0039C5.50829 7.62319 6.62758 6.5039 8.00831 6.5039H9.00831V4.5039H11.0083Z" fill="#009EF7"/>
</g>
<defs>
<clipPath id="clip0_78_2480">
<rect width="20" height="20" fill="white" transform="translate(0 0.5)"/>
</clipPath>
</defs>
</svg>
