<svg width="20" height="21" viewBox="0 0 20 21" fill="none" xmlns="http://www.w3.org/2000/svg">
<g clip-path="url(#clip0_78_2476)">
<path d="M3.67536 2.75663C7.60331 -0.461704 13.4087 -0.237628 17.0752 3.42888C20.9804 7.33407 20.9804 13.6656 17.0752 17.5708C13.17 21.476 6.83846 21.476 2.93328 17.5708C0.408824 15.0464 -0.483722 11.5079 0.255616 8.26653L0.332255 7.95382L2.26665 8.46302C1.56916 11.1228 2.26276 14.0719 4.34747 16.1566C7.47161 19.2807 12.5368 19.2807 15.661 16.1566C18.7851 13.0325 18.7851 7.96722 15.661 4.84308C12.8434 2.02548 8.44687 1.74901 5.31948 4.01369L5.09829 4.17977L6.11521 5.19662L1.51909 6.25727L2.57973 1.66115L3.67536 2.75663ZM11.0042 4.49993V6.4999H13.5042V8.49987H8.00428C7.72813 8.49987 7.50427 8.72377 7.50427 8.99986C7.50427 9.24536 7.68115 9.44945 7.91439 9.49175L8.00428 9.49985H12.0042C13.3849 9.49985 14.5042 10.6191 14.5042 11.9998C14.5042 13.3805 13.3849 14.4998 12.0042 14.4998H11.0042V16.4997H9.00426V14.4998H6.50429V12.4998H12.0042C12.2803 12.4998 12.5042 12.2759 12.5042 11.9998C12.5042 11.7543 12.3273 11.5502 12.0941 11.5079L12.0042 11.4998H8.00428C6.62357 11.4998 5.5043 10.3805 5.5043 8.99986C5.5043 7.61917 6.62357 6.4999 8.00428 6.4999H9.00426V4.49993H11.0042Z" fill="#A1A5B7"/>
</g>
<defs>
<clipPath id="clip0_78_2476">
<rect width="20" height="20" fill="white" transform="translate(0 0.5)"/>
</clipPath>
</defs>
</svg>
