<svg width="36" height="36" viewBox="0 0 36 36" fill="none" xmlns="http://www.w3.org/2000/svg">
<path opacity="0.3" d="M32.583 18.0001H25.6851C24.7332 17.9758 23.7957 17.762 22.9275 17.3711C22.0593 16.9801 21.2778 16.4199 20.6286 15.7233C19.9795 15.0267 19.4759 14.2076 19.1472 13.3139C18.8185 12.4203 18.6713 11.47 18.7143 10.5188V3.41675H11.5538C9.3723 3.4475 7.29166 4.34071 5.76679 5.90111C4.24192 7.4615 3.39686 9.56216 3.41635 11.7438V24.2563C3.39686 26.438 4.24192 28.5387 5.76679 30.0991C7.29166 31.6595 9.3723 32.5527 11.5538 32.5834H24.4163C26.6018 32.5565 28.6876 31.6654 30.2179 30.105C31.7483 28.5446 32.5986 26.4419 32.583 24.2563V18.0001Z" fill="#009EF7"/>
<path d="M32.5831 15.7105H25.6852C25.0223 15.6905 24.3702 15.5369 23.7681 15.2589C23.1659 14.9809 22.626 14.5843 22.1808 14.0927C21.7355 13.6012 21.3941 13.0249 21.1768 12.3982C20.9596 11.7716 20.871 11.1076 20.9164 10.4459V3.41675L32.5831 15.7105ZM14.106 16.2647L13.9164 16.148H13.7998C13.6762 16.0913 13.542 16.0615 13.406 16.0605H13.2894C13.1877 16.0467 13.0847 16.0467 12.9831 16.0605L12.8373 16.148H12.6914L8.22894 19.8522C8.11477 19.943 8.01965 20.0554 7.94904 20.1831C7.87843 20.3107 7.83371 20.4511 7.81745 20.596C7.80119 20.741 7.81371 20.8878 7.8543 21.0279C7.89488 21.168 7.96272 21.2987 8.05394 21.4126C8.15202 21.5443 8.27965 21.6512 8.42655 21.7247C8.57345 21.7981 8.73553 21.8361 8.89977 21.8355C9.14987 21.8337 9.39178 21.7462 9.58519 21.5876L12.2685 19.4584V27.0272C12.2685 27.3172 12.3838 27.5954 12.5889 27.8006C12.794 28.0057 13.0722 28.1209 13.3623 28.1209C13.6523 28.1209 13.9306 28.0057 14.1357 27.8006C14.3408 27.5954 14.456 27.3172 14.456 27.0272V19.5313L16.7894 21.5584C16.8975 21.6544 17.0238 21.7277 17.1609 21.7739C17.2979 21.8201 17.4428 21.8383 17.587 21.8275C17.7312 21.8166 17.8717 21.7768 18.0002 21.7106C18.1288 21.6443 18.2427 21.5529 18.3352 21.4417C18.5235 21.2152 18.6165 20.9245 18.5947 20.6307C18.573 20.3369 18.4381 20.0631 18.2185 19.8667L14.106 16.2647Z" fill="#009EF7"/>
</svg>
