<svg width="16" height="16" viewBox="0 0 16 16" fill="none" xmlns="http://www.w3.org/2000/svg">
<path opacity="0.3" d="M14.6675 7.99967H11.5341C11.0946 7.99143 10.6613 7.89455 10.2601 7.71486C9.85891 7.53516 9.49812 7.27635 9.19933 6.9539C8.90055 6.63146 8.66991 6.25203 8.52125 5.83834C8.37258 5.42465 8.30894 4.98521 8.33413 4.54634V1.33301H5.06747C4.06787 1.34357 3.1133 1.75035 2.41335 2.46406C1.71339 3.17776 1.32525 4.14006 1.33413 5.13967V10.8597C1.32525 11.8593 1.71339 12.8216 2.41335 13.5353C3.1133 14.249 4.06787 14.6558 5.06747 14.6663H10.9341C11.9337 14.6558 12.8883 14.249 13.5883 13.5353C14.2882 12.8216 14.6764 11.8593 14.6675 10.8597V7.99967Z" fill="white"/>
<path d="M14.4081 7.33348H11.2615C10.9606 7.32773 10.6639 7.26122 10.3894 7.13795C10.1148 7.01468 9.86801 6.83719 9.66377 6.61614C9.45953 6.39509 9.30208 6.13505 9.20087 5.85162C9.09966 5.56819 9.05677 5.26723 9.0748 4.96681V1.81348L14.4081 7.33348ZM7.20146 10.3935L6.12813 11.3335V8.00014C6.12813 7.86754 6.07545 7.74036 5.98168 7.64659C5.88792 7.55282 5.76074 7.50014 5.62813 7.50014C5.49552 7.50014 5.36834 7.55282 5.27458 7.64659C5.18081 7.74036 5.12813 7.86754 5.12813 8.00014V11.3335L3.8948 10.3801C3.84314 10.3394 3.78398 10.3093 3.72068 10.2915C3.65738 10.2736 3.59118 10.2684 3.52587 10.2761C3.46056 10.2839 3.39741 10.3044 3.34004 10.3366C3.28266 10.3687 3.23217 10.4118 3.19146 10.4635C3.10925 10.5678 3.07184 10.7005 3.08746 10.8324C3.10309 10.9643 3.17048 11.0846 3.2748 11.1668L5.3348 12.7868L5.40813 12.8268L5.46813 12.8601C5.52596 12.8808 5.58673 12.8921 5.64813 12.8935C5.71035 12.8936 5.77183 12.88 5.82813 12.8535L5.8948 12.8201L5.9748 12.7735L7.86813 11.1535C7.96763 11.066 8.02893 10.9431 8.0389 10.811C8.04887 10.6789 8.00671 10.5482 7.92146 10.4468C7.87909 10.394 7.82628 10.3504 7.76634 10.3189C7.7064 10.2874 7.64061 10.2685 7.57307 10.2635C7.50552 10.2585 7.43767 10.2674 7.37374 10.2898C7.30981 10.3122 7.25116 10.3475 7.20146 10.3935Z" fill="white"/>
</svg>
