<svg width="20" height="20" viewBox="0 0 20 20" fill="none" xmlns="http://www.w3.org/2000/svg">
<path d="M17.863 7.58011H16.6164V15.7476C16.6176 15.8531 16.5978 15.9578 16.5583 16.0556C16.5188 16.1534 16.4602 16.2424 16.386 16.3175C16.3119 16.3925 16.2235 16.4521 16.1262 16.4927C16.0288 16.5334 15.9244 16.5543 15.8189 16.5543H14.4164C14.3108 16.5543 14.2064 16.5334 14.109 16.4927C14.0117 16.4521 13.9233 16.3925 13.8492 16.3175C13.775 16.2424 13.7164 16.1534 13.6769 16.0556C13.6374 15.9578 13.6176 15.8531 13.6189 15.7476V7.58011H11.483V15.7476C11.4842 15.8531 11.4645 15.9578 11.425 16.0556C11.3854 16.1534 11.3269 16.2424 11.2527 16.3175C11.1785 16.3925 11.0902 16.4521 10.9928 16.4927C10.8955 16.5334 10.791 16.5543 10.6855 16.5543H9.29219C9.18668 16.5543 9.08222 16.5334 8.98486 16.4927C8.88751 16.4521 8.79918 16.3925 8.725 16.3175C8.65083 16.2424 8.59228 16.1534 8.55274 16.0556C8.51321 15.9578 8.49347 15.8531 8.49469 15.7476V7.58011H6.24885V15.7476C6.25008 15.8539 6.23006 15.9593 6.18995 16.0578C6.14985 16.1562 6.09048 16.2456 6.01533 16.3207C5.94017 16.3959 5.85076 16.4553 5.75233 16.4954C5.65391 16.5355 5.54846 16.5555 5.44219 16.5543H4.04885C3.94335 16.5543 3.83889 16.5334 3.74153 16.4927C3.64417 16.4521 3.55585 16.3925 3.48167 16.3175C3.40749 16.2424 3.34894 16.1534 3.30941 16.0556C3.26987 15.9578 3.25014 15.8531 3.25135 15.7476V7.58011H2.11469C0.868021 7.58011 0.345521 6.26011 1.34469 5.63678L8.43969 1.27344C8.90539 0.986292 9.44174 0.834229 9.98885 0.834229C10.536 0.834229 11.0723 0.986292 11.538 1.27344L18.633 5.63678C19.6322 6.26011 19.1555 7.58011 17.863 7.58011ZM19.1555 19.1668C19.1555 18.9844 19.0831 18.8096 18.9542 18.6806C18.8252 18.5517 18.6504 18.4793 18.468 18.4793H1.17969C0.997351 18.4793 0.822483 18.5517 0.693552 18.6806C0.56462 18.8096 0.492188 18.9844 0.492188 19.1668C0.492188 19.3491 0.56462 19.524 0.693552 19.6529C0.822483 19.7818 0.997351 19.8543 1.17969 19.8543H18.4589C18.642 19.8543 18.8179 19.7822 18.9483 19.6535C19.0786 19.5248 19.1531 19.3499 19.1555 19.1668Z" fill="#BBBBBB"/>
</svg>
