<svg width="20" height="20" viewBox="0 0 20 20" fill="none" xmlns="http://www.w3.org/2000/svg">
<path opacity="0.3" d="M17.8016 6.33341L12.5307 1.75007C11.8291 1.14733 10.9348 0.815918 10.0099 0.815918C9.08495 0.815918 8.19063 1.14733 7.48905 1.75007L2.20905 6.33341C1.77419 6.7137 1.42631 7.18316 1.18905 7.70988C0.951785 8.2366 0.83071 8.80823 0.834052 9.38591V17.0584C0.834005 17.6128 1.05235 18.145 1.44181 18.5396C1.83128 18.9342 2.3605 19.1595 2.91488 19.1667H6.03155C6.31106 19.1716 6.58873 19.1206 6.84827 19.0168C7.1078 18.9129 7.34398 18.7582 7.54293 18.5618C7.74188 18.3654 7.8996 18.1313 8.00683 17.8731C8.11406 17.6149 8.16865 17.338 8.16738 17.0584V13.0984C8.16017 12.6437 8.3119 12.2007 8.5964 11.846C8.88089 11.4912 9.28031 11.2468 9.72572 11.1551C9.99386 11.1031 10.2702 11.1118 10.5346 11.1803C10.799 11.2489 11.0447 11.3757 11.2538 11.5514C11.4629 11.7271 11.6301 11.9473 11.7432 12.1959C11.8563 12.4446 11.9124 12.7153 11.9074 12.9884V17.0584C11.9049 17.6104 12.1199 18.1412 12.506 18.5358C12.892 18.9304 13.4179 19.1571 13.9699 19.1667H17.0866C17.6409 19.1595 18.1702 18.9342 18.5596 18.5396C18.9491 18.145 19.1674 17.6128 19.1674 17.0584V9.37674C19.1694 8.80149 19.0486 8.23244 18.813 7.70762C18.5775 7.1828 18.2326 6.7143 17.8016 6.33341Z" fill="#999999"/>
</svg>
