<svg width="22" height="22" viewBox="0 0 22 22" fill="none" xmlns="http://www.w3.org/2000/svg">
<path opacity="0.3" d="M10.0836 1.88829C8.65907 2.05479 7.30764 2.60945 6.17685 3.49172C5.04607 4.37398 4.1794 5.54995 3.67145 6.89124C3.1635 8.23252 3.0338 9.68758 3.2965 11.0976C3.5592 12.5075 4.20421 13.8183 5.16112 14.8866L9.16695 19.3325C9.39895 19.5883 9.68192 19.7927 9.99767 19.9326C10.3134 20.0725 10.6549 20.1448 11.0003 20.1448C11.3456 20.1448 11.6872 20.0725 12.0029 19.9326C12.3186 19.7927 12.6016 19.5883 12.8336 19.3325L16.8211 14.8866C17.876 13.7014 18.5464 12.2239 18.7435 10.6494C18.9406 9.07503 18.6551 7.47787 17.925 6.06915C17.1948 4.66044 16.0542 3.50653 14.6541 2.76001C13.254 2.01349 11.6602 1.70952 10.0836 1.88829ZM11.0003 12.6041C10.4179 12.6059 9.84813 12.4349 9.36303 12.1127C8.87793 11.7905 8.49936 11.3315 8.27524 10.794C8.05113 10.2565 7.99154 9.6646 8.10404 9.09321C8.21654 8.52182 8.49606 7.99666 8.90721 7.58423C9.31836 7.17179 9.84265 6.89063 10.4137 6.77635C10.9847 6.66207 11.5768 6.7198 12.115 6.94224C12.6532 7.16468 13.1133 7.54182 13.4371 8.02591C13.7608 8.51 13.9336 9.07926 13.9336 9.66162C13.9336 10.4404 13.6249 11.1875 13.075 11.7391C12.5252 12.2906 11.7791 12.6017 11.0003 12.6041Z" fill="#999999"/>
<path d="M11.0007 12.6867C12.7118 12.6867 14.099 11.2995 14.099 9.58832C14.099 7.87716 12.7118 6.48999 11.0007 6.48999C9.28951 6.48999 7.90234 7.87716 7.90234 9.58832C7.90234 11.2995 9.28951 12.6867 11.0007 12.6867Z" fill="#999999"/>
</svg>
