<svg width="20" height="21" viewBox="0 0 20 21" fill="none" xmlns="http://www.w3.org/2000/svg">
<g clip-path="url(#clip0_78_2408)">
<path d="M10 0.5C4.47768 0.5 0 4.97768 0 10.5C0 16.0223 4.47768 20.5 10 20.5C15.5223 20.5 20 16.0223 20 10.5C20 4.97768 15.5223 0.5 10 0.5ZM10.4978 15.3482L10.5022 16.0558C10.5022 16.154 10.4219 16.2366 10.3237 16.2366H9.68973C9.59152 16.2366 9.51116 16.1562 9.51116 16.058V15.3571C7.52902 15.2098 6.59598 14.0804 6.49554 12.8527C6.48661 12.7478 6.5692 12.6585 6.67411 12.6585H7.70536C7.79241 12.6585 7.8683 12.721 7.8817 12.8058C7.99554 13.5134 8.54688 14.0424 9.53572 14.1741V10.9888L8.98438 10.8482C7.81696 10.5692 6.70536 9.84152 6.70536 8.33259C6.70536 6.70536 7.94196 5.83036 9.52232 5.67634V4.93973C9.52232 4.84152 9.60268 4.76116 9.70089 4.76116H10.3281C10.4263 4.76116 10.5067 4.84152 10.5067 4.93973V5.66964C12.0357 5.82366 13.183 6.71652 13.317 8.10714C13.3281 8.21205 13.2455 8.30357 13.1384 8.30357H12.1362C12.0469 8.30357 11.971 8.23661 11.9598 8.14955C11.8705 7.49777 11.3482 6.96652 10.4978 6.85045V9.84821L11.0647 9.97991C12.5112 10.3371 13.4955 11.029 13.4955 12.5781C13.4955 14.2589 12.2455 15.1964 10.4978 15.3482ZM8.09375 8.22991C8.09375 8.79688 8.4442 9.23661 9.19866 9.50893C9.30357 9.55134 9.40848 9.58482 9.53348 9.62054V6.85268C8.70982 6.95759 8.09375 7.41964 8.09375 8.22991ZM10.6942 11.2478C10.6317 11.2344 10.5692 11.2188 10.4978 11.1987V14.183C11.4487 14.0982 12.1049 13.5759 12.1049 12.7009C12.1049 12.0156 11.75 11.5692 10.6942 11.2478Z" fill="#009EF7"/>
</g>
<defs>
<clipPath id="clip0_78_2408">
<rect width="20" height="20" fill="white" transform="translate(0 0.5)"/>
</clipPath>
</defs>
</svg>
