<svg width="20" height="21" viewBox="0 0 20 21" fill="none" xmlns="http://www.w3.org/2000/svg">
<g clip-path="url(#clip0_78_2420)">
<path d="M10 0.5C4.47768 0.5 0 4.97768 0 10.5C0 16.0223 4.47768 20.5 10 20.5C15.5223 20.5 20 16.0223 20 10.5C20 4.97768 15.5223 0.5 10 0.5ZM10 18.8036C5.41518 18.8036 1.69643 15.0848 1.69643 10.5C1.69643 5.91518 5.41518 2.19643 10 2.19643C14.5848 2.19643 18.3036 5.91518 18.3036 10.5C18.3036 15.0848 14.5848 18.8036 10 18.8036ZM11.0647 9.98214L10.4978 9.85045V6.85268C11.346 6.96875 11.8705 7.5 11.9598 8.15179C11.971 8.24107 12.0469 8.3058 12.1362 8.3058H13.1384C13.2433 8.3058 13.3259 8.21429 13.317 8.10938C13.1808 6.71875 12.0357 5.82589 10.5067 5.67188V4.94196C10.5067 4.84375 10.4263 4.76339 10.3281 4.76339H9.70089C9.60268 4.76339 9.52232 4.84375 9.52232 4.94196V5.67857C7.94196 5.83259 6.70536 6.70536 6.70536 8.33482C6.70536 9.84375 7.81696 10.5714 8.98438 10.8504L9.53572 10.9911V14.1763C8.54911 14.0446 7.99554 13.5179 7.8817 12.808C7.8683 12.7232 7.79241 12.6607 7.70536 12.6607H6.67411C6.5692 12.6607 6.48661 12.75 6.49554 12.8549C6.59598 14.0826 7.52679 15.2121 9.51339 15.3571V16.058C9.51339 16.1562 9.59375 16.2366 9.69197 16.2366H10.3259C10.4241 16.2366 10.5045 16.1563 10.5045 16.0558L10.5 15.3482C12.2478 15.1942 13.4978 14.2589 13.4978 12.5804C13.4955 11.0313 12.5112 10.3393 11.0647 9.98214ZM9.53348 9.62054C9.40848 9.58482 9.30357 9.55134 9.19866 9.50893C8.4442 9.23661 8.09375 8.79688 8.09375 8.22991C8.09375 7.41964 8.70759 6.95759 9.53348 6.85268V9.62054ZM10.4978 14.183V11.1987C10.567 11.2188 10.6295 11.2344 10.6942 11.2478C11.75 11.5692 12.1049 12.0156 12.1049 12.7009C12.1049 13.5737 11.4487 14.0982 10.4978 14.183Z" fill="#A1A5B7"/>
</g>
<defs>
<clipPath id="clip0_78_2420">
<rect width="20" height="20" fill="white" transform="translate(0 0.5)"/>
</clipPath>
</defs>
</svg>
