<svg width="17" height="17" viewBox="0 0 17 17" fill="none" xmlns="http://www.w3.org/2000/svg">
<path d="M8.70915 15.4344C5.02725 15.4344 2.04248 12.4496 2.04248 8.76774C2.04248 5.08584 5.02725 2.10107 8.70915 2.10107C12.391 2.10107 15.3758 5.08584 15.3758 8.76774C15.3758 12.4496 12.391 15.4344 8.70915 15.4344ZM8.70915 14.1011C11.6547 14.1011 14.0425 11.7133 14.0425 8.76774C14.0425 5.82222 11.6547 3.43441 8.70915 3.43441C5.76363 3.43441 3.37581 5.82222 3.37581 8.76774C3.37581 11.7133 5.76363 14.1011 8.70915 14.1011ZM8.04248 5.43441H9.37581V6.76774H8.04248V5.43441ZM8.04248 8.10107H9.37581V12.1011H8.04248V8.10107Z" fill="#999999"/>
</svg>
