<svg width="17" height="18" viewBox="0 0 17 18" fill="none" xmlns="http://www.w3.org/2000/svg">
<path opacity="0.3" d="M7.82682 9.52018H4.49349C4.27248 9.52018 4.06051 9.43238 3.90423 9.2761C3.74795 9.11982 3.66016 8.90786 3.66016 8.68685C3.66016 8.46583 3.74795 8.25387 3.90423 8.09759C4.06051 7.94131 4.27248 7.85352 4.49349 7.85352H7.82682V9.52018ZM12.8268 7.85352H9.49349V9.52018H12.8268C13.0478 9.52018 13.2598 9.43238 13.4161 9.2761C13.5724 9.11982 13.6602 8.90786 13.6602 8.68685C13.6602 8.46583 13.5724 8.25387 13.4161 8.09759C13.2598 7.94131 13.0478 7.85352 12.8268 7.85352Z" fill="white"/>
<path opacity="0.3" d="M12.1521 0.353516H5.16882C2.49484 0.353516 0.327148 2.5212 0.327148 5.19518V12.1785C0.327148 14.8525 2.49484 17.0202 5.16882 17.0202H12.1521C14.8261 17.0202 16.9938 14.8525 16.9938 12.1785V5.19518C16.9938 2.5212 14.8261 0.353516 12.1521 0.353516Z" fill="white"/>
<path d="M12.8268 7.85417H9.49349V4.52083C9.49349 4.29982 9.40569 4.08786 9.24941 3.93158C9.09313 3.7753 8.88117 3.6875 8.66016 3.6875C8.43914 3.6875 8.22718 3.7753 8.0709 3.93158C7.91462 4.08786 7.82682 4.29982 7.82682 4.52083V7.85417H4.49349C4.27248 7.85417 4.06051 7.94196 3.90423 8.09824C3.74795 8.25452 3.66016 8.46649 3.66016 8.6875C3.66016 8.90851 3.74795 9.12047 3.90423 9.27676C4.06051 9.43304 4.27248 9.52083 4.49349 9.52083H7.82682V12.8542C7.82682 13.0752 7.91462 13.2871 8.0709 13.4434C8.22718 13.5997 8.43914 13.6875 8.66016 13.6875C8.88117 13.6875 9.09313 13.5997 9.24941 13.4434C9.40569 13.2871 9.49349 13.0752 9.49349 12.8542V9.52083H12.8268C13.0478 9.52083 13.2598 9.43304 13.4161 9.27676C13.5724 9.12047 13.6602 8.90851 13.6602 8.6875C13.6602 8.46649 13.5724 8.25452 13.4161 8.09824C13.2598 7.94196 13.0478 7.85417 12.8268 7.85417Z" fill="white"/>
</svg>
