<svg width="21" height="21" viewBox="0 0 21 21" fill="none" xmlns="http://www.w3.org/2000/svg">
<path d="M10.3333 9.6665C12.6345 9.6665 14.5 11.532 14.5 13.8332V18.8332H12.8333V13.8332C12.8333 12.5018 11.7926 11.4134 10.4802 11.3374L10.3333 11.3332C9.00192 11.3332 7.91362 12.3739 7.83757 13.6863L7.83333 13.8332V18.8332H6.16667V13.8332C6.16667 11.532 8.03215 9.6665 10.3333 9.6665ZM4.91667 12.1665C5.14904 12.1665 5.37507 12.1937 5.59175 12.245C5.45168 12.6615 5.36561 13.1015 5.3408 13.5576L5.33333 13.8332L5.33392 13.9045C5.23964 13.8712 5.14018 13.8488 5.03705 13.8389L4.91667 13.8332C4.26692 13.8332 3.73296 14.3289 3.67239 14.9628L3.66667 15.0832V18.8332H2V15.0832C2 13.4723 3.30583 12.1665 4.91667 12.1665ZM15.75 12.1665C17.3608 12.1665 18.6667 13.4723 18.6667 15.0832V18.8332H17V15.0832C17 14.4334 16.5043 13.8995 15.8704 13.8389L15.75 13.8332C15.604 13.8332 15.4638 13.8582 15.3336 13.9042L15.3333 13.8332C15.3333 13.2784 15.243 12.7448 15.0762 12.2462C15.2916 12.1937 15.5176 12.1665 15.75 12.1665ZM4.91667 7.1665C6.06726 7.1665 7 8.09925 7 9.24984C7 10.4004 6.06726 11.3332 4.91667 11.3332C3.76607 11.3332 2.83333 10.4004 2.83333 9.24984C2.83333 8.09925 3.76607 7.1665 4.91667 7.1665ZM15.75 7.1665C16.9006 7.1665 17.8333 8.09925 17.8333 9.24984C17.8333 10.4004 16.9006 11.3332 15.75 11.3332C14.5994 11.3332 13.6667 10.4004 13.6667 9.24984C13.6667 8.09925 14.5994 7.1665 15.75 7.1665ZM4.91667 8.83317C4.68655 8.83317 4.5 9.01975 4.5 9.24984C4.5 9.47992 4.68655 9.6665 4.91667 9.6665C5.14678 9.6665 5.33333 9.47992 5.33333 9.24984C5.33333 9.01975 5.14678 8.83317 4.91667 8.83317ZM15.75 8.83317C15.5199 8.83317 15.3333 9.01975 15.3333 9.24984C15.3333 9.47992 15.5199 9.6665 15.75 9.6665C15.9801 9.6665 16.1667 9.47992 16.1667 9.24984C16.1667 9.01975 15.9801 8.83317 15.75 8.83317ZM10.3333 2.1665C12.1742 2.1665 13.6667 3.65889 13.6667 5.49984C13.6667 7.34079 12.1742 8.83317 10.3333 8.83317C8.49238 8.83317 7 7.34079 7 5.49984C7 3.65889 8.49238 2.1665 10.3333 2.1665ZM10.3333 3.83317C9.41283 3.83317 8.66667 4.57936 8.66667 5.49984C8.66667 6.42031 9.41283 7.1665 10.3333 7.1665C11.2538 7.1665 12 6.42031 12 5.49984C12 4.57936 11.2538 3.83317 10.3333 3.83317Z" fill="#A1A5B7"/>
</svg>
