<svg width="21" height="21" viewBox="0 0 21 21" fill="none" xmlns="http://www.w3.org/2000/svg">
<path d="M10.0711 8.83317C11.912 8.83317 13.4045 7.34079 13.4045 5.49984C13.4045 3.65889 11.912 2.1665 10.0711 2.1665C8.23018 2.1665 6.73779 3.65889 6.73779 5.49984C6.73779 7.34079 8.23018 8.83317 10.0711 8.83317ZM4.65446 11.3332C5.80505 11.3332 6.73779 10.4004 6.73779 9.24984C6.73779 8.09925 5.80505 7.1665 4.65446 7.1665C3.50387 7.1665 2.57113 8.09925 2.57113 9.24984C2.57113 10.4004 3.50387 11.3332 4.65446 11.3332ZM17.5711 9.24984C17.5711 10.4004 16.6384 11.3332 15.4878 11.3332C14.3372 11.3332 13.4045 10.4004 13.4045 9.24984C13.4045 8.09925 14.3372 7.1665 15.4878 7.1665C16.6384 7.1665 17.5711 8.09925 17.5711 9.24984ZM10.0711 9.6665C12.3723 9.6665 14.2378 11.532 14.2378 13.8332V18.8332H5.90446V13.8332C5.90446 11.532 7.76994 9.6665 10.0711 9.6665ZM4.23779 13.8331C4.23779 13.2557 4.32168 12.6978 4.47794 12.1712L4.33666 12.1835C2.87532 12.3418 1.73779 13.5797 1.73779 15.0831V18.8331H4.23779V13.8331ZM18.4045 18.8331V15.0831C18.4045 13.5313 17.1927 12.2626 15.6643 12.1712C15.8205 12.6978 15.9045 13.2557 15.9045 13.8331V18.8331H18.4045Z" fill="#009EF7"/>
</svg>
