<svg width="76" height="77" viewBox="0 0 76 77" fill="none" xmlns="http://www.w3.org/2000/svg">
<circle cx="38" cy="38.2393" r="38" fill="#FFF5F8"/>
<path opacity="0.3" d="M44.0382 27.7392C43.9563 25.9009 43.1538 24.1689 41.8045 22.9178C40.4551 21.6667 38.6674 20.9972 36.8282 21.0542H29.2507C27.3996 20.9783 25.5939 21.6393 24.2293 22.8924C22.8647 24.1455 22.0525 25.8884 21.9707 27.7392V48.7392C22.048 50.5932 22.8583 52.3406 24.2234 53.5974C25.5884 54.8542 27.3967 55.5176 29.2507 55.4417H36.8982C38.7284 55.48 40.5007 54.7998 41.8354 53.5469C43.17 52.294 43.9608 50.5682 44.0382 48.7392V27.7392Z" fill="#EC305E"/>
<path d="M32.209 36.9267H49.5515L46.7515 34.0567C46.5057 33.8106 46.3676 33.477 46.3676 33.1292C46.3676 32.7814 46.5057 32.4478 46.7515 32.2017C46.8721 32.0778 47.0164 31.9794 47.1757 31.9122C47.335 31.845 47.5061 31.8104 47.679 31.8104C47.8519 31.8104 48.023 31.845 48.1823 31.9122C48.3416 31.9794 48.4858 32.0778 48.6065 32.2017L53.734 37.3117C53.9798 37.5578 54.1178 37.8914 54.1178 38.2392C54.1178 38.587 53.9798 38.9206 53.734 39.1667L48.5015 44.2767C48.3809 44.4002 48.2366 44.498 48.0772 44.5641C47.9177 44.6303 47.7466 44.6635 47.574 44.6617C47.4015 44.6625 47.2307 44.6288 47.0714 44.5627C46.9121 44.4966 46.7677 44.3994 46.6465 44.2767C46.4007 44.0306 46.2626 43.697 46.2626 43.3492C46.2626 43.0014 46.4007 42.6678 46.6465 42.4217L49.534 39.5517H32.209C31.8609 39.5517 31.527 39.4134 31.2809 39.1672C31.0348 38.9211 30.8965 38.5873 30.8965 38.2392C30.8965 37.8911 31.0348 37.5572 31.2809 37.3111C31.527 37.065 31.8609 36.9267 32.209 36.9267Z" fill="#EC305E"/>
</svg>
