<svg width="25" height="25" viewBox="0 0 25 25" fill="none" xmlns="http://www.w3.org/2000/svg">
<path d="M11.6895 12.5637C11.6895 13.6168 12.0222 14.643 12.6399 15.496C13.2576 16.349 14.1289 16.9851 15.1295 17.3137C15.9365 16.8118 16.6047 16.1154 17.0728 15.2883C17.541 14.4612 17.7941 13.5299 17.809 12.5796C17.824 11.6293 17.6002 10.6905 17.1583 9.84911C16.7163 9.00773 16.0703 8.29069 15.2795 7.76367C14.2427 8.06839 13.3326 8.70077 12.6855 9.56609C12.0383 10.4314 11.6888 11.4831 11.6895 12.5637Z" fill="#666666"/>
<g opacity="0.3">
<path d="M10.3195 12.5627C10.3193 11.4286 10.6223 10.315 11.1973 9.33743C11.7723 8.35983 12.5982 7.55376 13.5895 7.00273C13.1142 6.86991 12.623 6.80262 12.1295 6.80273C10.6204 6.80273 9.1731 7.40222 8.10602 8.4693C7.03893 9.53638 6.43945 10.9837 6.43945 12.4927C6.43945 14.0018 7.03893 15.4491 8.10602 16.5162C9.1731 17.5833 10.6204 18.1827 12.1295 18.1827C12.5676 18.1806 13.0039 18.1269 13.4295 18.0227C12.4826 17.4599 11.6982 16.6607 11.1531 15.7036C10.6079 14.7465 10.3206 13.6642 10.3195 12.5627Z" fill="#666666"/>
</g>
<path d="M12.1309 5.19367C11.9403 5.1941 11.7568 5.12198 11.6175 4.99197C11.4782 4.86195 11.3936 4.68379 11.3809 4.49367V3.26367C11.3809 3.06476 11.4599 2.87399 11.6005 2.73334C11.7412 2.59269 11.9319 2.51367 12.1309 2.51367C12.3298 2.51367 12.5205 2.59269 12.6612 2.73334C12.8018 2.87399 12.8809 3.06476 12.8809 3.26367V4.49367C12.8682 4.68379 12.7836 4.86195 12.6443 4.99197C12.505 5.12198 12.3214 5.1941 12.1309 5.19367Z" fill="#666666"/>
<path d="M12.1309 22.493C11.9328 22.4904 11.7435 22.4105 11.6034 22.2704C11.4633 22.1303 11.3834 21.9411 11.3809 21.743V20.543C11.3809 20.3441 11.4599 20.1533 11.6005 20.0126C11.7412 19.872 11.9319 19.793 12.1309 19.793C12.3298 19.793 12.5205 19.872 12.6612 20.0126C12.8018 20.1533 12.8809 20.3441 12.8809 20.543V21.723C12.8822 21.8228 12.8638 21.9219 12.8269 22.0146C12.7899 22.1073 12.735 22.1918 12.6654 22.2633C12.5957 22.3348 12.5127 22.3919 12.4209 22.4313C12.3292 22.4707 12.2307 22.4917 12.1309 22.493Z" fill="#666666"/>
<path d="M6.44084 7.55412C6.34229 7.55458 6.24465 7.53536 6.15364 7.49758C6.06263 7.4598 5.98008 7.40423 5.91084 7.33412L5.07084 6.49412C4.9809 6.43001 4.90602 6.34708 4.8514 6.25109C4.79678 6.1551 4.76374 6.04836 4.75457 5.9383C4.74541 5.82824 4.76034 5.71751 4.79833 5.6138C4.83632 5.5101 4.89646 5.41593 4.97455 5.33783C5.05265 5.25974 5.14682 5.1996 5.25052 5.16161C5.35422 5.12362 5.46496 5.10869 5.57502 5.11786C5.68508 5.12702 5.79182 5.16006 5.88781 5.21468C5.9838 5.2693 6.06673 5.34418 6.13084 5.43412L6.96084 6.27412C7.10129 6.41474 7.18018 6.60537 7.18018 6.80412C7.18018 7.00287 7.10129 7.19349 6.96084 7.33412C6.82339 7.47329 6.63643 7.55239 6.44084 7.55412Z" fill="#666666"/>
<path d="M18.6495 19.7728C18.4515 19.7685 18.2623 19.6899 18.1195 19.5528L17.2895 18.7128C17.2158 18.6441 17.1567 18.5613 17.1157 18.4693C17.0747 18.3773 17.0527 18.278 17.0509 18.1773C17.0491 18.0766 17.0676 17.9766 17.1054 17.8832C17.1431 17.7898 17.1992 17.705 17.2705 17.6337C17.3417 17.5625 17.4265 17.5064 17.5199 17.4686C17.6133 17.4309 17.7133 17.4124 17.814 17.4142C17.9147 17.416 18.014 17.438 18.106 17.479C18.198 17.52 18.2808 17.5791 18.3495 17.6528L19.1895 18.4828C19.3282 18.6263 19.4057 18.8182 19.4057 19.0178C19.4057 19.2174 19.3282 19.4092 19.1895 19.5528C19.0441 19.6923 18.851 19.771 18.6495 19.7728Z" fill="#666666"/>
<path d="M4.13039 13.2441H2.90039C2.70148 13.2441 2.51071 13.1651 2.37006 13.0245C2.22941 12.8838 2.15039 12.6931 2.15039 12.4941C2.15039 12.2952 2.22941 12.1045 2.37006 11.9638C2.51071 11.8232 2.70148 11.7441 2.90039 11.7441H4.13039C4.3293 11.7441 4.52007 11.8232 4.66072 11.9638C4.80137 12.1045 4.88039 12.2952 4.88039 12.4941C4.88039 12.6931 4.80137 12.8838 4.66072 13.0245C4.52007 13.1651 4.3293 13.2441 4.13039 13.2441Z" fill="#666666"/>
<path d="M21.3597 13.2441H20.1797C19.9808 13.2441 19.79 13.1651 19.6494 13.0245C19.5087 12.8838 19.4297 12.6931 19.4297 12.4941C19.4297 12.2952 19.5087 12.1045 19.6494 11.9638C19.79 11.8232 19.9808 11.7441 20.1797 11.7441H21.3597C21.5586 11.7441 21.7494 11.8232 21.89 11.9638C22.0307 12.1045 22.1097 12.2952 22.1097 12.4941C22.1097 12.6931 22.0307 12.8838 21.89 13.0245C21.7494 13.1651 21.5586 13.2441 21.3597 13.2441Z" fill="#666666"/>
<path d="M5.60973 19.7728C5.40826 19.771 5.21509 19.6923 5.06973 19.5528C4.93104 19.4092 4.85352 19.2174 4.85352 19.0178C4.85352 18.8182 4.93104 18.6263 5.06973 18.4828L5.90973 17.6528C5.9784 17.5791 6.0612 17.52 6.15319 17.479C6.24519 17.438 6.34451 17.416 6.44521 17.4142C6.54591 17.4124 6.64594 17.4309 6.73933 17.4686C6.83272 17.5064 6.91755 17.5625 6.98877 17.6337C7.05999 17.705 7.11613 17.7898 7.15386 17.8832C7.19158 17.9766 7.2101 18.0766 7.20832 18.1773C7.20655 18.278 7.18451 18.3773 7.14351 18.4693C7.10252 18.5613 7.04342 18.6441 6.96973 18.7128L6.12973 19.5528C5.98942 19.6877 5.80425 19.766 5.60973 19.7728Z" fill="#666666"/>
<path d="M17.8197 7.55412C17.7211 7.55458 17.6235 7.53536 17.5325 7.49758C17.4414 7.4598 17.3589 7.40423 17.2897 7.33412C17.1492 7.19349 17.0703 7.00287 17.0703 6.80412C17.0703 6.60537 17.1492 6.41474 17.2897 6.27412L18.1297 5.43412C18.1938 5.34418 18.2767 5.2693 18.3727 5.21468C18.4687 5.16006 18.5754 5.12702 18.6855 5.11786C18.7955 5.10869 18.9063 5.12362 19.01 5.16161C19.1137 5.1996 19.2078 5.25974 19.2859 5.33783C19.364 5.41593 19.4242 5.5101 19.4622 5.6138C19.5001 5.71751 19.5151 5.82824 19.5059 5.9383C19.4967 6.04836 19.4637 6.1551 19.4091 6.25109C19.3545 6.34708 19.2796 6.43001 19.1897 6.49412L18.3497 7.32412C18.2812 7.39604 18.1991 7.45346 18.108 7.49298C18.017 7.53249 17.9189 7.55328 17.8197 7.55412Z" fill="#666666"/>
</svg>
