<svg width="25" height="25" viewBox="0 0 25 25" fill="none" xmlns="http://www.w3.org/2000/svg">
<path d="M12.1309 11.8839C11.9328 11.8813 11.7435 11.8015 11.6034 11.6614C11.4633 11.5213 11.3834 11.332 11.3809 11.1339V8.00391C11.3809 7.80499 11.4599 7.61423 11.6005 7.47358C11.7412 7.33292 11.9319 7.25391 12.1309 7.25391C12.3298 7.25391 12.5205 7.33292 12.6612 7.47358C12.8018 7.61423 12.8809 7.80499 12.8809 8.00391V11.1339C12.8783 11.332 12.7984 11.5213 12.6583 11.6614C12.5182 11.8015 12.329 11.8813 12.1309 11.8839Z" fill="#666666"/>
<g opacity="0.3">
<path d="M19.1911 14.1544C18.2889 12.7996 17.8214 11.2019 17.8511 9.57444V9.39444C17.8484 8.46745 17.616 7.55559 17.1748 6.74036C16.7335 5.92513 16.0971 5.23195 15.3225 4.72279C14.5478 4.21363 13.6591 3.90436 12.7357 3.82263C11.8123 3.7409 10.8831 3.88926 10.0311 4.25444C9.03294 4.66712 8.1818 5.37016 7.58804 6.2724C6.99427 7.17464 6.68526 8.23446 6.70108 9.31444V9.38444C6.71338 11.1279 6.16276 12.8289 5.13108 14.2344L4.45108 15.1544C4.18137 15.5189 4.03747 15.9611 4.04108 16.4144C4.05141 16.9646 4.27523 17.4892 4.66524 17.8773C5.05525 18.2654 5.5809 18.4867 6.13108 18.4944H18.1311C18.4095 18.4944 18.6852 18.4396 18.9424 18.3331C19.1996 18.2265 19.4333 18.0704 19.6301 17.8735C19.827 17.6766 19.9832 17.4429 20.0897 17.1857C20.1962 16.9285 20.2511 16.6528 20.2511 16.3744V16.3144C20.2535 15.8983 20.1316 15.4909 19.9011 15.1444L19.1911 14.1544Z" fill="#666666"/>
</g>
<path d="M10.2012 19.4941C10.3163 19.9178 10.5677 20.2918 10.9165 20.5585C11.2653 20.8252 11.6921 20.9696 12.1312 20.9696C12.5702 20.9696 12.9971 20.8252 13.3459 20.5585C13.6947 20.2918 13.946 19.9178 14.0612 19.4941H10.2012Z" fill="#666666"/>
</svg>
