<svg width="38" height="41" viewBox="0 0 38 41" fill="none" xmlns="http://www.w3.org/2000/svg">
<mask id="path-1-inside-1_2171_311" fill="white">
<path d="M0 6.5C0 3.18629 2.68629 0.5 6 0.5H38V40.5H6C2.68629 40.5 0 37.8137 0 34.5V6.5Z"/>
</mask>
<path d="M0 6.5C0 3.18629 2.68629 0.5 6 0.5H38V40.5H6C2.68629 40.5 0 37.8137 0 34.5V6.5Z" fill="#F1F1F2"/>
<path d="M0 0.5H38H0ZM38 40.5H0H38ZM0 40.5V0.5V40.5ZM39 0.5V40.5H37V0.5H39Z" fill="#DDDDDD" mask="url(#path-1-inside-1_2171_311)"/>
<path d="M19.3487 23.5909V23.054C19.3487 22.6596 19.4316 22.2966 19.5973 21.9652C19.7663 21.6338 20.0116 21.367 20.3331 21.1648C20.6546 20.9626 21.044 20.8615 21.5014 20.8615C21.9721 20.8615 22.3665 20.9626 22.6847 21.1648C23.0028 21.3636 23.2431 21.6288 23.4055 21.9602C23.5713 22.2917 23.6541 22.6562 23.6541 23.054V23.5909C23.6541 23.9853 23.5713 24.3482 23.4055 24.6797C23.2398 25.0111 22.9962 25.2779 22.6747 25.4801C22.3565 25.6823 21.9654 25.7834 21.5014 25.7834C21.0374 25.7834 20.6446 25.6823 20.3232 25.4801C20.0017 25.2779 19.758 25.0111 19.5923 24.6797C19.4299 24.3482 19.3487 23.9853 19.3487 23.5909ZM20.6463 23.054V23.5909C20.6463 23.8527 20.7093 24.093 20.8352 24.3118C20.9612 24.5305 21.1832 24.6399 21.5014 24.6399C21.8229 24.6399 22.0433 24.5322 22.1626 24.3168C22.2853 24.098 22.3466 23.8561 22.3466 23.5909V23.054C22.3466 22.7888 22.2886 22.5469 22.1726 22.3281C22.0566 22.1061 21.8329 21.995 21.5014 21.995C21.1899 21.995 20.9695 22.1061 20.8402 22.3281C20.7109 22.5469 20.6463 22.7888 20.6463 23.054ZM14.1733 17.7642V17.2273C14.1733 16.8295 14.2578 16.465 14.4268 16.1335C14.5959 15.8021 14.8411 15.5369 15.1626 15.3381C15.4841 15.1359 15.8736 15.0348 16.331 15.0348C16.7983 15.0348 17.1911 15.1359 17.5092 15.3381C17.8307 15.5369 18.0727 15.8021 18.2351 16.1335C18.3975 16.465 18.4787 16.8295 18.4787 17.2273V17.7642C18.4787 18.1619 18.3958 18.5265 18.2301 18.858C18.0677 19.1861 17.8258 19.4496 17.5043 19.6484C17.1828 19.8473 16.7917 19.9467 16.331 19.9467C15.8636 19.9467 15.4692 19.8473 15.1477 19.6484C14.8295 19.4496 14.5876 19.1844 14.4219 18.853C14.2562 18.5215 14.1733 18.1586 14.1733 17.7642ZM15.4808 17.2273V17.7642C15.4808 18.0294 15.5421 18.2713 15.6648 18.4901C15.7907 18.7055 16.0128 18.8132 16.331 18.8132C16.6491 18.8132 16.8679 18.7055 16.9872 18.4901C17.1098 18.2713 17.1712 18.0294 17.1712 17.7642V17.2273C17.1712 16.9621 17.1132 16.7202 16.9972 16.5014C16.8812 16.2794 16.6591 16.1683 16.331 16.1683C16.0161 16.1683 15.7957 16.2794 15.6697 16.5014C15.5438 16.7235 15.4808 16.9654 15.4808 17.2273ZM14.7401 25.5L21.7401 15.3182H22.983L15.983 25.5H14.7401Z" fill="#7E8299"/>
</svg>
