<svg width="18" height="17" viewBox="0 0 18 17" fill="none" xmlns="http://www.w3.org/2000/svg">
<path opacity="0.3" d="M8.16667 9.33268H4.83333C4.61232 9.33268 4.40036 9.24488 4.24408 9.0886C4.0878 8.93232 4 8.72036 4 8.49935C4 8.27833 4.0878 8.06637 4.24408 7.91009C4.40036 7.75381 4.61232 7.66602 4.83333 7.66602H8.16667V9.33268ZM13.1667 7.66602H9.83333V9.33268H13.1667C13.3877 9.33268 13.5996 9.24488 13.7559 9.0886C13.9122 8.93232 14 8.72036 14 8.49935C14 8.27833 13.9122 8.06637 13.7559 7.91009C13.5996 7.75381 13.3877 7.66602 13.1667 7.66602Z" fill="#3E97FF"/>
<path opacity="0.3" d="M12.491 0.166016H5.50768C2.8337 0.166016 0.666016 2.3337 0.666016 5.00768V11.991C0.666016 14.665 2.8337 16.8327 5.50768 16.8327H12.491C15.165 16.8327 17.3327 14.665 17.3327 11.991V5.00768C17.3327 2.3337 15.165 0.166016 12.491 0.166016Z" fill="#3E97FF"/>
<path d="M13.1667 7.66667H9.83333V4.33333C9.83333 4.11232 9.74554 3.90036 9.58926 3.74408C9.43297 3.5878 9.22101 3.5 9 3.5C8.77899 3.5 8.56702 3.5878 8.41074 3.74408C8.25446 3.90036 8.16667 4.11232 8.16667 4.33333V7.66667H4.83333C4.61232 7.66667 4.40036 7.75446 4.24408 7.91074C4.0878 8.06702 4 8.27899 4 8.5C4 8.72101 4.0878 8.93297 4.24408 9.08926C4.40036 9.24554 4.61232 9.33333 4.83333 9.33333H8.16667V12.6667C8.16667 12.8877 8.25446 13.0996 8.41074 13.2559C8.56702 13.4122 8.77899 13.5 9 13.5C9.22101 13.5 9.43297 13.4122 9.58926 13.2559C9.74554 13.0996 9.83333 12.8877 9.83333 12.6667V9.33333H13.1667C13.3877 9.33333 13.5996 9.24554 13.7559 9.08926C13.9122 8.93297 14 8.72101 14 8.5C14 8.27899 13.9122 8.06702 13.7559 7.91074C13.5996 7.75446 13.3877 7.66667 13.1667 7.66667Z" fill="#3E97FF"/>
</svg>
