<svg width="16" height="16" viewBox="0 0 16 16" fill="none" xmlns="http://www.w3.org/2000/svg">
<path opacity="0.3" d="M12.1333 4.66602H3.86667C2.83574 4.66602 2 5.50175 2 6.53268V10.1327C2 11.1636 2.83574 11.9993 3.86667 11.9993H12.1333C13.1643 11.9993 14 11.1636 14 10.1327V6.53268C14 5.50175 13.1643 4.66602 12.1333 4.66602Z" fill="#009EF7"/>
<path d="M6.83268 1.33301H9.17268C9.74616 1.33477 10.2956 1.56382 10.7004 1.96996C11.1053 2.3761 11.3327 2.92619 11.3327 3.49967V4.66634H4.66602V3.49967C4.66602 2.92504 4.89429 2.37394 5.30062 1.96761C5.70695 1.56128 6.25805 1.33301 6.83268 1.33301Z" fill="#009EF7"/>
<path d="M5.33398 10H10.6673V12.6133C10.6673 13.1579 10.451 13.6802 10.0659 14.0653C9.68084 14.4503 9.15856 14.6667 8.61398 14.6667H7.38732C6.84274 14.6667 6.32047 14.4503 5.93539 14.0653C5.55032 13.6802 5.33398 13.1579 5.33398 12.6133V10Z" fill="#009EF7"/>
<path d="M6.66602 7.83301H4.66602C4.53341 7.83301 4.40623 7.78033 4.31246 7.68656C4.21869 7.59279 4.16602 7.46562 4.16602 7.33301C4.16602 7.2004 4.21869 7.07322 4.31246 6.97945C4.40623 6.88569 4.53341 6.83301 4.66602 6.83301H6.66602C6.79862 6.83301 6.9258 6.88569 7.01957 6.97945C7.11334 7.07322 7.16602 7.2004 7.16602 7.33301C7.16602 7.46562 7.11334 7.59279 7.01957 7.68656C6.9258 7.78033 6.79862 7.83301 6.66602 7.83301Z" fill="#009EF7"/>
<path d="M11.3327 10.5H4.66602C4.53341 10.5 4.40623 10.4473 4.31246 10.3536C4.21869 10.2598 4.16602 10.1326 4.16602 10C4.16602 9.86739 4.21869 9.74022 4.31246 9.64645C4.40623 9.55268 4.53341 9.5 4.66602 9.5H11.3327C11.4653 9.5 11.5925 9.55268 11.6862 9.64645C11.78 9.74022 11.8327 9.86739 11.8327 10C11.8327 10.1326 11.78 10.2598 11.6862 10.3536C11.5925 10.4473 11.4653 10.5 11.3327 10.5Z" fill="#009EF7"/>
</svg>
