<svg width="20" height="21" viewBox="0 0 20 21" fill="none" xmlns="http://www.w3.org/2000/svg">
<g clip-path="url(#clip0_78_2390)">
<path d="M19.6988 10.3435L10.5046 1.15602C10.4384 1.08969 10.3598 1.03707 10.2732 1.00116C10.1866 0.965259 10.0939 0.946777 10.0001 0.946777C9.90643 0.946777 9.81363 0.965259 9.72707 1.00116C9.64051 1.03707 9.56188 1.08969 9.49568 1.15602L0.301479 10.3435C0.0336216 10.6114 -0.118164 10.9752 -0.118164 11.3547C-0.118164 12.1426 0.522461 12.7833 1.31041 12.7833H2.27916V19.3391C2.27916 19.7341 2.59835 20.0533 2.99344 20.0533H8.57157V15.0533H11.0716V20.0533H17.0068C17.4019 20.0533 17.7211 19.7341 17.7211 19.3391V12.7833H18.6899C19.0693 12.7833 19.4332 12.6337 19.701 12.3636C20.2568 11.8056 20.2568 10.9016 19.6988 10.3435Z" fill="#009EF7"/>
</g>
<defs>
<clipPath id="clip0_78_2390">
<rect width="20" height="20" fill="white" transform="translate(0 0.5)"/>
</clipPath>
</defs>
</svg>
