<svg width="20" height="21" viewBox="0 0 20 21" fill="none" xmlns="http://www.w3.org/2000/svg">
<g clip-path="url(#clip0_78_2386)">
<path d="M19.6989 10.3439L11.0739 1.72334L10.4958 1.14522C10.364 1.01436 10.1859 0.940918 10.0002 0.940918C9.81456 0.940918 9.63642 1.01436 9.5047 1.14522L0.301571 10.3439C0.166596 10.4783 0.0599229 10.6385 -0.0121516 10.8148C-0.0842261 10.9912 -0.120241 11.1802 -0.118072 11.3707C-0.109143 12.1564 0.544875 12.7836 1.33059 12.7836H2.27925V20.0537H17.7212V12.7836H18.69C19.0717 12.7836 19.431 12.6341 19.7011 12.364C19.8341 12.2314 19.9395 12.0738 20.0111 11.9002C20.0828 11.7266 20.1193 11.5406 20.1185 11.3528C20.1185 10.9733 19.969 10.614 19.6989 10.3439ZM11.2502 18.4466H8.75023V13.893H11.2502V18.4466ZM16.1141 11.1765V18.4466H12.6788V13.3573C12.6788 12.864 12.2793 12.4644 11.7859 12.4644H8.21452C7.72121 12.4644 7.32166 12.864 7.32166 13.3573V18.4466H3.88639V11.1765H1.74354L10.0025 2.92423L10.5181 3.43986L18.2592 11.1765H16.1141Z" fill="#A1A5B7"/>
</g>
<defs>
<clipPath id="clip0_78_2386">
<rect width="20" height="20" fill="white" transform="translate(0 0.5)"/>
</clipPath>
</defs>
</svg>
