<svg width="27" height="16" viewBox="0 0 27 16" fill="none" xmlns="http://www.w3.org/2000/svg">
<path d="M0.936523 16V-4.76837e-07H7.24902C8.45736 -4.76837e-07 9.48861 0.216145 10.3428 0.648437C11.2021 1.07552 11.8558 1.68229 12.3037 2.46875C12.7568 3.25 12.9834 4.16927 12.9834 5.22656C12.9834 6.28906 12.7542 7.20312 12.2959 7.96875C11.8376 8.72917 11.1735 9.3125 10.3037 9.71875C9.43913 10.125 8.39225 10.3281 7.16309 10.3281H2.93652V7.60937H6.61621C7.26204 7.60937 7.7985 7.52083 8.22559 7.34375C8.65267 7.16667 8.97038 6.90104 9.17871 6.54688C9.39225 6.19271 9.49902 5.7526 9.49902 5.22656C9.49902 4.69531 9.39225 4.2474 9.17871 3.88281C8.97038 3.51823 8.65007 3.24219 8.21777 3.05469C7.79069 2.86198 7.25163 2.76562 6.60059 2.76562H4.31934V16H0.936523ZM9.57715 8.71875L13.5537 16H9.81934L5.92871 8.71875H9.57715ZM15.374 16V-4.76837e-07H26.1553V2.78906H18.7568V6.60156H25.6006V9.39062H18.7568V13.2109H26.1865V16H15.374Z" fill="#009EF7"/>
</svg>
