<svg width="16" height="17" viewBox="0 0 16 17" fill="none" xmlns="http://www.w3.org/2000/svg">
<path opacity="0.3" d="M10.6997 1.83301H5.29967C3.10894 1.83301 1.33301 3.60894 1.33301 5.79967V11.2063C1.33301 13.3971 3.10894 15.173 5.29967 15.173H10.6997C12.8904 15.173 14.6663 13.3971 14.6663 11.2063V5.79967C14.6663 3.60894 12.8904 1.83301 10.6997 1.83301Z" fill="#009EF7"/>
<path d="M4.66654 7.71981C4.54398 7.7182 4.42592 7.67333 4.33321 7.59314L3.43988 6.78648C3.33808 6.69442 3.27624 6.56626 3.26752 6.42929C3.25881 6.29232 3.3039 6.15736 3.39321 6.05314C3.43615 6.00113 3.48918 5.95835 3.54909 5.92736C3.609 5.89638 3.67457 5.87784 3.74183 5.87286C3.8091 5.86788 3.87667 5.87655 3.9405 5.89837C4.00432 5.92019 4.06307 5.95469 4.11321 5.99981L4.57321 6.40648L5.38654 5.07314C5.42136 5.01511 5.46745 4.96464 5.5221 4.92471C5.57674 4.88479 5.63883 4.85621 5.7047 4.84068C5.77057 4.82514 5.83889 4.82296 5.90562 4.83426C5.97234 4.84556 6.03613 4.87012 6.09321 4.90648C6.2062 4.98384 6.28558 5.10123 6.31528 5.2349C6.34499 5.36858 6.3228 5.50854 6.25321 5.62648L5.11988 7.45314C5.08244 7.5182 5.03047 7.57371 4.96801 7.61535C4.90556 7.65698 4.83433 7.68361 4.75988 7.69314L4.66654 7.71981ZM12.4799 6.67314C12.4819 6.54144 12.4331 6.414 12.3438 6.31721C12.2545 6.22042 12.1313 6.16168 11.9999 6.15314H7.99988C7.88532 6.1796 7.7831 6.2441 7.70991 6.33611C7.63672 6.42813 7.59688 6.54223 7.59688 6.65981C7.59688 6.77739 7.63672 6.89149 7.70991 6.98351C7.7831 7.07553 7.88532 7.14002 7.99988 7.16648H11.9999C12.1268 7.15831 12.2461 7.10332 12.3348 7.01218C12.4235 6.92104 12.4752 6.80022 12.4799 6.67314ZM4.73988 11.3398C4.80858 11.3372 4.876 11.3205 4.93794 11.2907C4.99988 11.2608 5.05501 11.2186 5.09988 11.1665L6.23321 9.33314C6.30443 9.21563 6.32754 9.07516 6.29773 8.94103C6.26792 8.80689 6.18749 8.68943 6.07321 8.61314C6.01613 8.57678 5.95234 8.55223 5.88562 8.54093C5.81889 8.52963 5.75057 8.53181 5.6847 8.54734C5.61883 8.56288 5.55674 8.59145 5.5021 8.63138C5.44745 8.67131 5.40136 8.72178 5.36654 8.77981L4.55321 10.1131L4.09321 9.70648C4.04307 9.66136 3.98432 9.62686 3.9205 9.60504C3.85667 9.58322 3.7891 9.57454 3.72183 9.57952C3.65457 9.58451 3.589 9.60305 3.52909 9.63403C3.46918 9.66501 3.41615 9.7078 3.37321 9.75981C3.28549 9.86472 3.24142 9.99932 3.2501 10.1358C3.25879 10.2723 3.31956 10.4002 3.41988 10.4931L4.33321 11.2531C4.42592 11.3333 4.54398 11.3782 4.66654 11.3798L4.73988 11.3398ZM12.4999 10.2998C12.4884 10.1742 12.4311 10.0572 12.3389 9.97108C12.2467 9.885 12.126 9.8359 11.9999 9.83314H7.99988C7.86196 9.83314 7.7297 9.88793 7.63218 9.98545C7.53466 10.083 7.47988 10.2152 7.47988 10.3531C7.47988 10.4911 7.53466 10.6233 7.63218 10.7208C7.7297 10.8184 7.86196 10.8731 7.99988 10.8731H11.9999C12.0685 10.8715 12.136 10.856 12.1985 10.8278C12.2611 10.7996 12.3173 10.7591 12.3639 10.7087C12.4105 10.6584 12.4466 10.5992 12.4699 10.5347C12.4933 10.4702 12.5035 10.4017 12.4999 10.3331V10.2998Z" fill="#009EF7"/>
</svg>
