<svg width="106" height="17" viewBox="0 0 106 17" fill="none" xmlns="http://www.w3.org/2000/svg">
<path d="M0.390625 16V-4.76837e-07H6.70313C7.91146 -4.76837e-07 8.94271 0.216145 9.79688 0.648437C10.6563 1.07552 11.3099 1.68229 11.7578 2.46875C12.2109 3.25 12.4375 4.16927 12.4375 5.22656C12.4375 6.28906 12.2083 7.20312 11.75 7.96875C11.2917 8.72917 10.6276 9.3125 9.75781 9.71875C8.89323 10.125 7.84635 10.3281 6.61719 10.3281H2.39063V7.60937H6.07031C6.71615 7.60937 7.2526 7.52083 7.67969 7.34375C8.10677 7.16667 8.42448 6.90104 8.63281 6.54688C8.84635 6.19271 8.95313 5.7526 8.95313 5.22656C8.95313 4.69531 8.84635 4.2474 8.63281 3.88281C8.42448 3.51823 8.10417 3.24219 7.67188 3.05469C7.24479 2.86198 6.70573 2.76562 6.05469 2.76562H3.77344V16H0.390625ZM9.03125 8.71875L13.0078 16H9.27344L5.38281 8.71875H9.03125ZM20.041 16.2344C18.8066 16.2344 17.7441 15.9844 16.8535 15.4844C15.9681 14.9792 15.2858 14.2656 14.8066 13.3437C14.3275 12.4167 14.0879 11.3203 14.0879 10.0547C14.0879 8.82031 14.3275 7.73698 14.8066 6.80469C15.2858 5.8724 15.9603 5.14583 16.8301 4.625C17.7051 4.10417 18.7311 3.84375 19.9082 3.84375C20.6999 3.84375 21.4368 3.97135 22.1191 4.22656C22.8066 4.47656 23.4056 4.85417 23.916 5.35937C24.4316 5.86458 24.8327 6.5 25.1191 7.26562C25.4056 8.02604 25.5488 8.91667 25.5488 9.9375V10.8516H15.416V8.78906H22.416C22.416 8.3099 22.3118 7.88542 22.1035 7.51563C21.8952 7.14583 21.6061 6.85677 21.2363 6.64844C20.8717 6.4349 20.4473 6.32812 19.9629 6.32812C19.4577 6.32812 19.0098 6.44531 18.6191 6.67969C18.2337 6.90885 17.9316 7.21875 17.7129 7.60937C17.4941 7.99479 17.3822 8.42448 17.377 8.89844V10.8594C17.377 11.4531 17.4863 11.9661 17.7051 12.3984C17.929 12.8307 18.2441 13.1641 18.6504 13.3984C19.0566 13.6328 19.5384 13.75 20.0957 13.75C20.4655 13.75 20.804 13.6979 21.1113 13.5938C21.4186 13.4896 21.6816 13.3333 21.9004 13.125C22.1191 12.9167 22.2858 12.6615 22.4004 12.3594L25.4785 12.5625C25.3223 13.3021 25.002 13.9479 24.5176 14.5C24.0384 15.0469 23.4186 15.474 22.6582 15.7813C21.903 16.0833 21.0306 16.2344 20.041 16.2344ZM31.0488 9.0625V16H27.7207V4H30.8926V6.11719H31.0332C31.2988 5.41927 31.7441 4.86719 32.3691 4.46094C32.9941 4.04948 33.752 3.84375 34.6426 3.84375C35.4759 3.84375 36.2025 4.02604 36.8223 4.39062C37.4421 4.75521 37.9238 5.27604 38.2676 5.95312C38.6113 6.625 38.7832 7.42708 38.7832 8.35937V16H35.4551V8.95312C35.4603 8.21875 35.2728 7.64583 34.8926 7.23438C34.5124 6.81771 33.9889 6.60937 33.3223 6.60937C32.8743 6.60937 32.4785 6.70573 32.1348 6.89844C31.7962 7.09115 31.5306 7.3724 31.3379 7.74219C31.1504 8.10677 31.054 8.54688 31.0488 9.0625ZM47.7891 4V6.5H40.5625V4H47.7891ZM42.2031 1.125H45.5313V12.3125C45.5313 12.6198 45.5781 12.8594 45.6719 13.0312C45.7656 13.1979 45.8958 13.3151 46.0625 13.3828C46.2344 13.4505 46.4323 13.4844 46.6563 13.4844C46.8125 13.4844 46.9688 13.4714 47.125 13.4453C47.2812 13.4141 47.401 13.3906 47.4844 13.375L48.0078 15.8516C47.8411 15.9036 47.6068 15.9635 47.3047 16.0313C47.0026 16.1042 46.6354 16.1484 46.2031 16.1641C45.401 16.1953 44.6979 16.0885 44.0938 15.8437C43.4948 15.599 43.0286 15.2187 42.6953 14.7031C42.362 14.1875 42.1979 13.5365 42.2031 12.75V1.125ZM50.2773 16V-4.76837e-07H61.0586V2.78906H53.6602V6.60156H60.5039V9.39062H53.6602V13.2109H61.0898V16H50.2773ZM67.1074 16.2266C66.3418 16.2266 65.6595 16.0938 65.0605 15.8281C64.4616 15.5573 63.9876 15.1589 63.6387 14.6328C63.2949 14.1016 63.123 13.4401 63.123 12.6484C63.123 11.9818 63.2454 11.4219 63.4902 10.9687C63.735 10.5156 64.0684 10.151 64.4902 9.875C64.9121 9.59896 65.3913 9.39062 65.9277 9.25C66.4694 9.10937 67.0371 9.01042 67.6309 8.95312C68.3288 8.88021 68.8913 8.8125 69.3184 8.75C69.7454 8.68229 70.0553 8.58333 70.248 8.45312C70.4408 8.32292 70.5371 8.13021 70.5371 7.875V7.82812C70.5371 7.33333 70.3809 6.95052 70.0684 6.67969C69.7611 6.40885 69.3236 6.27344 68.7559 6.27344C68.1569 6.27344 67.6803 6.40625 67.3262 6.67187C66.972 6.93229 66.7376 7.26042 66.623 7.65625L63.5449 7.40625C63.7012 6.67708 64.0085 6.04687 64.4668 5.51562C64.9251 4.97917 65.5163 4.56771 66.2402 4.28125C66.9694 3.98958 67.8132 3.84375 68.7715 3.84375C69.4382 3.84375 70.0762 3.92187 70.6855 4.07812C71.3001 4.23437 71.8444 4.47656 72.3184 4.80469C72.7975 5.13281 73.1751 5.55469 73.4512 6.07031C73.7272 6.58073 73.8652 7.19271 73.8652 7.90625V16H70.709V14.3359H70.6152C70.4225 14.7109 70.1647 15.0417 69.8418 15.3281C69.5189 15.6094 69.1309 15.8307 68.6777 15.9922C68.2246 16.1484 67.7012 16.2266 67.1074 16.2266ZM68.0605 13.9297C68.5501 13.9297 68.9824 13.8333 69.3574 13.6406C69.7324 13.4427 70.0267 13.1771 70.2402 12.8438C70.4538 12.5104 70.5605 12.1328 70.5605 11.7109V10.4375C70.4564 10.5052 70.3132 10.5677 70.1309 10.625C69.9538 10.6771 69.7533 10.7266 69.5293 10.7734C69.3053 10.8151 69.0814 10.8542 68.8574 10.8906C68.6335 10.9219 68.4303 10.9505 68.248 10.9766C67.8574 11.0339 67.5163 11.125 67.2246 11.25C66.9329 11.375 66.7064 11.5443 66.5449 11.7578C66.3835 11.9661 66.3027 12.2266 66.3027 12.5391C66.3027 12.9922 66.4668 13.3385 66.7949 13.5781C67.1283 13.8125 67.5501 13.9297 68.0605 13.9297ZM86.4316 7.42187L83.3848 7.60937C83.3327 7.34896 83.2207 7.11458 83.0488 6.90625C82.877 6.69271 82.6504 6.52344 82.3691 6.39844C82.0931 6.26823 81.7624 6.20312 81.377 6.20312C80.8613 6.20312 80.4264 6.3125 80.0723 6.53125C79.7181 6.74479 79.541 7.03125 79.541 7.39062C79.541 7.67708 79.6556 7.91927 79.8848 8.11719C80.1139 8.3151 80.5072 8.47396 81.0645 8.59375L83.2363 9.03125C84.403 9.27083 85.2728 9.65625 85.8457 10.1875C86.4186 10.7187 86.7051 11.4167 86.7051 12.2812C86.7051 13.0677 86.4733 13.7578 86.0098 14.3516C85.5514 14.9453 84.9212 15.4089 84.1191 15.7422C83.3223 16.0703 82.403 16.2344 81.3613 16.2344C79.7728 16.2344 78.5072 15.9036 77.5645 15.2422C76.627 14.5755 76.0775 13.6693 75.916 12.5234L79.1895 12.3516C79.2884 12.8359 79.528 13.2057 79.9082 13.4609C80.2884 13.7109 80.7754 13.8359 81.3691 13.8359C81.9525 13.8359 82.4212 13.724 82.7754 13.5C83.1348 13.2708 83.3171 12.9766 83.3223 12.6172C83.3171 12.3151 83.1895 12.0677 82.9395 11.875C82.6895 11.6771 82.304 11.526 81.7832 11.4219L79.7051 11.0078C78.5332 10.7734 77.6608 10.3672 77.0879 9.78906C76.5202 9.21094 76.2363 8.47396 76.2363 7.57812C76.2363 6.80729 76.4447 6.14323 76.8613 5.58594C77.2832 5.02865 77.8743 4.59896 78.6348 4.29687C79.4004 3.99479 80.2962 3.84375 81.3223 3.84375C82.8379 3.84375 84.0306 4.16406 84.9004 4.80469C85.7754 5.44531 86.2858 6.31771 86.4316 7.42187ZM94.2695 16.2344C93.0352 16.2344 91.9727 15.9844 91.082 15.4844C90.1966 14.9792 89.5143 14.2656 89.0352 13.3437C88.556 12.4167 88.3164 11.3203 88.3164 10.0547C88.3164 8.82031 88.556 7.73698 89.0352 6.80469C89.5143 5.8724 90.1888 5.14583 91.0586 4.625C91.9336 4.10417 92.9596 3.84375 94.1367 3.84375C94.9284 3.84375 95.6654 3.97135 96.3477 4.22656C97.0352 4.47656 97.6341 4.85417 98.1445 5.35937C98.6602 5.86458 99.0612 6.5 99.3477 7.26562C99.6341 8.02604 99.7773 8.91667 99.7773 9.9375V10.8516H89.6445V8.78906H96.6445C96.6445 8.3099 96.5404 7.88542 96.332 7.51563C96.1237 7.14583 95.8346 6.85677 95.4648 6.64844C95.1003 6.4349 94.6758 6.32812 94.1914 6.32812C93.6862 6.32812 93.2383 6.44531 92.8477 6.67969C92.4622 6.90885 92.1602 7.21875 91.9414 7.60937C91.7227 7.99479 91.6107 8.42448 91.6055 8.89844V10.8594C91.6055 11.4531 91.7148 11.9661 91.9336 12.3984C92.1576 12.8307 92.4727 13.1641 92.8789 13.3984C93.2852 13.6328 93.7669 13.75 94.3242 13.75C94.694 13.75 95.0326 13.6979 95.3398 13.5938C95.6471 13.4896 95.9102 13.3333 96.1289 13.125C96.3477 12.9167 96.5143 12.6615 96.6289 12.3594L99.707 12.5625C99.5508 13.3021 99.2305 13.9479 98.7461 14.5C98.2669 15.0469 97.6471 15.474 96.8867 15.7813C96.1315 16.0833 95.2591 16.2344 94.2695 16.2344ZM103.895 16.2031C103.379 16.2031 102.936 16.0208 102.566 15.6562C102.202 15.2865 102.02 14.8437 102.02 14.3281C102.02 13.8177 102.202 13.3802 102.566 13.0156C102.936 12.651 103.379 12.4687 103.895 12.4687C104.395 12.4687 104.832 12.651 105.207 13.0156C105.582 13.3802 105.77 13.8177 105.77 14.3281C105.77 14.6719 105.681 14.987 105.504 15.2734C105.332 15.5547 105.105 15.7812 104.824 15.9531C104.543 16.1198 104.233 16.2031 103.895 16.2031Z" fill="#009EF7"/>
</svg>
