<svg width="20" height="21" viewBox="0 0 20 21" fill="none" xmlns="http://www.w3.org/2000/svg">
<path d="M13.6606 12.9775C13.2409 12.9775 12.9016 13.3168 12.9016 13.7365C12.9016 14.1561 13.2409 14.4954 13.6606 14.4954C14.0802 14.4954 14.4195 14.1561 14.4195 13.7365C14.4195 13.3168 14.0802 12.9775 13.6606 12.9775ZM18.2141 2.82129H13.482C13.482 2.13156 12.9217 1.57129 12.232 1.57129H10.4463C9.75656 1.57129 9.19629 2.13156 9.19629 2.82129H4.46415C4.06906 2.82129 3.74986 3.14049 3.74986 3.53557V7.99986H1.78557C1.39049 7.99986 1.07129 8.31906 1.07129 8.71415V18.7141C1.07129 19.1092 1.39049 19.4284 1.78557 19.4284H9.28557C9.68066 19.4284 9.99986 19.1092 9.99986 18.7141V18.357H18.2141C18.6092 18.357 18.9284 18.0378 18.9284 17.6427V3.53557C18.9284 3.14049 18.6092 2.82129 18.2141 2.82129ZM8.57129 17.9999H2.49986V12.8213H8.57129V17.9999ZM8.57129 11.3927H2.49986V9.42843H8.57129V11.3927ZM9.01772 5.32129V4.24986H10.6249V2.99986H12.0534V4.24986H13.6606V5.32129H9.01772ZM13.0356 9.07129V10.3213C13.0356 10.4195 12.9552 10.4999 12.857 10.4999H11.7856C11.6874 10.4999 11.607 10.4195 11.607 10.3213V9.07129C11.607 8.97307 11.6874 8.89272 11.7856 8.89272H12.857C12.9552 8.89272 13.0356 8.97307 13.0356 9.07129ZM13.6606 15.79C12.5266 15.79 11.607 14.8704 11.607 13.7365C11.607 12.6025 12.5266 11.6829 13.6606 11.6829C14.7945 11.6829 15.7141 12.6025 15.7141 13.7365C15.7141 14.8704 14.7945 15.79 13.6606 15.79ZM15.7141 10.3213C15.7141 10.4195 15.6338 10.4999 15.5356 10.4999H14.4641C14.3659 10.4999 14.2856 10.4195 14.2856 10.3213V8.17843C14.2856 8.08022 14.3659 7.99986 14.4641 7.99986H15.5356C15.6338 7.99986 15.7141 8.08022 15.7141 8.17843V10.3213ZM13.6606 11.6829C12.5266 11.6829 11.607 12.6025 11.607 13.7365C11.607 14.8704 12.5266 15.79 13.6606 15.79C14.7945 15.79 15.7141 14.8704 15.7141 13.7365C15.7141 12.6025 14.7945 11.6829 13.6606 11.6829ZM13.6606 14.4954C13.2409 14.4954 12.9016 14.1561 12.9016 13.7365C12.9016 13.3168 13.2409 12.9775 13.6606 12.9775C14.0802 12.9775 14.4195 13.3168 14.4195 13.7365C14.4195 14.1561 14.0802 14.4954 13.6606 14.4954Z" fill="#009EF7"/>
</svg>
