<svg width="38" height="40" viewBox="0 0 38 40" fill="none" xmlns="http://www.w3.org/2000/svg">
<mask id="path-1-inside-1_2171_6858" fill="white">
<path d="M0 6C0 2.68629 2.68629 0 6 0H38V40H6C2.68629 40 0 37.3137 0 34V6Z"/>
</mask>
<path d="M0 6C0 2.68629 2.68629 0 6 0H38V40H6C2.68629 40 0 37.3137 0 34V6Z" fill="#F1F1F2"/>
<path d="M0 0H38H0ZM38 40H0H38ZM0 40V0V40ZM39 0V40H37V0H39Z" fill="#DDDDDD" mask="url(#path-1-inside-1_2171_6858)"/>
<path d="M22.4176 17.304L22.0646 18.6065H15.4673L15.8253 17.304H22.4176ZM19.1016 25L15.6214 20.8139L15.6165 19.7102H17.3366C17.7476 19.7102 18.0907 19.6423 18.3658 19.5064C18.6442 19.3672 18.8546 19.1733 18.9972 18.9247C19.143 18.6728 19.2159 18.3778 19.2159 18.0398C19.2159 17.5327 19.0668 17.125 18.7685 16.8168C18.4702 16.5085 17.9929 16.3544 17.3366 16.3544H15.4673L15.8551 14.8182H17.3366C18.1719 14.8182 18.8629 14.9474 19.4098 15.206C19.96 15.4612 20.371 15.8224 20.6428 16.2898C20.9179 16.7571 21.0554 17.304 21.0554 17.9304C21.0554 18.4839 20.9543 18.9777 20.7521 19.4119C20.55 19.8461 20.2318 20.2024 19.7976 20.4808C19.3634 20.7592 18.795 20.9448 18.0923 21.0376L18.0327 21.0575L21.1747 24.9105V25H19.1016ZM22.4276 14.8182L22.0646 16.1406L16.7152 16.1207L17.0781 14.8182H22.4276Z" fill="#7E8299"/>
</svg>
