<svg width="39" height="41" viewBox="0 0 39 41" fill="none" xmlns="http://www.w3.org/2000/svg">
<path d="M0.476562 6.9375C0.476562 3.62379 3.16285 0.9375 6.47656 0.9375H38.4766V40.9375H6.47656C3.16285 40.9375 0.476562 38.2512 0.476562 34.9375V6.9375Z" fill="#F1F1F1"/>
<path opacity="0.3" d="M27.3938 27.1211L24.7521 24.6211C24.2498 25.2677 23.6479 25.8303 22.9688 26.2878L25.6854 28.8711C25.7997 29.0045 25.9409 29.1122 26.0998 29.187C26.2587 29.2618 26.4317 29.302 26.6073 29.305C26.7829 29.308 26.9572 29.2737 27.1186 29.2044C27.28 29.1351 27.4248 29.0324 27.5435 28.9029C27.6623 28.7735 27.7522 28.6204 27.8074 28.4536C27.8626 28.2869 27.8818 28.1103 27.8637 27.9356C27.8456 27.7609 27.7906 27.592 27.7024 27.4401C27.6142 27.2882 27.4948 27.1568 27.3521 27.0544L27.3938 27.1211Z" fill="#999999"/>
<path d="M18.7598 12.6035C17.2764 12.6035 15.8264 13.0434 14.593 13.8675C13.3596 14.6916 12.3983 15.8629 11.8307 17.2334C11.263 18.6038 11.1145 20.1118 11.4039 21.5667C11.6933 23.0216 12.4076 24.3579 13.4565 25.4068C14.5054 26.4557 15.8417 27.17 17.2966 27.4594C18.7514 27.7488 20.2594 27.6003 21.6299 27.0326C23.0003 26.465 24.1717 25.5037 24.9958 24.2703C25.8199 23.0369 26.2598 21.5869 26.2598 20.1035C26.2598 18.1144 25.4696 16.2067 24.0631 14.8002C22.6565 13.3937 20.7489 12.6035 18.7598 12.6035ZM18.7598 25.4035C17.7135 25.4035 16.6908 25.0934 15.8207 24.5123C14.9507 23.9312 14.2725 23.1052 13.8717 22.1388C13.471 21.1724 13.3657 20.1088 13.5692 19.0826C13.7727 18.0563 14.2758 17.1134 15.0151 16.373C15.7543 15.6326 16.6964 15.128 17.7223 14.9229C18.7483 14.7178 19.812 14.8214 20.779 15.2206C21.7461 15.6198 22.5731 16.2968 23.1556 17.1659C23.738 18.035 24.0498 19.0573 24.0514 20.1035C24.0536 20.7994 23.9183 21.4889 23.6533 22.1324C23.3882 22.7759 22.9987 23.3607 22.5069 23.8531C22.0152 24.3456 21.4311 24.7361 20.788 25.0022C20.145 25.2682 19.4557 25.4046 18.7598 25.4035Z" fill="#999999"/>
</svg>
