<svg width="34" height="34" viewBox="0 0 34 34" fill="none" xmlns="http://www.w3.org/2000/svg">
<rect width="34.0069" height="33.9969" rx="4" fill="#E8FFF3"/>
<path opacity="0.3" d="M26.3884 15.5284L24.9984 14.1184C24.9015 14.0235 24.8249 13.9098 24.7734 13.7843C24.7218 13.6588 24.6963 13.5241 24.6984 13.3884V11.3884C24.6971 11.1144 24.6417 10.8434 24.5353 10.5909C24.429 10.3384 24.2738 10.1094 24.0786 9.91701C23.8835 9.72467 23.6523 9.57277 23.3983 9.47004C23.1442 9.36732 22.8724 9.3158 22.5984 9.31844H20.5984C20.4628 9.32057 20.3281 9.29508 20.2026 9.2435C20.0771 9.19193 19.9634 9.11535 19.8684 9.01844L18.4684 7.60844C18.0784 7.21884 17.5497 7 16.9984 7C16.4472 7 15.9184 7.21884 15.5284 7.60844L14.1184 8.99844C14.0235 9.09535 13.9098 9.17193 13.7843 9.2235C13.6588 9.27508 13.5241 9.30057 13.3884 9.29844H11.3884C11.1144 9.29974 10.8434 9.35517 10.5909 9.46154C10.3384 9.5679 10.1094 9.72311 9.91701 9.91825C9.72467 10.1134 9.57277 10.3446 9.47004 10.5986C9.36732 10.8526 9.3158 11.1244 9.31844 11.3984V13.3984C9.32057 13.5341 9.29508 13.6688 9.2435 13.7943C9.19193 13.9198 9.11535 14.0335 9.01844 14.1284L7.60844 15.5284C7.21884 15.9184 7 16.4472 7 16.9984C7 17.5497 7.21884 18.0784 7.60844 18.4684L8.99844 19.8784C9.09535 19.9734 9.17193 20.0871 9.2235 20.2126C9.27508 20.3381 9.30057 20.4728 9.29844 20.6084V22.6084C9.29974 22.8824 9.35517 23.1535 9.46154 23.406C9.5679 23.6585 9.72311 23.8875 9.91825 24.0799C10.1134 24.2722 10.3446 24.4241 10.5986 24.5268C10.8526 24.6296 11.1244 24.6811 11.3984 24.6784H13.3984C13.5341 24.6763 13.6688 24.7018 13.7943 24.7534C13.9198 24.8049 14.0335 24.8815 14.1284 24.9784L15.5384 26.3884C15.9284 26.778 16.4572 26.9969 17.0084 26.9969C17.5597 26.9969 18.0884 26.778 18.4784 26.3884L19.8784 24.9984C19.9734 24.9015 20.0871 24.8249 20.2126 24.7734C20.3381 24.7218 20.4728 24.6963 20.6084 24.6984H22.6084C23.1601 24.6984 23.6891 24.4793 24.0792 24.0892C24.4693 23.6991 24.6884 23.1701 24.6884 22.6184V20.6184C24.6863 20.4828 24.7118 20.3481 24.7634 20.2226C24.8149 20.0971 24.8915 19.9834 24.9884 19.8884L26.3984 18.4784C26.5922 18.2845 26.7457 18.0541 26.8501 17.8006C26.9545 17.5471 27.0078 17.2755 27.0069 17.0014C27.006 16.7272 26.9508 16.4559 26.8447 16.2032C26.7386 15.9504 26.5835 15.7211 26.3884 15.5284Z" fill="#00C47D"/>
<path d="M15.7383 20.2078C15.6392 20.2064 15.5413 20.1853 15.4503 20.1459C15.3593 20.1064 15.2771 20.0493 15.2083 19.9778L12.8383 17.5778C12.7654 17.5084 12.7073 17.425 12.6673 17.3327C12.6273 17.2403 12.6063 17.1409 12.6055 17.0403C12.6047 16.9396 12.6242 16.8399 12.6628 16.7469C12.7014 16.654 12.7583 16.5698 12.8302 16.4993C12.902 16.4288 12.9873 16.3735 13.0809 16.3366C13.1746 16.2998 13.2747 16.2822 13.3753 16.2848C13.4759 16.2875 13.5749 16.3104 13.6665 16.3521C13.7581 16.3939 13.8403 16.4536 13.9083 16.5278L15.7483 18.3978L20.1283 14.1178C20.269 13.9773 20.4596 13.8984 20.6583 13.8984C20.8571 13.8984 21.0477 13.9773 21.1883 14.1178C21.3288 14.2584 21.4077 14.449 21.4077 14.6478C21.4077 14.8465 21.3288 15.0372 21.1883 15.1778L16.2683 19.9978C16.1983 20.0661 16.1153 20.1198 16.0244 20.1559C15.9334 20.1919 15.8362 20.2096 15.7383 20.2078Z" fill="#00C47D"/>
</svg>
