<svg width="22" height="25" viewBox="0 0 22 25" fill="none" xmlns="http://www.w3.org/2000/svg">
<path opacity="0.3" d="M17.3566 0.0429688H4.23655C1.9685 0.0429688 0.129883 1.88159 0.129883 4.14963V22.603C0.129883 24.871 1.9685 26.7096 4.23655 26.7096H17.3566C19.6246 26.7096 21.4632 24.871 21.4632 22.603V4.14963C21.4632 1.88159 19.6246 0.0429688 17.3566 0.0429688Z" fill="#666666"/>
<path d="M13.3833 5.71094H8.20996C7.94474 5.71094 7.69039 5.60558 7.50285 5.41804C7.31532 5.23051 7.20996 4.97615 7.20996 4.71094C7.20996 4.44572 7.31532 4.19137 7.50285 4.00383C7.69039 3.81629 7.94474 3.71094 8.20996 3.71094H13.3833C13.6485 3.71094 13.9029 3.81629 14.0904 4.00383C14.2779 4.19137 14.3833 4.44572 14.3833 4.71094C14.3833 4.97615 14.2779 5.23051 14.0904 5.41804C13.9029 5.60558 13.6485 5.71094 13.3833 5.71094Z" fill="#666666"/>
<path d="M10.7962 23.1081C12.0849 23.1081 13.1296 22.0634 13.1296 20.7747C13.1296 19.4861 12.0849 18.4414 10.7962 18.4414C9.50756 18.4414 8.46289 19.4861 8.46289 20.7747C8.46289 22.0634 9.50756 23.1081 10.7962 23.1081Z" fill="#666666"/>
</svg>
