<svg width="47" height="47" viewBox="0 0 47 47" fill="none" xmlns="http://www.w3.org/2000/svg">
<path d="M23.6559 37.0618C23.1476 37.0618 22.6601 36.8599 22.3006 36.5005C21.9412 36.141 21.7393 35.6535 21.7393 35.1452V12.1452C21.7393 11.6369 21.9412 11.1493 22.3006 10.7899C22.6601 10.4304 23.1476 10.2285 23.6559 10.2285C24.1643 10.2285 24.6518 10.4304 25.0112 10.7899C25.3707 11.1493 25.5726 11.6369 25.5726 12.1452V35.1452C25.5726 35.6535 25.3707 36.141 25.0112 36.5005C24.6518 36.8599 24.1643 37.0618 23.6559 37.0618Z" fill="#666666"/>
<path d="M12.1559 25.5618C11.6476 25.5618 11.1601 25.3599 10.8006 25.0005C10.4412 24.641 10.2393 24.1535 10.2393 23.6452C10.2393 23.1369 10.4412 22.6493 10.8006 22.2899C11.1601 21.9304 11.6476 21.7285 12.1559 21.7285H35.1559C35.6643 21.7285 36.1518 21.9304 36.5112 22.2899C36.8707 22.6493 37.0726 23.1369 37.0726 23.6452C37.0726 24.1535 36.8707 24.641 36.5112 25.0005C36.1518 25.3599 35.6643 25.5618 35.1559 25.5618H12.1559Z" fill="#666666"/>
</svg>
