<svg width="20" height="21" viewBox="0 0 20 21" fill="none" xmlns="http://www.w3.org/2000/svg">
<path d="M10.0002 12.1668V18.8335H3.3335C3.3335 15.1516 6.31826 12.1668 10.0002 12.1668ZM10.0002 11.3335C7.23766 11.3335 5.00016 9.096 5.00016 6.3335C5.00016 3.571 7.23766 1.3335 10.0002 1.3335C12.7627 1.3335 15.0002 3.571 15.0002 6.3335C15.0002 9.096 12.7627 11.3335 10.0002 11.3335ZM12.1623 16.1764C12.1107 15.9594 12.0835 15.733 12.0835 15.5002C12.0835 15.2674 12.1107 15.041 12.1622 14.824L11.3359 14.3469L12.1692 12.9035L12.9962 13.3809C13.3237 13.0711 13.7232 12.8363 14.1668 12.7042V11.7502H15.8335V12.7042C16.2772 12.8363 16.6765 13.0711 17.0041 13.3809L17.8311 12.9034L18.6645 14.3468L17.8381 14.8239C17.8896 15.041 17.9168 15.2674 17.9168 15.5002C17.9168 15.7329 17.8896 15.9593 17.8381 16.1763L18.6645 16.6534L17.8312 18.0968L17.0042 17.6193C16.6766 17.9292 16.2772 18.164 15.8336 18.296V19.2502H14.1669V18.2961C13.7232 18.1641 13.3238 17.9293 12.9962 17.6194L12.1693 18.0969L11.3359 16.6535L12.1623 16.1764ZM15.0002 14.6668C14.5399 14.6668 14.1668 15.0399 14.1668 15.5002C14.1668 15.9604 14.5399 16.3335 15.0002 16.3335C15.4604 16.3335 15.8335 15.9604 15.8335 15.5002C15.8335 15.0399 15.4604 14.6668 15.0002 14.6668Z" fill="#009EF7"/>
</svg>
