<svg width="30" height="30" viewBox="0 0 30 30" fill="none" xmlns="http://www.w3.org/2000/svg">
<rect width="30" height="30" rx="9" fill="#F1F1F1"/>
<path d="M15.0006 19.6265C14.8682 19.6273 14.7386 19.5886 14.6282 19.5154C14.5179 19.4422 14.4318 19.3378 14.381 19.2155C14.3303 19.0932 14.3171 18.9586 14.3431 18.8287C14.3691 18.6989 14.4333 18.5798 14.5273 18.4865L18.014 14.9998L14.5273 11.5132C14.4031 11.3883 14.3334 11.2193 14.3334 11.0432C14.3334 10.8671 14.4031 10.6981 14.5273 10.5732C14.5893 10.5107 14.663 10.4611 14.7442 10.4272C14.8255 10.3934 14.9126 10.376 15.0006 10.376C15.0886 10.376 15.1758 10.3934 15.257 10.4272C15.3382 10.4611 15.412 10.5107 15.474 10.5732L19.4273 14.5265C19.4903 14.5883 19.5404 14.6619 19.5747 14.7431C19.6091 14.8244 19.6269 14.9116 19.6273 14.9998C19.6269 15.088 19.6091 15.1753 19.5747 15.2566C19.5404 15.3378 19.4903 15.4114 19.4273 15.4732L15.474 19.4265C15.4122 19.4895 15.3386 19.5396 15.2573 19.5739C15.1761 19.6083 15.0888 19.6261 15.0006 19.6265Z" fill="#666666"/>
<path opacity="0.3" d="M18.9597 15.6663H11.0397C10.8629 15.6663 10.6933 15.5961 10.5683 15.4711C10.4433 15.3461 10.373 15.1765 10.373 14.9997C10.373 14.8229 10.4433 14.6533 10.5683 14.5283C10.6933 14.4032 10.8629 14.333 11.0397 14.333H18.9597C19.1365 14.333 19.3061 14.4032 19.4311 14.5283C19.5561 14.6533 19.6264 14.8229 19.6264 14.9997C19.6264 15.1765 19.5561 15.3461 19.4311 15.4711C19.3061 15.5961 19.1365 15.6663 18.9597 15.6663Z" fill="#666666"/>
</svg>
