<svg width="34" height="34" viewBox="0 0 34 34" fill="none" xmlns="http://www.w3.org/2000/svg">
<rect width="34.0069" height="33.9969" rx="4" fill="#FFF3EF"/>
<path d="M16.681 6.5C17.0659 5.83333 18.0281 5.83333 18.413 6.5L28.228 23.5C28.6129 24.1667 28.1318 25 27.362 25H7.73205C6.96225 25 6.48113 24.1667 6.86603 23.5L16.681 6.5Z" fill="#FFD3AA"/>
<path d="M17.2483 18.8634C17.513 18.8634 17.767 18.7582 17.9542 18.571C18.1414 18.3838 18.2466 18.1298 18.2466 17.8651V13.2131C18.2466 12.9484 18.1414 12.6944 17.9542 12.5072C17.767 12.32 17.513 12.2148 17.2483 12.2148C16.9835 12.2148 16.7296 12.32 16.5424 12.5072C16.3552 12.6944 16.25 12.9484 16.25 13.2131V17.8651C16.25 18.1298 16.3552 18.3838 16.5424 18.571C16.7296 18.7582 16.9835 18.8634 17.2483 18.8634Z" fill="#EC5D30"/>
<path d="M17.2478 22.7144C17.937 22.7144 18.4957 22.1558 18.4957 21.4666C18.4957 20.7774 17.937 20.2188 17.2478 20.2188C16.5587 20.2188 16 20.7774 16 21.4666C16 22.1558 16.5587 22.7144 17.2478 22.7144Z" fill="#EC5D30"/>
</svg>
