<svg width="30" height="30" viewBox="0 0 30 30" fill="none" xmlns="http://www.w3.org/2000/svg">
<path d="M21.375 0H8.625C3.86154 0 0 3.86154 0 8.625V21.375C0 26.1385 3.86154 30 8.625 30H21.375C26.1385 30 30 26.1385 30 21.375V8.625C30 3.86154 26.1385 0 21.375 0Z" fill="#EFEDE5"/>
<path d="M15.5549 16.8305C16.665 16.8305 17.5649 15.9306 17.5649 14.8205C17.5649 13.7105 16.665 12.8105 15.5549 12.8105C14.4448 12.8105 13.5449 13.7105 13.5449 14.8205C13.5449 15.9306 14.4448 16.8305 15.5549 16.8305Z" fill="#66727E"/>
<path d="M8.02514 16.8305C9.13523 16.8305 10.0351 15.9306 10.0351 14.8205C10.0351 13.7105 9.13523 12.8105 8.02514 12.8105C6.91504 12.8105 6.01514 13.7105 6.01514 14.8205C6.01514 15.9306 6.91504 16.8305 8.02514 16.8305Z" fill="#66727E"/>
<path d="M23.0701 16.8305C24.1801 16.8305 25.0801 15.9306 25.0801 14.8205C25.0801 13.7105 24.1801 12.8105 23.0701 12.8105C21.96 12.8105 21.0601 13.7105 21.0601 14.8205C21.0601 15.9306 21.96 16.8305 23.0701 16.8305Z" fill="#66727E"/>
</svg>
