<svg width="20" height="20" viewBox="0 0 20 20" fill="none" xmlns="http://www.w3.org/2000/svg">
<path opacity="0.3" d="M9.16667 10.8334H5.83333C5.61232 10.8334 5.40036 10.7456 5.24408 10.5893C5.0878 10.4331 5 10.2211 5 10.0001C5 9.77907 5.0878 9.56711 5.24408 9.41083C5.40036 9.25455 5.61232 9.16675 5.83333 9.16675H9.16667V10.8334ZM14.1667 9.16675H10.8333V10.8334H14.1667C14.3877 10.8334 14.5996 10.7456 14.7559 10.5893C14.9122 10.4331 15 10.2211 15 10.0001C15 9.77907 14.9122 9.56711 14.7559 9.41083C14.5996 9.25455 14.3877 9.16675 14.1667 9.16675Z" fill="#FFFDF5"/>
<path opacity="0.3" d="M13.492 1.66675H6.50866C3.83468 1.66675 1.66699 3.83444 1.66699 6.50841V13.4917C1.66699 16.1657 3.83468 18.3334 6.50866 18.3334H13.492C16.166 18.3334 18.3337 16.1657 18.3337 13.4917V6.50841C18.3337 3.83444 16.166 1.66675 13.492 1.66675Z" fill="#FFFDF5"/>
<path d="M14.1667 9.16667H10.8333V5.83333C10.8333 5.61232 10.7455 5.40036 10.5893 5.24408C10.433 5.0878 10.221 5 10 5C9.77899 5 9.56702 5.0878 9.41074 5.24408C9.25446 5.40036 9.16667 5.61232 9.16667 5.83333V9.16667H5.83333C5.61232 9.16667 5.40036 9.25446 5.24408 9.41074C5.0878 9.56702 5 9.77899 5 10C5 10.221 5.0878 10.433 5.24408 10.5893C5.40036 10.7455 5.61232 10.8333 5.83333 10.8333H9.16667V14.1667C9.16667 14.3877 9.25446 14.5996 9.41074 14.7559C9.56702 14.9122 9.77899 15 10 15C10.221 15 10.433 14.9122 10.5893 14.7559C10.7455 14.5996 10.8333 14.3877 10.8333 14.1667V10.8333H14.1667C14.3877 10.8333 14.5996 10.7455 14.7559 10.5893C14.9122 10.433 15 10.221 15 10C15 9.77899 14.9122 9.56702 14.7559 9.41074C14.5996 9.25446 14.3877 9.16667 14.1667 9.16667Z" fill="#FFFDF5"/>
</svg>
