<svg width="36" height="36" viewBox="0 0 36 36" fill="none" xmlns="http://www.w3.org/2000/svg">
<path d="M29.4697 33.9109C29.4697 34.888 28.6822 35.6829 27.7161 35.6829H8.28316C7.317 35.6829 6.5295 34.888 6.5295 33.9109C6.5295 32.9338 7.31707 32.139 8.28316 32.139H27.716C28.6822 32.139 29.4697 32.9338 29.4697 33.9109Z" fill="#594740"/>
<path d="M6.5295 2.08914C6.5295 1.11201 7.31707 0.317193 8.28316 0.317193H27.7161C28.6822 0.317193 29.4697 1.11201 29.4697 2.08914C29.4697 3.06627 28.6822 3.86108 27.7161 3.86108H8.28316C7.31707 3.86108 6.5295 3.06627 6.5295 2.08914Z" fill="#594740"/>
<path d="M14.2333 19.4401C10.8025 21.9632 8.74989 25.9628 8.74989 30.141V31.4098H27.2494V30.141C27.2494 25.9628 25.2003 21.9632 21.7659 19.4401C21.3029 19.1047 21.0295 18.5652 21.0295 18C21.0295 17.4348 21.3029 16.8953 21.7623 16.5599C28.0028 11.9821 27.1926 4.85156 27.2494 4.59021H8.74989C8.83504 4.9822 7.87808 11.8953 14.237 16.5599C14.6964 16.8953 14.9699 17.4348 14.9699 18C14.9699 18.5652 14.6964 19.1047 14.2333 19.4401ZM13.7266 10.2451C10.8932 7.9117 11.3564 5.56938 11.3057 5.35957H24.6936C24.6729 5.42208 25.0487 8.60154 21.5617 10.7556C19.7205 11.8967 18.5465 13.8582 18.5465 16.0276V19.9761C18.5465 20.636 18.9512 21.2449 19.5784 21.449C20.7463 21.8255 21.5135 22.501 22.2727 23.4397H13.7266C14.4635 22.5449 15.1857 21.8471 16.4209 21.449C17.048 21.2449 17.4527 20.636 17.4527 19.9761V16.0276C17.4527 12.2882 14.3773 10.7804 13.7266 10.2451Z" fill="#594740"/>
</svg>
