<svg width="76" height="76" viewBox="0 0 76 76" fill="none" xmlns="http://www.w3.org/2000/svg">
<circle cx="38" cy="38" r="38" fill="#00C47D" fill-opacity="0.15"/>
<path d="M52.5622 37.9993C52.5622 40.8837 51.7069 43.7032 50.1044 46.1014C48.502 48.4996 46.2244 50.3688 43.5596 51.4726C40.8949 52.5764 37.9627 52.8652 35.1338 52.3025C32.3049 51.7398 29.7064 50.3508 27.6669 48.3113C25.6274 46.2718 24.2384 43.6733 23.6757 40.8444C23.113 38.0155 23.4018 35.0833 24.5056 32.4185C25.6094 29.7538 27.4786 27.4762 29.8768 25.8738C32.275 24.2713 35.0945 23.416 37.9788 23.416C39.894 23.416 41.7903 23.7932 43.5596 24.5261C45.329 25.259 46.9366 26.3332 48.2908 27.6874C49.645 29.0416 50.7192 30.6492 51.4521 32.4185C52.185 34.1879 52.5622 36.0842 52.5622 37.9993ZM37.5413 43.4098L46.2913 34.6598C46.563 34.3865 46.7154 34.0169 46.7154 33.6316C46.7154 33.2464 46.563 32.8768 46.2913 32.6035C46.0181 32.3319 45.6485 32.1794 45.2632 32.1794C44.878 32.1794 44.5083 32.3319 44.2351 32.6035L36.5205 40.3181L31.708 35.5056C31.4353 35.231 31.0647 35.0759 30.6778 35.0746C30.2908 35.0732 29.9191 35.2256 29.6445 35.4983C29.3699 35.771 29.2148 36.1416 29.2135 36.5286C29.2121 36.9156 29.3645 37.2872 29.6372 37.5618L35.4705 43.3952C35.6051 43.5328 35.7656 43.6425 35.9428 43.7178C36.12 43.793 36.3104 43.8325 36.5029 43.8339C36.6954 43.8352 36.8863 43.7984 37.0645 43.7257C37.2428 43.6529 37.4048 43.5455 37.5413 43.4098Z" fill="#00C47D"/>
</svg>
