<svg width="275" height="80" viewBox="0 0 275 80" fill="none" xmlns="http://www.w3.org/2000/svg">
<path d="M272.595 70.8459C272.595 75.056 269.107 78.4661 264.793 78.4661H9.45235C5.14 78.4661 1.63965 75.056 1.63965 70.8459V10.0774C1.63965 5.86939 5.14 2.44727 9.45235 2.44727H264.791C269.107 2.44727 272.593 5.86939 272.593 10.0774L272.595 70.8459Z" fill="black"/>
<path d="M263.969 2.53951C268.668 2.53951 272.491 6.25991 272.491 10.832V70.082C272.491 74.6542 268.668 78.3746 263.969 78.3746H10.2653C5.56674 78.3746 1.74343 74.6542 1.74343 70.082V10.832C1.74343 6.25991 5.56674 2.53951 10.2653 2.53951H263.969ZM263.969 0.957039H10.2653C4.68639 0.957039 0.117188 5.40326 0.117188 10.832V70.082C0.117188 75.5108 4.68639 79.957 10.2653 79.957H263.969C269.548 79.957 274.117 75.5108 274.117 70.082V10.832C274.117 5.40326 269.548 0.957039 263.969 0.957039Z" fill="#A6A6A6"/>
<path d="M61.2659 40.0311C61.2071 33.6657 66.6221 30.5689 66.8697 30.4247C63.803 26.0738 59.0496 25.4794 57.3792 25.432C53.3869 25.0231 49.5144 27.7565 47.4807 27.7565C45.4064 27.7565 42.2747 25.4715 38.8994 25.5386C34.556 25.6038 30.4927 28.0508 28.2642 31.8507C23.665 39.5986 27.0951 50.9845 31.5014 57.2472C33.7056 60.3144 36.2812 63.739 39.6524 63.6186C42.9506 63.4862 44.1825 61.5725 48.1626 61.5725C52.1062 61.5725 53.2631 63.6186 56.7013 63.5415C60.241 63.4862 62.4695 60.4605 64.5966 57.3657C67.1437 53.8502 68.1667 50.3881 68.2073 50.2103C68.1241 50.1827 61.3329 47.6606 61.2659 40.0311Z" fill="white"/>
<path d="M54.7711 21.3121C56.545 19.1534 57.7587 16.2166 57.4218 13.2363C54.8543 13.3469 51.6435 14.9645 49.7945 17.0757C48.1586 18.9362 46.6973 21.9856 47.0748 24.8533C49.9589 25.0626 52.9201 23.4372 54.7711 21.3121Z" fill="white"/>
<path d="M99.6704 20.7235C99.6704 23.0481 98.954 24.7979 97.5231 25.973C96.1977 27.0573 94.3142 27.6004 91.8746 27.6004C90.665 27.6004 89.6298 27.5491 88.7632 27.4464V14.7452C89.8937 14.5674 91.1115 14.4766 92.4267 14.4766C94.7506 14.4766 96.5022 14.9683 97.6834 15.9519C99.0067 17.0638 99.6704 18.6537 99.6704 20.7235ZM97.4277 20.7808C97.4277 19.2738 97.0177 18.1185 96.1977 17.3127C95.3778 16.5088 94.1803 16.1059 92.6033 16.1059C91.9335 16.1059 91.3631 16.1494 90.8902 16.2402V25.896C91.1521 25.9355 91.6311 25.9533 92.3272 25.9533C93.955 25.9533 95.2113 25.5129 96.0962 24.632C96.9812 23.7512 97.4277 22.4674 97.4277 20.7808Z" fill="white"/>
<path d="M111.562 22.754C111.562 24.1859 111.142 25.359 110.302 26.2794C109.421 27.2254 108.254 27.6974 106.797 27.6974C105.392 27.6974 104.274 27.2451 103.44 26.3366C102.607 25.4301 102.191 24.2866 102.191 22.908C102.191 21.4663 102.62 20.2833 103.48 19.3649C104.341 18.4465 105.498 17.9863 106.955 17.9863C108.359 17.9863 109.488 18.4386 110.342 19.3451C111.154 20.226 111.562 21.3636 111.562 22.754ZM109.356 22.8211C109.356 21.962 109.165 21.2253 108.786 20.6111C108.339 19.8685 107.704 19.4972 106.878 19.4972C106.023 19.4972 105.374 19.8685 104.927 20.6111C104.546 21.2253 104.357 21.9739 104.357 22.8587C104.357 23.7178 104.548 24.4545 104.927 25.0687C105.388 25.8113 106.029 26.1826 106.858 26.1826C107.669 26.1826 108.307 25.8054 108.765 25.0489C109.159 24.4229 109.356 23.6803 109.356 22.8211Z" fill="white"/>
<path d="M127.507 18.1758L124.513 27.4859H122.565L121.325 23.4431C121.01 22.4339 120.754 21.4306 120.555 20.4352H120.517C120.332 21.4582 120.076 22.4596 119.748 23.4431L118.43 27.4859H116.46L113.645 18.1758H115.83L116.912 22.6018C117.174 23.6485 117.389 24.6459 117.562 25.5899H117.6C117.759 24.8118 118.02 23.8203 118.39 22.6215L119.748 18.1778H121.481L122.782 22.5267C123.097 23.5873 123.352 24.6084 123.549 25.5919H123.608C123.752 24.634 123.969 23.613 124.257 22.5267L125.418 18.1778H127.507V18.1758Z" fill="white"/>
<path d="M138.534 27.4861H136.407V22.1536C136.407 20.5104 135.765 19.6888 134.479 19.6888C133.847 19.6888 133.338 19.914 132.942 20.3663C132.551 20.8185 132.352 21.3518 132.352 21.9621V27.4842H130.225V20.8363C130.225 20.0187 130.198 19.1319 130.147 18.172H132.017L132.116 19.6276H132.175C132.423 19.1753 132.792 18.8021 133.277 18.5038C133.854 18.1562 134.499 17.9805 135.205 17.9805C136.098 17.9805 136.841 18.2609 137.432 18.8238C138.166 19.5131 138.534 20.542 138.534 21.9087V27.4861Z" fill="white"/>
<path d="M144.399 27.4864H142.274V13.9043H144.399V27.4864Z" fill="white"/>
<path d="M156.922 22.754C156.922 24.1859 156.502 25.359 155.662 26.2794C154.781 27.2254 153.612 27.6974 152.157 27.6974C150.75 27.6974 149.632 27.2451 148.799 26.3366C147.967 25.4301 147.551 24.2866 147.551 22.908C147.551 21.4663 147.98 20.2833 148.84 19.3649C149.701 18.4465 150.858 17.9863 152.313 17.9863C153.719 17.9863 154.846 18.4386 155.702 19.3451C156.514 20.226 156.922 21.3636 156.922 22.754ZM154.714 22.8211C154.714 21.962 154.523 21.2253 154.144 20.6111C153.699 19.8685 153.062 19.4972 152.238 19.4972C151.381 19.4972 150.732 19.8685 150.287 20.6111C149.906 21.2253 149.717 21.9739 149.717 22.8587C149.717 23.7178 149.908 24.4545 150.287 25.0687C150.748 25.8113 151.389 26.1826 152.217 26.1826C153.029 26.1826 153.665 25.8054 154.123 25.0489C154.519 24.4229 154.714 23.6803 154.714 22.8211Z" fill="white"/>
<path d="M167.216 27.4861H165.307L165.148 26.4137H165.089C164.436 27.2688 163.504 27.6974 162.295 27.6974C161.391 27.6974 160.661 27.415 160.111 26.8541C159.611 26.3445 159.362 25.7106 159.362 24.9581C159.362 23.8205 159.849 22.9535 160.829 22.3531C161.808 21.7527 163.184 21.4584 164.955 21.4722V21.2984C164.955 20.0719 164.294 19.4597 162.968 19.4597C162.025 19.4597 161.193 19.6908 160.474 20.149L160.042 18.7902C160.931 18.2549 162.029 17.9863 163.324 17.9863C165.824 17.9863 167.078 19.2701 167.078 21.8376V25.2662C167.078 26.1964 167.125 26.937 167.216 27.4861ZM165.008 24.2866V22.8508C162.662 22.8113 161.489 23.4373 161.489 24.727C161.489 25.2129 161.623 25.5763 161.897 25.8192C162.171 26.0621 162.52 26.1826 162.936 26.1826C163.403 26.1826 163.839 26.0384 164.237 25.752C164.637 25.4637 164.882 25.0983 164.974 24.65C164.996 24.5493 165.008 24.4268 165.008 24.2866Z" fill="white"/>
<path d="M179.303 27.4864H177.415L177.316 25.9913H177.257C176.654 27.1289 175.627 27.6977 174.184 27.6977C173.031 27.6977 172.071 27.2573 171.31 26.3764C170.549 25.4956 170.169 24.352 170.169 22.9478C170.169 21.4409 170.581 20.2203 171.41 19.2881C172.211 18.4191 173.194 17.9846 174.363 17.9846C175.647 17.9846 176.547 18.4053 177.058 19.2486H177.099V13.9043H179.228V24.9781C179.228 25.8846 179.252 26.7201 179.303 27.4864ZM177.099 23.5601V22.0077C177.099 21.7391 177.078 21.5219 177.04 21.356C176.92 20.8583 176.662 20.4396 176.27 20.1018C175.875 19.7641 175.398 19.5943 174.848 19.5943C174.054 19.5943 173.433 19.9004 172.976 20.5146C172.524 21.1288 172.294 21.9129 172.294 22.8708C172.294 23.7911 172.512 24.5377 172.948 25.1124C173.409 25.7247 174.03 26.0308 174.807 26.0308C175.505 26.0308 176.063 25.776 176.488 25.2645C176.898 24.7925 177.099 24.2237 177.099 23.5601Z" fill="white"/>
<path d="M197.494 22.754C197.494 24.1859 197.074 25.359 196.234 26.2794C195.353 27.2254 194.188 27.6974 192.729 27.6974C191.326 27.6974 190.208 27.2451 189.372 26.3366C188.54 25.4301 188.124 24.2866 188.124 22.908C188.124 21.4663 188.552 20.2833 189.412 19.3649C190.273 18.4465 191.43 17.9863 192.889 17.9863C194.292 17.9863 195.422 18.4386 196.275 19.3451C197.086 20.226 197.494 21.3636 197.494 22.754ZM195.29 22.8211C195.29 21.962 195.099 21.2253 194.72 20.6111C194.271 19.8685 193.638 19.4972 192.81 19.4972C191.958 19.4972 191.308 19.8685 190.859 20.6111C190.478 21.2253 190.289 21.9739 190.289 22.8587C190.289 23.7178 190.48 24.4545 190.859 25.0687C191.32 25.8113 191.962 26.1826 192.79 26.1826C193.602 26.1826 194.241 25.8054 194.7 25.0489C195.091 24.4229 195.29 23.6803 195.29 22.8211Z" fill="white"/>
<path d="M208.931 27.4861H206.806V22.1536C206.806 20.5104 206.165 19.6888 204.876 19.6888C204.245 19.6888 203.735 19.914 203.342 20.3663C202.948 20.8185 202.751 21.3518 202.751 21.9621V27.4842H200.622V20.8363C200.622 20.0187 200.598 19.1319 200.547 18.172H202.414L202.514 19.6276H202.572C202.822 19.1753 203.191 18.8021 203.675 18.5038C204.253 18.1562 204.896 17.9805 205.605 17.9805C206.496 17.9805 207.239 18.2609 207.829 18.8238C208.566 19.5131 208.931 20.542 208.931 21.9087V27.4861Z" fill="white"/>
<path d="M223.246 19.7264H220.904V24.2492C220.904 25.3986 221.32 25.9734 222.144 25.9734C222.526 25.9734 222.843 25.9418 223.092 25.8766L223.147 27.4467C222.727 27.6008 222.175 27.6778 221.495 27.6778C220.655 27.6778 220.001 27.4289 219.528 26.9312C219.053 26.4335 218.818 25.5961 218.818 24.421V19.7264H217.419V18.1761H218.818V16.4697L220.902 15.8574V18.1741H223.244V19.7264H223.246Z" fill="white"/>
<path d="M234.507 27.4864H232.378V22.1934C232.378 20.5245 231.736 19.6891 230.451 19.6891C229.465 19.6891 228.791 20.1729 228.422 21.1407C228.359 21.3441 228.322 21.593 228.322 21.8853V27.4844H226.197V13.9043H228.322V19.5153H228.363C229.033 18.4942 229.993 17.9846 231.237 17.9846C232.118 17.9846 232.846 18.2651 233.425 18.828C234.145 19.5291 234.507 20.5719 234.507 21.9504V27.4864Z" fill="white"/>
<path d="M246.122 22.3908C246.122 22.7621 246.094 23.0741 246.043 23.3289H239.664C239.693 24.2492 239.997 24.9504 240.588 25.4362C241.127 25.8707 241.824 26.088 242.676 26.088C243.62 26.088 244.48 25.9418 245.256 25.6475L245.589 27.0853C244.681 27.4685 243.614 27.6601 242.378 27.6601C240.896 27.6601 239.729 27.2355 238.885 26.3862C238.036 25.537 237.616 24.3974 237.616 22.9675C237.616 21.5633 238.008 20.394 238.797 19.4618C239.621 18.4664 240.736 17.9688 242.142 17.9688C243.518 17.9688 244.564 18.4664 245.27 19.4618C245.84 20.2518 246.122 21.2295 246.122 22.3908ZM244.093 21.8555C244.109 21.2413 243.969 20.712 243.681 20.2657C243.311 19.691 242.749 19.4026 241.988 19.4026C241.294 19.4026 240.728 19.683 240.295 20.2459C239.942 20.6942 239.733 21.2295 239.664 21.8555H244.093Z" fill="white"/>
<path d="M108.997 63.1778H104.387L101.863 55.4576H93.0865L90.6814 63.1778H86.1938L94.8888 36.8945H100.259L108.997 63.1778ZM101.101 52.2186L98.8181 45.3554C98.5766 44.6543 98.124 43.0032 97.4563 40.4041H97.3751C97.1092 41.522 96.6809 43.1731 96.0923 45.3554L93.8496 52.2186H101.101Z" fill="white"/>
<path d="M131.357 53.47C131.357 56.6932 130.462 59.2409 128.672 61.1112C127.069 62.7762 125.078 63.6076 122.701 63.6076C120.136 63.6076 118.293 62.711 117.17 60.9177H117.089V70.9013H112.762V50.466C112.762 48.4396 112.707 46.36 112.602 44.227H116.407L116.649 47.2309H116.73C118.173 44.9676 120.363 43.8379 123.302 43.8379C125.599 43.8379 127.517 44.7207 129.052 46.4883C130.59 48.2579 131.357 50.5845 131.357 53.47ZM126.949 53.624C126.949 51.7794 126.523 50.2586 125.666 49.0618C124.731 47.8136 123.474 47.1895 121.899 47.1895C120.832 47.1895 119.862 47.5371 118.995 48.2224C118.126 48.9136 117.558 49.8162 117.292 50.9341C117.158 51.4555 117.091 51.8821 117.091 52.2178V55.3778C117.091 56.7564 117.525 57.9196 118.394 58.8696C119.263 59.8196 120.391 60.2936 121.78 60.2936C123.409 60.2936 124.678 59.6813 125.585 58.4608C126.494 57.2383 126.949 55.6267 126.949 53.624Z" fill="white"/>
<path d="M153.758 53.47C153.758 56.6932 152.863 59.2409 151.071 61.1112C149.47 62.7762 147.478 63.6076 145.102 63.6076C142.536 63.6076 140.693 62.711 139.573 60.9177H139.492V70.9013H135.165V50.466C135.165 48.4396 135.11 46.36 135.004 44.227H138.81L139.051 47.2309H139.133C140.574 44.9676 142.764 43.8379 145.705 43.8379C148 43.8379 149.918 44.7207 151.457 46.4883C152.989 48.2579 153.758 50.5845 153.758 53.47ZM149.35 53.624C149.35 51.7794 148.922 50.2586 148.065 49.0618C147.129 47.8136 145.877 47.1895 144.3 47.1895C143.23 47.1895 142.262 47.5371 141.394 48.2224C140.525 48.9136 139.959 49.8162 139.693 50.9341C139.561 51.4555 139.492 51.8821 139.492 52.2178V55.3778C139.492 56.7564 139.926 57.9196 140.791 58.8696C141.66 59.8176 142.788 60.2936 144.18 60.2936C145.81 60.2936 147.079 59.6813 147.986 58.4608C148.895 57.2383 149.35 55.6267 149.35 53.624Z" fill="white"/>
<path d="M178.804 55.8075C178.804 58.0432 178.006 59.8622 176.405 61.2664C174.645 62.801 172.196 63.5673 169.048 63.5673C166.141 63.5673 163.811 63.0222 162.047 61.93L163.05 58.4204C164.95 59.5383 167.034 60.0992 169.305 60.0992C170.935 60.0992 172.204 59.7397 173.115 59.0248C174.022 58.3098 174.475 57.35 174.475 56.1531C174.475 55.0866 174.101 54.188 173.352 53.4592C172.608 52.7304 171.363 52.053 169.626 51.4269C164.897 49.7107 162.534 47.1965 162.534 43.8903C162.534 41.7297 163.363 39.9581 165.021 38.5796C166.673 37.199 168.877 36.5098 171.633 36.5098C174.091 36.5098 176.133 36.9265 177.763 37.758L176.681 41.1905C175.159 40.3847 173.438 39.9818 171.512 39.9818C169.989 39.9818 168.8 40.3472 167.948 41.074C167.227 41.7238 166.866 42.5157 166.866 43.4539C166.866 44.4927 167.278 45.3518 168.106 46.0273C168.826 46.6514 170.135 47.3268 172.035 48.0556C174.359 48.9661 176.066 50.0306 177.164 51.2512C178.258 52.4678 178.804 53.9905 178.804 55.8075Z" fill="white"/>
<path d="M193.111 47.3861H188.341V56.5877C188.341 58.928 189.181 60.0972 190.866 60.0972C191.639 60.0972 192.281 60.0321 192.788 59.9017L192.908 63.0992C192.055 63.4093 190.933 63.5653 189.543 63.5653C187.834 63.5653 186.498 63.0578 185.534 62.0446C184.574 61.0294 184.091 59.327 184.091 56.9353V47.3822H181.25V44.2222H184.091V40.7521L188.341 39.5039V44.2222H193.111V47.3861Z" fill="white"/>
<path d="M214.631 53.547C214.631 56.4601 213.774 58.8518 212.065 60.7221C210.273 62.6478 207.894 63.6076 204.929 63.6076C202.071 63.6076 199.796 62.6853 198.099 60.8406C196.403 58.996 195.554 56.6675 195.554 53.861C195.554 50.9242 196.427 48.5186 198.179 46.6483C199.926 44.776 202.284 43.8398 205.25 43.8398C208.107 43.8398 210.407 44.7622 212.142 46.6088C213.803 48.4001 214.631 50.7128 214.631 53.547ZM210.141 53.6832C210.141 51.9354 209.758 50.4363 208.98 49.1862C208.073 47.6733 206.776 46.9189 205.095 46.9189C203.356 46.9189 202.035 47.6753 201.128 49.1862C200.35 50.4383 199.967 51.961 199.967 53.7622C199.967 55.5101 200.35 57.0091 201.128 58.2573C202.063 59.7702 203.37 60.5246 205.057 60.5246C206.709 60.5246 208.006 59.7544 208.942 58.2178C209.739 56.944 210.141 55.4291 210.141 53.6832Z" fill="white"/>
<path d="M228.696 47.9301C228.268 47.8531 227.811 47.8136 227.332 47.8136C225.81 47.8136 224.633 48.3725 223.805 49.4923C223.084 50.4798 222.723 51.728 222.723 53.2349V63.1791H218.398L218.438 50.1954C218.438 48.0111 218.383 46.0222 218.276 44.2289H222.045L222.203 47.855H222.323C222.78 46.6088 223.5 45.6055 224.487 44.853C225.451 44.1756 226.492 43.8379 227.614 43.8379C228.014 43.8379 228.375 43.8655 228.696 43.9149V47.9301Z" fill="white"/>
<path d="M248.049 52.8048C248.049 53.5593 247.998 54.1952 247.891 54.7146H234.909C234.96 56.5869 235.587 58.0188 236.793 59.0063C237.887 59.8891 239.301 60.3315 241.039 60.3315C242.961 60.3315 244.714 60.0333 246.291 59.4349L246.969 62.3579C245.126 63.14 242.95 63.5291 240.44 63.5291C237.42 63.5291 235.049 62.664 233.324 60.9359C231.603 59.2078 230.74 56.8871 230.74 53.976C230.74 51.1182 231.542 48.7383 233.147 46.8403C234.828 44.814 237.099 43.8008 239.957 43.8008C242.764 43.8008 244.889 44.814 246.332 46.8403C247.475 48.4499 248.049 50.4407 248.049 52.8048ZM243.923 51.7126C243.951 50.4644 243.669 49.3861 243.082 48.4756C242.333 47.3044 241.183 46.7198 239.634 46.7198C238.219 46.7198 237.069 47.2906 236.19 48.4361C235.469 49.3466 235.041 50.4388 234.909 51.7107H243.923V51.7126Z" fill="white"/>
</svg>
