<svg width="16" height="16" viewBox="0 0 16 16" fill="none" xmlns="http://www.w3.org/2000/svg">
<path d="M7.99965 12.6268C7.86723 12.6275 7.73758 12.5888 7.62724 12.5156C7.51689 12.4424 7.43084 12.338 7.38006 12.2157C7.32929 12.0934 7.31608 11.9588 7.34213 11.829C7.36817 11.6991 7.43229 11.58 7.52631 11.4868L11.013 8.00009L7.52631 4.51342C7.40214 4.38851 7.33245 4.21954 7.33245 4.04342C7.33245 3.8673 7.40214 3.69833 7.52631 3.57342C7.58829 3.51093 7.66202 3.46134 7.74326 3.42749C7.8245 3.39365 7.91164 3.37622 7.99965 3.37622C8.08765 3.37622 8.17479 3.39365 8.25603 3.42749C8.33727 3.46134 8.411 3.51093 8.47298 3.57342L12.4263 7.52675C12.4893 7.5885 12.5394 7.66213 12.5737 7.74338C12.6081 7.82463 12.6259 7.91188 12.6263 8.00009C12.6259 8.08829 12.6081 8.17555 12.5737 8.2568C12.5394 8.33805 12.4893 8.41168 12.4263 8.47342L8.47298 12.4268C8.41124 12.4897 8.33761 12.5399 8.25636 12.5742C8.17511 12.6085 8.08785 12.6264 7.99965 12.6268Z" fill="white"/>
<path opacity="0.3" d="M11.9597 8.66683H4.03971C3.8629 8.66683 3.69333 8.59659 3.56831 8.47157C3.44328 8.34654 3.37305 8.17697 3.37305 8.00016C3.37305 7.82335 3.44328 7.65378 3.56831 7.52876C3.69333 7.40373 3.8629 7.3335 4.03971 7.3335H11.9597C12.1365 7.3335 12.3061 7.40373 12.4311 7.52876C12.5561 7.65378 12.6264 7.82335 12.6264 8.00016C12.6264 8.17697 12.5561 8.34654 12.4311 8.47157C12.3061 8.59659 12.1365 8.66683 11.9597 8.66683Z" fill="white"/>
</svg>
