<svg width="17" height="16" viewBox="0 0 17 16" fill="none" xmlns="http://www.w3.org/2000/svg">
<path d="M8.50013 12.6265C8.36772 12.6273 8.23807 12.5886 8.12773 12.5154C8.01738 12.4422 7.93133 12.3378 7.88055 12.2155C7.82978 12.0932 7.81657 11.9586 7.84261 11.8287C7.86866 11.6989 7.93278 11.5798 8.0268 11.4865L11.5135 7.99984L8.0268 4.51318C7.90263 4.38827 7.83294 4.2193 7.83294 4.04318C7.83294 3.86705 7.90263 3.69808 8.0268 3.57318C8.08878 3.51069 8.16251 3.46109 8.24375 3.42725C8.32499 3.3934 8.41213 3.37598 8.50013 3.37598C8.58814 3.37598 8.67528 3.3934 8.75652 3.42725C8.83776 3.46109 8.91149 3.51069 8.97347 3.57318L12.9268 7.52651C12.9898 7.58825 13.0399 7.66188 13.0742 7.74313C13.1086 7.82438 13.1264 7.91164 13.1268 7.99984C13.1264 8.08805 13.1086 8.1753 13.0742 8.25655C13.0399 8.3378 12.9898 8.41143 12.9268 8.47318L8.97347 12.4265C8.91172 12.4895 8.83809 12.5396 8.75684 12.5739C8.67559 12.6083 8.58834 12.6261 8.50013 12.6265Z" fill="#3E97FF"/>
<path opacity="0.3" d="M12.4602 8.66634H4.5402C4.36339 8.66634 4.19382 8.5961 4.0688 8.47108C3.94377 8.34605 3.87354 8.17649 3.87354 7.99967C3.87354 7.82286 3.94377 7.65329 4.0688 7.52827C4.19382 7.40325 4.36339 7.33301 4.5402 7.33301H12.4602C12.637 7.33301 12.8066 7.40325 12.9316 7.52827C13.0566 7.65329 13.1269 7.82286 13.1269 7.99967C13.1269 8.17649 13.0566 8.34605 12.9316 8.47108C12.8066 8.5961 12.637 8.66634 12.4602 8.66634Z" fill="#3E97FF"/>
</svg>
