<svg width="15" height="15" viewBox="0 0 15 15" fill="none" xmlns="http://www.w3.org/2000/svg">
<circle cx="7.30762" cy="7.05029" r="6.5" fill="white" stroke="#00C47D"/>
<path d="M6.45618 9.81728C6.32851 9.81728 6.2434 9.77473 6.15829 9.68962L3.17942 6.71075C3.0092 6.54053 3.0092 6.28519 3.17942 6.11497C3.34964 5.94475 3.60497 5.94475 3.77519 6.11497L6.75406 9.09384C6.92428 9.26406 6.92428 9.5194 6.75406 9.68962C6.66895 9.77473 6.58384 9.81728 6.45618 9.81728Z" fill="#00C47D"/>
<path d="M6.45729 9.81539C6.32962 9.81539 6.24451 9.77284 6.1594 9.68773C5.98918 9.51751 5.98918 9.26217 6.1594 9.09195L10.8405 4.41087C11.0107 4.24065 11.266 4.24065 11.4363 4.41087C11.6065 4.58109 11.6065 4.83643 11.4363 5.00665L6.75517 9.68773C6.67006 9.77284 6.58496 9.81539 6.45729 9.81539Z" fill="#00C47D"/>
</svg>
