<svg width="30" height="30" viewBox="0 0 30 30" fill="none" xmlns="http://www.w3.org/2000/svg">
<rect width="30" height="30" rx="9" fill="#EFEDE5"/>
<g clip-path="url(#clip0_692_3875)">
<path d="M15 23.3013C19.42 23.3013 23 19.7213 23 15.3013C23 10.8813 19.42 7.30131 15 7.30131C10.58 7.30131 7 10.8813 7 15.3013C7 19.7213 10.58 23.3013 15 23.3013ZM21.4 15.3013C21.4 18.8373 18.536 21.7013 15 21.7013C13.52 21.7013 12.164 21.1933 11.08 20.3533L20.052 11.3813C20.892 12.4653 21.4 13.8213 21.4 15.3013ZM15 8.90128C16.48 8.90128 17.836 9.40929 18.92 10.2493L9.94802 19.2213C9.10802 18.1373 8.60001 16.7813 8.60001 15.3013C8.60001 11.7653 11.464 8.90128 15 8.90128Z" fill="#E48068"/>
</g>
<defs>
<clipPath id="clip0_692_3875">
<rect width="16" height="16" fill="white" transform="matrix(-1 0 0 -1 23 23.3013)"/>
</clipPath>
</defs>
</svg>
