<svg width="36" height="36" viewBox="0 0 36 36" fill="none" xmlns="http://www.w3.org/2000/svg">
<path d="M8.47036 1.05884C7.94095 1.05884 7.41154 1.48237 7.41154 2.11766V3.17649H4.23506C2.54095 3.17649 1.05859 4.55296 1.05859 6.35296V10.5883V31.7647C1.05859 33.5647 2.43506 34.9412 4.23506 34.9412H31.7645C33.5645 34.9412 34.9409 33.5647 34.9409 31.7647V10.5883V6.35296C34.9409 4.55296 33.5645 3.17649 31.7645 3.17649H28.588V2.11766C28.588 1.48237 28.1645 1.05884 27.5292 1.05884C26.8939 1.05884 26.4704 1.48237 26.4704 2.11766V3.17649H9.52918V2.11766C9.52918 1.48237 9.10565 1.05884 8.47036 1.05884ZM32.8233 31.7647C32.8233 32.4 32.3998 32.8235 31.7645 32.8235H4.23506C3.59977 32.8235 3.17624 32.4 3.17624 31.7647V11.6471H32.8233V31.7647ZM26.4704 5.29413V6.35296C26.4704 6.98825 26.8939 7.41178 27.5292 7.41178C28.1645 7.41178 28.588 6.98825 28.588 6.35296V5.29413H31.7645C32.3998 5.29413 32.8233 5.71766 32.8233 6.35296V9.52943H3.17624V6.35296C3.17624 5.71766 3.59977 5.29413 4.23506 5.29413H7.41154V6.35296C7.41154 6.98825 7.83506 7.41178 8.47036 7.41178C9.10565 7.41178 9.52918 6.98825 9.52918 6.35296V5.29413H26.4704Z" fill="#E48068"/>
<path d="M7.51781 20.6471H11.7531C12.3884 20.6471 12.8119 20.2236 12.8119 19.5883V15.353C12.8119 14.7177 12.3884 14.2942 11.7531 14.2942H7.51781C6.88251 14.2942 6.45898 14.7177 6.45898 15.353V19.5883C6.45898 20.2236 6.88251 20.6471 7.51781 20.6471ZM8.57663 16.4118H10.6943V18.5295H8.57663V16.4118Z" fill="#E48068"/>
<path d="M15.9875 20.6471H20.2228C20.8581 20.6471 21.2817 20.2236 21.2817 19.5883V15.353C21.2817 14.7177 20.8581 14.2942 20.2228 14.2942H15.9875C15.3522 14.2942 14.9287 14.7177 14.9287 15.353V19.5883C14.9287 20.2236 15.3522 20.6471 15.9875 20.6471ZM17.0464 16.4118H19.164V18.5295H17.0464V16.4118Z" fill="#E48068"/>
<path d="M24.4582 20.6471H28.6935C29.3288 20.6471 29.7524 20.2236 29.7524 19.5883V15.353C29.7524 14.7177 29.3288 14.2942 28.6935 14.2942H24.4582C23.8229 14.2942 23.3994 14.7177 23.3994 15.353V19.5883C23.3994 20.2236 23.8229 20.6471 24.4582 20.6471ZM25.5171 16.4118H27.6347V18.5295H25.5171V16.4118Z" fill="#E48068"/>
<path d="M7.51781 30.1764H11.7531C12.3884 30.1764 12.8119 29.7529 12.8119 29.1176V24.8823C12.8119 24.247 12.3884 23.8235 11.7531 23.8235H7.51781C6.88251 23.8235 6.45898 24.247 6.45898 24.8823V29.1176C6.45898 29.7529 6.88251 30.1764 7.51781 30.1764ZM8.57663 25.9411H10.6943V28.0588H8.57663V25.9411Z" fill="#E48068"/>
<path d="M15.9875 30.1764H20.2228C20.8581 30.1764 21.2817 29.7529 21.2817 29.1176V24.8823C21.2817 24.247 20.8581 23.8235 20.2228 23.8235H15.9875C15.3522 23.8235 14.9287 24.247 14.9287 24.8823V29.1176C14.9287 29.7529 15.3522 30.1764 15.9875 30.1764ZM17.0464 25.9411H19.164V28.0588H17.0464V25.9411Z" fill="#E48068"/>
<path d="M24.4582 30.1764H28.6935C29.3288 30.1764 29.7524 29.7529 29.7524 29.1176V24.8823C29.7524 24.247 29.3288 23.8235 28.6935 23.8235H24.4582C23.8229 23.8235 23.3994 24.247 23.3994 24.8823V29.1176C23.3994 29.7529 23.8229 30.1764 24.4582 30.1764ZM25.5171 25.9411H27.6347V28.0588H25.5171V25.9411Z" fill="#E48068"/>
</svg>
