<svg width="120" height="120" viewBox="0 0 120 120" fill="none" xmlns="http://www.w3.org/2000/svg">
<g clip-path="url(#clip0_4872_59231)">
<path d="M59.9994 95.4217L18.4609 51.844L31.8018 27.6924H88.197L101.538 51.844L59.9994 95.4217Z" fill="#9B9D9F"/>
<path d="M18.4609 51.8442L59.9994 95.4219L41.8573 51.8442H18.4609Z" fill="#838488"/>
<path d="M31.8018 27.6924L18.4609 51.844H41.8573L31.8018 27.6924Z" fill="#B7B9BB"/>
<path d="M78.1406 51.844L88.1962 27.6924L101.537 51.844H78.1406Z" fill="#AAADAF"/>
<path d="M60 95.4219L78.1421 51.8442H101.538L60 95.4219Z" fill="#696B6D"/>
<path d="M88.196 27.6924H31.8008L41.8563 51.844H78.1404L88.196 27.6924Z" fill="#CDCFD1"/>
<path d="M59.9975 27.6924L41.8555 51.844H78.1396L59.9975 27.6924Z" fill="#E3E4E5"/>
</g>
<path fill-rule="evenodd" clip-rule="evenodd" d="M60 117.6C91.8116 117.6 117.6 91.8116 117.6 60C117.6 28.1884 91.8116 2.4 60 2.4C28.1884 2.4 2.4 28.1884 2.4 60C2.4 91.8116 28.1884 117.6 60 117.6ZM60 120C93.1371 120 120 93.1371 120 60C120 26.8629 93.1371 0 60 0C26.8629 0 0 26.8629 0 60C0 93.1371 26.8629 120 60 120Z" fill="#1C1C1C" fill-opacity="0.24"/>
<defs>
<clipPath id="clip0_4872_59231">
<rect width="83.0769" height="67.7293" fill="white" transform="translate(18.4609 27.6924)"/>
</clipPath>
</defs>
</svg>
