<svg width="20" height="20" viewBox="0 0 20 20" fill="none" xmlns="http://www.w3.org/2000/svg">
<path opacity="0.3" d="M9.16648 1.71676C7.87144 1.86812 6.64286 2.37236 5.61488 3.17442C4.58689 3.97648 3.79901 5.04554 3.33724 6.26489C2.87547 7.48424 2.75756 8.80702 2.99638 10.0888C3.2352 11.3706 3.82157 12.5622 4.69148 13.5334L8.33315 17.5751C8.54406 17.8077 8.8013 17.9935 9.08834 18.1207C9.37538 18.2479 9.68586 18.3136 9.99982 18.3136C10.3138 18.3136 10.6242 18.2479 10.9113 18.1207C11.1983 17.9935 11.4556 17.8077 11.6665 17.5751L15.2915 13.5334C16.2505 12.4559 16.8599 11.1127 17.0391 9.68145C17.2182 8.25016 16.9588 6.79819 16.295 5.51754C15.6312 4.2369 14.5943 3.18789 13.3215 2.50923C12.0486 1.83058 10.5998 1.55424 9.16648 1.71676ZM9.99982 11.4584C9.4704 11.4601 8.9524 11.3046 8.5114 11.0117C8.07041 10.7187 7.72625 10.3015 7.5225 9.81289C7.31876 9.32425 7.2646 8.78613 7.36687 8.26669C7.46914 7.74724 7.72325 7.26982 8.09702 6.89488C8.47079 6.51994 8.94742 6.26435 9.46654 6.16045C9.98567 6.05656 10.5239 6.10905 11.0132 6.31126C11.5025 6.51348 11.9208 6.85633 12.2151 7.29641C12.5094 7.7365 12.6665 8.25401 12.6665 8.78343C12.6665 9.49144 12.3858 10.1706 11.8859 10.672C11.3861 11.1734 10.7078 11.4562 9.99982 11.4584Z" fill="#E48068"/>
<path d="M10.0003 11.5335C11.5559 11.5335 12.8169 10.2724 12.8169 8.71681C12.8169 7.16121 11.5559 5.90015 10.0003 5.90015C8.44466 5.90015 7.18359 7.16121 7.18359 8.71681C7.18359 10.2724 8.44466 11.5335 10.0003 11.5335Z" fill="#E48068"/>
</svg>
