<svg width="20" height="20" viewBox="0 0 20 20" fill="none" xmlns="http://www.w3.org/2000/svg">
<path opacity="0.3" d="M2.33301 9.07518V13.8168C2.33301 15.0147 2.80887 16.1636 3.65591 17.0106C4.50295 17.8577 5.65178 18.3335 6.84967 18.3335H13.1497C13.7428 18.3335 14.3301 18.2167 14.8781 17.9897C15.4261 17.7627 15.924 17.43 16.3434 17.0106C16.7629 16.5912 17.0955 16.0933 17.3225 15.5453C17.5495 14.9973 17.6663 14.41 17.6663 13.8168V9.07518C17.6663 8.89395 17.5943 8.72014 17.4662 8.59199C17.338 8.46384 17.1642 8.39185 16.983 8.39185H3.01634C2.83511 8.39185 2.6613 8.46384 2.53315 8.59199C2.405 8.72014 2.33301 8.89395 2.33301 9.07518Z" fill="#7CC590"/>
<path d="M17.3748 6.31675C17.4136 6.42086 17.4268 6.53279 17.4132 6.64307C17.3996 6.75335 17.3596 6.85873 17.2967 6.95029C17.2337 7.04186 17.1496 7.11691 17.0515 7.16909C16.9534 7.22127 16.8442 7.24905 16.7331 7.25008H3.39976C3.26395 7.25104 3.12995 7.21879 3.00945 7.15613C2.88895 7.09348 2.78558 7.00232 2.70836 6.89059C2.63113 6.77886 2.58239 6.64995 2.56637 6.51508C2.55034 6.3802 2.56753 6.24346 2.61643 6.11675C2.86922 5.51062 3.25045 4.96652 3.73384 4.52197C4.21724 4.07742 4.79129 3.74299 5.41643 3.54175V2.24175C5.41532 2.16663 5.42917 2.09205 5.45715 2.02233C5.48513 1.95262 5.5267 1.88916 5.57943 1.83566C5.63216 1.78215 5.695 1.73966 5.7643 1.71067C5.8336 1.68167 5.90797 1.66674 5.98309 1.66675C6.13559 1.66675 6.28185 1.72733 6.38968 1.83516C6.49751 1.943 6.55809 2.08925 6.55809 2.24175V3.33341C6.66643 3.33341 6.73309 3.33341 6.82476 3.33341H9.54976V2.24175C9.54976 2.08925 9.61034 1.943 9.71817 1.83516C9.82601 1.72733 9.97226 1.66675 10.1248 1.66675C10.2773 1.66675 10.4235 1.72733 10.5313 1.83516C10.6392 1.943 10.6998 2.08925 10.6998 2.24175V3.33341H13.1164C13.2081 3.33341 13.2914 3.33341 13.3831 3.33341V2.24175C13.382 2.16663 13.3958 2.09205 13.4238 2.02233C13.4518 1.95262 13.4934 1.88916 13.5461 1.83566C13.5988 1.78215 13.6617 1.73966 13.731 1.71067C13.8003 1.68167 13.8746 1.66674 13.9498 1.66675C14.1023 1.66675 14.2485 1.72733 14.3563 1.83516C14.4642 1.943 14.5248 2.08925 14.5248 2.24175V3.54175C15.1789 3.75829 15.7754 4.12059 16.2691 4.6013C16.7628 5.08201 17.1409 5.66858 17.3748 6.31675ZM7.27476 10.8334C7.13503 10.8351 6.99891 10.878 6.88353 10.9568C6.76815 11.0356 6.67866 11.1468 6.62632 11.2764C6.57398 11.406 6.56114 11.5481 6.5894 11.685C6.61767 11.8218 6.68578 11.9473 6.78517 12.0455C6.88455 12.1437 7.01077 12.2104 7.14794 12.237C7.28511 12.2637 7.42711 12.2492 7.55605 12.1953C7.685 12.1415 7.79514 12.0507 7.87261 11.9344C7.95008 11.8181 7.99142 11.6815 7.99143 11.5417C7.98923 11.3531 7.91276 11.173 7.7786 11.0404C7.64443 10.9078 7.4634 10.8334 7.27476 10.8334ZM9.94976 10.8334C9.81003 10.8351 9.67391 10.878 9.55853 10.9568C9.44315 11.0356 9.35365 11.1468 9.30132 11.2764C9.24898 11.406 9.23614 11.5481 9.2644 11.685C9.29267 11.8218 9.36078 11.9473 9.46017 12.0455C9.55955 12.1437 9.68577 12.2104 9.82294 12.237C9.96011 12.2637 10.1021 12.2492 10.2311 12.1953C10.36 12.1415 10.4701 12.0507 10.5476 11.9344C10.6251 11.8181 10.6664 11.6815 10.6664 11.5417C10.6642 11.3531 10.5878 11.173 10.4536 11.0404C10.3194 10.9078 10.1384 10.8334 9.94976 10.8334ZM12.6498 10.8334C12.5567 10.8334 12.4646 10.8517 12.3787 10.8873C12.2928 10.9229 12.2147 10.9751 12.1489 11.0409C12.0831 11.1067 12.0309 11.1847 11.9953 11.2707C11.9597 11.3566 11.9414 11.4487 11.9414 11.5417C11.9414 11.6348 11.9597 11.7269 11.9953 11.8128C12.0309 11.8988 12.0831 11.9768 12.1489 12.0426C12.2147 12.1084 12.2928 12.1606 12.3787 12.1962C12.4646 12.2318 12.5567 12.2501 12.6498 12.2501C12.7428 12.2501 12.8349 12.2318 12.9208 12.1962C13.0068 12.1606 13.0849 12.1084 13.1506 12.0426C13.2164 11.9768 13.2686 11.8988 13.3042 11.8128C13.3398 11.7269 13.3581 11.6348 13.3581 11.5417C13.3581 11.4487 13.3398 11.3566 13.3042 11.2707C13.2686 11.1847 13.2164 11.1067 13.1506 11.0409C13.0849 10.9751 13.0068 10.9229 12.9208 10.8873C12.8349 10.8517 12.7428 10.8334 12.6498 10.8334ZM7.26643 13.5001C7.1267 13.5017 6.99058 13.5447 6.8752 13.6235C6.75981 13.7023 6.67032 13.8135 6.61799 13.9431C6.56565 14.0726 6.5528 14.2148 6.58107 14.3516C6.60933 14.4885 6.67745 14.6139 6.77683 14.7122C6.87622 14.8104 7.00244 14.877 7.13961 14.9037C7.27678 14.9303 7.41877 14.9158 7.54772 14.862C7.67666 14.8081 7.7868 14.7174 7.86427 14.6011C7.94174 14.4848 7.98309 14.3482 7.98309 14.2084C7.9831 14.1147 7.96451 14.0219 7.92839 13.9354C7.89227 13.8489 7.83935 13.7705 7.77269 13.7046C7.70603 13.6387 7.62696 13.5867 7.54006 13.5516C7.45315 13.5165 7.36015 13.499 7.26643 13.5001ZM9.94143 13.5001C9.8017 13.5017 9.66558 13.5447 9.5502 13.6235C9.43481 13.7023 9.34532 13.8135 9.29298 13.9431C9.24065 14.0726 9.2278 14.2148 9.25607 14.3516C9.28433 14.4885 9.35245 14.6139 9.45183 14.7122C9.55122 14.8104 9.67744 14.877 9.81461 14.9037C9.95178 14.9303 10.0938 14.9158 10.2227 14.862C10.3517 14.8081 10.4618 14.7174 10.5393 14.6011C10.6167 14.4848 10.6581 14.3482 10.6581 14.2084C10.6581 14.1147 10.6395 14.0219 10.6034 13.9354C10.5673 13.8489 10.5144 13.7705 10.4477 13.7046C10.381 13.6387 10.302 13.5867 10.2151 13.5516C10.1282 13.5165 10.0351 13.499 9.94143 13.5001ZM12.6331 13.5001C12.4938 13.5034 12.3585 13.5477 12.2442 13.6275C12.1299 13.7073 12.0417 13.819 11.9907 13.9487C11.9396 14.0784 11.9279 14.2203 11.9571 14.3565C11.9863 14.4928 12.0551 14.6175 12.1548 14.7149C12.2544 14.8123 12.3807 14.8781 12.5176 14.9041C12.6545 14.9301 12.7961 14.9152 12.9245 14.8611C13.053 14.807 13.1627 14.7163 13.2398 14.6002C13.3169 14.4841 13.3581 14.3478 13.3581 14.2084C13.357 14.1143 13.3374 14.0213 13.3004 13.9348C13.2633 13.8483 13.2096 13.7699 13.1423 13.7041C13.075 13.6383 12.9954 13.5864 12.908 13.5514C12.8206 13.5164 12.7272 13.499 12.6331 13.5001Z" fill="#7CC590"/>
</svg>
