<svg width="22" height="22" viewBox="0 0 22 22" fill="none" xmlns="http://www.w3.org/2000/svg">
<g opacity="0.3">
<path d="M18.1042 13.2916H11.2292C10.8037 13.2916 10.3957 13.1226 10.0948 12.8217C9.79401 12.5209 9.625 12.1129 9.625 11.6874V10.3124C9.625 9.88697 9.79401 9.47894 10.0948 9.1781C10.3957 8.87726 10.8037 8.70825 11.2292 8.70825H18.1042C18.5296 8.70825 18.9376 8.87726 19.2385 9.1781C19.5393 9.47894 19.7083 9.88697 19.7083 10.3124V11.6874C19.7083 12.1129 19.5393 12.5209 19.2385 12.8217C18.9376 13.1226 18.5296 13.2916 18.1042 13.2916ZM19.7083 18.1041V16.7291C19.7083 16.3036 19.5393 15.8956 19.2385 15.5948C18.9376 15.2939 18.5296 15.1249 18.1042 15.1249H11.2292C10.8037 15.1249 10.3957 15.2939 10.0948 15.5948C9.79401 15.8956 9.625 16.3036 9.625 16.7291V18.1041C9.625 18.5295 9.79401 18.9376 10.0948 19.2384C10.3957 19.5392 10.8037 19.7083 11.2292 19.7083H18.1042C18.5296 19.7083 18.9376 19.5392 19.2385 19.2384C19.5393 18.9376 19.7083 18.5295 19.7083 18.1041Z" fill="black"/>
</g>
<path d="M18.1045 6.87496H3.89616C3.47071 6.87496 3.06268 6.70595 2.76184 6.40511C2.461 6.10427 2.29199 5.69624 2.29199 5.27079V3.89579C2.29199 3.47034 2.461 3.06232 2.76184 2.76148C3.06268 2.46064 3.47071 2.29163 3.89616 2.29163H18.1045C18.5299 2.29163 18.938 2.46064 19.2388 2.76148C19.5396 3.06232 19.7087 3.47034 19.7087 3.89579V5.27079C19.7087 5.69624 19.5396 6.10427 19.2388 6.40511C18.938 6.70595 18.5299 6.87496 18.1045 6.87496ZM6.18783 8.70829H3.89616C3.47071 8.70829 3.06268 8.8773 2.76184 9.17814C2.461 9.47898 2.29199 9.88701 2.29199 10.3125V18.1041C2.29199 18.5296 2.461 18.9376 2.76184 19.2384C3.06268 19.5393 3.47071 19.7083 3.89616 19.7083H6.18783C6.61328 19.7083 7.0213 19.5393 7.32214 19.2384C7.62298 18.9376 7.79199 18.5296 7.79199 18.1041V10.3125C7.79199 9.88701 7.62298 9.47898 7.32214 9.17814C7.0213 8.8773 6.61328 8.70829 6.18783 8.70829Z" fill="black"/>
</svg>
