<svg width="22" height="22" viewBox="0 0 22 22" fill="none" xmlns="http://www.w3.org/2000/svg">
<g opacity="0.3">
<path d="M18.1042 13.2917H11.2292C10.8037 13.2917 10.3957 13.1227 10.0948 12.8219C9.79401 12.521 9.625 12.113 9.625 11.6875V10.3125C9.625 9.88709 9.79401 9.47906 10.0948 9.17822C10.3957 8.87738 10.8037 8.70837 11.2292 8.70837H18.1042C18.5296 8.70837 18.9376 8.87738 19.2385 9.17822C19.5393 9.47906 19.7083 9.88709 19.7083 10.3125V11.6875C19.7083 12.113 19.5393 12.521 19.2385 12.8219C18.9376 13.1227 18.5296 13.2917 18.1042 13.2917ZM19.7083 18.1042V16.7292C19.7083 16.3038 19.5393 15.8957 19.2385 15.5949C18.9376 15.2941 18.5296 15.125 18.1042 15.125H11.2292C10.8037 15.125 10.3957 15.2941 10.0948 15.5949C9.79401 15.8957 9.625 16.3038 9.625 16.7292V18.1042C9.625 18.5297 9.79401 18.9377 10.0948 19.2385C10.3957 19.5394 10.8037 19.7084 11.2292 19.7084H18.1042C18.5296 19.7084 18.9376 19.5394 19.2385 19.2385C19.5393 18.9377 19.7083 18.5297 19.7083 18.1042Z" fill="#E48068"/>
</g>
<path d="M18.1045 6.87502H3.89616C3.47071 6.87502 3.06268 6.70601 2.76184 6.40517C2.461 6.10433 2.29199 5.69631 2.29199 5.27085V3.89585C2.29199 3.4704 2.461 3.06238 2.76184 2.76154C3.06268 2.4607 3.47071 2.29169 3.89616 2.29169H18.1045C18.5299 2.29169 18.938 2.4607 19.2388 2.76154C19.5396 3.06238 19.7087 3.4704 19.7087 3.89585V5.27085C19.7087 5.69631 19.5396 6.10433 19.2388 6.40517C18.938 6.70601 18.5299 6.87502 18.1045 6.87502ZM6.18783 8.70835H3.89616C3.47071 8.70835 3.06268 8.87736 2.76184 9.1782C2.461 9.47904 2.29199 9.88707 2.29199 10.3125V18.1042C2.29199 18.5296 2.461 18.9377 2.76184 19.2385C3.06268 19.5393 3.47071 19.7084 3.89616 19.7084H6.18783C6.61328 19.7084 7.0213 19.5393 7.32214 19.2385C7.62298 18.9377 7.79199 18.5296 7.79199 18.1042V10.3125C7.79199 9.88707 7.62298 9.47904 7.32214 9.1782C7.0213 8.87736 6.61328 8.70835 6.18783 8.70835Z" fill="#E48068"/>
</svg>
