<svg width="21" height="21" viewBox="0 0 21 21" fill="none" xmlns="http://www.w3.org/2000/svg">
<path d="M15.1405 9.25107C15.1416 9.16611 15.1258 9.08177 15.094 9.00296C15.0623 8.92414 15.0152 8.85242 14.9555 8.79195C14.8958 8.73148 14.8247 8.68347 14.7463 8.6507C14.6679 8.61794 14.5838 8.60107 14.4988 8.60107H6.88212C6.70973 8.60107 6.5444 8.66956 6.4225 8.79145C6.3006 8.91335 6.23212 9.07868 6.23212 9.25107C6.23212 9.42346 6.3006 9.58879 6.4225 9.71069C6.5444 9.83259 6.70973 9.90107 6.88212 9.90107H14.4988C14.5838 9.90108 14.6679 9.88421 14.7463 9.85145C14.8247 9.81868 14.8958 9.77067 14.9555 9.7102C15.0152 9.64973 15.0623 9.578 15.094 9.49919C15.1258 9.42037 15.1416 9.33604 15.1405 9.25107Z" fill="black"/>
<path d="M12.4571 13.318C12.4582 13.2337 12.4427 13.15 12.4115 13.0718C12.3803 12.9935 12.3339 12.9221 12.2751 12.8618C12.2163 12.8014 12.1462 12.7532 12.0687 12.72C11.9913 12.6867 11.9081 12.6691 11.8238 12.668H6.9238C6.75141 12.668 6.58608 12.7365 6.46418 12.8583C6.34229 12.9802 6.2738 13.1456 6.2738 13.318C6.2738 13.4904 6.34229 13.6557 6.46418 13.7776C6.58608 13.8995 6.75141 13.968 6.9238 13.968H11.8238C11.9081 13.9669 11.9913 13.9492 12.0687 13.9159C12.1462 13.8827 12.2163 13.8345 12.2751 13.7742C12.3339 13.7138 12.3803 13.6424 12.4115 13.5642C12.4427 13.4859 12.4582 13.4022 12.4571 13.318Z" fill="black"/>
<path opacity="0.3" d="M13.7821 3.54297H7.5738C5.06091 3.54297 3.0238 5.58007 3.0238 8.09297V14.2513C3.0238 16.7642 5.06091 18.8013 7.5738 18.8013H13.7821C16.295 18.8013 18.3321 16.7642 18.3321 14.2513V8.09297C18.3321 5.58007 16.295 3.54297 13.7821 3.54297Z" fill="black"/>
<path d="M7.63214 4.99277C7.46638 4.99277 7.30741 4.92693 7.1902 4.80972C7.07299 4.6925 7.00714 4.53353 7.00714 4.36777V2.84277C7.00714 2.67701 7.07299 2.51804 7.1902 2.40083C7.30741 2.28362 7.46638 2.21777 7.63214 2.21777C7.7979 2.21777 7.95687 2.28362 8.07408 2.40083C8.19129 2.51804 8.25714 2.67701 8.25714 2.84277V4.36777C8.25714 4.53353 8.19129 4.6925 8.07408 4.80972C7.95687 4.92693 7.7979 4.99277 7.63214 4.99277Z" fill="black"/>
<path d="M13.7155 4.99277C13.6331 4.99389 13.5513 4.97849 13.475 4.94748C13.3986 4.91647 13.3293 4.87047 13.271 4.81221C13.2127 4.75395 13.1668 4.68461 13.1357 4.60827C13.1047 4.53194 13.0893 4.45016 13.0905 4.36777V2.84277C13.0905 2.67701 13.1563 2.51804 13.2735 2.40083C13.3907 2.28362 13.5497 2.21777 13.7155 2.21777C13.8812 2.21777 14.0402 2.28362 14.1574 2.40083C14.2746 2.51804 14.3405 2.67701 14.3405 2.84277V4.36777C14.3405 4.53353 14.2746 4.6925 14.1574 4.80972C14.0402 4.92693 13.8812 4.99277 13.7155 4.99277Z" fill="black"/>
</svg>
