<svg width="16" height="18" viewBox="0 0 16 18" fill="none" xmlns="http://www.w3.org/2000/svg">
<path opacity="0.3" d="M0.333252 8.07494V12.8166C0.333252 14.0145 0.809114 15.1633 1.65615 16.0104C2.50319 16.8574 3.65202 17.3333 4.84992 17.3333H11.1499C11.7431 17.3333 12.3304 17.2164 12.8784 16.9895C13.4264 16.7625 13.9243 16.4298 14.3437 16.0104C14.7631 15.591 15.0958 15.093 15.3228 14.5451C15.5498 13.9971 15.6666 13.4097 15.6666 12.8166V8.07494C15.6666 7.8937 15.5946 7.7199 15.4664 7.59175C15.3383 7.4636 15.1645 7.3916 14.9833 7.3916H1.01659C0.835354 7.3916 0.661545 7.4636 0.533396 7.59175C0.405246 7.7199 0.333252 7.8937 0.333252 8.07494Z" fill="#A1A5B7"/>
<path d="M15.375 5.3165C15.4138 5.42061 15.427 5.53255 15.4134 5.64283C15.3998 5.75311 15.3599 5.85849 15.2969 5.95005C15.234 6.04161 15.1499 6.11666 15.0518 6.16885C14.9537 6.22103 14.8444 6.24881 14.7333 6.24984H1.40001C1.26419 6.2508 1.1302 6.21854 1.00969 6.15589C0.889189 6.09323 0.785826 6.00207 0.708602 5.89034C0.631377 5.77861 0.582632 5.6497 0.56661 5.51483C0.550588 5.37996 0.567774 5.24322 0.616672 5.1165C0.86946 4.51037 1.25069 3.96628 1.73409 3.52173C2.21748 3.07718 2.79154 2.74275 3.41667 2.5415V1.2415C3.41557 1.16639 3.42941 1.09181 3.45739 1.02209C3.48537 0.952374 3.52694 0.888918 3.57967 0.835412C3.6324 0.781906 3.69524 0.739419 3.76454 0.710422C3.83384 0.681425 3.90822 0.666496 3.98334 0.666504C4.13584 0.666504 4.28209 0.727084 4.38993 0.834917C4.49776 0.942751 4.55834 1.089 4.55834 1.2415V2.33317C4.66667 2.33317 4.73334 2.33317 4.82501 2.33317H7.55001V1.2415C7.55001 1.089 7.61059 0.942751 7.71842 0.834917C7.82625 0.727084 7.97251 0.666504 8.12501 0.666504C8.2775 0.666504 8.42376 0.727084 8.53159 0.834917C8.63943 0.942751 8.70001 1.089 8.70001 1.2415V2.33317H11.1167C11.2083 2.33317 11.2917 2.33317 11.3833 2.33317V1.2415C11.3822 1.16639 11.3961 1.09181 11.4241 1.02209C11.452 0.952374 11.4936 0.888918 11.5463 0.835412C11.5991 0.781906 11.6619 0.739419 11.7312 0.710422C11.8005 0.681425 11.8749 0.666496 11.95 0.666504C12.1025 0.666504 12.2488 0.727084 12.3566 0.834917C12.4644 0.942751 12.525 1.089 12.525 1.2415V2.5415C13.1792 2.75805 13.7756 3.12034 14.2693 3.60106C14.763 4.08177 15.1411 4.66834 15.375 5.3165ZM5.27501 9.83317C5.13528 9.83482 4.99916 9.87775 4.88377 9.95658C4.76839 10.0354 4.6789 10.1466 4.62656 10.2762C4.57423 10.4057 4.56138 10.5479 4.58965 10.6847C4.61791 10.8216 4.68602 10.947 4.78541 11.0452C4.8848 11.1435 5.01102 11.2101 5.14819 11.2368C5.28536 11.2634 5.42735 11.2489 5.5563 11.1951C5.68524 11.1412 5.79538 11.0505 5.87285 10.9342C5.95032 10.8179 5.99166 10.6812 5.99167 10.5415C5.98948 10.3529 5.91301 10.1727 5.77884 10.0401C5.64468 9.90752 5.46364 9.83316 5.27501 9.83317ZM7.95001 9.83317C7.81028 9.83482 7.67416 9.87775 7.55877 9.95658C7.44339 10.0354 7.3539 10.1466 7.30156 10.2762C7.24923 10.4057 7.23638 10.5479 7.26465 10.6847C7.29291 10.8216 7.36102 10.947 7.46041 11.0452C7.5598 11.1435 7.68602 11.2101 7.82319 11.2368C7.96036 11.2634 8.10235 11.2489 8.2313 11.1951C8.36024 11.1412 8.47038 11.0505 8.54785 10.9342C8.62532 10.8179 8.66666 10.6812 8.66667 10.5415C8.66448 10.3529 8.58801 10.1727 8.45384 10.0401C8.31968 9.90752 8.13864 9.83316 7.95001 9.83317ZM10.65 9.83317C10.557 9.83317 10.4649 9.85149 10.3789 9.88709C10.293 9.92269 10.2149 9.97486 10.1491 10.0406C10.0834 10.1064 10.0312 10.1845 9.99559 10.2704C9.95999 10.3564 9.94167 10.4485 9.94167 10.5415C9.94167 10.6345 9.95999 10.7266 9.99559 10.8126C10.0312 10.8985 10.0834 10.9766 10.1491 11.0424C10.2149 11.1081 10.293 11.1603 10.3789 11.1959C10.4649 11.2315 10.557 11.2498 10.65 11.2498C10.743 11.2498 10.8351 11.2315 10.9211 11.1959C11.007 11.1603 11.0851 11.1081 11.1509 11.0424C11.2166 10.9766 11.2688 10.8985 11.3044 10.8126C11.34 10.7266 11.3583 10.6345 11.3583 10.5415C11.3583 10.4485 11.34 10.3564 11.3044 10.2704C11.2688 10.1845 11.2166 10.1064 11.1509 10.0406C11.0851 9.97486 11.007 9.92269 10.9211 9.88709C10.8351 9.85149 10.743 9.83317 10.65 9.83317ZM5.26667 12.4998C5.12694 12.5015 4.99082 12.5444 4.87544 12.6232C4.76006 12.7021 4.67057 12.8133 4.61823 12.9428C4.56589 13.0724 4.55305 13.2145 4.58131 13.3514C4.60958 13.4882 4.67769 13.6137 4.77708 13.7119C4.87646 13.8101 5.00268 13.8768 5.13985 13.9034C5.27702 13.9301 5.41902 13.9156 5.54796 13.8618C5.67691 13.8079 5.78705 13.7171 5.86452 13.6008C5.94199 13.4845 5.98333 13.3479 5.98334 13.2082C5.98335 13.1144 5.96475 13.0217 5.92863 12.9352C5.89252 12.8487 5.8396 12.7702 5.77294 12.7043C5.70628 12.6384 5.6272 12.5864 5.5403 12.5513C5.4534 12.5162 5.36039 12.4987 5.26667 12.4998ZM7.94167 12.4998C7.80194 12.5015 7.66582 12.5444 7.55044 12.6232C7.43506 12.7021 7.34557 12.8133 7.29323 12.9428C7.24089 13.0724 7.22805 13.2145 7.25631 13.3514C7.28458 13.4882 7.35269 13.6137 7.45208 13.7119C7.55146 13.8101 7.67768 13.8768 7.81485 13.9034C7.95202 13.9301 8.09402 13.9156 8.22296 13.8618C8.35191 13.8079 8.46205 13.7171 8.53952 13.6008C8.61699 13.4845 8.65833 13.3479 8.65834 13.2082C8.65835 13.1144 8.63975 13.0217 8.60363 12.9352C8.56752 12.8487 8.5146 12.7702 8.44794 12.7043C8.38128 12.6384 8.3022 12.5864 8.2153 12.5513C8.1284 12.5162 8.03539 12.4987 7.94167 12.4998ZM10.6333 12.4998C10.494 12.5031 10.3587 12.5474 10.2445 12.6272C10.1302 12.707 10.042 12.8188 9.99093 12.9485C9.93986 13.0781 9.92819 13.22 9.95737 13.3563C9.98656 13.4926 10.0553 13.6172 10.155 13.7146C10.2547 13.812 10.3809 13.8779 10.5178 13.9039C10.6548 13.9299 10.7963 13.9149 10.9248 13.8608C11.0532 13.8068 11.1629 13.716 11.24 13.5999C11.3171 13.4838 11.3583 13.3475 11.3583 13.2082C11.3573 13.1141 11.3376 13.0211 11.3006 12.9345C11.2636 12.848 11.2099 12.7696 11.1426 12.7038C11.0752 12.6381 10.9956 12.5862 10.9082 12.5512C10.8209 12.5162 10.7275 12.4987 10.6333 12.4998Z" fill="#A1A5B7"/>
</svg>
