<svg width="76" height="76" viewBox="0 0 76 76" fill="none" xmlns="http://www.w3.org/2000/svg">
<circle cx="38" cy="38" r="38" fill="#FFF5F8"/>
<g opacity="0.3">
<path d="M44.7727 55.3426L31.5602 55.5001C30.4157 55.5163 29.3083 55.0938 28.4654 54.3193C27.6225 53.5447 27.1081 52.4769 27.0277 51.3351L25.7502 33.0651C25.7307 32.7978 25.7672 32.5293 25.8573 32.277C25.9475 32.0246 26.0894 31.7938 26.2739 31.5994C26.4584 31.405 26.6815 31.2513 26.9288 31.1481C27.1761 31.0449 27.4423 30.9945 27.7102 31.0001H48.2902C48.5566 30.9947 48.8212 31.0446 49.0673 31.1468C49.3133 31.2489 49.5355 31.4011 49.7197 31.5935C49.904 31.786 50.0463 32.0146 50.1376 32.2649C50.2289 32.5152 50.2673 32.7817 50.2502 33.0476L49.2177 51.1076C49.1554 52.2467 48.6607 53.3192 47.8347 54.1062C47.0087 54.8931 45.9136 55.3353 44.7727 55.3426Z" fill="#EC305E"/>
</g>
<path d="M41.9027 40.8H34.0977C33.7496 40.8 33.4157 40.6618 33.1696 40.4156C32.9234 40.1695 32.7852 39.8356 32.7852 39.4875C32.7852 39.1395 32.9234 38.8056 33.1696 38.5595C33.4157 38.3133 33.7496 38.175 34.0977 38.175H41.9027C42.2508 38.175 42.5846 38.3133 42.8307 38.5595C43.0769 38.8056 43.2152 39.1395 43.2152 39.4875C43.2152 39.8356 43.0769 40.1695 42.8307 40.4156C42.5846 40.6618 42.2508 40.8 41.9027 40.8Z" fill="#EC305E"/>
<path d="M40.5379 47.275H35.4629C35.1148 47.275 34.781 47.1367 34.5348 46.8906C34.2887 46.6445 34.1504 46.3106 34.1504 45.9625C34.1504 45.6144 34.2887 45.2806 34.5348 45.0344C34.781 44.7883 35.1148 44.65 35.4629 44.65H40.5379C40.886 44.65 41.2198 44.7883 41.466 45.0344C41.7121 45.2806 41.8504 45.6144 41.8504 45.9625C41.8504 46.3106 41.7121 46.6445 41.466 46.8906C41.2198 47.1367 40.886 47.275 40.5379 47.275Z" fill="#EC305E"/>
<path d="M52.4379 29.53H52.2454C42.799 28.2311 33.2193 28.2311 23.7729 29.53C23.4345 29.5746 23.0921 29.4856 22.8182 29.2818C22.5444 29.0781 22.3606 28.7758 22.306 28.4388C22.2514 28.1019 22.3301 27.757 22.5256 27.4771C22.721 27.1973 23.0178 27.0047 23.3529 26.94C33.0642 25.5727 42.9192 25.5727 52.6304 26.94C52.954 26.9931 53.2459 27.1654 53.4488 27.423C53.6517 27.6806 53.7508 28.0048 53.7267 28.3318C53.7026 28.6588 53.5569 28.9649 53.3184 29.1899C53.0799 29.4149 52.7658 29.5425 52.4379 29.5475V29.53Z" fill="#EC305E"/>
<path d="M45 27.22H31L31.7875 23.16C31.9278 22.4226 32.3174 21.7559 32.8909 21.2716C33.4644 20.7873 34.187 20.5149 34.9375 20.5H41.115C41.8791 20.5029 42.6185 20.7717 43.206 21.2603C43.7936 21.7488 44.1927 22.4267 44.335 23.1775L45 27.22Z" fill="#EC305E"/>
</svg>
