<svg width="36" height="36" viewBox="0 0 36 36" fill="none" xmlns="http://www.w3.org/2000/svg">
<g clip-path="url(#clip0_690_3826)">
<path d="M28.2785 2.03829C27.1089 0.723866 25.4877 0 23.7135 0C21.733 0 20.0164 0.93642 18.749 2.70794C18.6539 2.84076 18.5651 2.97358 18.4817 3.10506C18.3985 2.97351 18.3096 2.84076 18.2145 2.70794C16.9471 0.93642 15.2304 0 13.25 0C11.4757 0 9.85448 0.723866 8.68497 2.03821C7.57516 3.28556 6.96387 4.95308 6.96387 6.7336C6.96387 8.66853 7.71473 10.454 9.32664 12.3527C10.7331 14.0092 12.7505 15.712 15.0866 17.6837C15.9498 18.4123 16.8425 19.1657 17.7911 19.9879C17.9892 20.1596 18.2354 20.2455 18.4817 20.2455C18.7278 20.2455 18.9741 20.1596 19.1723 19.9879C20.1207 19.166 21.0133 18.4126 21.8765 17.6841C23.3767 16.4177 24.6724 15.3242 25.7968 14.2634C27.9797 12.2038 29.9996 9.86616 29.9996 6.73367C29.9996 4.95308 29.3884 3.28563 28.2785 2.03829ZM24.3495 12.7294C23.2677 13.7501 21.9926 14.8263 20.5163 16.0724C19.8595 16.6266 19.1859 17.1952 18.4817 17.799C17.7774 17.1952 17.1036 16.6266 16.4468 16.0721C11.8485 12.191 9.07282 9.8483 9.07282 6.73367C9.07268 4.09717 10.8685 2.10902 13.2499 2.10902C14.5222 2.10902 15.6043 2.70794 16.466 3.88912C17.1732 4.85844 17.4635 5.86335 17.4654 5.8701C17.592 6.32692 18.0077 6.64318 18.4817 6.64318C18.9556 6.64318 19.3713 6.32692 19.4979 5.8701C19.5083 5.83248 20.5758 2.10902 23.7135 2.10902C26.0949 2.10902 27.8907 4.09724 27.8907 6.73367C27.8907 8.64399 26.8978 10.325 24.3495 12.7294Z" fill="#C99055"/>
<path d="M32.8325 21.2377C31.9578 21.2377 31.114 21.6049 30.5175 22.2452L27.4183 25.5722C27.0178 24.2844 25.8149 23.3466 24.397 23.3466H19.5257C18.8438 23.3466 18.1861 23.0985 17.6741 22.6479C14.9205 20.2247 10.7815 20.2034 8.00166 22.5809C7.4284 21.7693 6.48382 21.2377 5.41676 21.2377H1.05838C0.476054 21.2377 0.00390625 21.7098 0.00390625 22.2922V34.9456C0.00390625 35.5279 0.475983 36.0001 1.05838 36.0001H5.41676C6.36373 36.0001 7.21423 35.5812 7.79445 34.9197L8.41889 35.0952C10.5548 35.6956 12.7628 36 14.9815 36H24.3969C26.7078 36 28.9152 34.8963 30.3018 33.0475L35.3642 26.2978C35.3643 26.2976 35.3643 26.2975 35.3645 26.2973C35.7776 25.7465 35.9959 25.0908 35.9959 24.4009C35.9959 22.6567 34.5768 21.2377 32.8325 21.2377ZM6.47124 32.8366C6.47124 33.418 5.99825 33.8911 5.41676 33.8911H2.11279V23.3465H5.41676C5.99818 23.3465 6.47124 23.8195 6.47124 24.401V32.8366ZM33.6772 25.0322L33.6771 25.0323L28.6147 31.7823C27.6243 33.1028 26.0475 33.8911 24.3969 33.8911H14.9817C12.9559 33.8911 10.9399 33.6132 8.98976 33.065L8.57737 32.9491C8.57871 32.9117 8.58026 32.8744 8.58026 32.8367V24.8777L9.31509 24.231C11.3007 22.4837 14.2954 22.4836 16.2811 24.231C17.1784 25.0205 18.3306 25.4553 19.5259 25.4553H24.3971C24.9785 25.4553 25.4516 25.9284 25.4516 26.5098C25.4516 27.0912 24.9786 27.5643 24.3971 27.5643H16.9028C16.3205 27.5643 15.8484 28.0364 15.8484 28.6188C15.8484 29.2012 16.3205 29.6732 16.9028 29.6732H25.1037C25.9784 29.6732 26.8221 29.3061 27.4184 28.666L32.0606 23.6826C32.2625 23.4659 32.5367 23.3465 32.8325 23.3465C33.414 23.3465 33.887 23.8195 33.887 24.401C33.887 24.6309 33.8145 24.8492 33.6772 25.0322Z" fill="#C99055"/>
</g>
<defs>
<clipPath id="clip0_690_3826">
<rect width="36" height="36" fill="white"/>
</clipPath>
</defs>
</svg>
