<svg width="16" height="16" viewBox="0 0 16 16" fill="none" xmlns="http://www.w3.org/2000/svg">
<path opacity="0.3" d="M14.6667 8.00001H11.5333C11.0938 7.99176 10.6605 7.89489 10.2593 7.71519C9.85811 7.5355 9.49732 7.27668 9.19853 6.95424C8.89974 6.6318 8.66911 6.25237 8.52044 5.83868C8.37178 5.42499 8.30814 4.98555 8.33333 4.54668V1.33334H5.06667C4.06706 1.3439 3.1125 1.75069 2.41254 2.46439C1.71259 3.1781 1.32445 4.14039 1.33333 5.14001V10.86C1.32445 11.8596 1.71259 12.8219 2.41254 13.5356C3.1125 14.2493 4.06706 14.6561 5.06667 14.6667H10.9333C11.9329 14.6561 12.8875 14.2493 13.5875 13.5356C14.2874 12.8219 14.6756 11.8596 14.6667 10.86V8.00001Z" fill="white"/>
<path d="M14.4067 7.33335H11.26C10.9591 7.32761 10.6625 7.2611 10.3879 7.13783C10.1133 7.01456 9.86654 6.83707 9.6623 6.61602C9.45807 6.39497 9.30061 6.13492 9.1994 5.8515C9.09819 5.56807 9.05531 5.26711 9.07333 4.96669V1.81335L14.4067 7.33335ZM7.2 10.3934L6.12666 11.3334V8.00002C6.12666 7.86741 6.07399 7.74024 5.98022 7.64647C5.88645 7.5527 5.75927 7.50002 5.62666 7.50002C5.49406 7.50002 5.36688 7.5527 5.27311 7.64647C5.17934 7.74024 5.12667 7.86741 5.12667 8.00002V11.3334L3.89333 10.38C3.84168 10.3393 3.78251 10.3092 3.71921 10.2913C3.65591 10.2735 3.58972 10.2683 3.52441 10.276C3.4591 10.2838 3.39595 10.3043 3.33857 10.3364C3.28119 10.3686 3.23071 10.4117 3.19 10.4634C3.10778 10.5677 3.07037 10.7004 3.086 10.8323C3.10163 10.9642 3.16901 11.0845 3.27333 11.1667L5.33333 12.7867L5.40666 12.8267L5.46667 12.86C5.52449 12.8807 5.58527 12.892 5.64667 12.8934C5.70889 12.8935 5.77037 12.8799 5.82667 12.8534L5.89333 12.82L5.97333 12.7734L7.86667 11.1534C7.96617 11.0659 8.02747 10.943 8.03743 10.8109C8.0474 10.6788 8.00525 10.5481 7.92 10.4467C7.87762 10.3939 7.82482 10.3503 7.76488 10.3188C7.70494 10.2872 7.63915 10.2684 7.5716 10.2634C7.50406 10.2584 7.43621 10.2673 7.37227 10.2897C7.30834 10.3121 7.2497 10.3473 7.2 10.3934V10.3934Z" fill="white"/>
</svg>
