<svg width="37" height="40" viewBox="0 0 37 40" fill="none" xmlns="http://www.w3.org/2000/svg">
<path d="M8.97812 8V2C8.97812 0.89544 9.87356 0 10.9781 0H34.9781C36.0827 0 36.9781 0.89544 36.9781 2V30C36.9781 31.1046 36.0827 32 34.9781 32H28.9781V37.9982C28.9781 39.1038 28.0783 40 26.9645 40H2.99184C1.8797 40 0.978516 39.1108 0.978516 37.9982L0.983716 10.0017C0.983916 8.89622 1.8838 8 2.99736 8H8.97812ZM4.98336 12L4.9789 36H24.9781V12H4.98336ZM12.9781 8H28.9781V28H32.9781V4H12.9781V8ZM8.97852 18H20.9785V22H8.97852V18ZM8.97852 26H20.9785V30H8.97852V26Z" fill="#333333"/>
</svg>
