<svg width="22" height="22" viewBox="0 0 22 22" fill="none" xmlns="http://www.w3.org/2000/svg">
<path d="M11.1194 17.4168C10.8789 17.4158 10.6485 17.3203 10.4777 17.151L4.97772 11.651C4.81616 11.4736 4.73059 11.2399 4.73939 11.0002C4.73869 10.8795 4.76181 10.7599 4.80743 10.6482C4.85305 10.5366 4.92026 10.435 5.00522 10.3493L10.5052 4.84933C10.6806 4.69915 10.9061 4.62068 11.1369 4.62959C11.3676 4.6385 11.5864 4.73414 11.7497 4.89739C11.9129 5.06065 12.0085 5.27949 12.0175 5.51019C12.0264 5.7409 11.9479 5.96647 11.7977 6.14182L6.94855 11.0002L11.7702 15.8218C11.9409 15.9936 12.0368 16.2259 12.0368 16.4681C12.0368 16.7102 11.9409 16.9426 11.7702 17.1143C11.6877 17.2059 11.5875 17.2799 11.4756 17.3319C11.3638 17.3839 11.2426 17.4128 11.1194 17.4168Z" fill="black"/>
<path opacity="0.3" d="M16.0418 17.4167C15.8013 17.4157 15.5709 17.3202 15.4001 17.1509L9.90013 11.6509C9.81517 11.5652 9.74795 11.4637 9.70234 11.352C9.65672 11.2403 9.6336 11.1207 9.63429 11.0001C9.6336 10.8794 9.65672 10.7598 9.70234 10.6481C9.74795 10.5365 9.81517 10.4349 9.90013 10.3492L15.4001 4.84922C15.4823 4.75327 15.5834 4.67533 15.6972 4.62031C15.8109 4.56529 15.9348 4.53437 16.061 4.52949C16.1872 4.52462 16.3131 4.54589 16.4308 4.59197C16.5484 4.63806 16.6552 4.70796 16.7446 4.79729C16.8339 4.88663 16.9038 4.99346 16.9499 5.11109C16.996 5.22873 17.0172 5.35461 17.0124 5.48086C17.0075 5.6071 16.9766 5.73097 16.9215 5.8447C16.8665 5.95842 16.7886 6.05955 16.6926 6.14172L11.9168 11.0001L16.7385 15.8217C16.9092 15.9935 17.005 16.2258 17.005 16.468C17.005 16.7101 16.9092 16.9425 16.7385 17.1142C16.6507 17.2115 16.5431 17.2888 16.4229 17.341C16.3028 17.3932 16.1728 17.419 16.0418 17.4167Z" fill="black"/>
</svg>
