<svg width="22" height="22" viewBox="0 0 22 22" fill="none" xmlns="http://www.w3.org/2000/svg">
<path d="M10.8811 4.5833C11.1216 4.58431 11.352 4.67978 11.5228 4.84913L17.0228 10.3491C17.1843 10.5265 17.2699 10.7602 17.2611 11C17.2618 11.1206 17.2387 11.2402 17.1931 11.3519C17.1474 11.4636 17.0802 11.5651 16.9953 11.6508L11.4953 17.1508C11.3199 17.301 11.0943 17.3794 10.8636 17.3705C10.6329 17.3616 10.4141 17.266 10.2508 17.1027C10.0876 16.9395 9.99194 16.7206 9.98303 16.4899C9.97412 16.2592 10.0526 16.0337 10.2028 15.8583L15.0519 11L10.2303 6.1783C10.0595 6.00655 9.96371 5.77422 9.96371 5.53205C9.96371 5.28988 10.0595 5.05755 10.2303 4.8858C10.3128 4.79419 10.413 4.72018 10.5249 4.6682C10.6367 4.61623 10.7578 4.58735 10.8811 4.5833Z" fill="black"/>
<path opacity="0.3" d="M5.9587 4.58328C6.19918 4.58429 6.42963 4.67976 6.60036 4.84911L12.1004 10.3491C12.1853 10.4348 12.2525 10.5363 12.2982 10.648C12.3438 10.7597 12.3669 10.8793 12.3662 10.9999C12.3669 11.1206 12.3438 11.2402 12.2982 11.3519C12.2525 11.4635 12.1853 11.5651 12.1004 11.6508L6.60036 17.1508C6.51819 17.2467 6.41706 17.3247 6.30334 17.3797C6.18961 17.4347 6.06574 17.4656 5.9395 17.4705C5.81325 17.4754 5.68737 17.4541 5.56973 17.408C5.4521 17.3619 5.34527 17.292 5.25593 17.2027C5.1666 17.1134 5.0967 17.0065 5.05061 16.8889C5.00453 16.7713 4.98325 16.6454 4.98813 16.5191C4.99301 16.3929 5.02393 16.269 5.07895 16.1553C5.13397 16.0416 5.21191 15.9405 5.30786 15.8583L10.0837 10.9999L5.26203 6.17828C5.0913 6.00653 4.99547 5.7742 4.99547 5.53203C4.99547 5.28986 5.0913 5.05752 5.26203 4.88578C5.34979 4.7885 5.45739 4.71116 5.57756 4.65898C5.69774 4.6068 5.8277 4.58098 5.9587 4.58328Z" fill="black"/>
</svg>
