<svg width="21" height="22" viewBox="0 0 21 22" fill="none" xmlns="http://www.w3.org/2000/svg">
<rect x="0.00830078" y="0.557617" width="21" height="21" rx="6" fill="#FFFDF5"/>
<path d="M10.0428 8.33099L10.4825 7.7368C10.5694 7.61641 10.6796 7.51475 10.8067 7.4379C10.9337 7.36105 11.0749 7.31058 11.2219 7.28951C11.3688 7.26844 11.5185 7.27719 11.662 7.31525C11.8056 7.3533 11.9399 7.41988 12.0571 7.51101L13.0494 8.27751C13.2837 8.46781 13.4368 8.74013 13.4776 9.03918C13.5185 9.33824 13.444 9.64163 13.2693 9.88776L12.8296 10.4819C12.5058 10.5475 12.1717 10.5415 11.8504 10.4646C11.5292 10.3876 11.2287 10.2414 10.9698 10.0363C10.704 9.83328 10.484 9.57644 10.3243 9.28258C10.1646 8.98872 10.0687 8.66446 10.0428 8.33099V8.33099ZM10.4766 10.7077C9.982 10.3232 9.60694 9.80595 9.39517 9.21633L7.73144 11.4564C7.60253 11.6392 7.53209 11.8567 7.52942 12.0803V13.5777C7.52442 13.7088 7.5501 13.8394 7.60442 13.9589C7.65874 14.0784 7.7402 14.1836 7.84231 14.2661C7.94443 14.3486 8.06439 14.4061 8.19265 14.4341C8.32091 14.4621 8.45393 14.4598 8.58113 14.4274L9.98341 13.9995C10.1976 13.9362 10.3853 13.8048 10.5182 13.6252L12.176 11.3792C11.5638 11.3196 10.9819 11.0844 10.5004 10.7018L10.4766 10.7077Z" fill="#7CC590"/>
</svg>
