<svg width="22" height="23" viewBox="0 0 22 23" fill="none" xmlns="http://www.w3.org/2000/svg">
<path opacity="0.3" d="M11.4304 17.6316C11.426 16.7669 11.6446 15.9156 12.065 15.1599C12.4854 14.4043 13.0934 13.7697 13.8304 13.3173C14.5673 12.865 15.4085 12.6102 16.2726 12.5775C17.1367 12.5449 17.9946 12.7354 18.7637 13.1307V10.0507C18.7637 9.85139 18.6845 9.6602 18.5435 9.51923C18.4026 9.37827 18.2114 9.29907 18.012 9.29907H2.61202C2.41266 9.29907 2.22147 9.37827 2.08051 9.51923C1.93954 9.6602 1.86035 9.85139 1.86035 10.0507V15.2666C1.86278 16.5851 2.38827 17.8488 3.32146 18.7803C4.25466 19.7118 5.51932 20.2349 6.83785 20.2349H12.1637C11.6823 19.452 11.4284 18.5506 11.4304 17.6316Z" fill="#E48068"/>
<path d="M18.4062 7.01661C18.4487 7.13041 18.4633 7.25273 18.4488 7.37333C18.4343 7.49393 18.3912 7.60931 18.323 7.70982C18.2548 7.81034 18.1635 7.89306 18.0568 7.95107C17.95 8.00908 17.831 8.0407 17.7095 8.04328H3.04287C2.89424 8.04284 2.74796 8.00627 2.61661 7.93672C2.48526 7.86717 2.3728 7.76673 2.2889 7.64404C2.20501 7.52136 2.15221 7.38012 2.13504 7.23249C2.11788 7.08486 2.13686 6.93527 2.19037 6.79661C2.46543 6.13111 2.88162 5.53322 3.4102 5.0442C3.93879 4.55518 4.56719 4.18667 5.25204 3.96411V2.53411C5.25204 2.36636 5.31867 2.20548 5.43729 2.08687C5.55591 1.96825 5.71679 1.90161 5.88454 1.90161C6.05228 1.90161 6.21316 1.96825 6.33178 2.08687C6.4504 2.20548 6.51704 2.36636 6.51704 2.53411V3.72578C6.6087 3.72578 6.70037 3.72578 6.8012 3.72578H9.80787V2.53411C9.80787 2.36636 9.87451 2.20548 9.99312 2.08687C10.1117 1.96825 10.2726 1.90161 10.4404 1.90161C10.523 1.9016 10.6048 1.91802 10.681 1.94992C10.7573 1.98182 10.8264 2.02855 10.8844 2.08741C10.9424 2.14627 10.9881 2.21607 11.0189 2.29276C11.0497 2.36944 11.0649 2.45149 11.0637 2.53411V3.69828H13.7495C13.8412 3.69828 13.9329 3.69828 14.0337 3.69828V2.53411C14.0337 2.36636 14.1003 2.20548 14.219 2.08687C14.3376 1.96825 14.4985 1.90161 14.6662 1.90161C14.834 1.90161 14.9948 1.96825 15.1134 2.08687C15.2321 2.20548 15.2987 2.36636 15.2987 2.53411V3.96411C16.0145 4.20346 16.6664 4.60274 17.2048 5.13165C17.7433 5.66056 18.1541 6.30519 18.4062 7.01661Z" fill="#E48068"/>
<path d="M7.29615 13.5433C7.73153 13.5433 8.08448 13.1945 8.08448 12.7642C8.08448 12.3338 7.73153 11.985 7.29615 11.985C6.86076 11.985 6.50781 12.3338 6.50781 12.7642C6.50781 13.1945 6.86076 13.5433 7.29615 13.5433Z" fill="#E48068"/>
<path d="M10.2385 13.5433C10.6739 13.5433 11.0269 13.1945 11.0269 12.7642C11.0269 12.3338 10.6739 11.985 10.2385 11.985C9.80314 11.985 9.4502 12.3338 9.4502 12.7642C9.4502 13.1945 9.80314 13.5433 10.2385 13.5433Z" fill="#E48068"/>
<path d="M7.28736 16.4767C7.72274 16.4767 8.07569 16.1278 8.07569 15.6975C8.07569 15.2672 7.72274 14.9183 7.28736 14.9183C6.85197 14.9183 6.49902 15.2672 6.49902 15.6975C6.49902 16.1278 6.85197 16.4767 7.28736 16.4767Z" fill="#E48068"/>
<path d="M16.4997 13.965C15.7745 13.965 15.0656 14.18 14.4626 14.5829C13.8596 14.9858 13.3896 15.5585 13.1121 16.2285C12.8346 16.8985 12.762 17.6357 12.9035 18.347C13.0449 19.0582 13.3942 19.7116 13.907 20.2244C14.4197 20.7371 15.0731 21.0864 15.7843 21.2278C16.4956 21.3693 17.2329 21.2967 17.9028 21.0192C18.5728 20.7417 19.1455 20.2717 19.5484 19.6687C19.9513 19.0657 20.1663 18.3568 20.1663 17.6316C20.1663 16.6592 19.78 15.7265 19.0924 15.0389C18.4048 14.3513 17.4721 13.965 16.4997 13.965ZM18.5713 17.3108L17.0038 19.3091C16.9398 19.3916 16.8578 19.4584 16.7641 19.5045C16.6704 19.5505 16.5674 19.5746 16.463 19.575C16.3585 19.5753 16.2553 19.5515 16.1615 19.5054C16.0676 19.4593 15.9857 19.3921 15.9222 19.3091L14.7947 17.87C14.7259 17.8 14.6727 17.7162 14.6386 17.6242C14.6044 17.5323 14.5901 17.4341 14.5965 17.3362C14.603 17.2383 14.63 17.1428 14.6759 17.0561C14.7217 16.9694 14.7854 16.8933 14.8627 16.8329C14.94 16.7725 15.0292 16.729 15.1245 16.7055C15.2197 16.6819 15.3189 16.6788 15.4154 16.6962C15.512 16.7136 15.6038 16.7513 15.6848 16.8066C15.7658 16.862 15.8342 16.9338 15.8855 17.0175L16.463 17.7691L17.4897 16.4675C17.5444 16.3956 17.613 16.3354 17.6913 16.2904C17.7697 16.2454 17.8562 16.2165 17.9459 16.2054C18.0355 16.1943 18.1265 16.2012 18.2134 16.2258C18.3004 16.2503 18.3815 16.292 18.4522 16.3483C18.5911 16.4644 18.6786 16.6305 18.6958 16.8107C18.7129 16.9909 18.6583 17.1706 18.5438 17.3108H18.5713Z" fill="#E48068"/>
</svg>
