<svg width="20" height="20" viewBox="0 0 20 20" fill="none" xmlns="http://www.w3.org/2000/svg">
<path d="M2.40011 18.2C2.23222 18.1985 2.07124 18.1329 1.95011 18.0166C1.83255 17.898 1.7666 17.7378 1.7666 17.5708C1.7666 17.4038 1.83255 17.2436 1.95011 17.125L17.1668 1.98331C17.2197 1.90618 17.2893 1.8419 17.3703 1.79524C17.4514 1.74857 17.5419 1.7207 17.6352 1.71368C17.7285 1.70666 17.8222 1.72067 17.9093 1.75467C17.9965 1.78868 18.0749 1.84181 18.1388 1.91016C18.2026 1.97851 18.2504 2.06032 18.2784 2.14957C18.3064 2.23882 18.3141 2.33322 18.3008 2.42582C18.2875 2.51841 18.2535 2.60684 18.2015 2.68458C18.1495 2.76232 18.0806 2.82739 18.0001 2.87498L2.83344 18.0166C2.71891 18.1326 2.56311 18.1985 2.40011 18.2Z" fill="black"/>
<path d="M7.62502 10.5083C7.62722 9.87909 7.87815 9.27627 8.32307 8.83135C8.76799 8.38642 9.37081 8.1355 10 8.1333C10.3544 8.13347 10.7041 8.21376 11.023 8.36817C11.3419 8.52258 11.6218 8.74711 11.8417 9.02497L8.50835 12.3583C8.23138 12.1363 8.0081 11.8546 7.85515 11.5343C7.7022 11.214 7.62354 10.8633 7.62502 10.5083ZM9.75835 12.8583C9.83886 12.8624 9.91952 12.8624 10 12.8583C10.6299 12.8583 11.234 12.6081 11.6794 12.1627C12.1248 11.7173 12.375 11.1132 12.375 10.4833C12.3791 10.4084 12.3791 10.3332 12.375 10.2583L9.75835 12.8583Z" fill="black"/>
<path opacity="0.3" d="M5.04199 15.8333L7.62533 13.2583C7.25407 12.9324 6.9537 12.5336 6.74285 12.0868C6.53199 11.64 6.41513 11.1547 6.39951 10.6609C6.3839 10.1671 6.46985 9.67533 6.65206 9.2161C6.83426 8.75688 7.10883 8.33996 7.45875 7.99118C7.80867 7.64241 8.22648 7.3692 8.6863 7.18851C9.14613 7.00781 9.63816 6.92346 10.1319 6.94069C10.6257 6.95793 11.1106 7.07637 11.5567 7.28869C12.0028 7.50101 12.4006 7.80268 12.7253 8.175L15.3587 5.55C13.8648 4.2482 11.9789 3.4827 10.0003 3.375C6.05866 3.375 1.66699 7.225 1.66699 10.5083C1.66699 12.2917 3.09199 14.35 5.04199 15.8333Z" fill="black"/>
<path opacity="0.3" d="M13.3834 9.25001C13.5403 9.65111 13.6222 10.0776 13.6251 10.5083C13.6294 11.0955 13.49 11.6748 13.219 12.1957C12.9481 12.7167 12.5538 13.1634 12.0706 13.4971C11.5875 13.8307 11.03 14.0411 10.4469 14.1098C9.86373 14.1786 9.27262 14.1037 8.72507 13.8917L6.1084 16.4917C7.28461 17.2045 8.62532 17.6007 10.0001 17.6417C14.1667 17.6417 18.3334 13.8167 18.3334 10.5083C18.1982 8.91112 17.4663 7.42344 16.2834 6.34167L13.3834 9.25001Z" fill="black"/>
</svg>
