<svg width="18" height="16" viewBox="0 0 18 16" fill="none" xmlns="http://www.w3.org/2000/svg">
<path d="M9 10.375C10.3117 10.375 11.375 9.31168 11.375 8C11.375 6.68832 10.3117 5.625 9 5.625C7.68832 5.625 6.625 6.68832 6.625 8C6.625 9.31168 7.68832 10.375 9 10.375Z" fill="black"/>
<path opacity="0.3" d="M9 10.375C10.3117 10.375 11.375 9.31168 11.375 8C11.375 6.68832 10.3117 5.625 9 5.625C7.68832 5.625 6.625 6.68832 6.625 8C6.625 9.31168 7.68832 10.375 9 10.375Z" fill="black"/>
<path opacity="0.3" d="M9.00033 0.866699C5.05866 0.866699 0.666992 4.7167 0.666992 8.00003C0.666992 11.1334 5.05866 15.1334 9.00033 15.1334C13.167 15.1334 17.3337 11.3084 17.3337 8.00003C17.3337 4.8167 12.942 0.866699 9.00033 0.866699ZM9.00033 11.625C8.28337 11.625 7.58251 11.4124 6.98638 11.0141C6.39025 10.6158 5.92563 10.0496 5.65126 9.38726C5.37689 8.72488 5.30511 7.99601 5.44498 7.29283C5.58485 6.58965 5.9301 5.94374 6.43706 5.43677C6.94403 4.92981 7.58994 4.58456 8.29312 4.44469C8.9963 4.30481 9.72517 4.3766 10.3876 4.65097C11.0499 4.92534 11.6161 5.38996 12.0144 5.98609C12.4127 6.58222 12.6253 7.28307 12.6253 8.00003C12.6253 8.96144 12.2434 9.88347 11.5636 10.5633C10.8838 11.2431 9.96173 11.625 9.00033 11.625Z" fill="black"/>
</svg>
