<svg width="31" height="31" viewBox="0 0 31 31" fill="none" xmlns="http://www.w3.org/2000/svg">
<path opacity="0.3" d="M30.0833 15.5H23.1854C22.2335 15.4758 21.2961 15.2619 20.4278 14.871C19.5596 14.48 18.7781 13.9199 18.129 13.2232C17.4799 12.5266 16.9762 11.7075 16.6475 10.8138C16.3188 9.92019 16.1716 8.96996 16.2146 8.01875V0.916667H9.05417C6.87262 0.947418 4.79198 1.84063 3.26711 3.40102C1.74224 4.96142 0.897177 7.06208 0.916667 9.24375V21.7563C0.897177 23.9379 1.74224 26.0386 3.26711 27.599C4.79198 29.1594 6.87262 30.0526 9.05417 30.0833H21.9167C24.1021 30.0564 26.1879 29.1654 27.7183 27.605C29.2486 26.0446 30.0989 23.9418 30.0833 21.7563V15.5Z" fill="#66727E"/>
<path d="M30.0833 13.2104H23.1854C22.5225 13.1904 21.8704 13.0368 21.2683 12.7588C20.6661 12.4808 20.1263 12.0842 19.681 11.5927C19.2358 11.1011 18.8943 10.5248 18.677 9.89815C18.4598 9.27152 18.3712 8.6075 18.4167 7.94583V0.916667L30.0833 13.2104ZM11.6063 13.7646L11.4167 13.6479H11.3C11.1764 13.5913 11.0422 13.5614 10.9063 13.5604H10.7896C10.688 13.5466 10.585 13.5466 10.4833 13.5604L10.3375 13.6479H10.1917L5.72917 17.3521C5.615 17.4429 5.51988 17.5554 5.44927 17.683C5.37866 17.8107 5.33394 17.951 5.31768 18.096C5.30142 18.2409 5.31394 18.3877 5.35453 18.5278C5.39511 18.6679 5.46295 18.7987 5.55417 18.9125C5.65225 19.0442 5.77988 19.1511 5.92678 19.2246C6.07368 19.298 6.23576 19.336 6.4 19.3354C6.6501 19.3336 6.89201 19.2461 7.08542 19.0875L9.76875 16.9583V24.5271C9.76875 24.8172 9.88398 25.0954 10.0891 25.3005C10.2942 25.5056 10.5724 25.6208 10.8625 25.6208C11.1526 25.6208 11.4308 25.5056 11.6359 25.3005C11.841 25.0954 11.9563 24.8172 11.9563 24.5271V17.0313L14.2896 19.0583C14.3977 19.1543 14.5241 19.2276 14.6611 19.2738C14.7981 19.32 14.943 19.3383 15.0872 19.3274C15.2314 19.3165 15.3719 19.2767 15.5005 19.2105C15.629 19.1442 15.7429 19.0528 15.8354 18.9417C16.0237 18.7151 16.1167 18.4244 16.095 18.1306C16.0732 17.8369 15.9383 17.563 15.7188 17.3667L11.6063 13.7646Z" fill="#66727E"/>
</svg>
