<svg width="16" height="16" viewBox="0 0 16 16" fill="none" xmlns="http://www.w3.org/2000/svg">
<path d="M7.65937 7.97329C9.48191 7.97329 10.9594 6.49583 10.9594 4.67329C10.9594 2.85075 9.48191 1.37329 7.65937 1.37329C5.83684 1.37329 4.35938 2.85075 4.35938 4.67329C4.35938 6.49583 5.83684 7.97329 7.65937 7.97329Z" fill="#7CC590"/>
<path d="M11.6196 8.66663C11.0908 8.66667 10.5739 8.82394 10.1347 9.11846C9.69543 9.41298 9.35369 9.83144 9.15288 10.3207C8.95206 10.8099 8.90123 11.3477 9.00686 11.8659C9.11248 12.3841 9.36979 12.8592 9.74607 13.2307C10.1224 13.6023 10.6006 13.8536 11.1201 13.9527C11.6395 14.0518 12.1767 13.9942 12.6634 13.7873C13.15 13.5803 13.5642 13.2333 13.8531 12.7905C14.1421 12.3476 14.2929 11.8287 14.2863 11.3C14.2775 10.5985 13.9927 9.92876 13.4935 9.43585C12.9944 8.94294 12.3211 8.66657 11.6196 8.66663ZM13.0329 10.96L11.9063 12.4C11.8594 12.4575 11.8005 12.504 11.7337 12.5363C11.6669 12.5685 11.5938 12.5857 11.5196 12.5866C11.4436 12.5869 11.3685 12.5696 11.3003 12.536C11.232 12.5025 11.1725 12.4536 11.1263 12.3933L10.3196 11.3333C10.2471 11.2318 10.2157 11.1066 10.2318 10.9829C10.2479 10.8592 10.3102 10.7462 10.4063 10.6666C10.5077 10.5941 10.6329 10.5627 10.7566 10.5788C10.8803 10.5949 10.9933 10.6572 11.0729 10.7533L11.4929 11.2866L12.2263 10.3533C12.2661 10.3021 12.3156 10.2592 12.372 10.2271C12.4284 10.1951 12.4906 10.1744 12.555 10.1664C12.6194 10.1583 12.6847 10.163 12.7472 10.1802C12.8098 10.1974 12.8684 10.2268 12.9196 10.2666C12.9708 10.3065 13.0137 10.356 13.0457 10.4124C13.0778 10.4688 13.0985 10.531 13.1065 10.5953C13.1146 10.6597 13.1098 10.7251 13.0926 10.7876C13.0754 10.8502 13.0461 10.9087 13.0063 10.96H13.0329Z" fill="#7CC590"/>
<path opacity="0.3" d="M13.5729 13.8466C13.4243 13.0152 13.0586 12.2379 12.5129 11.5933L11.9063 12.3666C11.8594 12.4241 11.8005 12.4707 11.7337 12.5029C11.6669 12.5352 11.5938 12.5524 11.5196 12.5533C11.4436 12.5535 11.3685 12.5362 11.3003 12.5027C11.2321 12.4692 11.1725 12.4203 11.1263 12.36L10.3196 11.3333C10.2668 11.265 10.2333 11.1838 10.2228 11.0982C10.2122 11.0125 10.2249 10.9256 10.2596 10.8466C10.2265 10.7695 10.2141 10.6851 10.2238 10.6017C10.2335 10.5184 10.2648 10.439 10.3148 10.3716C10.3647 10.3041 10.4314 10.2509 10.5083 10.2173C10.5852 10.1837 10.6695 10.1708 10.7529 10.18C9.79721 9.68502 8.73587 9.42883 7.6596 9.43328C4.66627 9.42662 2.17293 11.3333 1.74627 13.8466C1.73639 13.9551 1.75014 14.0643 1.78657 14.167C1.823 14.2696 1.88124 14.3631 1.95728 14.441C2.03331 14.5189 2.12534 14.5795 2.22702 14.6184C2.3287 14.6574 2.43762 14.6738 2.54627 14.6666H12.7796C12.8877 14.6728 12.9959 14.6556 13.0967 14.6162C13.1976 14.5768 13.2888 14.5162 13.3641 14.4383C13.4394 14.3605 13.497 14.2674 13.533 14.1653C13.5691 14.0631 13.5827 13.9545 13.5729 13.8466Z" fill="#7CC590"/>
</svg>
