<svg width="16" height="16" viewBox="0 0 16 16" fill="none" xmlns="http://www.w3.org/2000/svg">
<path opacity="0.3" d="M6.01937 7.60004C7.76459 7.60004 9.17938 6.1972 9.17938 4.46671C9.17938 2.73621 7.76459 1.33337 6.01937 1.33337C4.27415 1.33337 2.85938 2.73621 2.85938 4.46671C2.85938 6.1972 4.27415 7.60004 6.01937 7.60004Z" fill="#FECB0D"/>
<path d="M6.01967 14.6667C8.60805 14.6667 10.7063 13.2638 10.7063 11.5334C10.7063 9.80286 8.60805 8.40002 6.01967 8.40002C3.4313 8.40002 1.33301 9.80286 1.33301 11.5334C1.33301 13.2638 3.4313 14.6667 6.01967 14.6667Z" fill="#FECB0D"/>
<g opacity="0.3">
<path d="M10.9263 2.66667C10.5595 2.66709 10.1974 2.74907 9.86626 2.90667C10.1457 3.58477 10.2362 4.3259 10.1282 5.05132C10.0202 5.77674 9.71776 6.45936 9.25293 7.02667C9.5545 7.30129 9.91854 7.49817 10.3134 7.60022C10.7083 7.70228 11.1222 7.70643 11.519 7.61231C11.9159 7.5182 12.2838 7.32866 12.5908 7.06014C12.8979 6.79163 13.1347 6.45225 13.2809 6.07146C13.427 5.69066 13.478 5.27996 13.4295 4.87498C13.381 4.47 13.2343 4.08299 13.0023 3.74752C12.7703 3.41205 12.46 3.13826 12.0982 2.9499C11.7364 2.76155 11.3341 2.66433 10.9263 2.66667Z" fill="#FECB0D"/>
</g>
<path d="M10.9268 8.33338C10.5528 8.33306 10.1797 8.37104 9.81348 8.44671C10.3642 8.75866 10.8264 9.20572 11.1565 9.74576C11.4866 10.2858 11.6737 10.901 11.7001 11.5334C11.6972 12.1748 11.5047 12.801 11.1468 13.3334C13.1068 13.26 14.6668 12.1734 14.6668 10.84C14.6668 9.50671 12.9935 8.33338 10.9268 8.33338Z" fill="#FECB0D"/>
</svg>
