<svg width="16" height="16" viewBox="0 0 16 16" fill="none" xmlns="http://www.w3.org/2000/svg">
<path d="M7.99965 12.6266C7.86723 12.6274 7.73758 12.5887 7.62724 12.5155C7.51689 12.4423 7.43084 12.3379 7.38006 12.2156C7.32929 12.0933 7.31608 11.9587 7.34213 11.8288C7.36817 11.699 7.43229 11.5799 7.52631 11.4866L11.013 7.99996L7.52631 4.5133C7.40214 4.38839 7.33245 4.21942 7.33245 4.0433C7.33245 3.86717 7.40214 3.69821 7.52631 3.5733C7.58829 3.51081 7.66202 3.46122 7.74326 3.42737C7.8245 3.39352 7.91164 3.3761 7.99965 3.3761C8.08765 3.3761 8.17479 3.39352 8.25603 3.42737C8.33727 3.46122 8.411 3.51081 8.47298 3.5733L12.4263 7.52663C12.4893 7.58837 12.5394 7.662 12.5737 7.74325C12.6081 7.8245 12.6259 7.91176 12.6263 7.99996C12.6259 8.08817 12.6081 8.17542 12.5737 8.25667C12.5394 8.33792 12.4893 8.41155 12.4263 8.4733L8.47298 12.4266C8.41124 12.4896 8.33761 12.5397 8.25636 12.5741C8.17511 12.6084 8.08785 12.6263 7.99965 12.6266Z" fill="#7CC590"/>
<path opacity="0.3" d="M11.9597 8.66659H4.03971C3.8629 8.66659 3.69333 8.59635 3.56831 8.47132C3.44328 8.3463 3.37305 8.17673 3.37305 7.99992C3.37305 7.82311 3.44328 7.65354 3.56831 7.52851C3.69333 7.40349 3.8629 7.33325 4.03971 7.33325H11.9597C12.1365 7.33325 12.3061 7.40349 12.4311 7.52851C12.5561 7.65354 12.6264 7.82311 12.6264 7.99992C12.6264 8.17673 12.5561 8.3463 12.4311 8.47132C12.3061 8.59635 12.1365 8.66659 11.9597 8.66659Z" fill="#7CC590"/>
</svg>
