<svg width="120" height="120" viewBox="0 0 120 120" fill="none" xmlns="http://www.w3.org/2000/svg">
<g clip-path="url(#clip0_4872_59326)">
<path d="M59.54 93.7318L18 50.1525L31.3414 26H87.7386L101.08 50.1525L59.54 93.7318Z" fill="#63429B"/>
<path d="M18 50.1523L59.54 93.7316L41.3973 50.1523H18Z" fill="#482581"/>
<path d="M31.3414 26L18 50.1525H41.3973L31.3414 26Z" fill="#8F7BB8"/>
<path d="M77.6836 50.1525L87.7395 26L101.081 50.1525H77.6836Z" fill="#7B68AF"/>
<path d="M59.5391 93.7316L77.6818 50.1523H101.079L59.5391 93.7316Z" fill="#320C5F"/>
<path d="M87.7371 26H31.3398L41.3958 50.1525H77.6812L87.7371 26Z" fill="#BBAFD5"/>
<path d="M59.5412 26L41.3984 50.1525H77.6839L59.5412 26Z" fill="#D1CAE8"/>
</g>
<path fill-rule="evenodd" clip-rule="evenodd" d="M60 117.6C91.8116 117.6 117.6 91.8116 117.6 60C117.6 28.1884 91.8116 2.4 60 2.4C28.1884 2.4 2.4 28.1884 2.4 60C2.4 91.8116 28.1884 117.6 60 117.6ZM60 120C93.1371 120 120 93.1371 120 60C120 26.8629 93.1371 0 60 0C26.8629 0 0 26.8629 0 60C0 93.1371 26.8629 120 60 120Z" fill="#1C1C1C" fill-opacity="0.24"/>
<defs>
<clipPath id="clip0_4872_59326">
<rect width="83.08" height="67.7318" fill="white" transform="translate(18 26)"/>
</clipPath>
</defs>
</svg>
