<svg width="384" height="214" viewBox="0 0 384 214" fill="none" xmlns="http://www.w3.org/2000/svg">
<g filter="url(#filter0_dd_1_14)">
<g clip-path="url(#clip0_1_14)">
<rect x="16" y="8" width="352" height="182" rx="12" fill="#FDF2D6"/>
<path d="M34.1978 152.236C34.1978 152.236 26.1195 141.508 23.9674 125.42C21.8152 109.331 24.3985 95.9458 34.2518 82.3174C21.0673 72.9387 13.5618 60.901 13.2065 44.9768C12.8513 29.0526 24.7112 8.34295 38.8881 1.92069C53.065 -4.50157 63.8051 -3.06526 63.8051 -3.06526C63.8051 -3.06526 68.6911 -36.6721 96.1426 -44.6046C123.594 -52.5371 145.838 -33.2489 145.838 -33.2489C145.838 -33.2489 167.989 -52.5633 198.569 -40.2315C229.15 -27.8997 226.39 2.2692 226.39 2.2692C226.39 2.2692 263.593 6.57978 267.238 45.9614C270.884 85.343 226.032 95.3165 226.032 95.3165C226.032 95.3165 234.627 125.162 201.979 145.332C169.331 165.503 140.398 135.16 140.398 135.16C140.398 135.16 130.624 152.882 99.9117 151.889C69.1998 150.897 62.0689 129.812 62.0689 129.812C62.0689 129.812 41.7715 128.864 34.1978 152.236Z" fill="#FBEDC9"/>
<path d="M38.8801 161.016C38.8801 161.016 29.358 152.955 24.1043 138.82C18.8507 124.685 18.4428 112.027 24.5717 97.6559C10.7002 91.8656 1.42807 82.5001 -2.16374 68.1452C-5.75557 53.7902 0.737464 32.5913 12.2635 23.8616C23.7896 15.1319 33.8155 14.228 33.8155 14.228C33.8155 14.228 31.3416 -17.2242 54.5848 -30.0479C77.8281 -42.8716 101.942 -29.963 101.942 -29.963C101.942 -29.963 118.046 -52.0108 148.285 -47.1167C178.525 -42.2227 182.219 -14.3219 182.219 -14.3219C182.219 -14.3219 216.812 -18.0552 228.202 16.8775C239.591 51.8101 201.002 70.0558 201.002 70.0558C201.002 70.0558 214.917 95.3319 189.479 120.311C164.041 145.289 131.596 123.738 131.596 123.738C131.596 123.738 126.378 141.802 98.3483 147.209C70.3183 152.615 59.5278 134.976 59.5278 134.976C59.5278 134.976 40.9429 138.285 38.8801 161.016Z" fill="#F8E4B2"/>
<path d="M342.331 183.33C332.963 163.742 327.693 148.986 328.571 145.852C330.328 139.192 332.67 137.495 335.744 134.23C338.818 130.966 345.406 121.955 348.772 119.735C351.7 117.777 354.774 116.601 354.335 115.034C354.042 113.467 349.651 110.986 344.088 113.99C340.868 115.687 336.33 119.344 333.109 122.086C332.084 123 330.474 123.784 329.157 123.522C327.693 123.261 326.668 121.433 326.082 120.388C322.423 114.512 321.984 105.241 319.349 99.2337C316.714 93.0963 314.957 89.0482 314.225 87.0894C313.932 86.0448 312.615 82.7802 311.444 80.0379C310.565 77.6874 308.37 76.9039 306.613 77.1651C303.685 77.818 303.685 80.5602 304.124 81.9967C303.832 81.2132 303.1 78.9932 302.661 77.1651C302.075 74.9451 300.318 73.2475 297.683 73.6393C295.488 73.9005 293.292 75.8592 294.316 79.6461C293.731 78.9932 292.853 78.6015 291.682 78.7321C287.875 79.1238 287.436 81.8661 288.168 86.5671C288.754 90.8764 289.193 93.8798 289.778 98.5808C289.778 98.5808 289.047 94.0104 285.826 94.141C282.606 94.2715 282.313 98.842 283.191 104.065C284.216 109.289 286.412 118.691 286.704 122.347C286.997 126.134 289.193 138.409 292.999 143.502C296.805 148.594 298.269 149.9 299.001 152.381C299.44 153.557 299.294 155.385 300.172 156.952C300.904 158.127 301.489 158.911 303.246 161.131C306.467 164.787 323.448 228.773 323.448 228.773L354.628 208.794C354.628 208.794 351.7 202.917 342.331 183.33ZM294.463 79.7767C294.316 79.7767 294.316 79.7767 294.316 79.7767H294.463Z" fill="#B16739"/>
<path d="M306.759 77.2938C306.027 77.5549 305.441 77.9467 305.002 78.5996C304.563 79.1219 304.417 79.7749 304.417 80.4278C304.417 81.0807 304.417 81.7336 304.71 82.3865L305.295 84.4759L307.637 92.7027C308.076 94.0085 308.369 95.4449 308.662 96.8814L309.687 101.06C310.419 103.802 311.151 106.545 311.883 109.287C312.029 109.548 311.736 109.94 311.443 109.94C311.151 110.07 310.711 109.809 310.711 109.548C310.126 106.806 309.54 103.933 308.808 101.191C308.223 98.4484 307.637 95.5755 306.759 92.9638C306.027 90.2216 305.149 87.4793 304.417 84.7371L303.831 82.6477C303.685 81.8642 303.538 81.2113 303.538 80.4278C303.685 79.6443 303.831 78.9914 304.417 78.3384C305.149 77.6855 305.881 77.2938 306.759 77.2938Z" fill="#21130E"/>
<path d="M291.535 78.8612C290.51 78.9918 289.632 79.3836 289.046 80.0365C288.461 80.5588 288.168 81.4729 288.168 82.2564C288.022 83.954 288.314 85.7822 288.607 87.4798C289.193 91.0055 289.632 94.5313 289.925 98.0571C290.217 101.583 290.949 104.978 291.828 108.504C292.267 110.201 292.706 111.899 293.145 113.727C293.292 114.641 293.438 115.425 293.584 116.339C293.731 117.253 293.877 118.167 293.877 119.212C293.877 119.603 293.584 119.865 293.145 119.865C292.706 119.865 292.413 119.603 292.413 119.212V119.081C292.706 118.298 292.706 117.514 292.56 116.6C292.413 115.686 292.267 114.902 292.12 113.988C291.828 112.291 291.388 110.593 290.949 108.765C290.071 105.37 289.339 101.844 289.046 98.3182C288.607 94.7925 288.168 91.2667 287.729 87.7409C287.436 86.0434 287.29 84.2152 287.436 82.387C287.582 81.4729 287.875 80.5588 288.607 79.9059C289.632 79.1224 290.657 78.8612 291.535 78.8612Z" fill="#21130E"/>
<path d="M301.49 112.032L299.88 103.935C299.294 101.193 298.709 98.4509 298.123 95.8392C297.391 93.097 296.806 90.4853 296.22 87.743C295.488 85.0008 295.927 82.1279 294.171 79.7774C295.342 80.8221 295.781 82.2585 296.074 83.5643C296.22 84.2173 296.366 85.0008 296.513 85.6537L296.952 87.6124C297.538 90.3547 298.123 92.9664 298.855 95.7086C299.587 98.4509 300.173 101.063 300.758 103.805L302.515 111.901C302.515 112.162 302.368 112.554 302.076 112.554C301.929 112.554 301.636 112.293 301.49 112.032Z" fill="#21130E"/>
<path d="M285.68 94.1386C282.898 94.2692 282.752 98.0561 282.898 100.668C283.337 105.369 285.826 112.812 287.29 123.781C288.022 129.135 290.071 137.362 292.999 142.193C294.17 143.891 296.805 147.025 297.976 148.592C301.49 153.163 298.123 154.207 300.611 157.864C301.929 159.822 303.539 160.736 304.564 162.434C306.467 165.96 311.151 178.365 312.029 181.369C315.25 191.424 327.107 226.42 327.107 226.42L321.837 229.815C321.837 229.815 311.883 192.207 308.955 182.152C308.223 178.888 304.417 165.829 302.807 162.565C302.075 161.259 301.197 160.606 299.879 158.647C296.951 154.207 299.44 153.946 296.366 149.506C294.902 147.417 293.145 145.197 291.535 142.977C288.607 137.884 286.851 129.396 286.119 123.912C285.094 114.249 282.459 105.891 282.313 100.798C282.313 98.0561 282.752 94.1386 285.68 94.1386Z" fill="#21130E"/>
<path d="M337.794 170.399L309.102 182.152L323.156 243.918L373.659 242.09L337.794 170.399Z" fill="#FF8CD8"/>
<path d="M318.325 178.364L309.102 182.151L323.155 243.917H338.672L318.325 178.364Z" fill="#CA4EA0"/>
<path d="M315.836 148.205C315.836 148.205 311.737 140.761 312.03 136.191C312.322 131.62 314.372 124.046 314.372 124.046C314.372 124.046 311.005 129.531 311.151 136.844C311.005 141.806 315.836 148.205 315.836 148.205Z" fill="#21130E"/>
<path d="M305.149 63.7147L305.588 47.2612C305.588 47 305.735 47 305.881 47C306.027 47 306.027 47 306.027 47.1306L306.466 63.5842C306.466 63.8453 306.174 63.9759 305.881 63.9759C305.442 64.1065 305.149 63.8453 305.149 63.7147Z" fill="#21130E"/>
<path d="M293.585 66.9807L286.119 57.9704C286.119 57.8398 286.119 57.7092 286.119 57.7092C286.265 57.7092 286.412 57.7092 286.412 57.7092L294.463 66.1972C294.756 66.4583 294.61 66.8501 294.317 66.9807C294.17 67.3724 293.731 67.2418 293.585 66.9807Z" fill="#21130E"/>
<path d="M317.885 64.5011L325.497 55.6214C325.644 55.4908 325.644 55.4908 325.79 55.6214C325.936 55.6214 325.936 55.752 325.79 55.8825L318.91 65.154C318.763 65.4152 318.324 65.5458 318.032 65.2846C317.739 65.154 317.739 64.7623 317.885 64.5011Z" fill="#21130E"/>
<path d="M313.932 71.4171C311.151 70.7642 308.516 73.1147 304.71 82.7779C306.32 78.2075 306.027 76.5099 303.685 75.5958C299.001 73.8982 295.927 81.8639 291.535 91.5271C287.143 101.19 281.142 115.032 280.263 116.207C279.385 117.383 276.164 117.252 274.847 116.86C273.529 116.469 270.309 110.984 267.235 106.936C264.161 102.888 258.744 103.671 257.72 105.63C256.695 107.589 259.623 110.07 260.94 112.029C262.258 113.988 263.575 120.778 265.478 126.132C267.528 131.486 271.919 136.579 273.676 139.06C275.432 141.671 277.336 145.197 276.018 150.159C274.701 155.121 254.646 219.108 254.646 219.108L299.147 205.135C299.44 190.901 302.514 155.383 305.442 151.073C308.223 146.895 318.324 131.747 320.959 123.259C323.594 114.771 325.35 99.7539 325.643 96.2281C325.936 92.9635 320.666 92.3106 319.495 95.7058C319.202 96.4893 317.592 101.843 317.592 101.843C317.592 101.843 320.373 89.8295 321.544 84.2144C322.13 81.0804 320.959 79.3828 319.349 78.991C317.738 78.5993 315.689 78.991 314.664 81.6027C318.031 73.7677 316.714 72.0701 313.932 71.4171Z" fill="#E48D61"/>
<path d="M303.686 75.5939C304.418 75.8551 305.004 76.2468 305.443 76.7692C305.882 77.2915 305.882 78.075 305.882 78.7279C305.882 80.0338 305.443 81.3396 305.004 82.6455C304.125 85.1266 303.247 87.6076 302.369 90.2193L296.953 105.236C296.806 105.498 296.513 105.628 296.221 105.628C295.928 105.498 295.781 105.236 295.781 104.975L301.783 90.2193C302.808 87.7382 303.833 85.2571 304.711 82.776C305.15 81.4702 305.589 80.295 305.736 78.9891C305.736 78.3362 305.736 77.6833 305.443 77.1609C305.004 76.2468 304.272 75.8551 303.686 75.5939Z" fill="#21130E"/>
<path d="M313.933 71.4151C314.811 71.6763 315.689 71.9375 316.129 72.721C316.568 73.3739 316.714 74.288 316.714 75.0715C316.714 76.7691 316.275 78.3361 315.689 79.9031C314.665 83.0371 313.64 86.1711 312.762 89.3051L306.906 107.979C306.76 108.24 306.467 108.501 306.174 108.37C305.881 108.24 305.589 107.979 305.735 107.717L312.176 89.1745C313.201 86.0405 314.226 83.0371 315.397 79.9031C315.982 78.3361 316.421 76.7691 316.421 75.2021C316.421 74.4186 316.421 73.6351 315.836 72.8515C315.689 71.9375 314.811 71.5457 313.933 71.4151Z" fill="#21130E"/>
<path d="M303.687 75.5968C302.516 75.205 301.198 75.4662 300.32 76.2497C299.441 76.9026 298.709 77.8167 298.124 78.7308C296.953 80.559 295.928 82.6483 295.05 84.6071L289.633 96.7514L284.217 108.896C283.339 110.985 282.46 112.944 281.436 114.903C281.143 115.425 280.997 115.947 280.411 116.47C279.826 116.992 279.094 117.122 278.508 117.122C277.922 117.253 277.191 117.122 276.605 117.122C276.019 116.992 275.434 116.992 274.848 116.731C276.019 116.861 277.337 116.861 278.362 116.6C278.947 116.47 279.533 116.208 279.826 115.947C280.118 115.555 280.265 115.033 280.557 114.641L283.339 108.635L288.902 96.4902C290.805 92.4421 292.708 88.394 294.611 84.4765C295.635 82.5177 296.66 80.4284 297.978 78.6002C298.709 77.6861 299.441 76.772 300.32 76.1191C300.759 75.7274 301.344 75.4662 301.93 75.4662C302.223 75.3356 302.516 75.4662 302.808 75.4662C303.101 75.4662 303.394 75.5968 303.687 75.5968Z" fill="#21130E"/>
<path d="M314.666 112.676L321.839 84.2091L315.983 112.938C315.983 113.199 315.544 113.46 315.251 113.329C314.812 113.329 314.666 113.068 314.666 112.676Z" fill="#21130E"/>
<path d="M277.63 151.468C280.85 140.368 270.164 136.451 265.919 125.351C264.162 121.173 262.844 114.643 261.82 111.771H260.941C262.259 114.121 263.284 120.389 265.04 125.612C268.7 137.496 276.898 141.674 274.263 150.685C271.628 159.695 263.284 188.815 254.94 218.98L260.356 217.282C260.209 217.413 273.677 165.832 277.63 151.468Z" fill="#21130E"/>
<path d="M300.172 80.8223L301.196 81.0834L302.221 81.3446C302.66 81.4752 302.953 81.4752 303.392 81.214C303.685 81.0834 303.978 80.8223 304.124 80.4305L304.417 79.5164L304.71 78.6023C304.856 77.9494 304.856 77.4271 304.563 76.9048C304.27 76.3824 303.685 75.9907 303.099 75.7295C302.367 75.5989 301.782 75.5989 301.196 75.8601C300.611 76.1213 300.172 76.6436 299.879 77.1659L299.586 78.08L299.293 78.9941C299.147 79.3859 299.147 79.647 299.44 80.0388C299.44 80.4305 299.732 80.6917 300.172 80.8223Z" fill="#FDCD95"/>
<path d="M311.005 76.9033L312.029 77.1645L313.054 77.4257C313.493 77.5562 313.786 77.5562 314.225 77.2951C314.518 77.1645 314.811 76.9033 314.957 76.5116L315.25 75.5975L315.543 74.6834C315.689 74.0305 315.689 73.5081 315.396 72.9858C315.103 72.4635 314.518 72.0717 313.932 71.8106C313.2 71.68 312.615 71.68 312.029 71.9411C311.444 72.2023 311.005 72.7246 310.712 73.247L310.419 74.1611L310.126 75.2057C309.98 75.5975 309.98 75.8587 310.273 76.2504C310.273 76.5116 310.565 76.7727 311.005 76.9033Z" fill="#FDCD95"/>
<path d="M317.298 84.0832L318.177 84.2138L319.055 84.3443C319.348 84.3443 319.787 84.3443 320.08 84.0832C320.373 83.9526 320.519 83.6914 320.665 83.2997L320.812 82.5162L320.958 81.7327C321.104 81.2103 320.958 80.688 320.519 80.1657C320.226 79.7739 319.641 79.3821 319.055 79.3821C318.469 79.2516 317.884 79.3821 317.298 79.7739C316.859 80.0351 316.42 80.5574 316.42 81.0797L316.274 81.8632L316.127 82.6467C316.127 83.0385 316.127 83.2997 316.42 83.5608C316.713 83.822 317.006 83.9526 317.298 84.0832Z" fill="#FDCD95"/>
<path d="M321.838 98.7133L322.57 98.8439L323.302 98.9745C323.595 98.9745 323.888 98.9745 324.18 98.7133C324.473 98.5827 324.62 98.3216 324.62 98.0604L324.766 97.2769L324.912 96.4934C325.059 95.9711 324.912 95.5793 324.473 95.1876C324.18 94.7958 323.741 94.5346 323.156 94.5346C322.57 94.4041 322.131 94.5346 321.692 94.9264C321.253 95.1876 320.96 95.5793 320.96 96.1017L320.814 96.8852L320.667 97.6687C320.667 97.9298 320.667 98.191 320.814 98.4522C321.253 98.4522 321.399 98.5827 321.838 98.7133Z" fill="#FDCD95"/>
<path d="M261.087 112.03C260.941 112.03 260.941 112.03 260.941 111.9C260.794 111.638 260.501 111.247 260.062 110.855C259.623 110.333 259.184 109.81 258.745 109.157C258.598 108.896 258.306 108.504 258.159 107.982C258.013 107.46 258.013 106.937 258.306 106.415C258.891 105.632 259.77 105.501 260.648 105.893C261.526 106.285 262.551 107.068 263.429 107.982C263.576 108.243 263.722 108.374 263.868 108.635C264.015 108.896 264.015 109.157 264.015 109.288C263.868 110.071 263.429 110.855 262.844 111.247C262.112 111.769 261.526 112.03 261.087 112.03Z" fill="#FDCD95"/>
<path d="M299.441 243.92L241.325 240.133L257.574 192.339L304.125 189.336L299.441 243.92Z" fill="#71A9F7"/>
<path opacity="0.29" d="M257.574 192.339L241.325 240.132L249.962 240.785L260.355 208.792L261.673 213.624L303.247 200.043L304.125 189.335L257.574 192.339Z" fill="#53A4BF"/>
<path d="M262.551 208.662L257.574 192.339L304.125 189.336L303.393 198.216L262.551 208.662Z" fill="#E3EEFD"/>
</g>
</g>
<defs>
<filter id="filter0_dd_1_14" x="0" y="0" width="384" height="214" filterUnits="userSpaceOnUse" color-interpolation-filters="sRGB">
<feFlood flood-opacity="0" result="BackgroundImageFix"/>
<feColorMatrix in="SourceAlpha" type="matrix" values="0 0 0 0 0 0 0 0 0 0 0 0 0 0 0 0 0 0 127 0" result="hardAlpha"/>
<feOffset dy="8"/>
<feGaussianBlur stdDeviation="8"/>
<feComposite in2="hardAlpha" operator="out"/>
<feColorMatrix type="matrix" values="0 0 0 0 0.105882 0 0 0 0 0.117647 0 0 0 0 0.141176 0 0 0 0.1 0"/>
<feBlend mode="normal" in2="BackgroundImageFix" result="effect1_dropShadow_1_14"/>
<feColorMatrix in="SourceAlpha" type="matrix" values="0 0 0 0 0 0 0 0 0 0 0 0 0 0 0 0 0 0 127 0" result="hardAlpha"/>
<feOffset/>
<feGaussianBlur stdDeviation="0.5"/>
<feComposite in2="hardAlpha" operator="out"/>
<feColorMatrix type="matrix" values="0 0 0 0 0.105882 0 0 0 0 0.117647 0 0 0 0 0.141176 0 0 0 0.31 0"/>
<feBlend mode="normal" in2="effect1_dropShadow_1_14" result="effect2_dropShadow_1_14"/>
<feBlend mode="normal" in="SourceGraphic" in2="effect2_dropShadow_1_14" result="shape"/>
</filter>
<clipPath id="clip0_1_14">
<rect x="16" y="8" width="352" height="182" rx="12" fill="white"/>
</clipPath>
</defs>
</svg>
