<svg width="384" height="214" viewBox="0 0 384 214" fill="none" xmlns="http://www.w3.org/2000/svg">
<g filter="url(#filter0_dd_2_638)">
<g clip-path="url(#clip0_2_638)">
<rect x="16" y="8" width="352" height="182" rx="12" fill="#FFF8F8"/>
<path d="M29.0641 137.361C29.0641 137.361 33.08 117.507 44.0613 112.556C56.5099 105.564 69.1857 116.258 78.3552 119.059C87.5247 121.86 105.72 130.067 123.423 128.394C144.09 126.442 160.708 123.032 175.742 111.422C190.776 99.8108 202.666 87.5 207.758 60.7518C212.85 34.0035 199.677 5.04647 187.424 -9.80915C175.171 -24.6648 150.059 -33.7332 130.733 -37.8667C111.406 -42.0003 85.4174 -43.8118 59.3853 -39.2369C33.3533 -34.6621 15.8125 -28.1742 -8.2111 -2.56155C-32.2347 23.0511 -25.7277 58.2622 -21.4353 74.0065C-17.1429 89.7509 4.72395 122.982 29.0641 137.361Z" fill="#FFF1F1"/>
<path d="M36.6871 139.138C36.6871 139.138 38.7408 119.369 48.9998 113.5C60.4998 105.5 73.8861 114.751 83.1051 116.624C92.3241 118.497 110.867 124.799 128 121.5C148 117.648 167 109.5 177.5 100C188 90.5 201 80 204 47.5C207 15 190.864 -6.14428 177.5 -19.5C164.135 -32.8557 138.756 -39.3492 119.492 -41.5674C100.227 -43.7856 74.6748 -43.1091 49.681 -36.1912C24.6872 -29.2733 8.16651 -21.2861 -12.8858 5.98944C-33.9382 33.265 -24.2695 67.0417 -18.5956 82.0145C-12.9217 96.9874 11.562 127.385 36.6871 139.138Z" fill="#FDEAEB"/>
<mask id="mask0_2_638" style="mask-type:alpha" maskUnits="userSpaceOnUse" x="280" y="101" width="56" height="78">
<path d="M325.224 178.487L335.988 138.622C330.093 132.186 318.322 119.105 318.393 118.275C318.465 117.444 311.014 106.829 307.279 101.625L290.962 102.831L298.334 126.48L282.58 127.211L280.07 156.283L293.941 177.355L325.224 178.487Z" fill="#D9D9D9"/>
</mask>
<g mask="url(#mask0_2_638)">
<path d="M395.813 199.889C395.813 199.889 370.179 193.428 355.524 185.009C340.931 176.675 323.85 168.058 320.908 168.364C317.966 168.671 302.103 173.125 298.072 169.525C294.042 165.926 285.317 135.866 288.812 133.202C291.708 131.104 300.369 130.305 303.912 129.954C304.285 129.944 304.616 129.704 304.802 129.439C304.988 129.174 305.049 128.739 304.882 128.338C304.172 126.505 302.942 123.615 301.547 121.366C297.488 114.788 296.279 112.274 296.251 109.816C296.161 107.273 297.645 104.111 300.362 104.881C302.229 105.354 303.126 107.442 303.586 108.935C303.732 109.481 304.024 110.052 304.253 110.537C304.628 111.049 305.002 111.56 305.459 112.011C306.726 113.049 308.493 114.768 310.261 117.008C313.276 120.951 318.845 126.304 322.404 131.68C325.963 137.056 328.298 142.145 329.357 143.072C330.479 144.085 333.822 146.227 340.772 148.623C347.783 151.106 404.114 166.097 404.114 166.097L395.813 199.889Z" fill="#FBBEA2"/>
<path d="M302.263 109.474C301.639 107.589 301.263 106.043 301.881 105.855C302.5 105.666 303.225 106.828 303.849 108.714C304.473 110.599 304.93 111.567 304.93 111.567C304.93 111.567 303.031 111.385 302.263 109.474Z" fill="#FEF0E8"/>
<path d="M308.796 165.268C308.958 164.106 308.457 162.903 307.687 162.025C306.979 161.233 306.044 160.474 304.841 160.562C305.338 160.202 305.834 159.843 306.102 159.518C306.908 158.543 307.066 156.34 306.544 155.282C306.127 154.54 305.419 153.747 304.671 153.245C305.375 152.996 305.789 152.696 306.078 152.226C306.903 151.106 306.795 149.749 306.519 147.99C306.161 146.292 305.617 144.859 303.937 144.64C304.621 144.536 305.097 144.322 305.303 143.911C305.818 142.886 307.215 139.263 304.453 137.74C301.628 136.131 292.063 133.793 290.778 133.941C289.493 134.088 288.293 134.697 287.697 136.303C287.081 138.054 286.759 140.898 287.323 142.187C287.845 143.244 288.49 143.952 289.424 144.189C288.803 144.378 288.244 144.652 287.976 144.977C287.191 145.807 285.849 147.432 286.938 150.82C287.818 153.576 288.404 155.24 289.546 155.588C288.864 156.212 288.597 157.058 288.871 158.295C289.187 159.763 290.653 164.184 292.418 164.863C293.539 165.356 294.721 165.414 295.963 165.036C295.323 165.891 295.388 166.497 295.867 167.324C296.722 168.663 298.677 170.64 300.089 171.184C301.438 171.643 303.489 171.331 305.535 169.458C307.519 167.499 308.655 166.284 308.796 165.268Z" fill="#B16739"/>
<path d="M297.945 168.495C299.257 169.765 301.912 169.932 303.696 169.945C307.72 169.904 312.467 168.947 316.302 168.128C318.913 167.543 319.763 167.319 320.738 167.266C321.402 167.308 321.92 167.324 323.27 167.783C328.96 169.669 340.223 175.356 347.372 179.059C357.284 184.287 360.278 186.298 371.057 190.115C379.282 193.039 387.65 195.467 396.016 197.374L394.769 202.588C386.256 200.134 376.391 196.701 369.702 193.97C358.921 189.632 355.947 187.476 346.033 181.727C340.317 178.423 328.845 172.104 322.593 169.971C321.95 169.784 321.306 169.597 320.642 169.556C320.642 169.556 316.828 170.229 316.745 170.289C312.703 170.997 307.768 171.698 303.619 171.569C301.399 171.479 298.556 171.057 296.995 169.445C296.577 168.702 297.362 167.872 297.945 168.495Z" fill="#B16739"/>
<path d="M294.608 164.344C293.569 165.359 293.55 166.029 294.242 166.973C295.101 168.32 297.068 170.31 298.487 170.857C299.844 171.318 301.906 171.005 303.963 169.12C306.021 167.235 307.163 166.013 307.305 164.991C307.468 163.822 306.963 162.612 306.189 161.729C305.289 160.674 304.077 159.714 302.328 160.456C300.892 161.103 295.999 162.941 294.608 164.344Z" fill="#FBBEA2"/>
<path d="M287.339 158.024C287.657 159.501 289.132 163.947 290.906 164.631C292.596 165.375 294.284 165.071 296.198 164.209C298.05 163.261 303.378 160.975 304.644 159.401C305.453 158.42 305.697 156.668 305.088 155.14C304.583 153.93 303.182 152.713 301.785 152.544C300.451 152.46 289.91 154.06 288.35 155.059C287.456 155.576 287.021 156.547 287.339 158.024Z" fill="#FBBEA2"/>
<path d="M286.445 144.68C285.657 145.513 284.309 147.145 285.404 150.549C286.33 153.549 287.002 155.16 288.315 155.389C289.69 155.704 293.934 154.727 297.825 154.137C301.653 153.461 303.859 153.174 304.625 151.963C305.454 150.838 305.345 149.474 305.068 147.708C304.709 146.002 304.162 144.562 302.475 144.342C300.871 144.062 289.059 141.999 286.445 144.68Z" fill="#FBBEA2"/>
<path d="M286.326 136.015C285.709 137.771 285.386 140.624 285.952 141.916C286.518 143.208 287.456 143.968 288.641 144.026C289.909 144.024 292.569 143.668 296.604 144.149C300.639 144.629 303.363 144.881 303.962 143.793C304.478 142.764 305.879 139.131 303.109 137.603C300.276 135.989 290.684 133.643 289.395 133.791C288.127 133.794 286.924 134.404 286.326 136.015Z" fill="#FBBEA2"/>
<path d="M304.081 141.197C303.899 142.508 303.174 143.427 302.737 143.35C302.3 143.274 302.525 142.194 302.77 140.968C302.953 139.657 303.178 138.577 303.532 138.713C304.052 138.729 304.347 139.826 304.081 141.197Z" fill="#FEF0E8"/>
<path d="M304.631 148.144C304.739 149.502 304.287 150.612 303.852 150.536C303.478 150.546 303.412 149.419 303.367 148.146C303.258 146.789 303.255 145.747 303.628 145.738C304.063 145.814 304.585 146.872 304.631 148.144Z" fill="#FEF0E8"/>
<path d="M304.738 155.546C305.032 156.636 304.808 157.709 304.353 157.778C303.898 157.847 303.73 156.928 303.437 155.838C303.143 154.748 302.83 153.803 303.285 153.734C303.739 153.665 304.445 154.456 304.738 155.546Z" fill="#FEF0E8"/>
<path d="M305.82 161.973C306.461 162.677 306.629 163.594 306.382 163.772C306.136 163.951 305.701 163.358 305.06 162.654C304.419 161.951 303.923 161.272 304.169 161.094C304.416 160.915 305.179 161.27 305.82 161.973Z" fill="#FEF0E8"/>
<path d="M294.216 166.958C295.14 168.393 296.293 169.794 297.883 170.747C298.72 171.193 299.681 171.286 300.516 171.207C301.434 171.067 302.163 170.67 302.913 170.126C303.663 169.583 304.266 169.014 304.87 168.444C305.473 167.875 306.014 167.22 306.638 166.504C306.908 166.177 307.116 165.763 307.323 165.35C307.467 164.85 307.445 164.472 307.36 164.007C307.19 163.078 306.77 162.329 306.183 161.702C306.686 162.39 307.023 163.198 307.131 164.042C307.153 164.42 307.155 164.945 307.031 165.299C306.906 165.652 306.636 165.979 306.366 166.307C305.825 166.962 305.222 167.531 304.618 168.1C304.015 168.67 303.411 169.239 302.745 169.722C301.412 170.689 299.618 171.2 298.153 170.419C297.38 170.059 296.709 169.492 296.123 168.865C295.369 168.358 294.782 167.731 294.216 166.958Z" fill="#B16739"/>
<path d="M287.312 158.028C287.569 159.943 288.201 161.848 289.311 163.538C289.626 163.967 289.94 164.396 290.337 164.764L290.755 164.987L291.109 165.123C291.318 165.235 291.61 165.286 291.902 165.337C292.924 165.515 293.986 165.402 294.923 165.116C295.86 164.831 296.671 164.375 297.483 163.918C298.294 163.461 299.168 163.091 299.979 162.634C300.79 162.177 301.602 161.721 302.433 161.118C303.182 160.576 304.013 159.973 304.636 159.259C303.95 159.887 303.139 160.344 302.328 160.8C301.517 161.257 300.643 161.628 299.831 162.085L297.272 163.283C296.398 163.654 295.587 164.11 294.733 164.335C293.879 164.56 292.963 164.699 292.087 164.546C291.649 164.47 291.148 164.308 290.877 164.111C290.542 163.828 290.208 163.545 289.956 163.202C289.391 162.43 288.909 161.598 288.51 160.706C287.965 159.788 287.628 158.981 287.312 158.028Z" fill="#B16739"/>
<path d="M285.351 150.525C285.647 151.625 285.943 152.724 286.385 153.85C286.616 154.339 286.91 154.914 287.454 155.309C287.997 155.703 288.665 155.745 289.27 155.701C291.605 155.585 293.835 155.151 295.982 154.777C297.129 154.603 298.192 154.49 299.276 154.23C300.423 154.056 301.506 153.796 302.59 153.536C303.132 153.406 303.694 153.13 304.193 152.768C304.693 152.406 305.003 151.787 305.148 151.288C305.457 150.144 305.244 148.984 304.948 147.884C305.015 149.019 305.227 150.179 304.793 151.151C304.648 151.65 304.358 152.123 303.879 152.339C303.463 152.641 302.921 152.77 302.379 152.9C300.275 153.506 297.939 153.622 295.772 154.142C293.541 154.576 291.311 155.01 289.184 155.237C288.58 155.281 288.058 155.265 287.64 155.042C287.16 154.733 286.928 154.244 286.614 153.815C286.172 152.69 285.793 151.65 285.351 150.525Z" fill="#B16739"/>
<path d="M286.313 136.04C285.881 137.007 285.656 138.085 285.597 139.042C285.518 140.145 285.439 141.248 285.981 142.162C286.211 142.649 286.524 143.076 286.983 143.528C287.378 143.895 287.939 144.142 288.521 144.243C289.559 144.276 290.617 144.163 291.655 144.195C292.693 144.227 293.668 144.174 294.769 144.292C295.807 144.324 296.825 144.502 297.925 144.619C299.026 144.737 299.981 144.829 301.102 144.802C301.621 144.818 302.222 144.774 302.679 144.705C303.218 144.575 303.757 144.446 303.984 143.89C303.695 144.361 303.155 144.49 302.636 144.474C302.117 144.458 301.661 144.527 301.079 144.425C300.042 144.393 299.024 144.215 297.923 144.098C295.888 143.742 293.667 143.653 291.57 143.733C290.533 143.701 289.454 143.959 288.416 143.927C287.378 143.895 286.587 143.161 286.127 142.187C285.584 141.274 285.58 140.231 285.66 139.128C285.739 138.025 285.963 136.947 286.313 136.04Z" fill="#B16739"/>
</g>
<path d="M323.55 174.597L332.166 141.508L409.387 157.973L402.626 199.879L323.55 174.597Z" fill="#D9BA75"/>
<path d="M405.483 182.252L402.626 199.876L323.549 174.595L326.786 161.937L405.483 182.252Z" fill="#BB9A4F"/>
<path d="M319.469 106.504L332.198 96.8973C332.3 96.8751 332.278 96.7732 332.256 96.6714C332.233 96.5696 332.132 96.5918 332.03 96.6141L318.884 105.778C318.702 105.924 318.645 106.15 318.814 106.433C318.96 106.615 319.186 106.672 319.469 106.504Z" fill="#EF848A"/>
<path d="M300.382 99.4885L295.709 84.1604C295.642 84.08 295.576 83.9996 295.496 84.0659C295.415 84.1322 295.335 84.1985 295.401 84.2789L299.474 99.6974C299.526 99.9245 299.806 100.099 300.033 100.047C300.26 99.9949 300.435 99.7156 300.382 99.4885Z" fill="#EF848A"/>
<path d="M287.407 114.384L271.717 111.331C271.575 111.372 271.575 111.372 271.525 111.463C271.475 111.555 271.566 111.605 271.657 111.655L287.278 115.265C287.511 115.275 287.794 115.193 287.803 114.96C287.813 114.727 287.589 114.485 287.407 114.384Z" fill="#EF848A"/>
<path d="M310.686 99.8421L315.479 92.454C315.57 92.3383 315.455 92.247 315.455 92.247C315.351 92.2593 315.351 92.2593 315.248 92.2715L310.004 99.3981C309.822 99.6296 309.846 99.8366 310.078 100.019C310.193 100.11 310.504 100.074 310.686 99.8421Z" fill="#EF848A"/>
<path d="M327.17 115.616L336.009 115.02C336.113 115.014 336.107 114.91 336.102 114.806C336.096 114.702 335.992 114.708 335.992 114.708L327.124 114.784C326.916 114.795 326.72 115.015 326.731 115.223C326.743 115.431 326.962 115.627 327.17 115.616Z" fill="#EF848A"/>
<path d="M291.535 103.342L283.744 99.1077C283.65 99.0623 283.511 99.1107 283.511 99.1107C283.465 99.2045 283.559 99.2499 283.514 99.3437L290.939 104.095C291.127 104.186 291.36 104.183 291.59 103.947C291.82 103.711 291.817 103.478 291.535 103.342Z" fill="#EF848A"/>
<path d="M288.379 122.871L279.973 125.542C279.874 125.51 279.842 125.609 279.91 125.74C279.878 125.84 279.977 125.871 280.108 125.804L288.684 123.625C288.914 123.589 289.109 123.323 288.974 123.061C288.907 122.93 288.641 122.736 288.379 122.871Z" fill="#EF848A"/>
</g>
</g>
<defs>
<filter id="filter0_dd_2_638" x="0" y="0" width="384" height="214" filterUnits="userSpaceOnUse" color-interpolation-filters="sRGB">
<feFlood flood-opacity="0" result="BackgroundImageFix"/>
<feColorMatrix in="SourceAlpha" type="matrix" values="0 0 0 0 0 0 0 0 0 0 0 0 0 0 0 0 0 0 127 0" result="hardAlpha"/>
<feOffset dy="8"/>
<feGaussianBlur stdDeviation="8"/>
<feComposite in2="hardAlpha" operator="out"/>
<feColorMatrix type="matrix" values="0 0 0 0 0.105882 0 0 0 0 0.117647 0 0 0 0 0.141176 0 0 0 0.1 0"/>
<feBlend mode="normal" in2="BackgroundImageFix" result="effect1_dropShadow_2_638"/>
<feColorMatrix in="SourceAlpha" type="matrix" values="0 0 0 0 0 0 0 0 0 0 0 0 0 0 0 0 0 0 127 0" result="hardAlpha"/>
<feOffset/>
<feGaussianBlur stdDeviation="0.5"/>
<feComposite in2="hardAlpha" operator="out"/>
<feColorMatrix type="matrix" values="0 0 0 0 0.105882 0 0 0 0 0.117647 0 0 0 0 0.141176 0 0 0 0.31 0"/>
<feBlend mode="normal" in2="effect1_dropShadow_2_638" result="effect2_dropShadow_2_638"/>
<feBlend mode="normal" in="SourceGraphic" in2="effect2_dropShadow_2_638" result="shape"/>
</filter>
<clipPath id="clip0_2_638">
<rect x="16" y="8" width="352" height="182" rx="12" fill="white"/>
</clipPath>
</defs>
</svg>
