<svg width="384" height="214" viewBox="0 0 384 214" fill="none" xmlns="http://www.w3.org/2000/svg">
<g filter="url(#filter0_dd_1_423)">
<g filter="url(#filter1_dd_1_423)">
<g clip-path="url(#clip0_1_423)">
<rect x="16" y="8" width="352" height="182" rx="12" fill="#EFF9ED"/>
<path d="M7.80318 -10.9236C27.6744 -38.5242 61.9186 -41.6467 137.014 -25.473C213.768 -8.92247 252.941 9.80167 277.062 31.9213C301.183 54.041 294.816 76.5114 268.652 96.6707C242.487 116.83 208.135 125.921 166.581 130.502C128.083 134.746 107.429 129.862 107.429 129.862C107.429 129.862 91.2633 146.459 62.3818 154.793C75.3893 136.723 75.1443 126.036 75.1443 126.036C75.1443 126.036 31.765 118.289 12.2525 81.2752C-3.72136 50.974 -12.068 16.6769 7.80318 -10.9236Z" fill="#E0F4D9"/>
<path d="M-10.6219 -6.74366C5.82982 -35.2687 38.8376 -41.1653 113.634 -31.6864C190.085 -21.9792 230.179 -7.02073 255.978 12.4988C281.776 32.0184 277.932 54.423 254.575 76.2296C231.217 98.0361 198.73 109.752 158.759 117.678C121.728 125.021 101.11 121.99 101.11 121.99C101.11 121.99 88.5682 145.46 61.3268 155.982C72.0956 137.307 69.2819 120.959 69.2819 120.959C69.2819 120.959 26.2426 117.037 3.36987 82.6343C-15.3548 54.4709 -27.0735 21.7814 -10.6219 -6.74366Z" fill="#D8EED1"/>
<g clip-path="url(#clip1_1_423)">
<path d="M264.787 109.275C264.787 109.275 272.296 102.855 273.761 100.678C275.226 98.5008 275.409 98.427 274.64 94.9584C273.871 91.4899 273.248 86.1025 273.101 84.6634C272.955 83.2243 273.028 82.7078 273.834 82.7447C274.64 82.7816 279.108 85.6966 281.819 87.4309C284.529 89.1652 286.654 90.1246 287.203 90.4198C287.753 90.715 288.742 89.8663 288.742 89.8663C288.742 89.8663 299.804 81.4532 300.756 80.8259C301.708 80.2355 302.477 80.7521 302.514 83.0767C302.551 85.4014 301.452 95.106 301.818 96.6927C302.184 98.2794 303.1 100.161 304.272 101.563C305.444 102.966 312.404 109.349 312.66 109.977C312.917 110.604 313.942 111.895 311.635 112.449C309.29 113.002 302.624 113.962 300.573 114.331C298.522 114.663 295.445 116.249 294.859 118.316C294.273 120.382 292.881 126.655 292.514 130.198C292.185 133.74 291.049 134.441 289.877 134.293C288.705 134.109 288.339 134.257 286.251 131.083C284.2 127.947 282.405 119.939 281.929 118.242C281.453 116.545 280.317 115.585 277.533 114.626C274.75 113.667 267.571 113.187 265.739 113.076C263.871 112.929 262.919 113.113 262.516 112.264C262.15 111.489 263.908 110.05 264.787 109.275Z" fill="#E9A633"/>
<path d="M297.203 128.943C297.02 126.065 297.02 123.999 296.654 121.785C296.287 119.571 294.749 118.796 293.65 118.648C292.551 118.501 290.61 118.944 288.742 119.313C286.874 119.682 282.515 120.198 281.416 120.383C280.317 120.567 278.742 121.6 278.962 122.929C279.182 124.257 279.914 124.368 279.914 124.368C279.914 124.368 279.621 124.515 279.475 125.216C279.328 125.881 279.402 126.951 279.402 127.098C279.365 127.098 279.255 127.098 278.999 127.098C278.413 127.098 276.947 127.467 276.581 128.464C276.215 129.423 276.581 131.416 276.581 131.416C276.581 131.416 276.581 131.416 276.105 131.342C275.629 131.268 274.933 131.342 274.127 131.821C273.285 132.301 272.882 133.74 272.955 135.253C273.028 136.766 273.358 137.43 273.834 139.423C274.347 141.415 274.713 143.629 274.713 143.629C274.713 143.629 274.64 143.703 273.358 145.216C272.076 146.729 271.453 148.721 271.233 149.496C271.014 150.271 270.977 151.895 271.087 152.67C271.197 153.445 271.636 154.515 271.636 154.515L271.27 165.511L286.507 165.769L286.434 157.467C286.434 157.467 287.057 156.655 288.229 154.589C289.401 152.522 291.306 148.648 293.101 145.733C294.895 142.818 296.983 139.423 297.423 136.987C297.899 134.441 297.423 131.821 297.203 128.943ZM285.555 125.143C285.555 125.143 285.848 124.995 287.423 124.405C288.998 123.814 290.28 123.777 290.28 123.777C290.28 123.777 290.317 126.397 290.28 127.172C290.244 127.947 290.28 128.242 290.28 128.242L285.555 125.143Z" fill="#B37047"/>
<path d="M271.453 153.961C271.453 153.961 270.574 151.452 271.014 149.459C271.453 147.467 272.332 145.474 274.786 143.076C277.241 140.677 281.489 137.689 281.489 137.689C281.489 137.689 277.094 141.526 274.97 143.666C272.845 145.806 270.208 149.423 271.453 153.961Z" fill="#380D01"/>
<path d="M277.314 140.493C277.314 140.493 277.46 140.087 277.131 138.574C276.838 137.024 276.618 136.471 276.618 136.471C276.618 136.471 277.131 137.393 278.046 138.279C278.962 139.165 279.072 139.238 279.072 139.238C279.072 139.238 278.01 138.648 277.607 138.279C277.204 137.91 277.277 137.91 277.277 137.91C277.277 137.91 277.534 139.534 277.314 140.493Z" fill="#380D01"/>
<path d="M273.175 132.965C273.175 132.965 273.688 131.711 274.567 131.379C275.446 131.047 276.361 131.01 277.424 131.452C278.486 131.858 279.768 132.633 282.112 134.109C284.456 135.585 285.665 136.803 286.471 137.541C287.277 138.279 287.789 139.017 287.789 139.017C287.789 139.017 287.057 138.316 284.932 136.655C282.845 134.995 281.636 134.146 279.548 132.965C277.46 131.785 277.021 131.674 275.702 131.637C274.347 131.6 273.724 132.154 273.175 132.965Z" fill="#380D01"/>
<path d="M277.863 127.172C277.863 127.172 279.035 126.692 280.427 127.172C281.819 127.652 284.053 128.87 286.691 130.678C289.328 132.486 289.877 133.039 290.756 133.777C291.635 134.515 292.551 135.733 292.551 135.733C292.551 135.733 290.353 133.408 288.046 131.858C285.702 130.309 283.98 129.054 282.149 128.205C280.317 127.357 279.731 127.025 277.863 127.172Z" fill="#380D01"/>
<path d="M279.585 124.7C279.585 124.7 280.354 123.187 281.929 123.298C283.467 123.445 285.006 124.552 287.68 126.25C290.353 127.947 291.672 128.833 293.211 130.013C294.749 131.231 295.738 132.264 295.738 132.264C295.738 132.264 293.87 130.862 291.049 128.943C288.266 127.025 286.544 125.881 284.493 124.737C282.368 123.63 281.343 123.076 279.585 124.7Z" fill="#380D01"/>
<path d="M269.256 171.894L269.659 171.673C269.659 171.673 269.842 168.426 269.952 167.097C270.061 165.769 270.281 165.105 270.684 164.662C271.087 164.256 271.417 164.293 271.417 164.293C271.417 164.293 271.563 164.588 272.552 164.809C273.541 165.031 276.655 165.215 278.926 165.252C281.196 165.289 285.116 165.289 285.812 164.994C286.508 164.699 286.508 164.293 286.508 164.293C286.508 164.293 287.826 164.994 288.009 166.507C288.193 168.02 288.779 171.71 288.779 171.71C288.779 171.71 289.914 172.337 290.463 174.145C291.013 175.953 292.625 185.399 293.174 191.672C293.723 197.945 295.079 224.882 295.372 230.011C295.665 235.14 295.921 243 295.921 243L263.102 242.815C263.102 242.815 265.3 199.348 265.593 192.447C265.886 185.547 266.838 176.064 267.424 174.182C268.047 172.3 269.256 171.894 269.256 171.894Z" fill="#CC5B66"/>
<path d="M269.365 172.005C269.365 172.005 269.695 167.983 269.768 166.655C269.842 165.326 270.391 164.551 271.343 164.293C270.684 164.884 270.318 164.773 270.171 166.175C270.025 167.577 269.768 172.005 269.768 172.005H269.365Z" fill="#882022"/>
<path d="M285.665 169.717C286.211 169.717 286.654 169.271 286.654 168.721C286.654 168.171 286.211 167.725 285.665 167.725C285.119 167.725 284.676 168.171 284.676 168.721C284.676 169.271 285.119 169.717 285.665 169.717Z" fill="#4B1A06"/>
<path d="M280.024 173.887H279.292V242.889H280.024V173.887Z" fill="#E58B96"/>
<path d="M276.874 173.592H276.142V243H276.874V173.592Z" fill="#E58B96"/>
<path d="M273.724 172.965H272.992V242.963H273.724V172.965Z" fill="#E58B96"/>
<path d="M270.574 172.005H269.842V243H270.574V172.005Z" fill="#E58B96"/>
<path d="M267.424 174.441C267.204 175.289 266.948 176.987 266.692 179.164V242.852H267.424V174.441Z" fill="#E58B96"/>
<path d="M282.955 173.666H282.222V242.927H282.955V173.666Z" fill="#E58B96"/>
<path d="M285.921 173.112H285.189V242.889H285.921V173.112Z" fill="#E58B96"/>
<path d="M288.852 171.784H288.119V242.927H288.852V171.784Z" fill="#E58B96"/>
<path d="M291.819 180.935C291.562 179.349 291.306 177.91 291.086 176.766V242.964H291.819V180.935Z" fill="#E58B96"/>
<path d="M269.548 171.488C269.548 171.488 274.2 173.665 279.401 173.518C284.603 173.37 286.031 172.964 287.24 172.3C288.412 171.636 288.815 171.304 288.815 171.304V171.71C288.815 171.71 287.35 172.743 285.848 173.149C284.346 173.591 281.672 173.813 279.328 173.85C276.984 173.887 275.446 173.591 273.724 173.149C271.966 172.743 269.512 171.783 269.512 171.783V171.488H269.548Z" fill="#882022"/>
<path d="M270.354 68.4663L269.058 69.1543L273.275 77.2176L274.571 76.5297L270.354 68.4663Z" fill="#E9A633"/>
<path d="M292.239 64.0175L291.807 72.826L293.27 72.8988L293.702 64.0903L292.239 64.0175Z" fill="#E9A633"/>
<path d="M311.638 68.071L307.159 75.8191L308.425 76.562L312.904 68.8139L311.638 68.071Z" fill="#E9A633"/>
<path d="M325.8 81.7578L318.402 87.1328L319.259 88.33L326.657 82.955L325.8 81.7578Z" fill="#E9A633"/>
<path d="M323.38 104.1L323.235 105.569L331.836 106.435L331.981 104.967L323.38 104.1Z" fill="#E9A633"/>
<path d="M316.002 120.488L314.944 121.509L321.407 128.302L322.465 127.281L316.002 120.488Z" fill="#E9A633"/>
<path d="M303.94 129.812L302.533 130.223L305.123 139.225L306.53 138.814L303.94 129.812Z" fill="#E9A633"/>
<path d="M255.827 81.7734L254.944 82.951L262.016 88.3347L262.899 87.1572L255.827 81.7734Z" fill="#E9A633"/>
<path d="M258.057 104.559L249.018 106.034L249.252 107.491L258.291 106.016L258.057 104.559Z" fill="#E9A633"/>
<path d="M259.476 128.205C259.805 128.021 266.032 121.674 266.032 121.674Z" fill="#E9A633"/>
<path d="M259.805 128.869L259.073 127.578C259.073 127.578 259.036 127.578 259.036 127.615C259.439 127.319 263.212 123.482 265.483 121.157L266.508 122.19C260.245 128.611 259.915 128.795 259.805 128.869Z" fill="#E9A633"/>
</g>
</g>
</g>
</g>
<defs>
<filter id="filter0_dd_1_423" x="12" y="8" width="360" height="190" filterUnits="userSpaceOnUse" color-interpolation-filters="sRGB">
<feFlood flood-opacity="0" result="BackgroundImageFix"/>
<feColorMatrix in="SourceAlpha" type="matrix" values="0 0 0 0 0 0 0 0 0 0 0 0 0 0 0 0 0 0 127 0" result="hardAlpha"/>
<feOffset dy="4"/>
<feGaussianBlur stdDeviation="2"/>
<feComposite in2="hardAlpha" operator="out"/>
<feColorMatrix type="matrix" values="0 0 0 0 0 0 0 0 0 0 0 0 0 0 0 0 0 0 0.25 0"/>
<feBlend mode="normal" in2="BackgroundImageFix" result="effect1_dropShadow_1_423"/>
<feColorMatrix in="SourceAlpha" type="matrix" values="0 0 0 0 0 0 0 0 0 0 0 0 0 0 0 0 0 0 127 0" result="hardAlpha"/>
<feOffset dy="4"/>
<feGaussianBlur stdDeviation="2"/>
<feComposite in2="hardAlpha" operator="out"/>
<feColorMatrix type="matrix" values="0 0 0 0 0 0 0 0 0 0 0 0 0 0 0 0 0 0 0.25 0"/>
<feBlend mode="normal" in2="effect1_dropShadow_1_423" result="effect2_dropShadow_1_423"/>
<feBlend mode="normal" in="SourceGraphic" in2="effect2_dropShadow_1_423" result="shape"/>
</filter>
<filter id="filter1_dd_1_423" x="0" y="0" width="384" height="214" filterUnits="userSpaceOnUse" color-interpolation-filters="sRGB">
<feFlood flood-opacity="0" result="BackgroundImageFix"/>
<feColorMatrix in="SourceAlpha" type="matrix" values="0 0 0 0 0 0 0 0 0 0 0 0 0 0 0 0 0 0 127 0" result="hardAlpha"/>
<feOffset dy="8"/>
<feGaussianBlur stdDeviation="8"/>
<feComposite in2="hardAlpha" operator="out"/>
<feColorMatrix type="matrix" values="0 0 0 0 0.105882 0 0 0 0 0.117647 0 0 0 0 0.141176 0 0 0 0.1 0"/>
<feBlend mode="normal" in2="BackgroundImageFix" result="effect1_dropShadow_1_423"/>
<feColorMatrix in="SourceAlpha" type="matrix" values="0 0 0 0 0 0 0 0 0 0 0 0 0 0 0 0 0 0 127 0" result="hardAlpha"/>
<feOffset/>
<feGaussianBlur stdDeviation="0.5"/>
<feComposite in2="hardAlpha" operator="out"/>
<feColorMatrix type="matrix" values="0 0 0 0 0.105882 0 0 0 0 0.117647 0 0 0 0 0.141176 0 0 0 0.31 0"/>
<feBlend mode="normal" in2="effect1_dropShadow_1_423" result="effect2_dropShadow_1_423"/>
<feBlend mode="normal" in="SourceGraphic" in2="effect2_dropShadow_1_423" result="shape"/>
</filter>
<clipPath id="clip0_1_423">
<rect x="16" y="8" width="352" height="182" rx="12" fill="white"/>
</clipPath>
<clipPath id="clip1_1_423">
<rect width="83" height="179" fill="white" transform="translate(249 64)"/>
</clipPath>
</defs>
</svg>
