<svg width="384" height="214" viewBox="0 0 384 214" fill="none" xmlns="http://www.w3.org/2000/svg">
<g filter="url(#filter0_dd_1_96)">
<g clip-path="url(#clip0_1_96)">
<rect x="16" y="8" width="352" height="182" rx="12" fill="#F8EEFE"/>
<path d="M-83.8456 37.9866C-86.6045 8.99903 -85.7058 -34.146 -84.122 -45.7702C-82.5382 -57.3944 -74.0702 -66.5826 -63.9821 -69.0381C-53.8939 -71.4937 -34.8895 -64.6616 -19.2339 -60.1393C-3.57823 -55.617 53.6745 -35.9465 89.7432 -23.2902C125.812 -10.634 200.221 20.7043 216.979 29.1248C233.737 37.5453 248.209 43.0683 254.453 56.9537C260.697 70.8391 255.629 81.0236 249.699 89.1552C243.77 97.2868 224.51 121.208 212.158 132.82C199.806 144.432 191.683 148.606 182.552 149.107C173.421 149.609 159.99 145.868 148.748 139.343C137.507 132.818 110.512 118.638 99.8543 114.869C89.1961 111.101 78.1413 111.084 73.5032 112.777C68.8651 114.471 54.216 120.825 54.5698 147.328C42.6777 131.363 36.6618 105.91 35.732 102.956C34.8023 100.003 31.8654 97.812 24.2102 96.4956C16.555 95.1793 -16.5907 87.8421 -34.9048 84.7892C-53.2188 81.7363 -70.6421 77.1508 -76.4741 63.3845C-82.3061 49.6181 -83.8456 37.9866 -83.8456 37.9866Z" fill="#EEDCF9"/>
<path d="M-88.2613 81.4591C-96.7746 55.632 -104.888 16.1585 -105.852 5.24672C-106.817 -5.66505 -101.008 -15.7787 -92.3298 -20.0957C-83.6518 -24.4128 -64.9319 -22.1118 -49.7396 -21.2233C-34.5473 -20.3348 21.6596 -14.2331 57.124 -10.1487C92.5884 -6.06433 166.833 7.12302 183.836 11.3339C200.839 15.5447 215.162 17.5885 223.722 28.9445C232.282 40.3006 229.775 50.6202 226.06 59.248C222.344 67.8758 209.757 93.6319 200.913 106.754C192.069 119.875 185.537 125.352 177.326 127.692C169.115 130.033 156.11 129.396 144.523 125.774C132.935 122.151 105.419 114.808 94.9331 113.574C84.4476 112.341 74.3777 114.607 70.5047 117.105C66.6317 119.604 54.6076 128.412 60.4164 152.473C46.2824 140.388 35.5349 118.451 34.0768 115.954C32.6187 113.456 29.4909 112.067 22.2475 112.447C15.0041 112.828 -16.6975 112.984 -34.0064 113.982C-51.3153 114.98 -68.1303 114.399 -76.2909 103.066C-84.4514 91.7332 -88.2613 81.4591 -88.2613 81.4591Z" fill="#E6CEF5"/>
<path d="M253.949 100.486L238.053 91.7599C237.931 91.7599 237.931 91.6508 238.053 91.5417C238.053 91.4327 238.176 91.4327 238.298 91.5417L254.438 99.722C254.682 99.8311 254.805 100.158 254.682 100.376C254.56 100.486 254.193 100.595 253.949 100.486Z" fill="#A557D5"/>
<path d="M273.267 83.0334L268.254 67.2181C268.254 67.1091 268.254 67 268.377 67C268.499 67 268.621 67 268.621 67.1091L274.246 82.8152C274.368 83.0334 274.123 83.3606 273.879 83.3606C273.634 83.4697 273.39 83.3606 273.267 83.0334Z" fill="#A557D5"/>
<path d="M298.822 84.9975L306.647 70.1639C306.647 70.0548 306.769 70.0548 306.892 70.0548C307.014 70.0548 307.014 70.1639 307.014 70.273L299.8 85.3247C299.678 85.5429 299.311 85.6519 299.066 85.5429C298.822 85.4338 298.7 85.2156 298.822 84.9975Z" fill="#A557D5"/>
<path d="M261.407 90.4493L255.783 82.7053C255.783 82.5963 255.783 82.4872 255.783 82.4872C255.905 82.4872 256.027 82.4872 256.027 82.4872L262.141 89.904C262.263 90.1221 262.263 90.3403 262.018 90.5584C262.018 90.6675 261.652 90.6675 261.407 90.4493Z" fill="#A557D5"/>
<path d="M249.058 110.628L238.787 109.319C238.665 109.319 238.665 109.21 238.665 109.101C238.665 108.992 238.787 108.992 238.909 108.992L249.18 109.756C249.425 109.756 249.669 109.974 249.669 110.301C249.669 110.41 249.425 110.628 249.058 110.628Z" fill="#A557D5"/>
<path d="M285.983 84.5595L286.717 75.5067C286.717 75.3976 286.839 75.3976 286.962 75.3976C287.084 75.3976 287.084 75.5067 287.084 75.5067V84.5595C287.084 84.7777 286.839 84.9958 286.595 84.9958C286.106 84.9958 285.861 84.8867 285.983 84.5595Z" fill="#A557D5"/>
<path d="M308.726 88.5964L315.695 81.9431C315.817 81.8341 315.817 81.8341 315.939 81.9431C316.062 82.0522 316.062 82.0522 315.939 82.1613L309.459 89.1418C309.337 89.3599 308.97 89.3599 308.726 89.2509C308.603 89.1418 308.481 88.8146 308.726 88.5964Z" fill="#A557D5"/>
<path d="M369.127 140.296C364.603 139.423 355.066 136.696 352.499 135.606C349.931 134.406 339.538 131.57 338.193 130.261C336.848 128.952 336.481 125.68 335.87 122.735C335.259 119.681 330.49 111.283 328.9 108.774C327.311 106.375 324.988 101.248 323.887 97.4308C322.787 93.6133 321.442 91.65 318.263 93.2861C315.084 94.9222 315.084 99.8303 317.407 104.411C318.63 106.92 321.931 111.719 319.73 113.9C317.529 116.082 313.005 114.664 308.481 114.01C303.957 113.355 280.604 108.992 274.857 107.683C269.11 106.484 267.888 107.683 267.032 109.21C266.176 110.737 267.888 112.264 267.888 112.264C264.953 111.501 262.508 110.956 261.407 110.846C256.394 110.192 255.783 114.446 257.617 115.755C259.573 117.173 262.385 118.263 262.385 118.263C260.429 118.918 259.451 120.772 260.551 122.299C262.141 124.589 267.032 125.898 271.556 127.643C276.08 129.388 287.573 133.424 290.141 133.969C292.708 134.515 293.564 135.06 296.132 136.587C295.276 136.478 288.674 136.042 286.228 135.933C283.783 135.933 279.992 135.496 277.18 134.733C274.368 133.969 272.045 134.406 271.556 136.042C271.067 137.678 273.267 139.423 275.713 140.186C278.158 140.95 294.176 143.35 298.333 144.113C302.49 144.767 321.32 150.548 324.743 150.766C328.167 150.984 354.455 163.309 365.215 168.436C375.852 173.562 402.752 181.306 402.752 181.306L400.673 146.622C394.56 144.44 373.774 141.277 369.127 140.296Z" fill="#FBB494"/>
<path d="M262.385 118.265C262.997 118.047 263.73 117.938 264.464 118.047C265.198 118.156 265.809 118.374 266.42 118.592L270.333 119.683L278.281 121.973L294.176 126.445C294.543 126.554 294.787 126.881 294.665 127.209C294.543 127.536 294.176 127.754 293.809 127.645L278.158 122.628L270.333 120.119L266.42 118.81C265.809 118.592 265.075 118.374 264.464 118.265C263.73 118.047 262.997 118.047 262.385 118.265Z" fill="#B16739"/>
<path d="M260.551 122.409C261.529 123.718 263.241 124.481 264.831 125.136C266.42 125.79 268.132 126.336 269.844 126.881C273.145 128.081 276.446 129.281 279.87 130.371C283.171 131.462 286.595 132.553 290.018 133.425C291.852 133.862 293.442 134.407 295.154 135.061C296.866 135.716 298.455 136.37 300.167 137.025C300.534 137.134 300.778 137.57 300.534 138.006C300.411 138.333 299.922 138.552 299.433 138.333C297.844 137.679 296.254 136.915 294.542 136.261C292.953 135.607 291.363 134.952 289.652 134.516C286.228 133.425 282.927 132.225 279.625 131.026C276.324 129.826 273.023 128.517 269.722 127.208C268.132 126.554 266.42 126.008 264.831 125.245C263.119 124.59 261.407 123.718 260.551 122.409Z" fill="#B16739"/>
<path d="M319.73 114.011C320.341 113.247 320.341 112.266 320.219 111.393C319.975 110.52 319.608 109.648 319.241 108.775C318.385 107.139 317.285 105.503 316.551 103.758C315.817 102.013 315.328 100.05 315.451 98.1955C315.573 97.2139 315.695 96.2322 316.184 95.3597C316.673 94.4871 317.407 93.7236 318.385 93.3964C317.529 93.9417 317.04 94.7052 316.673 95.5778C316.429 96.4504 316.307 97.3229 316.307 98.1955C316.307 99.9406 316.796 101.795 317.529 103.431C318.263 105.067 319.241 106.812 319.975 108.557C320.341 109.43 320.586 110.411 320.708 111.284C320.708 112.266 320.586 113.356 319.73 114.011Z" fill="#B16739"/>
<path d="M268.01 112.375L295.643 119.356C295.887 119.465 296.132 119.683 296.01 120.01C295.887 120.228 295.643 120.446 295.276 120.337L268.01 112.375Z" fill="#B16739"/>
<path d="M376.464 174.327C362.158 169.964 359.957 166.801 332.202 154.585C330.857 153.931 326.7 152.295 325.232 151.859C323.031 151.422 324.866 152.077 316.796 150.005C311.538 148.587 306.28 147.06 301.023 145.751C299.189 145.314 298.455 145.096 297.11 144.878C293.809 144.333 289.163 143.569 285.005 142.697C275.835 140.952 274.735 140.515 273.145 139.425C271.433 138.225 271.189 137.025 271.433 136.262C271.189 137.025 271.556 138.116 273.39 139.207C275.346 140.406 276.813 140.515 285.25 141.606C288.674 142.042 293.931 142.806 297.477 143.351C298.944 143.569 299.678 143.678 301.512 144.224C306.77 145.533 312.027 147.06 317.285 148.478C319.975 149.132 322.542 149.895 325.11 150.223C327.189 150.659 331.101 152.186 333.058 152.949C359.835 163.966 367.049 167.674 377.32 169.855C387.59 172.037 402.263 174.764 402.263 174.764L402.629 181.417C402.629 181.417 381.721 175.854 376.464 174.327Z" fill="#B16739"/>
<path d="M348.831 168.982C345.652 165.928 339.416 159.056 338.071 156.875C336.726 154.694 329.879 147.168 329.634 145.423C329.39 143.677 331.101 140.842 332.569 138.115C334.036 135.388 335.503 126.008 335.748 123.281C335.992 120.554 337.337 115.21 338.804 111.502C340.272 107.902 340.394 105.612 336.726 105.284C333.058 105.066 329.879 109.102 328.778 113.901C328.167 116.628 327.8 122.081 324.621 122.845C321.442 123.608 318.508 120.118 315.206 117.282C311.905 114.555 295.276 99.2856 291.241 95.4681C287.206 91.5416 285.495 91.9779 283.783 92.8504C282.071 93.723 282.56 95.7953 282.56 95.7953C280.604 93.723 278.892 92.0869 278.036 91.3234C274.246 88.2695 271.067 91.4325 271.8 93.5049C272.534 95.5772 274.123 97.8677 274.123 97.8677C272.167 97.4314 270.088 98.413 269.966 100.267C269.722 102.885 273.023 106.375 275.713 110.084C278.403 113.792 285.372 122.736 287.084 124.481C288.796 126.226 289.285 127.099 290.385 129.607C289.774 129.062 284.639 125.463 282.56 124.154C280.481 122.954 277.669 120.773 275.835 118.7C274.001 116.628 271.8 115.864 270.333 116.955C268.866 118.046 269.599 120.554 271.067 122.409C272.534 124.263 284.394 134.188 287.329 136.806C290.263 139.424 302.368 153.494 305.058 155.348C307.87 157.202 321.687 180.434 327.311 189.923C332.935 199.412 356.656 228.643 356.656 228.643L398.717 227.225C383.922 205.957 352.132 172.036 348.831 168.982Z" fill="#FBBEA2"/>
<path d="M274.123 97.8682C274.857 97.9773 275.468 98.3045 275.957 98.7408C276.446 99.1771 276.813 99.7224 277.302 100.159L279.87 103.104L285.005 108.884L295.398 120.337C295.643 120.555 295.643 120.991 295.276 121.209C295.032 121.428 294.542 121.318 294.298 121.1L284.516 109.212L279.625 103.213L277.18 100.268C276.813 99.8315 276.446 99.2862 275.957 98.8499C275.468 98.4136 274.857 98.0864 274.123 97.8682Z" fill="#B16739"/>
<path d="M269.966 100.376C269.966 102.012 270.944 103.43 271.8 104.739C272.778 106.048 273.757 107.357 274.857 108.665C276.813 111.283 278.892 113.901 280.97 116.519C283.049 119.027 285.128 121.645 287.329 124.044C288.551 125.244 289.529 126.553 290.63 127.971C291.608 129.28 292.586 130.698 293.564 132.007C293.809 132.334 293.687 132.77 293.32 132.988C292.953 133.206 292.464 133.097 292.219 132.77C291.363 131.352 290.508 130.043 289.529 128.734C288.551 127.426 287.695 126.117 286.595 124.917C284.394 122.299 282.438 119.682 280.481 117.064C278.525 114.446 276.569 111.719 274.735 108.993C273.757 107.684 272.778 106.375 271.922 104.957C270.822 103.43 269.966 101.903 269.966 100.376Z" fill="#B16739"/>
<path d="M324.743 122.954C325.721 122.627 326.333 121.863 326.822 121.1C327.188 120.336 327.433 119.355 327.678 118.482C328.044 116.737 328.167 114.883 328.656 113.029C329.145 111.175 330.001 109.429 331.346 107.902C331.957 107.139 332.813 106.484 333.791 105.939C334.769 105.503 335.87 105.176 336.97 105.394C335.87 105.503 335.014 105.83 334.158 106.375C333.424 106.921 332.691 107.575 332.202 108.339C331.101 109.866 330.367 111.502 329.878 113.247C329.389 114.992 329.145 116.846 328.656 118.7C328.411 119.573 328.044 120.555 327.433 121.318C326.577 121.972 325.721 122.736 324.743 122.954Z" fill="#B16739"/>
<path d="M282.682 95.796L301.145 115.32C301.39 115.538 301.267 115.865 301.023 115.974C300.778 116.192 300.411 116.083 300.289 115.865L282.682 95.796Z" fill="#B16739"/>
<path d="M308.97 162.219C308.237 161.019 305.914 157.529 304.935 156.547C303.468 155.13 304.569 156.547 299.067 150.767C295.643 146.949 292.219 143.132 288.796 139.423C287.573 138.115 287.084 137.678 286.106 136.806C283.66 134.733 280.359 131.788 277.425 129.062C270.944 123.063 270.211 122.081 269.722 120.554C269.11 118.7 269.599 117.609 270.333 117.173C269.722 117.718 269.233 118.809 270.088 120.445C270.944 122.408 272.167 123.172 278.403 128.298C280.97 130.371 284.883 133.534 287.451 135.824C288.551 136.697 289.04 137.242 290.263 138.551C293.809 142.259 297.232 146.077 300.656 149.785C302.368 151.639 304.08 153.493 306.036 155.13C307.503 156.438 309.826 159.711 310.927 161.347C316.673 169.636 324.254 180.87 331.468 192.432C343.817 211.955 359.713 228.752 359.713 228.752L352.865 228.97C352.865 228.97 340.149 212.828 328.289 193.741C321.442 182.506 314.717 171.163 308.97 162.219Z" fill="#B16739"/>
<path d="M277.792 94.8128L276.936 95.3581L275.957 95.9035C275.591 96.1216 275.102 96.2307 274.735 96.1216C274.368 96.1216 274.001 95.9035 273.757 95.5763L273.145 94.8128L272.656 94.2674C272.289 93.8311 272.167 93.1767 272.412 92.6314C272.534 92.086 273.023 91.5407 273.634 91.1044C274.246 90.7772 274.979 90.559 275.713 90.6681C276.324 90.7772 276.936 90.9953 277.302 91.5407L277.914 92.3042L278.525 93.0677C278.77 93.3949 278.77 93.7221 278.647 94.0493C278.403 94.2674 278.158 94.5946 277.792 94.8128Z" fill="#FEF0E8"/>
<path d="M288.062 96.23L287.329 96.7754L286.595 97.3207C286.35 97.5389 285.984 97.6479 285.617 97.6479C285.25 97.6479 285.005 97.5389 284.761 97.3207L284.15 96.7754L283.538 96.23C283.171 95.9028 282.927 95.3575 283.049 94.8121C283.049 94.2667 283.294 93.8305 283.783 93.3942C284.272 92.9579 284.883 92.8488 285.372 92.8488C285.984 92.8488 286.473 93.067 286.84 93.3942L287.451 93.9395L288.062 94.4849C288.307 94.703 288.429 95.0302 288.429 95.2484C288.551 95.6847 288.429 96.0119 288.062 96.23Z" fill="#FEF0E8"/>
<path d="M334.769 111.065L336.603 111.719C337.215 112.047 337.948 111.828 338.315 111.283C339.049 109.865 340.027 107.684 339.293 106.593C338.315 105.066 336.237 105.502 335.503 106.593C335.136 107.138 334.647 108.229 334.036 109.32C333.791 110.083 334.158 110.738 334.769 111.065Z" fill="#FEF0E8"/>
<path d="M275.468 102.339L274.613 102.776L273.757 103.321C273.39 103.539 273.023 103.648 272.656 103.539C272.289 103.539 272.045 103.321 271.8 103.103L271.311 102.448L270.822 101.794C270.455 101.358 270.455 100.812 270.578 100.267C270.7 99.7216 271.067 99.2853 271.678 98.9581C272.289 98.6309 272.901 98.5218 273.512 98.5218C274.123 98.6309 274.613 98.849 274.979 99.2853L275.468 99.9397L275.957 100.594C276.202 100.812 276.202 101.139 276.08 101.467C275.957 101.794 275.713 102.121 275.468 102.339Z" fill="#FEF0E8"/>
<path d="M273.879 120.227L273.39 120.663L272.901 120.99C272.778 121.099 272.534 121.208 272.289 121.317C272.045 121.317 271.8 121.317 271.678 121.208L271.189 120.881L270.578 120.554C270.088 120.336 269.722 119.899 269.722 119.354C269.599 118.809 269.844 118.154 270.455 117.718C271.067 117.282 271.678 117.173 272.289 117.282C272.901 117.391 273.267 117.718 273.634 118.154L274.001 118.7L274.246 119.136C274.368 119.245 274.368 119.463 274.246 119.681C274.123 119.899 274.001 120.118 273.879 120.227Z" fill="#FEF0E8"/>
<path d="M317.041 170.618C317.407 171.273 317.896 171.927 318.263 172.472C321.442 172.036 325.11 171.164 328.656 169.964C334.281 168.001 339.661 165.165 342.473 162.329L341.739 161.456L340.639 161.129C338.56 163.201 334.158 165.928 327.8 168.11C324.01 169.418 320.22 170.291 317.041 170.618Z" fill="#F5B295"/>
<path d="M321.075 176.944C324.621 176.617 328.534 175.635 332.202 174.436C338.071 172.472 343.695 169.418 346.263 166.474C345.774 165.928 345.285 165.492 344.796 164.947C343.084 167.128 338.438 170.182 331.346 172.691C326.822 174.218 322.909 174.981 319.975 175.199C320.22 175.745 320.586 176.29 321.075 176.944Z" fill="#F5B295"/>
<path d="M313.739 165.71C314.106 166.364 314.595 166.91 314.962 167.564C318.019 167.128 321.32 166.364 324.744 165.165C330.246 163.201 335.626 160.366 338.438 157.53C338.316 157.312 338.071 156.984 338.071 156.984L336.848 156.221C334.77 158.293 330.368 161.02 324.01 163.311C320.342 164.51 316.796 165.274 313.739 165.71Z" fill="#F5B295"/>
<path d="M339.049 158.293C343.206 158.075 346.507 158.729 347.486 160.802C349.32 164.837 340.883 170.182 331.957 173.236C327.433 174.763 322.542 175.854 318.63 175.963C314.839 176.072 311.783 175.308 310.927 173.454C310.193 171.927 311.049 170.182 312.761 168.437L313.861 170.291C313.005 171.273 312.639 172.145 312.883 172.69C313.739 174.436 320.953 174.872 330.979 171.382C341.005 167.891 346.018 163.31 345.162 161.565C344.796 160.802 343.084 160.256 340.394 160.256L339.049 158.293Z" fill="url(#paint0_linear_1_96)"/>
<path d="M311.049 165.492C309.704 166.801 309.46 167.783 309.704 168.328C310.071 169.091 311.661 169.746 315.329 169.637C318.874 169.528 323.398 168.546 327.8 167.019C337.826 163.529 342.839 158.948 341.984 157.203C341.617 156.439 340.027 155.894 337.337 155.894L335.87 153.931C339.783 153.821 343.206 154.476 344.062 156.439C345.896 160.475 337.46 165.819 328.534 168.873C323.765 170.509 319.119 171.491 315.329 171.6H315.206C309.949 171.818 308.115 170.291 307.503 168.982C307.014 167.892 307.014 166.037 309.826 163.529L311.049 165.492Z" fill="url(#paint1_linear_1_96)"/>
<path d="M331.957 149.022C336.114 148.804 339.293 149.459 340.272 151.531C342.106 155.567 333.669 160.911 324.743 163.965C319.975 165.601 315.328 166.583 311.538 166.692H311.416C306.158 166.91 304.324 165.383 303.713 164.074C303.224 162.874 303.224 161.02 306.403 158.293L307.625 160.039C305.914 161.566 305.547 162.765 305.791 163.311C306.158 164.074 307.748 164.729 311.294 164.62H311.416C314.962 164.51 319.486 163.529 323.887 162.002C333.914 158.512 338.927 153.931 338.071 152.185C337.704 151.422 335.992 150.877 333.424 150.877L331.957 149.022Z" fill="url(#paint2_linear_1_96)"/>
</g>
</g>
<defs>
<filter id="filter0_dd_1_96" x="0" y="0" width="384" height="214" filterUnits="userSpaceOnUse" color-interpolation-filters="sRGB">
<feFlood flood-opacity="0" result="BackgroundImageFix"/>
<feColorMatrix in="SourceAlpha" type="matrix" values="0 0 0 0 0 0 0 0 0 0 0 0 0 0 0 0 0 0 127 0" result="hardAlpha"/>
<feOffset dy="8"/>
<feGaussianBlur stdDeviation="8"/>
<feComposite in2="hardAlpha" operator="out"/>
<feColorMatrix type="matrix" values="0 0 0 0 0.105882 0 0 0 0 0.117647 0 0 0 0 0.141176 0 0 0 0.1 0"/>
<feBlend mode="normal" in2="BackgroundImageFix" result="effect1_dropShadow_1_96"/>
<feColorMatrix in="SourceAlpha" type="matrix" values="0 0 0 0 0 0 0 0 0 0 0 0 0 0 0 0 0 0 127 0" result="hardAlpha"/>
<feOffset/>
<feGaussianBlur stdDeviation="0.5"/>
<feComposite in2="hardAlpha" operator="out"/>
<feColorMatrix type="matrix" values="0 0 0 0 0.105882 0 0 0 0 0.117647 0 0 0 0 0.141176 0 0 0 0.31 0"/>
<feBlend mode="normal" in2="effect1_dropShadow_1_96" result="effect2_dropShadow_1_96"/>
<feBlend mode="normal" in="SourceGraphic" in2="effect2_dropShadow_1_96" result="shape"/>
</filter>
<linearGradient id="paint0_linear_1_96" x1="326.75" y1="163.456" x2="333.482" y2="175.801" gradientUnits="userSpaceOnUse">
<stop stop-color="#FF38B3"/>
<stop offset="1" stop-color="#FF6CC7"/>
</linearGradient>
<linearGradient id="paint1_linear_1_96" x1="321.509" y1="157.32" x2="329.817" y2="170.569" gradientUnits="userSpaceOnUse">
<stop stop-color="#FDCD95"/>
<stop offset="1" stop-color="#FEEBD5"/>
</linearGradient>
<linearGradient id="paint2_linear_1_96" x1="318.237" y1="152.634" x2="325.742" y2="166.04" gradientUnits="userSpaceOnUse">
<stop stop-color="#71A9F7"/>
<stop offset="1" stop-color="#C3D9F7"/>
</linearGradient>
<clipPath id="clip0_1_96">
<rect x="16" y="8" width="352" height="182" rx="12" fill="white"/>
</clipPath>
</defs>
</svg>
