<svg width="384" height="214" viewBox="0 0 384 214" fill="none" xmlns="http://www.w3.org/2000/svg">
<g filter="url(#filter0_dd_1_750)">
<g clip-path="url(#clip0_1_750)">
<rect x="16" y="8" width="352" height="182" rx="12" fill="#FFEFDF"/>
<path d="M239.125 -26.8742C231.165 -49.029 208.77 -63.6916 175.541 -60.2446C142.312 -56.7977 86.659 -39.9229 61.3728 -31.0088C36.0866 -22.0948 13.0177 -16.7413 2.99766 9.64707C-7.02242 36.0355 -9.32338 60.328 -1.46413 86.5269C6.39512 112.726 48.0409 123.354 61.9368 125.52C58.6574 140.293 57.0369 143.447 50.7328 150.845C62.8582 149.596 81.8984 151.402 97.5716 132.688C126.277 137.296 158.798 141.324 195.619 129.733C232.44 118.142 244.276 82.4988 247.863 54.5574C251.45 26.616 248.426 -1.00977 239.125 -26.8742Z" fill="#FCE8D4"/>
<path d="M197.573 -21.9139C189.407 -39.3165 170.101 -49.5128 143.393 -44.1463C116.684 -38.7799 72.8058 -20.7639 52.9652 -11.5643C33.1245 -2.36471 14.8101 3.76837 8.70533 26.0008C2.60053 48.2332 2.60052 68.1657 10.9946 88.8649C19.3887 109.564 54.0117 114.994 65.4582 115.684C63.932 127.95 62.859 130.64 58.3106 137.142C68.0573 135.192 83.652 135.192 94.9357 118.764C118.592 120.297 145.3 121.064 174.298 108.797C203.296 96.5312 210.164 66.6324 210.927 43.6334C211.69 20.6343 207.111 -1.59808 197.573 -21.9139Z" fill="#F7DDC4"/>
<path d="M332.829 109.925L367.754 107.643V112.207L332.829 109.925Z" fill="#FBE6D1"/>
<path d="M329.556 99.0632L358.524 81.4893L361.081 85.4377L329.556 99.0632Z" fill="#FBE6D1"/>
<path d="M320.633 91.0762L335.897 62.9579L340.32 65.2402L320.633 91.0762Z" fill="#FBE6D1"/>
<path d="M308.437 88.1766L305.906 57H311.02L308.437 88.1766Z" fill="#FBE6D1"/>
<path d="M296.242 91.0762L276.606 65.2402L281.029 62.9579L296.242 91.0762Z" fill="#FBE6D1"/>
<path d="M287.319 99.0632L255.845 85.4377L258.402 81.4893L287.319 99.0632Z" fill="#FBE6D1"/>
<path d="M284.046 109.925L249.172 112.207V107.643L284.046 109.925Z" fill="#FBE6D1"/>
<path d="M287.319 120.815L258.402 138.366L255.845 134.417L287.319 120.815Z" fill="#FBE6D1"/>
<path d="M329.556 120.815L361.081 134.417L358.524 138.366L329.556 120.815Z" fill="#FBE6D1"/>
<path d="M334.158 103.399L359.317 97.7385L334.363 104.061L334.158 103.399Z" fill="#FBE6D1"/>
<path d="M327.025 92.7396L345.638 76.6035L327.562 93.2189L327.025 92.7396Z" fill="#FBE6D1"/>
<path d="M314.88 86.6701L321.963 64.3945L315.622 86.8527L314.88 86.6701Z" fill="#FBE6D1"/>
<path d="M300.946 86.8527L294.605 64.3945L301.687 86.6701L300.946 86.8527Z" fill="#FBE6D1"/>
<path d="M289.006 93.2189L270.93 76.6035L289.543 92.7396L289.006 93.2189Z" fill="white"/>
<path d="M282.205 104.061L257.277 97.7385L282.41 103.399L282.205 104.061Z" fill="#FBE6D1"/>
<path d="M274.867 118.302L257.277 122.159L274.688 117.64L274.867 118.302Z" fill="#FBE6D1"/>
<path d="M334.363 115.839L359.317 122.161L334.158 116.501L334.363 115.839Z" fill="#FBE6D1"/>
<path d="M292.79 97.9676L290.413 100.296L287.728 102.213C286.373 103.171 285.938 104.86 286.654 106.252L290.847 114.218C291.768 115.952 293.532 117.208 295.628 117.619C298.441 118.166 302.48 119.148 305.165 120.631C306.725 121.498 307.594 123.05 307.466 124.671L302.225 185.723H330.502L326.591 124.306C326.437 122.001 326.795 119.695 327.537 117.482C328.125 115.679 328.738 112.78 328.738 108.398C328.738 99.6109 322.04 94.2246 322.04 94.2246L292.79 97.9676Z" fill="#994C18"/>
<path d="M298.466 101.345L295.322 106.823L298.083 108.74C298.083 108.74 299.029 109.379 299.412 110.726L319.304 106.207C321.324 105.75 322.781 104.153 322.832 102.281L323.011 97.1688L298.466 101.345Z" fill="#732A00"/>
<path d="M296.063 105.544L296.395 105.864C297.06 106.48 297.981 106.823 298.952 106.823H300.231C301.739 106.823 302.915 105.636 302.711 104.289L301.228 94.2241C301.228 94.2241 300.333 92.1472 297.444 92.809C294.555 93.4709 292.151 96.5977 292.79 97.9671" fill="#994C18"/>
<path d="M301.33 94.8633L302.736 104.358C302.941 105.773 304.296 106.823 305.881 106.823C307.824 106.823 309.409 105.408 309.409 103.673V95.1828C309.409 93.0146 307.441 91.2344 304.986 91.2344H304.884C303.273 91.2344 301.841 92.193 301.407 93.5852C301.304 93.996 301.253 94.4296 301.33 94.8633Z" fill="#994C18"/>
<path d="M309.409 93.9074V103.63C309.409 105.045 310.688 106.186 312.273 106.186H312.554C314.242 106.186 315.648 105.022 315.776 103.516C315.98 101.188 316.261 97.9243 316.415 95.9615C316.568 94.3182 315.622 92.7206 313.96 91.9903C313.142 91.6251 312.171 91.4881 311.097 91.8305C310.074 92.1044 309.409 92.9717 309.409 93.9074Z" fill="#994C18"/>
<path d="M315.75 103.489C315.75 104.539 316.696 105.406 317.898 105.406C318.665 105.406 319.381 105.178 319.994 104.79L320.582 104.402C321.452 103.831 322.04 102.964 322.193 102.005L323.011 97.1441C323.369 95.0671 321.631 93.1728 319.278 93.0587C319.15 93.0587 318.997 93.0587 318.844 93.0587C316.389 93.0359 316.364 95.9344 316.364 95.9344L315.75 103.489Z" fill="#994C18"/>
<path d="M296.063 105.544L296.395 105.864C297.06 106.48 297.981 106.823 298.952 106.823H300.231C301.739 106.823 302.915 105.636 302.711 104.289L301.228 94.2241C301.228 94.2241 300.333 92.1472 297.444 92.809C294.555 93.4709 292.151 96.5977 292.79 97.9671" fill="#994C18"/>
<path d="M301.33 94.8633L302.736 104.358C302.941 105.773 304.296 106.823 305.881 106.823C307.824 106.823 309.409 105.408 309.409 103.673V95.1828C309.409 93.0146 307.441 91.2344 304.986 91.2344H304.884C303.273 91.2344 301.841 92.193 301.407 93.5852C301.304 93.996 301.253 94.4296 301.33 94.8633Z" fill="#994C18"/>
<path d="M309.409 93.9074V103.63C309.409 105.045 310.688 106.186 312.273 106.186H312.554C314.242 106.186 315.648 105.022 315.776 103.516C315.98 101.188 316.261 97.9243 316.415 95.9615C316.568 94.3182 315.622 92.7206 313.96 91.9903C313.142 91.6251 312.171 91.4881 311.097 91.8305C310.074 92.1044 309.409 92.9717 309.409 93.9074Z" fill="#994C18"/>
<path d="M315.75 103.489C315.75 104.539 316.696 105.406 317.898 105.406C318.665 105.406 319.381 105.178 319.994 104.79L320.582 104.402C321.452 103.831 322.04 102.964 322.193 102.005L323.011 97.1441C323.369 95.0671 321.631 93.1728 319.278 93.0587C319.15 93.0587 318.997 93.0587 318.844 93.0587C316.389 93.0359 316.364 95.9344 316.364 95.9344L315.75 103.489Z" fill="#994C18"/>
<path d="M292.816 106.781C293.225 106.712 293.66 106.667 294.069 106.621C294.478 106.575 294.912 106.553 295.322 106.53L295.066 106.667C295.194 106.393 295.347 106.142 295.475 105.868C295.628 105.594 295.756 105.343 295.91 105.092C296.216 104.567 296.574 104.088 296.932 103.586C297.29 103.083 297.623 102.581 297.904 102.056C298.057 101.783 298.185 101.532 298.313 101.258C298.441 101.007 298.517 100.733 298.569 100.459C298.594 100.185 298.62 99.9111 298.569 99.6372C298.543 99.3633 298.466 99.1122 298.39 98.8612C298.287 98.6101 298.16 98.3819 297.981 98.1537C297.827 97.9483 297.597 97.7657 297.393 97.5831C296.958 97.2407 296.421 97.0125 295.833 96.9212C295.245 96.8299 294.631 96.8756 294.018 96.9897L294.12 96.9212C293.685 97.2636 293.251 97.6059 292.816 97.9483L292.765 97.9026C293.097 97.469 293.43 97.0581 293.787 96.6473L293.813 96.6245L293.89 96.6017C294.529 96.3734 295.219 96.2365 295.961 96.2822C296.677 96.3278 297.418 96.6017 297.955 97.0353C299.08 97.9026 299.489 99.3633 299.054 100.55C298.952 100.847 298.799 101.121 298.62 101.395C298.441 101.646 298.287 101.897 298.134 102.148C297.827 102.65 297.546 103.198 297.29 103.745C297.06 104.293 296.804 104.841 296.523 105.366C296.37 105.64 296.216 105.891 296.063 106.142C295.91 106.393 295.756 106.644 295.577 106.918L295.475 107.078H295.296C294.887 107.055 294.452 107.032 294.043 106.986C293.634 106.941 293.199 106.895 292.79 106.827V106.781H292.816Z" fill="#732A00"/>
<path d="M295.347 106.799C295.679 106.867 295.961 106.981 296.242 107.118C296.498 107.255 296.779 107.415 296.983 107.62C297.188 107.826 297.367 108.077 297.597 108.26C297.699 108.351 297.827 108.442 297.955 108.511C298.032 108.556 298.083 108.579 298.159 108.625C298.236 108.67 298.313 108.693 298.39 108.739C298.671 108.899 298.927 109.104 299.131 109.355C299.336 109.583 299.515 109.857 299.617 110.131C299.821 110.702 299.847 111.318 299.591 111.888H299.515C299.259 111.341 299.08 110.861 298.85 110.382C298.748 110.154 298.645 109.903 298.517 109.675C298.39 109.446 298.262 109.218 298.108 108.99C298.057 108.944 298.032 108.876 297.981 108.83C297.929 108.784 297.878 108.716 297.827 108.67C297.725 108.579 297.597 108.488 297.469 108.419C297.213 108.26 296.881 108.191 296.625 108.054C296.344 107.917 296.114 107.735 295.91 107.529C295.705 107.324 295.5 107.118 295.321 106.844L295.347 106.799Z" fill="#732A00"/>
<path d="M301.355 94.8612C301.662 95.9567 301.892 97.0751 302.097 98.1934C302.301 99.3117 302.48 100.43 302.608 101.548C302.659 102.119 302.711 102.667 302.762 103.237L302.838 104.082C302.864 104.379 302.89 104.63 302.992 104.881C303.171 105.406 303.58 105.862 304.066 106.159C304.577 106.455 305.165 106.638 305.753 106.615C306.955 106.592 308.054 105.976 308.591 105.086C308.719 104.858 308.821 104.63 308.898 104.379C308.975 104.127 308.975 103.876 309 103.625C309 103.055 309 102.507 309 101.936C309.026 99.6769 309.128 97.4174 309.358 95.1579H309.435C309.69 97.4174 309.767 99.6769 309.793 101.936C309.793 102.507 309.793 103.055 309.793 103.625C309.793 104.242 309.588 104.881 309.23 105.406C308.872 105.931 308.335 106.364 307.722 106.661C307.108 106.935 306.418 107.049 305.753 107.003C305.088 106.958 304.449 106.706 303.912 106.364C303.401 105.999 302.992 105.52 302.762 104.972C302.634 104.698 302.583 104.401 302.532 104.127L302.353 103.283C302.225 102.735 302.097 102.165 301.995 101.617C301.79 100.499 301.637 99.3802 301.509 98.2619C301.381 97.1435 301.279 96.0024 301.279 94.884L301.355 94.8612Z" fill="#732A00"/>
<path d="M309.435 93.9041C309.588 94.9768 309.639 96.0495 309.69 97.145C309.742 98.2177 309.767 99.2904 309.716 100.386C309.665 101.459 309.537 102.531 309.512 103.627C309.512 103.878 309.537 104.152 309.639 104.38C309.742 104.631 309.869 104.859 310.048 105.065C310.381 105.476 310.918 105.749 311.455 105.886C311.736 105.955 311.992 105.955 312.273 105.955C312.58 105.932 312.835 105.909 313.117 105.864C313.372 105.795 313.628 105.704 313.858 105.59C314.088 105.476 314.318 105.316 314.497 105.156C314.881 104.814 315.136 104.38 315.264 103.924L315.315 103.741L315.341 103.558C315.366 103.444 315.366 103.307 315.366 103.17L315.443 102.372C315.673 100.226 315.929 98.0807 316.364 95.9582H316.44C316.491 98.1264 316.415 100.272 316.261 102.44L316.185 103.239C316.159 103.376 316.159 103.49 316.133 103.65C316.133 103.718 316.108 103.809 316.108 103.878L316.057 104.106C315.878 104.7 315.52 105.224 315.009 105.635C314.523 106.046 313.884 106.32 313.244 106.411C312.912 106.457 312.58 106.457 312.273 106.434C311.94 106.411 311.634 106.366 311.327 106.251C310.1 105.841 309.281 104.768 309.281 103.627C309.256 102.554 309.128 101.481 309.077 100.386C309.026 99.3132 309.051 98.2405 309.102 97.145C309.154 96.0723 309.205 94.9996 309.358 93.9041H309.435Z" fill="#732A00"/>
<path d="M312.912 121.132C313.628 120.812 314.395 120.538 315.136 120.31C315.878 120.059 316.645 119.854 317.412 119.671C318.179 119.488 318.972 119.306 319.739 119.169C320.531 119.032 321.324 118.895 322.142 118.849C321.426 119.169 320.659 119.443 319.918 119.694C319.176 119.945 318.409 120.15 317.616 120.333C316.849 120.515 316.057 120.698 315.29 120.835C314.523 120.949 313.73 121.063 312.912 121.132Z" fill="#732A00"/>
<path d="M279.674 117.964C279.29 118.58 278.83 119.219 278.395 119.79C276.708 121.981 275.788 124.583 275.788 127.23V133.598C275.788 134.876 275.941 136.154 276.197 137.409C276.606 139.258 276.708 141.13 276.529 143.001L272.464 185.726H297.597L295.526 143.937C295.423 142.225 296.037 140.559 297.264 139.258L305.037 130.882C305.676 130.197 305.932 129.261 305.702 128.394L303.682 120.383L279.674 117.964Z" fill="#FBBEA2"/>
<path d="M297.903 124.878C297.903 124.878 290.796 125.312 288.341 132.524L281.438 126.841C280.671 126.202 280.185 125.357 280.057 124.422L279.75 122.025L297.878 119.515V124.878H297.903Z" fill="#B16739"/>
<path d="M303.707 120.36L304.781 117.096C305.062 116.274 304.935 115.361 304.449 114.608L303.605 113.285C303.221 112.668 302.48 112.28 301.687 112.28H300.69C300.051 112.28 299.463 112.531 299.028 112.942L297.571 114.814V117.164" fill="#FBBEA2"/>
<path d="M297.622 117.184V114.833C297.622 114.833 296.804 113.098 295.756 113.098C295.014 113.098 294.375 113.098 293.583 113.098C292.279 113.098 290.514 115.518 290.412 115.769L291.077 116.476C291.512 116.933 291.742 117.503 291.742 118.12V123.483C291.742 124.191 292.483 124.715 293.25 124.533L295.014 124.122C296.088 123.871 296.855 123.072 296.983 122.091L297.622 117.184Z" fill="#FBBEA2"/>
<path d="M291.742 123.486V118.122C291.742 117.529 291.512 116.935 291.077 116.479L290.412 115.771C290.412 115.771 289.901 115.224 289.441 115.224H287.574C287.191 115.224 286.807 115.338 286.501 115.52C286.04 115.817 285.427 116.365 284.992 117.369L287.012 122.527C287.242 123.12 287.165 123.782 286.833 124.33L285.427 126.476L286.398 126.841C286.807 127 287.242 127.069 287.702 127.069H288.75C290.412 127.069 291.767 125.859 291.767 124.376V123.486H291.742Z" fill="#FBBEA2"/>
<path d="M283.611 116.5C284.225 116.5 284.762 116.842 284.966 117.367L286.986 122.548C287.216 123.142 287.14 123.804 286.807 124.351L285.401 126.497C285.401 126.497 284.992 127.25 283.893 127.25C283.253 127.25 282.359 126.702 281.745 126.269C281.285 125.926 281.003 125.424 281.003 124.876V124.1L279.776 122.023C279.776 122.023 278.83 119.376 279.674 117.961C280.339 116.865 281.182 116.591 281.54 116.523C281.617 116.5 281.694 116.5 281.796 116.5H283.611Z" fill="#FBBEA2"/>
<path d="M297.929 123.919C297.98 124.832 298.031 125.745 298.057 126.658V126.635C298.082 126.795 298.159 126.977 298.236 127.16C298.313 127.343 298.415 127.502 298.491 127.685C298.67 128.027 298.926 128.347 299.156 128.666C299.386 128.986 299.616 129.305 299.872 129.625C300 129.785 300.128 129.944 300.23 130.104C300.358 130.264 300.486 130.424 300.588 130.606L300.562 130.629C300.383 130.515 300.205 130.378 300.026 130.264C299.872 130.127 299.693 129.99 299.54 129.853C299.233 129.556 298.952 129.26 298.696 128.917C298.466 128.575 298.261 128.21 298.082 127.845C298.006 127.662 297.929 127.48 297.852 127.274C297.776 127.069 297.724 126.886 297.699 126.658C297.724 125.745 297.776 124.832 297.827 123.919H297.929Z" fill="#B16739"/>
<path d="M284.992 117.345C285.452 118.075 285.785 118.828 286.092 119.604C286.245 119.992 286.347 120.403 286.449 120.791C286.552 121.202 286.705 121.59 286.859 121.978C286.935 122.16 287.038 122.366 287.114 122.548C287.217 122.754 287.268 122.959 287.293 123.187C287.344 123.621 287.242 124.1 286.986 124.488C286.577 125.219 286.092 125.926 285.58 126.611V126.588C285.478 126.748 285.376 126.839 285.248 126.953C285.12 127.045 284.967 127.136 284.813 127.182C284.506 127.296 284.174 127.319 283.867 127.296V127.25C284.021 127.227 284.174 127.204 284.302 127.159C284.43 127.113 284.558 127.045 284.685 126.976C284.788 126.908 284.89 126.816 284.992 126.725C285.069 126.634 285.171 126.52 285.197 126.428V126.406C285.606 125.675 286.04 124.945 286.552 124.26C286.782 123.941 286.91 123.575 286.935 123.187C286.961 123.005 286.935 122.799 286.884 122.617C286.833 122.412 286.756 122.229 286.705 122.024C286.577 121.636 286.398 121.248 286.194 120.882C286.015 120.517 285.81 120.129 285.657 119.741C285.35 118.965 285.094 118.166 284.941 117.345H284.992Z" fill="#B16739"/>
<path d="M286.398 126.868C286.756 126.959 287.088 127.005 287.446 127.005C287.779 127.005 288.162 126.959 288.52 126.959C288.699 126.959 288.878 126.937 289.032 126.937L289.287 126.891C289.364 126.868 289.441 126.845 289.517 126.845C289.824 126.754 290.131 126.64 290.412 126.457C290.693 126.298 290.949 126.092 291.154 125.841C291.358 125.59 291.537 125.316 291.614 125.019C291.691 124.723 291.691 124.403 291.691 124.084C291.691 123.764 291.665 123.445 291.639 123.125C291.588 122.486 291.563 121.847 291.537 121.208C291.512 120.569 291.486 119.93 291.512 119.291C291.512 118.971 291.512 118.652 291.537 118.332C291.537 118.172 291.563 118.035 291.537 117.876C291.537 117.739 291.512 117.579 291.46 117.442C291.384 117.145 291.23 116.871 291.026 116.62C290.821 116.369 290.617 116.096 290.412 115.822L290.463 115.799C290.719 116.027 290.975 116.232 291.23 116.461C291.486 116.712 291.691 116.986 291.844 117.305C291.921 117.465 291.972 117.625 291.997 117.807C292.023 117.967 292.023 118.15 292.048 118.309C292.074 118.629 292.074 118.948 292.074 119.268C292.074 119.907 292.048 120.546 292.048 121.185C292.048 121.824 291.997 122.463 291.946 123.102C291.921 123.422 291.895 123.741 291.895 124.061C291.895 124.38 291.895 124.7 291.818 125.042C291.691 125.681 291.307 126.32 290.719 126.754C290.131 127.188 289.287 127.37 288.571 127.302C288.392 127.302 288.213 127.279 288.034 127.279C287.855 127.279 287.676 127.256 287.497 127.233C287.14 127.188 286.782 127.074 286.449 126.914L286.398 126.868Z" fill="#B16739"/>
<path d="M291.767 123.485C291.844 123.964 292.253 124.306 292.688 124.375C292.79 124.397 292.918 124.397 293.02 124.375C293.071 124.375 293.122 124.352 293.173 124.352L293.352 124.306C293.608 124.238 293.864 124.169 294.119 124.124C294.375 124.055 294.631 124.009 294.886 123.964C295.142 123.918 295.372 123.85 295.602 123.758C296.063 123.576 296.446 123.211 296.651 122.8C296.753 122.594 296.83 122.366 296.83 122.138L296.881 121.43C296.906 120.951 296.932 120.472 296.983 120.015C297.034 119.536 297.06 119.057 297.136 118.6C297.188 118.121 297.264 117.665 297.341 117.185V117.208C297.367 116.432 297.443 115.633 297.545 114.857H297.597C297.699 115.633 297.776 116.432 297.801 117.208V117.231C297.776 117.71 297.724 118.19 297.648 118.646C297.597 119.125 297.494 119.582 297.443 120.061C297.367 120.54 297.29 120.997 297.188 121.476L297.034 122.184C296.983 122.435 296.906 122.663 296.778 122.891C296.548 123.325 296.19 123.736 295.73 124.009C295.5 124.146 295.244 124.261 294.963 124.352C294.708 124.42 294.452 124.489 294.196 124.557C293.94 124.626 293.685 124.671 293.429 124.717L293.225 124.763C293.148 124.763 293.071 124.785 292.994 124.785C292.841 124.785 292.688 124.785 292.534 124.74C292.253 124.649 291.997 124.489 291.818 124.261C291.665 124.032 291.588 123.781 291.639 123.53H291.767V123.485Z" fill="#B16739"/>
<path d="M300.793 122.802C300.793 122.802 299.412 123.943 297.903 123.943C295.679 123.943 292.79 121.524 292.713 118.945C292.611 116.366 294.938 116.526 294.938 116.526C296.804 117.005 299.616 117.735 301.457 118.214C302.608 118.511 303.477 119.356 303.733 120.383L300.793 122.802Z" fill="#FBBEA2"/>
<path d="M300.818 122.804C300.588 123.01 300.332 123.192 300.077 123.375C299.821 123.557 299.514 123.694 299.207 123.808C298.901 123.922 298.568 124.014 298.236 124.059C298.057 124.082 297.904 124.082 297.725 124.082L297.469 124.059C297.392 124.059 297.29 124.037 297.213 124.014C295.858 123.763 294.759 122.964 293.966 122.028C293.557 121.549 293.25 121.024 293.02 120.499C292.79 119.951 292.637 119.381 292.611 118.787C292.585 118.217 292.662 117.578 293.071 117.053C293.276 116.802 293.557 116.596 293.889 116.459C294.222 116.322 294.554 116.254 294.938 116.254H294.963H294.989L297.469 116.847C298.287 117.053 299.105 117.281 299.923 117.509L301.151 117.851C301.355 117.92 301.56 117.966 301.764 118.057C301.969 118.125 302.173 118.239 302.352 118.354C302.71 118.582 303.043 118.879 303.273 119.221C303.503 119.563 303.656 119.928 303.733 120.316H303.682C303.426 119.586 302.889 118.97 302.173 118.605C301.994 118.513 301.815 118.445 301.611 118.376C301.432 118.308 301.227 118.285 300.997 118.239L299.744 117.943C298.926 117.737 298.082 117.532 297.264 117.327L294.81 116.665H294.861C294.605 116.642 294.273 116.687 294.017 116.779C293.736 116.87 293.506 117.03 293.301 117.235C292.918 117.646 292.764 118.217 292.764 118.764C292.764 119.335 292.892 119.906 293.148 120.408C293.404 120.933 293.762 121.412 294.196 121.823C294.631 122.234 295.117 122.599 295.628 122.918C296.139 123.238 296.702 123.489 297.29 123.603C297.367 123.626 297.443 123.626 297.52 123.649L297.75 123.671C297.904 123.694 298.057 123.694 298.21 123.671C298.517 123.649 298.824 123.58 299.105 123.489C299.693 123.306 300.256 123.032 300.793 122.69L300.818 122.804Z" fill="#B16739"/>
<path d="M280.978 140.03C281.77 139.939 282.563 139.916 283.355 139.916C284.148 139.916 284.941 139.939 285.708 139.984C286.5 140.03 287.267 140.099 288.06 140.213C288.827 140.304 289.619 140.441 290.386 140.624C289.594 140.715 288.801 140.738 288.009 140.738C287.216 140.738 286.423 140.715 285.656 140.669C284.864 140.624 284.097 140.555 283.304 140.441C282.537 140.35 281.745 140.213 280.978 140.03Z" fill="#B16739"/>
<path d="M323.855 119.08C323.88 118.783 323.88 118.486 323.855 118.189C323.522 115.747 321.937 115.314 321.247 115.222C321.068 115.2 320.889 115.291 320.812 115.428C319.713 117.14 317.514 119.445 316.133 120.837C315.341 121.613 314.932 122.64 314.932 123.69V129.35C314.932 130.925 315.315 132.5 316.082 133.938L321.733 144.733C322.193 145.623 322.397 146.604 322.321 147.586L319.432 185.724H340.857V144.71L344.59 132.226C345.127 130.4 344.82 128.437 343.67 126.817C343.235 126.2 342.724 125.63 342.161 125.242L323.855 119.08Z" fill="#F39E8A"/>
<path d="M321.247 126.746L321.4 128.344L322.96 129.827C322.96 129.827 328.534 131.334 331.116 135.374L334.261 133.89C335.079 133.502 335.974 133.319 336.869 133.319H338.735C339.937 133.319 340.985 132.589 341.266 131.562L342.11 128.663L321.247 126.746Z" fill="#B16739"/>
<path d="M317.949 119.038L318.179 119.197C318.665 119.562 319.406 119.494 319.815 119.038L320.403 118.353C320.812 117.874 321.119 117.326 321.247 116.732C321.375 116.185 321.375 115.591 320.889 115.454L317.949 119.038Z" fill="#D067D6"/>
<path d="M333.698 122.596C334.133 121.227 333.264 119.766 331.73 119.355C330.093 118.899 328.022 118.739 326.718 119.994C327.076 120.405 327.281 120.953 327.204 121.524L326.437 128.097C326.386 128.553 326.13 128.941 325.747 129.192L326.079 129.671C326.565 130.356 327.383 130.813 328.278 130.904L329.25 131.018C330.272 131.132 331.218 130.562 331.499 129.671L333.698 122.596Z" fill="#F39E8A"/>
<path d="M338.735 122.62C339.042 123.007 339.22 123.487 339.272 123.966L339.348 124.514L335.973 131.224C335.488 132.205 334.26 132.73 333.11 132.456L332.675 132.365C331.934 132.205 331.269 131.772 330.86 131.201C330.86 131.201 330.707 130.973 330.553 130.767C330.988 130.539 331.346 130.151 331.499 129.672L333.698 122.574C333.8 122.232 333.826 121.889 333.775 121.547C334.056 121.433 334.286 121.341 334.286 121.341C335.079 121.022 335.973 121.022 336.766 121.319L337.277 121.501C337.865 121.752 338.377 122.14 338.735 122.62Z" fill="#F39E8A"/>
<path d="M342.161 125.242V128.141C342.161 128.529 342.059 128.917 341.88 129.259L340.371 132.044C340.371 132.044 339.119 133.116 337.278 132.888C336.306 132.751 335.769 132.295 335.462 131.907C335.667 131.724 335.846 131.496 335.974 131.245L339.349 124.535L339.476 124.489C340.09 124.307 340.755 124.375 341.292 124.717L342.161 125.242Z" fill="#F39E8A"/>
<path d="M324.519 129.484C325.491 129.575 326.334 128.936 326.437 128.092L327.204 121.519C327.332 120.355 326.386 119.305 325.082 119.168L323.957 119.054C323.88 119.602 323.701 120.104 323.394 120.583L321.042 124.166L321.425 128.32L322.448 129.279H322.525L324.519 129.484Z" fill="#F39E8A"/>
<path d="M321.042 124.196C321.119 124.539 321.17 124.881 321.247 125.223C321.298 125.566 321.349 125.908 321.4 126.251C321.451 126.593 321.502 126.935 321.528 127.278C321.553 127.62 321.605 127.962 321.63 128.305L321.579 128.191C322.09 128.693 322.576 129.218 323.062 129.743L323.011 129.72C324.11 130.108 325.158 130.519 326.207 130.998C326.718 131.226 327.229 131.5 327.715 131.797C328.201 132.093 328.661 132.413 329.096 132.778C329.991 133.463 330.732 134.307 331.295 135.243C331.857 136.179 332.19 137.206 332.292 138.233H332.241C332.087 137.731 331.908 137.251 331.678 136.772C331.448 136.316 331.192 135.859 330.886 135.426C330.579 134.992 330.272 134.581 329.888 134.193C329.531 133.805 329.147 133.44 328.738 133.075C327.92 132.367 326.999 131.751 326.053 131.203C325.082 130.655 324.034 130.176 322.934 129.925H322.909L322.883 129.902C322.346 129.423 321.758 128.967 321.247 128.487L321.196 128.442V128.373C321.17 128.031 321.144 127.688 321.119 127.346C321.093 127.004 321.068 126.661 321.068 126.296C321.042 125.954 321.042 125.611 321.042 125.246C321.042 124.904 321.042 124.562 321.042 124.196Z" fill="#B16739"/>
<path d="M323.957 119.077C323.931 119.556 323.778 120.035 323.548 120.492C323.292 120.925 323.036 121.336 322.781 121.77L322.014 123.048C321.758 123.482 321.502 123.892 321.247 124.326L321.221 124.372L321.195 124.395C320.965 124.554 320.735 124.668 320.48 124.737C320.224 124.828 319.968 124.897 319.687 124.897C319.406 124.897 319.125 124.851 318.894 124.714C318.843 124.691 318.767 124.646 318.715 124.623L318.562 124.486C318.46 124.417 318.409 124.303 318.332 124.212L318.383 124.189C318.588 124.326 318.767 124.463 318.997 124.509C319.201 124.554 319.431 124.577 319.661 124.531C319.866 124.486 320.096 124.417 320.301 124.326C320.505 124.235 320.71 124.121 320.863 124.007L320.812 124.075C321.093 123.664 321.4 123.253 321.681 122.843L322.551 121.61L323.42 120.4C323.676 119.99 323.88 119.533 323.957 119.054V119.077Z" fill="#B16739"/>
<path d="M322.474 129.284C322.986 129.238 323.497 129.261 324.008 129.261C324.264 129.261 324.52 129.307 324.75 129.284C324.98 129.261 325.184 129.215 325.389 129.147C325.798 128.987 326.182 128.691 326.309 128.257C326.412 127.823 326.412 127.367 326.412 126.91C326.412 126.454 326.437 125.997 326.463 125.541C326.488 125.084 326.54 124.628 326.591 124.194C326.718 123.304 326.872 122.391 327.153 121.501H327.204C327.255 122.414 327.23 123.327 327.128 124.24C327.076 124.696 327 125.13 326.949 125.587C326.897 126.043 326.795 126.477 326.693 126.933C326.642 127.161 326.591 127.39 326.565 127.595C326.514 127.823 326.514 128.051 326.463 128.28C326.361 128.736 326.079 129.215 325.568 129.466C325.312 129.603 325.031 129.672 324.75 129.672C324.443 129.672 324.213 129.626 323.957 129.603C323.446 129.535 322.96 129.444 322.449 129.307L322.474 129.284Z" fill="#B16739"/>
<path d="M325.747 129.187C325.977 129.393 326.156 129.644 326.36 129.849C326.565 130.055 326.821 130.214 327.076 130.351C327.332 130.488 327.613 130.602 327.894 130.648C328.048 130.671 328.176 130.694 328.329 130.716C328.482 130.739 328.636 130.762 328.815 130.785L329.275 130.853C329.428 130.876 329.582 130.876 329.71 130.876C330.017 130.853 330.323 130.785 330.579 130.625C330.835 130.465 331.065 130.26 331.193 130.009C331.269 129.895 331.32 129.758 331.346 129.621L331.448 129.187C331.576 128.617 331.704 128.046 331.857 127.498C332.011 126.928 332.164 126.38 332.343 125.832C332.701 124.737 333.11 123.618 333.622 122.568L333.673 122.591C333.494 123.732 333.212 124.874 332.88 125.992C332.727 126.54 332.522 127.11 332.343 127.658C332.164 128.206 331.96 128.754 331.73 129.301L331.576 129.712C331.525 129.849 331.448 129.986 331.372 130.123C331.193 130.374 330.963 130.602 330.707 130.785C330.426 130.967 330.119 131.104 329.786 131.173C329.607 131.196 329.454 131.219 329.275 131.219C329.096 131.219 328.943 131.196 328.789 131.196C328.636 131.173 328.457 131.173 328.303 131.15C328.15 131.127 327.971 131.104 327.792 131.059C327.46 130.967 327.153 130.831 326.872 130.671C326.59 130.488 326.36 130.26 326.156 130.009C325.977 129.758 325.849 129.484 325.696 129.233L325.747 129.187Z" fill="#B16739"/>
<path d="M339.374 124.532L337.943 127.636L336.485 130.717L336.306 131.105C336.255 131.242 336.178 131.356 336.102 131.493C335.948 131.767 335.718 132.018 335.462 132.201C335.207 132.406 334.9 132.543 334.568 132.657C334.235 132.749 333.877 132.794 333.545 132.749C333.366 132.726 333.213 132.703 333.034 132.657C332.88 132.612 332.727 132.589 332.573 132.543C332.241 132.452 331.96 132.315 331.678 132.132C331.423 131.95 331.167 131.744 330.988 131.516C330.809 131.265 330.681 131.014 330.528 130.763L330.579 130.74C330.784 130.946 330.963 131.197 331.167 131.379C331.372 131.585 331.627 131.744 331.857 131.858C332.113 131.995 332.394 132.087 332.676 132.132L333.136 132.224C333.289 132.246 333.417 132.269 333.545 132.269C333.826 132.292 334.107 132.246 334.363 132.178C334.619 132.109 334.874 131.995 335.105 131.836C335.335 131.676 335.514 131.493 335.667 131.265L335.769 131.105L335.872 130.923L336.076 130.535L337.687 127.499L339.323 124.487L339.374 124.532Z" fill="#B16739"/>
<path d="M327.204 146.055C328.022 145.919 328.866 145.85 329.684 145.782C330.502 145.736 331.346 145.713 332.164 145.713C332.982 145.713 333.826 145.736 334.644 145.782C335.462 145.827 336.306 145.896 337.124 146.055C336.306 146.192 335.462 146.284 334.644 146.329C333.826 146.375 332.982 146.398 332.164 146.398C331.346 146.398 330.502 146.375 329.684 146.329C328.866 146.284 328.022 146.192 327.204 146.055Z" fill="#B16739"/>
<path d="M270.674 135.284C270.649 135.01 270.674 134.714 270.751 134.44C271.237 132.135 272.771 131.792 273.41 131.769C273.589 131.769 273.742 131.838 273.819 131.975C274.739 133.641 276.683 135.969 277.91 137.361C278.6 138.16 278.933 139.141 278.881 140.146L278.498 145.509C278.396 147.015 277.91 148.476 277.117 149.823L271.032 159.796C270.521 160.618 270.291 161.531 270.291 162.467L271.16 185.724H251.064L252.828 158.792L250.092 146.719C249.683 144.938 250.118 143.09 251.32 141.629C251.78 141.058 252.291 140.556 252.854 140.214L270.674 135.284Z" fill="#FFA050"/>
<path d="M272.643 142.723L272.413 144.253L270.828 145.576C270.828 145.576 265.407 146.718 262.697 150.438L259.783 148.863C259.041 148.452 258.197 148.224 257.328 148.178L255.564 148.087C254.413 148.019 253.467 147.288 253.263 146.284L252.649 143.477L272.643 142.723Z" fill="#B16739"/>
<path d="M276.299 135.559L276.069 135.696C275.583 136.016 274.867 135.901 274.535 135.445L274.024 134.76C273.666 134.281 273.41 133.733 273.333 133.163C273.257 132.638 273.282 132.067 273.768 131.953L276.299 135.559Z" fill="#F75E66"/>
<path d="M261.086 138.113C260.78 136.789 261.7 135.443 263.183 135.123C264.768 134.781 266.737 134.735 267.913 136.013C267.529 136.401 267.325 136.903 267.35 137.451L267.632 143.75C267.657 144.184 267.887 144.572 268.22 144.823L267.862 145.257C267.35 145.896 266.558 146.284 265.689 146.329L264.768 146.375C263.797 146.421 262.927 145.827 262.723 144.983L261.086 138.113Z" fill="#FFA050"/>
<path d="M256.279 137.886C255.973 138.251 255.742 138.684 255.666 139.141L255.563 139.666L258.325 146.216C258.734 147.175 259.859 147.745 260.984 147.54L261.393 147.471C262.109 147.357 262.748 146.992 263.183 146.467C263.183 146.467 263.336 146.262 263.515 146.056C263.106 145.805 262.799 145.417 262.697 144.961L261.06 138.091C260.984 137.749 260.984 137.429 261.035 137.11C260.779 136.995 260.575 136.904 260.575 136.904C259.859 136.562 258.99 136.516 258.222 136.744L257.737 136.904C257.149 137.11 256.637 137.452 256.279 137.886Z" fill="#FFA050"/>
<path d="M252.828 140.214L252.649 142.953C252.624 143.318 252.7 143.706 252.854 144.048L254.107 146.764C254.107 146.764 255.231 147.86 256.996 147.723C257.916 147.654 258.479 147.244 258.785 146.878C258.606 146.696 258.453 146.468 258.351 146.217L255.589 139.666L255.487 139.621C254.925 139.415 254.285 139.461 253.749 139.735L252.828 140.214Z" fill="#FFA050"/>
<path d="M269.344 145.17C268.424 145.193 267.657 144.554 267.606 143.732L267.325 137.433C267.273 136.314 268.245 135.356 269.498 135.31L270.572 135.265C270.597 135.789 270.751 136.292 271.006 136.748L273.001 140.286L272.387 144.211L271.364 145.079H271.288L269.344 145.17Z" fill="#FFA050"/>
<path d="M273.052 140.326C273.052 140.669 273.026 140.988 273.001 141.331C272.975 141.65 272.95 141.992 272.899 142.312C272.847 142.631 272.822 142.974 272.771 143.293C272.72 143.613 272.669 143.955 272.617 144.275L272.592 144.343L272.541 144.389C272.004 144.822 271.441 145.233 270.879 145.644L270.853 145.667H270.828C269.754 145.85 268.731 146.238 267.785 146.717C266.839 147.219 265.944 147.744 265.101 148.36C264.691 148.68 264.308 148.999 263.924 149.364C263.541 149.707 263.209 150.072 262.902 150.483C262.595 150.871 262.314 151.281 262.058 151.715C261.802 152.149 261.623 152.605 261.419 153.062H261.368C261.521 152.08 261.905 151.122 262.493 150.254C263.081 149.387 263.848 148.634 264.743 148.018C265.177 147.721 265.637 147.424 266.123 147.173C266.609 146.922 267.095 146.694 267.606 146.511C268.629 146.123 269.652 145.781 270.725 145.462L270.674 145.484C271.186 145.028 271.671 144.526 272.183 144.092L272.106 144.206C272.157 143.887 272.208 143.544 272.259 143.225C272.311 142.905 272.387 142.563 272.438 142.243C272.515 141.924 272.566 141.604 272.669 141.262C272.745 140.943 272.822 140.623 272.924 140.303L273.052 140.326Z" fill="#B16739"/>
<path d="M270.623 135.286C270.674 135.743 270.828 136.176 271.032 136.587L271.774 137.797L272.515 139.006C272.771 139.417 273.026 139.805 273.257 140.216L273.205 140.148C273.359 140.262 273.538 140.376 273.717 140.467C273.896 140.558 274.1 140.65 274.305 140.695C274.509 140.741 274.714 140.741 274.918 140.695C275.123 140.672 275.328 140.558 275.532 140.444L275.558 140.467C275.481 140.558 275.43 140.65 275.328 140.718L275.174 140.832C275.123 140.855 275.072 140.901 274.995 140.924C274.765 141.038 274.484 141.06 274.228 141.06C273.972 141.038 273.717 140.969 273.487 140.878C273.257 140.787 273.052 140.672 272.822 140.513L272.796 140.49L272.771 140.444C272.541 140.033 272.336 139.6 272.132 139.189L271.492 137.934C271.288 137.523 271.058 137.112 270.853 136.678C270.649 136.245 270.546 135.765 270.546 135.309L270.623 135.286Z" fill="#B16739"/>
<path d="M271.288 145.119C270.802 145.233 270.316 145.279 269.831 145.324C269.575 145.347 269.37 145.37 269.064 145.347C268.782 145.324 268.527 145.233 268.297 145.119C267.836 144.845 267.606 144.366 267.53 143.932C267.504 143.704 267.504 143.499 267.478 143.27C267.453 143.065 267.427 142.837 267.402 142.631C267.325 142.198 267.274 141.764 267.248 141.33C267.223 140.897 267.172 140.463 267.146 140.029C267.12 139.162 267.146 138.295 267.274 137.428H267.325C267.53 138.295 267.632 139.139 267.683 140.007C267.709 140.44 267.709 140.874 267.709 141.308C267.709 141.741 267.709 142.175 267.657 142.608C267.632 143.042 267.606 143.476 267.683 143.887C267.785 144.297 268.118 144.617 268.501 144.777C268.68 144.868 268.885 144.914 269.089 144.936C269.294 144.959 269.549 144.936 269.779 144.959C270.265 144.982 270.751 144.982 271.237 145.073L271.288 145.119Z" fill="#B16739"/>
<path d="M268.22 144.826C268.066 145.077 267.938 145.305 267.734 145.556C267.529 145.784 267.299 145.99 267.018 146.15C266.737 146.309 266.43 146.423 266.098 146.492C265.944 146.538 265.765 146.538 265.612 146.538C265.458 146.538 265.305 146.538 265.152 146.538C264.998 146.538 264.845 146.538 264.691 146.538C264.512 146.538 264.359 146.515 264.206 146.469C263.899 146.378 263.592 146.241 263.362 146.058C263.106 145.876 262.902 145.647 262.774 145.396C262.697 145.259 262.646 145.122 262.595 144.986L262.467 144.598C262.288 144.073 262.135 143.548 261.981 143C261.828 142.475 261.7 141.927 261.572 141.402C261.342 140.33 261.137 139.234 261.061 138.139H261.112C261.521 139.188 261.828 140.238 262.109 141.311C262.237 141.836 262.339 142.384 262.467 142.931C262.595 143.479 262.671 144.027 262.748 144.552L262.825 144.963C262.85 145.1 262.876 145.214 262.953 145.351C263.055 145.602 263.26 145.807 263.49 145.967C263.72 146.127 264.001 146.218 264.308 146.241C264.461 146.264 264.589 146.264 264.742 146.241L265.203 146.195C265.356 146.172 265.509 146.172 265.663 146.15C265.816 146.15 265.944 146.127 266.098 146.104C266.379 146.058 266.66 145.967 266.916 145.853C267.171 145.739 267.401 145.579 267.632 145.419C267.836 145.237 268.041 145.031 268.271 144.826H268.22Z" fill="#B16739"/>
<path d="M255.589 139.664L256.944 142.631L258.274 145.598L258.453 145.963L258.53 146.146L258.606 146.306C258.734 146.511 258.888 146.716 259.092 146.876C259.297 147.036 259.527 147.15 259.782 147.241C260.038 147.333 260.294 147.378 260.55 147.378C260.677 147.378 260.805 147.378 260.959 147.356L261.393 147.287C261.674 147.241 261.93 147.173 262.186 147.059C262.442 146.945 262.672 146.808 262.876 146.625C263.081 146.465 263.285 146.237 263.49 146.055L263.541 146.077C263.388 146.306 263.26 146.534 263.055 146.762C262.876 146.99 262.62 147.173 262.365 147.333C262.109 147.492 261.802 147.607 261.496 147.675C261.342 147.721 261.214 147.744 261.061 147.766C260.907 147.789 260.728 147.812 260.575 147.835C260.243 147.835 259.91 147.789 259.604 147.675C259.297 147.561 259.015 147.401 258.785 147.196C258.555 146.99 258.351 146.739 258.223 146.488C258.146 146.351 258.095 146.214 258.069 146.1L257.916 145.712L256.74 142.7L255.538 139.664H255.589Z" fill="#B16739"/>
<path d="M265.689 160.78C264.896 160.872 264.103 160.917 263.311 160.917C262.518 160.917 261.726 160.894 260.959 160.872C260.166 160.826 259.399 160.758 258.606 160.666C257.814 160.575 257.047 160.461 256.28 160.278C257.072 160.187 257.865 160.141 258.657 160.141C259.45 160.141 260.243 160.164 261.01 160.187C261.802 160.233 262.569 160.301 263.362 160.392C264.129 160.484 264.922 160.598 265.689 160.78Z" fill="#B16739"/>
<path d="M363.024 144.726C363.408 145.32 363.817 145.913 364.226 146.461C365.811 148.538 366.68 151.003 366.655 153.513L366.629 159.539C366.629 160.748 366.476 161.958 366.22 163.145C365.811 164.879 365.709 166.682 365.888 168.44L367.754 185.694H346.814L347.863 169.239C347.965 167.618 347.377 166.043 346.226 164.788L338.888 156.823C338.275 156.161 338.045 155.294 338.275 154.449L340.218 146.872L363.024 144.726Z" fill="#FFDBC1"/>
<path d="M345.741 151.209C345.741 151.209 352.49 151.643 354.766 158.49L361.337 153.126C362.078 152.533 362.539 151.711 362.641 150.844L362.948 148.561L345.792 146.096L345.741 151.209Z" fill="#F4A16B"/>
<path d="M340.244 146.896L339.246 143.792C338.991 142.994 339.093 142.149 339.553 141.442L340.346 140.209C340.729 139.616 341.42 139.273 342.161 139.273H343.107C343.721 139.273 344.283 139.502 344.667 139.912L346.047 141.693V143.929" fill="#FFDBC1"/>
<path d="M346.048 143.93V141.693C346.048 141.693 346.84 140.05 347.812 140.073C348.502 140.073 349.116 140.073 349.883 140.073C351.11 140.073 352.772 142.378 352.874 142.606L352.235 143.268C351.826 143.701 351.596 144.249 351.596 144.82L351.57 149.909C351.57 150.571 350.854 151.073 350.138 150.891L348.477 150.503C347.479 150.275 346.738 149.499 346.61 148.586L346.048 143.93Z" fill="#FFDBC1"/>
<path d="M351.57 149.932L351.596 144.842C351.596 144.272 351.826 143.724 352.235 143.29L352.874 142.629C352.874 142.629 353.36 142.104 353.794 142.104H355.559C355.916 142.104 356.274 142.195 356.581 142.4C357.016 142.674 357.604 143.199 358.013 144.158L356.07 149.042C355.84 149.613 355.916 150.229 356.249 150.754L357.553 152.808L356.632 153.15C356.249 153.287 355.814 153.378 355.405 153.378H354.408C352.823 153.378 351.544 152.214 351.57 150.822V149.932Z" fill="#FFDBC1"/>
<path d="M359.317 143.337C358.729 143.337 358.218 143.656 358.039 144.158L356.096 149.065C355.865 149.636 355.942 150.252 356.274 150.777L357.578 152.831C357.578 152.831 357.962 153.562 359.01 153.562C359.624 153.562 360.468 153.059 361.056 152.626C361.49 152.306 361.771 151.827 361.771 151.302V150.572L362.948 148.609C362.948 148.609 363.868 146.098 363.05 144.752C362.436 143.725 361.644 143.451 361.311 143.382C361.235 143.36 361.158 143.36 361.081 143.36L359.317 143.337Z" fill="#FFDBC1"/>
<path d="M345.766 150.299C345.817 151.166 345.868 152.033 345.894 152.901C345.843 153.311 345.689 153.654 345.536 154.019C345.357 154.361 345.178 154.704 344.948 155.023C344.718 155.343 344.437 155.639 344.155 155.913C344.002 156.05 343.849 156.164 343.695 156.301C343.542 156.415 343.363 156.53 343.184 156.644L343.158 156.621C343.261 156.461 343.388 156.301 343.491 156.142C343.593 155.982 343.721 155.845 343.823 155.685L344.488 154.772C344.718 154.475 344.948 154.179 345.127 153.859C345.229 153.699 345.306 153.54 345.383 153.38C345.459 153.22 345.51 153.038 345.562 152.878V152.901C345.613 152.033 345.664 151.166 345.715 150.299H345.766Z" fill="#F4A16B"/>
<path d="M358.039 144.136C357.911 144.912 357.655 145.665 357.348 146.395C357.195 146.76 357.016 147.103 356.811 147.468C356.607 147.81 356.453 148.175 356.326 148.563C356.249 148.746 356.198 148.929 356.147 149.134C356.095 149.317 356.095 149.499 356.095 149.682C356.121 150.047 356.223 150.389 356.453 150.686C356.914 151.348 357.348 152.033 357.732 152.717V152.74C357.757 152.831 357.834 152.923 357.936 153.014C358.013 153.105 358.115 153.174 358.218 153.242C358.32 153.311 358.448 153.379 358.576 153.425C358.703 153.47 358.831 153.493 358.985 153.516V153.562C358.703 153.607 358.371 153.585 358.09 153.47C357.936 153.425 357.808 153.334 357.681 153.242C357.553 153.151 357.451 153.037 357.348 152.9V152.923C356.863 152.284 356.428 151.599 356.019 150.914C355.789 150.549 355.686 150.093 355.738 149.682C355.763 149.476 355.814 149.271 355.917 149.088C355.993 148.906 356.095 148.723 356.172 148.541C356.326 148.175 356.453 147.81 356.556 147.422C356.658 147.034 356.76 146.669 356.888 146.304C357.169 145.574 357.502 144.843 357.962 144.159L358.039 144.136Z" fill="#F4A16B"/>
<path d="M356.658 153.173C356.351 153.333 356.019 153.447 355.661 153.493C355.482 153.515 355.303 153.515 355.15 153.538C354.971 153.538 354.817 153.561 354.638 153.561C353.948 153.629 353.155 153.447 352.593 153.013C352.03 152.602 351.672 151.986 351.57 151.37C351.493 151.073 351.519 150.754 351.493 150.457C351.493 150.16 351.468 149.841 351.442 149.544C351.391 148.928 351.366 148.334 351.34 147.718C351.314 147.102 351.314 146.509 351.314 145.892C351.314 145.596 351.34 145.276 351.34 144.979C351.34 144.843 351.366 144.66 351.391 144.5C351.417 144.34 351.468 144.181 351.545 144.021C351.672 143.724 351.877 143.427 352.133 143.222C352.388 143.017 352.618 142.788 352.874 142.583L352.925 142.606C352.746 142.857 352.542 143.108 352.337 143.359C352.158 143.587 352.005 143.861 351.928 144.135C351.877 144.272 351.851 144.409 351.851 144.546C351.826 144.683 351.851 144.82 351.851 144.979C351.877 145.276 351.877 145.596 351.877 145.892C351.877 146.509 351.851 147.102 351.826 147.718C351.8 148.334 351.775 148.928 351.724 149.544C351.698 149.841 351.672 150.16 351.672 150.457C351.647 150.754 351.647 151.05 351.724 151.347C351.877 151.918 352.337 152.397 352.848 152.717C353.104 152.876 353.385 152.99 353.692 153.082C353.769 153.105 353.846 153.127 353.922 153.127L354.152 153.173C354.306 153.196 354.459 153.196 354.638 153.196L355.635 153.241C355.968 153.241 356.3 153.196 356.632 153.127L356.658 153.173Z" fill="#F4A16B"/>
<path d="M351.596 149.932C351.647 150.16 351.57 150.411 351.417 150.617C351.263 150.822 351.033 150.982 350.752 151.073C350.624 151.119 350.471 151.142 350.317 151.119C350.24 151.119 350.164 151.096 350.087 151.096L349.908 151.05C349.652 151.005 349.422 150.959 349.167 150.891C348.911 150.845 348.681 150.776 348.451 150.708C348.195 150.64 347.939 150.525 347.735 150.388C347.3 150.115 346.968 149.727 346.738 149.316C346.635 149.11 346.559 148.882 346.508 148.654L346.38 147.992C346.277 147.558 346.201 147.102 346.124 146.668C346.047 146.212 345.971 145.778 345.92 145.322C345.868 144.865 345.817 144.432 345.792 143.975V143.952C345.843 143.199 345.894 142.469 346.022 141.716H346.073C346.175 142.469 346.226 143.199 346.277 143.952V143.929C346.354 144.386 346.431 144.82 346.482 145.276C346.533 145.732 346.559 146.166 346.61 146.623C346.661 147.079 346.687 147.513 346.687 147.969L346.712 148.654C346.712 148.859 346.789 149.088 346.891 149.293C347.07 149.704 347.454 150.023 347.888 150.206C348.093 150.297 348.323 150.366 348.553 150.388C348.809 150.434 349.039 150.48 349.294 150.548C349.55 150.594 349.78 150.662 350.01 150.731L350.189 150.776C350.24 150.776 350.292 150.799 350.343 150.799C350.445 150.822 350.547 150.799 350.65 150.799C351.059 150.731 351.442 150.411 351.544 149.978L351.596 149.932Z" fill="#F4A16B"/>
<path d="M343.005 149.225C343.005 149.225 344.309 150.298 345.74 150.298C347.837 150.298 350.598 148.039 350.7 145.597C350.803 143.154 348.604 143.291 348.604 143.291C346.84 143.725 344.155 144.41 342.417 144.866C341.317 145.14 340.499 145.939 340.243 146.92L343.005 149.225Z" fill="#FFDBC1"/>
<path d="M343.005 149.202C343.491 149.522 344.028 149.773 344.59 149.955C344.871 150.047 345.153 150.115 345.434 150.115C345.587 150.115 345.715 150.138 345.868 150.115L346.073 150.092C346.15 150.069 346.201 150.069 346.278 150.047C346.84 149.932 347.377 149.681 347.863 149.407C348.349 149.111 348.809 148.768 349.218 148.38C349.627 147.992 349.959 147.536 350.215 147.057C350.445 146.555 350.598 146.03 350.573 145.505C350.573 144.98 350.419 144.432 350.062 144.044C349.883 143.861 349.652 143.724 349.397 143.633C349.141 143.542 348.86 143.496 348.604 143.519H348.655L346.329 144.158C345.562 144.363 344.769 144.546 343.976 144.729L342.8 145.003C342.596 145.048 342.417 145.094 342.238 145.139C342.059 145.185 341.88 145.276 341.727 145.345C341.062 145.687 340.525 146.258 340.295 146.943H340.244C340.295 146.577 340.448 146.235 340.678 145.893C340.908 145.573 341.215 145.299 341.548 145.071C341.727 144.957 341.905 144.866 342.11 144.797C342.315 144.729 342.519 144.66 342.698 144.615L343.849 144.295C344.616 144.09 345.408 143.884 346.201 143.679L348.553 143.108H348.579H348.604C348.962 143.108 349.295 143.177 349.601 143.291C349.908 143.428 350.189 143.61 350.368 143.861C350.752 144.364 350.829 144.957 350.803 145.505C350.777 146.052 350.624 146.6 350.394 147.125C350.164 147.65 349.883 148.129 349.499 148.586C348.758 149.476 347.709 150.229 346.405 150.457C346.329 150.48 346.252 150.48 346.175 150.503H345.92C345.766 150.526 345.587 150.503 345.434 150.48C345.101 150.435 344.795 150.343 344.513 150.229C344.232 150.115 343.951 149.978 343.695 149.795C343.44 149.636 343.209 149.453 342.979 149.248L343.005 149.202Z" fill="#F4A16B"/>
<path d="M361.695 165.633C360.953 165.815 360.237 165.93 359.496 166.044C358.754 166.135 358.013 166.203 357.272 166.249C356.53 166.295 355.789 166.318 355.047 166.318C354.306 166.318 353.564 166.272 352.797 166.181C353.539 165.998 354.255 165.884 354.996 165.77C355.737 165.678 356.479 165.61 357.22 165.564C357.962 165.519 358.703 165.496 359.445 165.496C360.186 165.519 360.928 165.542 361.695 165.633Z" fill="#F4A16B"/>
</g>
</g>
<defs>
<filter id="filter0_dd_1_750" x="0" y="0" width="384" height="214" filterUnits="userSpaceOnUse" color-interpolation-filters="sRGB">
<feFlood flood-opacity="0" result="BackgroundImageFix"/>
<feColorMatrix in="SourceAlpha" type="matrix" values="0 0 0 0 0 0 0 0 0 0 0 0 0 0 0 0 0 0 127 0" result="hardAlpha"/>
<feOffset dy="8"/>
<feGaussianBlur stdDeviation="8"/>
<feComposite in2="hardAlpha" operator="out"/>
<feColorMatrix type="matrix" values="0 0 0 0 0.105882 0 0 0 0 0.117647 0 0 0 0 0.141176 0 0 0 0.1 0"/>
<feBlend mode="normal" in2="BackgroundImageFix" result="effect1_dropShadow_1_750"/>
<feColorMatrix in="SourceAlpha" type="matrix" values="0 0 0 0 0 0 0 0 0 0 0 0 0 0 0 0 0 0 127 0" result="hardAlpha"/>
<feOffset/>
<feGaussianBlur stdDeviation="0.5"/>
<feComposite in2="hardAlpha" operator="out"/>
<feColorMatrix type="matrix" values="0 0 0 0 0.105882 0 0 0 0 0.117647 0 0 0 0 0.141176 0 0 0 0.31 0"/>
<feBlend mode="normal" in2="effect1_dropShadow_1_750" result="effect2_dropShadow_1_750"/>
<feBlend mode="normal" in="SourceGraphic" in2="effect2_dropShadow_1_750" result="shape"/>
</filter>
<clipPath id="clip0_1_750">
<rect x="16" y="8" width="352" height="182" rx="12" fill="white"/>
</clipPath>
</defs>
</svg>
