<svg width="384" height="214" viewBox="0 0 384 214" fill="none" xmlns="http://www.w3.org/2000/svg">
<g filter="url(#filter0_dd_2_351)">
<g clip-path="url(#clip0_2_351)">
<rect x="16" y="8" width="352" height="182" rx="12" fill="#E7F6FD"/>
<path d="M38.5476 -33.5222C43.5381 -51.0012 54.1291 -60.8631 64.4675 -64.2862C75.2919 -67.8702 81.765 -67.4861 99.6014 -57.5407C117.438 -47.5952 231.264 19.2702 237.727 23.4854C244.161 27.6859 256.303 37.6028 257.041 53.2095C257.779 68.8163 250.522 75.636 244.793 83.2256C239.063 90.8153 208.942 129.939 203.243 137.543C197.513 145.133 191.04 150.466 182.663 151.964C174.287 153.461 172.404 153.472 152.659 147.323C141.706 143.908 111.951 134.007 85.0345 124.688C80.889 123.263 77.8734 122.961 74.6808 128.361C72.168 132.629 69.0636 138.073 66.2983 143.209C65.1745 145.299 63.2153 146.119 61.539 145.718C58.8921 145.122 57.4532 143.954 55.3752 139.661C50.8386 130.367 45.1941 117.194 44.4045 115.321C43.2495 112.563 41.6254 109.125 36.8634 107.095C21.2107 100.426 14.8467 92.203 12.1997 86.1108C8.60214 77.806 8.81847 73.9311 11.8713 60.2344C14.9242 46.5378 38.5476 -33.5222 38.5476 -33.5222Z" fill="#DBF2FD"/>
<path d="M15.0938 -2.46976C16.3203 -18.6716 23.8194 -29.2143 32.2549 -34.0746C41.0869 -39.1633 46.8231 -39.9938 64.2263 -34.5018C81.6296 -29.0097 193.303 9.01236 199.719 11.5378C206.106 14.0556 218.519 20.549 221.971 34.0791C225.424 47.6092 220.296 54.8878 216.645 62.565C212.993 70.2422 193.657 109.923 190.034 117.608C186.383 125.285 181.674 131.121 174.61 133.942C167.546 136.762 165.899 137.111 147.508 135.287C137.305 134.271 109.476 130.966 84.2356 127.659C80.3502 127.159 77.6558 127.438 75.8317 132.742C74.399 136.93 72.66 142.256 71.1626 147.251C70.5544 149.283 68.9867 150.355 67.4469 150.305C65.0224 150.261 63.5528 149.498 60.9618 146.114C55.3191 138.795 48.0093 128.28 46.9813 126.782C45.4741 124.575 43.4343 121.859 38.9003 120.94C23.9979 117.923 16.948 111.871 13.5353 107.014C8.8927 100.392 8.38543 96.9607 8.59566 84.4195C8.80589 71.8782 15.0938 -2.46976 15.0938 -2.46976Z" fill="#C4E7F8"/>
<path d="M344.683 156.401C345.419 158.37 344.242 160.47 342.182 161.126C339.975 161.782 337.621 160.732 336.885 158.895C336.15 156.926 337.327 154.826 339.386 154.17C341.593 153.514 343.948 154.432 344.683 156.401Z" fill="#ACCFFF"/>
<path d="M322.908 170.45C323.643 172.419 322.466 174.519 320.406 175.175C318.199 175.831 315.845 174.781 315.11 172.944C314.374 170.975 315.551 168.875 317.611 168.219C319.818 167.432 322.172 168.482 322.908 170.45Z" fill="#C8DFFF"/>
<path d="M328.94 104.297C329.234 100.753 328.499 96.422 326.88 92.8783C326.88 92.8783 326.439 90.7783 325.703 89.9908C325.115 89.2033 323.055 88.4158 321.731 87.6284C320.406 86.8409 315.404 84.2159 310.843 82.7722C306.282 81.3284 297.454 78.966 292.451 81.4597C290.244 82.5097 291.863 85.7909 291.863 85.7909L309.666 89.0721L321.142 106.791L328.94 104.297Z" fill="#FBBEA2"/>
<path d="M329.823 110.338C328.204 106.663 326.144 102.988 324.085 99.4446C322.025 95.9009 319.523 92.4884 316.728 89.3385C316.728 89.3385 316.728 89.2072 316.581 89.2072C316.139 88.2885 315.551 87.3697 314.815 86.5822C314.374 86.1885 314.08 86.0572 313.491 85.926C312.903 85.7947 312.314 85.6635 311.725 85.5322C309.371 85.1385 306.87 84.876 304.516 84.6135C302.162 84.351 299.661 84.2198 297.307 84.0885C294.805 83.826 292.598 84.7448 290.391 85.6635C292.451 84.6135 294.805 83.6948 297.307 83.826C299.808 83.826 302.162 83.9573 304.663 84.0885C307.164 84.2198 309.518 84.351 312.02 84.7448C312.608 84.876 313.197 84.876 313.785 85.0073C314.08 85.1385 314.374 85.1385 314.815 85.2697C315.109 85.401 315.404 85.6635 315.698 85.7947C316.581 86.7135 317.169 87.6322 317.758 88.6822L317.611 88.551C320.701 91.5697 323.643 94.8509 325.997 98.2633C327.174 99.9696 328.351 101.807 329.528 103.513C330.705 105.351 331.735 107.057 332.765 108.894C333.207 109.682 332.765 110.469 332.03 110.863C331.294 111.388 330.264 111.126 329.823 110.338Z" fill="#B16739"/>
<path d="M329.381 107.582C327.763 104.169 325.85 101.019 323.79 97.8694C321.731 94.8507 319.818 91.7007 317.169 88.9445C317.169 88.9445 316.875 88.2882 316.287 87.632C315.845 86.9757 315.11 86.057 314.521 85.7945C313.638 85.4008 309.666 84.8758 305.546 84.482C301.426 84.0883 297.012 83.957 295.688 84.0883C294.217 84.2195 292.451 84.8758 290.539 85.7945C288.626 86.7132 286.566 87.8945 284.8 88.9445C283.035 90.1257 281.563 91.3069 280.386 92.3569C279.209 93.4069 279.209 94.4569 280.828 96.0319C282.446 97.6069 284.8 98.0006 287.007 97.2131C288.626 96.6881 289.95 95.9006 290.98 95.1131C292.01 94.3257 292.893 93.4069 293.481 92.8819C293.628 92.6194 293.923 92.6194 294.217 92.4882C294.511 92.4882 294.805 92.4882 294.952 92.6194C296.424 93.5382 298.042 94.1944 299.661 94.4569C301.279 94.7194 303.045 94.5882 304.957 94.1944C305.252 94.1944 305.399 94.1944 305.693 94.1944C305.987 94.3257 306.135 94.4569 306.282 94.5882C308.047 97.6069 309.96 100.494 312.167 103.119C314.374 105.744 316.728 108.369 319.229 110.732L324.673 109.025L329.381 107.582Z" fill="#FBBEA2"/>
<path d="M332.766 109.026C329.97 104.826 326.292 104.17 323.644 102.726C319.23 100.364 310.255 94.7199 306.282 94.0636C302.457 93.4074 293.334 96.5574 288.773 98.9198C292.599 97.7386 300.25 94.1949 305.105 95.3761C306.871 95.7699 308.636 96.5574 310.255 97.3449C314.374 99.3136 318.2 101.545 322.467 103.907C325.851 105.876 331.589 106.532 332.619 111.126L332.766 109.026Z" fill="#B16739"/>
<path d="M286.86 97.2095C288.626 96.6845 290.097 95.6345 291.422 94.4533C292.01 93.9283 292.599 93.272 293.187 92.6158C293.481 92.2221 294.217 92.0908 294.658 92.3533C295.1 92.6158 295.394 92.747 295.835 93.0095C297.454 93.797 299.22 94.1908 300.985 94.1908C301.868 94.1908 302.751 93.9283 303.486 93.797L304.075 93.6658L304.369 93.5345C304.516 93.5345 304.811 93.4033 304.958 93.4033C305.399 93.4033 305.84 93.5345 306.135 93.797C306.429 94.0595 306.723 94.4533 306.723 94.5845C308.342 97.472 310.254 100.228 312.314 102.984C314.374 105.609 316.728 108.234 319.082 110.728C319.229 110.859 319.229 111.122 319.082 111.384C318.935 111.516 318.641 111.516 318.494 111.384C315.845 109.153 313.344 106.659 311.137 103.903C308.93 101.278 306.87 98.3907 305.105 95.5033C304.958 95.2408 304.958 95.372 304.958 95.2408C304.958 95.2408 304.958 95.2408 304.811 95.2408L304.516 95.372C304.222 95.372 304.075 95.5033 303.781 95.5033C302.751 95.6345 301.868 95.6345 300.838 95.5033C298.925 95.2408 297.013 94.7158 295.394 93.797C294.953 93.5345 294.511 93.272 294.217 93.1408C293.923 93.0095 293.481 93.0095 293.187 93.272C292.599 93.9283 292.01 94.4533 291.274 95.1095C290.244 95.7658 288.626 96.6845 286.86 97.2095Z" fill="#B16739"/>
<path d="M349.097 226.493L368.077 220.455L387.057 214.418C387.057 214.418 371.02 192.105 360.574 180.031C350.274 167.956 339.828 155.618 339.387 154.831C338.798 154.043 337.768 151.943 336.591 149.45C335.414 146.956 334.531 144.069 334.09 141.837C333.796 139.606 333.501 132.912 333.354 126.744C333.207 120.575 333.06 114.8 333.207 114.538C333.207 114.275 333.501 113.75 333.648 112.963C333.796 112.175 333.648 111.125 333.06 109.681C332.471 108.238 330.559 107.057 328.793 106.138C327.027 105.219 325.115 104.563 324.526 104.432C323.938 104.3 320.259 102.069 315.993 99.8379C311.726 97.6066 306.87 95.2442 304.075 95.1129C301.279 94.8504 297.16 95.9004 293.629 97.2129C290.097 98.5254 286.86 100.1 285.978 100.888C284.948 101.675 282.741 104.3 280.534 106.925C278.474 109.55 276.561 112.044 276.561 112.306C276.561 112.569 277.003 113.225 277.591 113.75C278.18 114.275 279.21 114.8 279.945 114.931C280.828 115.063 281.858 115.063 282.888 114.8C283.918 114.538 285.095 114.013 286.272 112.963C287.155 112.175 288.038 111.125 288.92 110.206C289.803 109.156 290.539 108.238 291.127 107.582C291.274 107.319 291.569 107.188 291.863 107.188C292.157 107.057 292.451 107.057 292.746 107.188C293.923 107.45 295.1 107.45 296.13 107.319C297.307 107.188 298.484 106.794 299.514 106.269C299.808 106.138 300.102 106.138 300.397 106.138C300.691 106.138 300.985 106.4 301.132 106.663C302.015 107.844 303.339 108.894 304.811 109.813C306.282 110.6 308.047 111.256 309.96 111.781C310.254 111.781 310.402 111.913 310.549 112.044C310.696 112.175 310.843 112.438 310.843 112.569C311.432 114.275 312.02 115.981 312.609 117.294C313.197 118.606 313.638 119.788 314.08 120.575C314.227 120.969 314.374 121.363 314.227 121.756C314.227 122.15 313.933 122.544 313.638 122.806C311.873 124.644 309.96 126.219 307.753 127.663C305.693 129.106 303.339 130.287 300.838 131.075C300.544 131.206 300.102 131.206 299.661 131.206C299.22 131.206 298.925 131.075 298.631 130.812C297.454 130.025 295.541 128.713 293.629 127.4C291.716 126.088 289.95 124.906 289.067 124.25C288.92 124.119 288.773 123.988 288.626 123.725C288.479 123.594 288.332 123.331 288.332 123.069C288.038 122.15 287.449 120.313 286.272 118.606C285.095 116.9 283.182 115.194 280.534 114.538C278.474 114.013 276.856 114.538 275.826 115.325C274.649 116.113 274.06 117.163 274.06 117.688C274.06 118.344 274.501 119.788 275.09 120.969C275.531 122.15 276.12 123.2 276.12 123.2C276.12 123.2 276.561 125.038 277.297 127.138C278.033 129.238 278.915 131.6 279.945 132.65C280.681 133.437 282.888 135.406 285.536 137.375C288.185 139.475 291.127 141.706 293.629 143.281C296.13 144.856 299.808 147.35 304.075 151.025C308.342 154.7 313.05 159.687 317.464 166.381C321.731 172.943 349.097 226.493 349.097 226.493Z" fill="#FBBEA2"/>
<path d="M336.002 197.485C330.853 188.166 325.703 178.847 320.406 169.66C317.758 164.935 314.374 160.604 310.549 156.666C306.723 152.598 302.456 149.054 297.895 145.904C295.541 144.329 293.187 142.885 290.98 141.179C288.773 139.473 286.566 137.767 284.359 136.06C283.329 135.142 282.299 134.354 281.269 133.436C280.828 132.911 280.239 132.517 279.945 131.992C279.651 131.467 279.21 130.942 279.062 130.286C278.474 129.104 278.032 127.923 277.591 126.611L276.414 122.936C275.825 121.623 275.09 120.311 274.648 118.998C274.354 118.342 274.207 117.686 274.501 117.029C274.796 116.373 275.384 115.848 275.973 115.323C275.384 115.717 274.796 116.242 274.354 116.898C274.207 117.161 274.06 117.554 274.06 117.948C274.06 118.342 274.207 118.736 274.207 118.998C274.648 120.442 275.237 121.754 275.826 123.067C276.561 125.561 277.15 128.186 278.327 130.548C278.621 131.204 278.915 131.729 279.357 132.386C279.798 133.042 280.387 133.436 280.828 133.961C281.858 134.879 282.888 135.798 284.065 136.717C286.272 138.423 288.479 140.129 290.686 141.704C293.04 143.279 295.394 144.854 297.601 146.429C306.723 152.86 313.933 161.26 318.788 170.579C323.643 179.897 328.352 189.479 333.06 198.928L347.184 227.278L351.451 225.966L336.002 197.485Z" fill="#B16739"/>
<path d="M291.569 107.054C292.01 106.922 292.452 106.922 292.746 107.054C293.187 107.054 293.482 107.185 293.923 107.185C294.659 107.185 295.541 107.054 296.277 106.922C297.013 106.791 297.748 106.529 298.484 106.135L299.073 105.872C299.367 105.741 299.661 105.741 299.808 105.741C300.397 105.741 300.985 106.004 301.28 106.397C302.162 107.579 303.339 108.497 304.664 109.285C305.988 110.072 307.459 110.729 308.93 111.254C309.372 111.385 309.666 111.385 310.107 111.647C310.549 111.91 310.843 112.304 310.843 112.697L311.432 114.797L312.167 116.897C312.462 117.554 312.756 118.21 313.05 118.997C313.344 119.654 313.786 120.31 313.933 121.097C314.08 121.885 313.639 122.541 313.05 123.066C312.02 124.247 310.843 125.297 309.666 126.216C307.312 128.185 304.516 130.022 301.427 131.335L300.838 131.597C300.691 131.728 300.397 131.728 300.102 131.86C299.514 131.991 299.073 131.86 298.484 131.728C298.19 131.597 298.043 131.466 297.748 131.335L297.307 131.072L296.277 130.416C294.953 129.497 293.629 128.578 292.452 127.66C291.275 126.61 289.95 125.691 288.773 124.772C288.479 124.51 288.038 124.247 287.891 123.853C287.743 123.46 287.596 123.066 287.596 122.804C287.449 122.147 287.155 121.36 286.861 120.704C285.684 118.079 283.329 115.585 280.24 114.797C280.24 114.797 280.093 114.797 280.093 114.666C280.093 114.535 280.092 114.535 280.24 114.535C281.858 114.929 283.329 115.716 284.506 116.766C285.684 117.816 286.566 119.129 287.302 120.441C287.596 121.097 287.891 121.754 288.185 122.541C288.332 122.935 288.332 123.328 288.626 123.591C288.773 123.853 289.068 124.116 289.362 124.247C290.686 125.035 292.01 125.953 293.482 126.741C294.806 127.528 296.277 128.316 297.454 129.235L298.484 129.891L298.925 130.285C299.073 130.416 299.22 130.416 299.367 130.547C299.661 130.678 299.955 130.678 300.25 130.678C300.544 130.678 300.838 130.547 301.28 130.416C304.369 129.366 307.165 127.922 309.666 126.085C310.99 125.166 312.167 124.116 313.344 123.066C313.933 122.541 314.374 121.885 314.227 121.097C314.08 120.441 313.639 119.785 313.344 118.997C313.05 118.341 312.609 117.685 312.462 117.029L311.579 114.929L310.696 112.829C310.549 112.435 310.402 112.304 310.107 112.172C309.813 112.041 309.372 112.041 308.93 111.91C307.312 111.516 305.693 111.122 304.222 110.204C302.751 109.416 301.574 108.235 300.544 106.922C300.397 106.791 300.102 106.66 299.955 106.529C299.808 106.529 299.661 106.529 299.514 106.529L298.925 106.791C298.19 107.054 297.307 107.316 296.424 107.447C295.541 107.579 294.659 107.579 293.923 107.447C293.482 107.447 293.04 107.316 292.746 107.185C292.452 107.054 292.01 106.922 291.569 107.054Z" fill="#B16739"/>
<path d="M276.414 112.041C276.414 111.779 278.18 109.416 280.093 107.054C282.741 108.366 285.242 109.547 287.743 111.122C287.155 111.779 286.713 112.304 286.125 112.697C285.095 113.747 283.918 114.272 282.741 114.535C282.447 114.666 282.005 114.666 281.711 114.666C280.975 114.666 280.387 114.666 279.798 114.535C279.21 114.404 278.768 114.272 278.327 114.01C278.033 113.879 277.738 113.616 277.444 113.354C276.856 112.96 276.414 112.435 276.414 112.041Z" fill="#FBBEA2"/>
<path d="M278.768 109.943C277.738 111.255 275.825 113.224 275.531 113.093C275.237 112.961 276.561 110.73 277.738 109.286C278.768 107.974 279.798 107.58 279.798 107.58C280.092 107.843 279.798 108.63 278.768 109.943Z" fill="#FFF9F2"/>
<path d="M297.748 81.7236C294.806 81.8548 290.539 81.9861 290.539 81.4611C290.539 81.0673 294.806 80.1486 297.601 80.0174C300.544 79.8861 301.721 80.5423 301.721 80.5423C301.721 81.0673 300.544 81.5923 297.748 81.7236Z" fill="#FFF9F2"/>
<path d="M283.77 91.3054C281.711 92.8804 278.915 94.9804 278.474 94.5866C278.032 94.1929 280.386 91.5679 282.446 89.993C284.506 88.418 285.683 88.418 285.683 88.418C286.125 88.6805 285.83 89.7305 283.77 91.3054Z" fill="#FFF9F2"/>
<path d="M276.12 121.755C275.678 121.886 274.354 118.605 274.06 117.555C273.913 116.899 273.324 114.536 274.943 113.617C277.444 112.305 279.945 115.192 280.681 117.555C280.828 118.08 280.681 118.605 280.092 118.999C278.327 120.049 276.561 121.624 276.12 121.755Z" fill="#FFF9F2"/>
<path d="M323.937 174.255C324.673 176.224 323.496 178.324 321.436 178.98C319.229 179.636 316.875 178.586 316.139 176.749C315.404 174.78 316.581 172.68 318.641 172.024C320.7 171.236 323.202 172.286 323.937 174.255Z" fill="#71A9F7"/>
<path d="M322.613 177.406C320.406 178.062 318.052 177.012 317.317 175.175C317.022 174.256 317.022 173.337 317.317 172.55C315.992 173.469 315.404 175.175 315.992 176.619C316.728 178.587 319.082 179.637 321.289 178.85C322.466 178.456 323.349 177.669 323.79 176.619C323.496 177.012 323.055 177.275 322.613 177.406Z" fill="#C8DFFF"/>
<path d="M330.853 172.418C331.589 174.387 330.411 176.487 328.352 177.143C326.145 177.799 323.79 176.749 323.055 174.912C322.319 173.074 323.496 170.843 325.556 170.187C327.763 169.53 330.117 170.449 330.853 172.418Z" fill="#71A9F7"/>
<path d="M329.528 175.694C327.321 176.35 324.967 175.3 324.232 173.463C323.937 172.544 323.937 171.625 324.232 170.838C322.907 171.757 322.319 173.463 322.907 174.907C323.643 176.875 325.997 177.925 328.204 177.138C329.381 176.744 330.264 175.957 330.705 174.907C330.411 175.3 330.117 175.563 329.528 175.694Z" fill="#C8DFFF"/>
<path d="M337.327 169.136C338.062 171.105 336.885 173.205 334.825 173.861C332.618 174.518 330.264 173.468 329.529 171.63C328.793 169.661 329.97 167.561 332.03 166.905C334.09 166.249 336.591 167.168 337.327 169.136Z" fill="#71A9F7"/>
<path d="M336.002 172.413C333.795 173.069 331.441 172.019 330.706 170.181C330.411 169.263 330.411 168.344 330.706 167.556C329.381 168.475 328.793 170.181 329.381 171.625C330.117 173.594 332.471 174.644 334.678 173.856C335.855 173.463 336.738 172.675 337.179 171.625C336.885 172.019 336.444 172.281 336.002 172.413Z" fill="#C8DFFF"/>
<path d="M343.212 164.539C343.948 166.508 342.771 168.608 340.711 169.264C338.504 169.92 336.15 168.87 335.414 167.033C334.678 165.064 335.855 162.964 337.915 162.308C339.975 161.651 342.329 162.701 343.212 164.539Z" fill="#71A9F7"/>
<path d="M341.888 167.824C339.681 168.48 337.327 167.43 336.591 165.593C336.297 164.674 336.297 163.755 336.591 162.968C335.267 163.887 334.678 165.593 335.267 167.037C336.002 169.005 338.356 170.055 340.563 169.268C341.74 168.874 342.623 168.087 343.065 167.037C342.77 167.43 342.329 167.693 341.888 167.824Z" fill="#C8DFFF"/>
<path d="M348.067 159.026C348.803 160.995 347.626 163.095 345.566 163.751C343.359 164.407 341.005 163.357 340.269 161.52C339.534 159.551 340.711 157.451 342.771 156.795C344.978 156.139 347.332 157.057 348.067 159.026Z" fill="#71A9F7"/>
<path d="M346.743 162.312C344.536 162.968 342.182 161.919 341.446 160.081C341.152 159.162 341.152 158.244 341.446 157.456C340.122 158.375 339.534 160.081 340.122 161.525C340.858 163.493 343.212 164.543 345.419 163.756C346.596 163.362 347.479 162.575 347.92 161.525C347.773 161.918 347.332 162.181 346.743 162.312Z" fill="#C8DFFF"/>
</g>
</g>
<defs>
<filter id="filter0_dd_2_351" x="0" y="0" width="384" height="214" filterUnits="userSpaceOnUse" color-interpolation-filters="sRGB">
<feFlood flood-opacity="0" result="BackgroundImageFix"/>
<feColorMatrix in="SourceAlpha" type="matrix" values="0 0 0 0 0 0 0 0 0 0 0 0 0 0 0 0 0 0 127 0" result="hardAlpha"/>
<feOffset dy="8"/>
<feGaussianBlur stdDeviation="8"/>
<feComposite in2="hardAlpha" operator="out"/>
<feColorMatrix type="matrix" values="0 0 0 0 0.105882 0 0 0 0 0.117647 0 0 0 0 0.141176 0 0 0 0.1 0"/>
<feBlend mode="normal" in2="BackgroundImageFix" result="effect1_dropShadow_2_351"/>
<feColorMatrix in="SourceAlpha" type="matrix" values="0 0 0 0 0 0 0 0 0 0 0 0 0 0 0 0 0 0 127 0" result="hardAlpha"/>
<feOffset/>
<feGaussianBlur stdDeviation="0.5"/>
<feComposite in2="hardAlpha" operator="out"/>
<feColorMatrix type="matrix" values="0 0 0 0 0.105882 0 0 0 0 0.117647 0 0 0 0 0.141176 0 0 0 0.31 0"/>
<feBlend mode="normal" in2="effect1_dropShadow_2_351" result="effect2_dropShadow_2_351"/>
<feBlend mode="normal" in="SourceGraphic" in2="effect2_dropShadow_2_351" result="shape"/>
</filter>
<clipPath id="clip0_2_351">
<rect x="16" y="8" width="352" height="182" rx="12" fill="white"/>
</clipPath>
</defs>
</svg>
