<svg width="361" height="87" viewBox="0 0 361 87" fill="none" xmlns="http://www.w3.org/2000/svg">
<path fill-rule="evenodd" clip-rule="evenodd" d="M11.3233 16.4661C11.3233 19.5473 14.3424 21.155 20.9297 23.8343C27.6543 26.6477 36.8491 30.5327 36.8491 40.5803C36.8491 45.2692 34.7905 49.4222 30.9479 52.2355C27.7915 54.647 23.5372 55.9867 19.1457 55.9867C9.95091 55.9867 2.81466 51.0298 0.0699446 42.8578C-0.204527 41.786 0.344416 40.7143 1.4423 40.4464L7.20619 39.2407C8.16684 38.9727 9.1275 39.5086 9.40197 40.4464C10.4999 43.5276 13.1073 46.6089 19.0085 46.6089C21.7532 46.6089 26.9681 45.4032 26.9681 40.5803C26.9681 37.0972 23.8117 35.3556 16.9499 32.5422C10.4999 29.8629 1.57953 26.1118 1.57953 16.4661C1.57953 10.4375 6.38279 0.925781 19.0085 0.925781C27.1054 0.925781 33.281 4.40895 36.8491 10.9734C37.398 11.9112 36.9863 13.1169 35.8884 13.6527L30.5362 15.9302C29.5756 16.3321 28.6149 15.9302 28.066 15.1264C26.1447 11.9112 23.2628 10.4375 19.0085 10.4375C11.4605 10.3036 11.3233 16.3321 11.3233 16.4661ZM79.9418 51.4282V52.9019C79.9418 53.7057 79.3929 54.2416 78.5694 54.2416H77.3343H76.7854H76.7853C76.5109 54.2416 76.2364 54.2416 75.962 54.1076H75.6875C75.5503 54.1076 75.4473 54.0741 75.3444 54.0406C75.2415 54.0071 75.1386 53.9736 75.0013 53.9736C73.629 53.5717 72.3939 52.7679 71.5704 51.5622C68.1395 53.7057 64.4342 54.9114 60.0426 54.9114C47.9659 54.9114 41.2414 46.0695 41.2414 36.9597C41.2414 28.2518 47.417 19.1419 60.0426 19.1419C64.7086 19.1419 67.8651 20.4816 70.0608 22.7591V21.1514C70.0608 20.2137 71.0215 19.6778 72.9428 19.6778H77.1971C78.8439 19.6778 79.9418 20.6156 79.9418 22.4911V51.4282ZM70.747 36.9597C70.747 28.5197 63.6108 27.314 60.4543 27.314C54.416 27.314 51.1223 32.1368 51.1223 36.9597C51.1223 41.6486 54.2788 46.4714 60.5916 46.4714C64.1597 46.4714 70.747 44.9978 70.747 36.9597ZM142.661 51.2968V36.4263C142.661 27.0485 138.132 18.8765 127.976 18.7425C122.624 18.7425 119.468 21.02 116.311 24.6371C114.116 21.154 109.999 18.7425 104.509 18.7425C100.941 18.7425 98.4707 19.8143 96.0005 21.6898C96.0005 20.3501 94.9026 19.6803 93.1185 19.6803H88.8642C86.9429 19.6803 85.9823 20.7521 85.9823 22.4936V51.2968C85.9823 53.1723 87.0802 54.1101 88.8642 54.1101H93.1185C95.0398 54.1101 96.0005 53.0384 96.0005 51.2968V36.4263C96.4122 30.6657 100.392 27.1825 104.097 27.1825C107.803 27.1825 109.45 30.6657 109.45 37.0961V51.2968C109.45 53.1723 110.547 54.1101 112.332 54.1101H116.449C118.37 54.1101 119.331 53.0384 119.331 51.2968V36.4263C119.742 30.6657 123.722 27.1825 127.427 27.1825C131.133 27.1825 132.78 30.6657 132.78 37.0961V51.2968C132.78 53.1723 133.878 54.1101 135.662 54.1101H139.779C141.7 54.1101 142.661 53.0384 142.661 51.2968ZM187.811 51.4282V52.9019C187.811 53.7057 187.262 54.2416 186.439 54.2416H185.066H184.517C184.243 54.2416 183.968 54.2416 183.694 54.1076H183.419C183.282 54.1076 183.179 54.0741 183.076 54.0406C182.973 54.0071 182.87 53.9736 182.733 53.9736C181.361 53.5717 180.126 52.7679 179.302 51.5622C175.871 53.7057 172.166 54.9114 167.775 54.9114C155.698 54.9114 148.973 46.0695 148.973 36.9597C148.973 28.2518 155.149 19.1419 167.775 19.1419C172.441 19.1419 175.597 20.4816 177.793 22.7591V21.1514C177.793 20.2137 178.753 19.6778 180.675 19.6778H184.929C186.713 19.6778 187.811 20.6156 187.811 22.4911V51.4282ZM178.616 36.9597C178.616 28.5197 171.48 27.314 168.323 27.314C162.285 27.314 158.991 32.1368 158.991 36.9597C158.991 41.6486 162.148 46.4714 168.461 46.4714C172.029 46.4714 178.616 44.9978 178.616 36.9597ZM219.101 28.922L221.983 26.2426C223.218 25.0369 223.492 23.6972 222.12 22.3576C220.061 20.348 216.493 19.2763 213.611 19.2763C210.043 19.2763 206.749 21.0179 204.005 23.4293V22.4915C204.005 20.616 203.044 19.6782 201.26 19.6782H197.006C195.222 19.6782 194.261 20.7499 194.261 22.4915V51.4286C194.261 53.3042 195.222 54.242 197.006 54.242H201.26C203.044 54.242 204.005 53.1702 204.005 51.4286V38.2998C204.005 29.7258 207.024 27.3144 210.867 27.3144C212.651 27.3144 213.748 27.8502 215.121 28.788C216.081 29.5918 217.454 30.5296 219.101 28.922ZM229.393 7.48835C229.393 4.00518 232.275 1.32581 235.706 1.32581C239.137 1.32581 241.882 4.00518 241.882 7.48835C241.882 10.9715 239.137 13.6509 235.706 13.6509C232.275 13.6509 229.393 10.9715 229.393 7.48835ZM240.646 22.4928V51.4299C240.646 53.1715 239.686 54.2432 237.764 54.2432H233.51C231.726 54.2432 230.628 53.3054 230.628 51.4299V22.4928C230.628 20.7512 231.589 19.6794 233.51 19.6794H237.764C239.686 19.6794 240.646 20.6172 240.646 22.4928ZM273.447 26.6415V23.8281C273.447 21.9526 272.486 21.0148 270.428 21.0148H264.938V7.75196C264.938 5.74244 263.566 4.80467 261.645 5.47451L257.39 6.94814C255.744 7.48401 255.057 8.4218 255.057 10.0294V21.0148H250.94C249.019 21.0148 248.058 22.0865 248.058 23.8281V26.6415C248.058 28.517 249.156 29.4548 250.94 29.4548H255.057V51.4256C255.057 53.3011 256.155 54.2389 257.939 54.2389H262.194C264.115 54.2389 265.076 53.1671 265.076 51.4256V29.4548H270.565C272.486 29.4548 273.447 28.383 273.447 26.6415ZM318.595 51.4282V52.9019C318.595 53.7057 318.046 54.2416 317.223 54.2416H315.987H315.438C315.164 54.2416 314.89 54.2416 314.615 54.1076H314.341C314.203 54.1076 314.1 54.0741 313.998 54.0406C313.895 54.0071 313.792 53.9736 313.654 53.9736C312.282 53.5717 311.047 52.7679 310.224 51.5622C306.793 53.7057 303.087 54.9114 298.696 54.9114C286.619 54.9114 279.894 46.0695 279.894 36.9597C279.894 28.2518 286.07 19.1419 298.696 19.1419C303.362 19.1419 306.518 20.4816 308.714 22.7591V21.1514C308.714 20.2137 309.675 19.6778 311.596 19.6778H315.85C317.634 19.6778 318.595 20.6156 318.595 22.4911V51.4282ZM309.537 36.9597C309.537 28.5197 302.401 27.314 299.245 27.314C293.206 27.314 289.913 32.1368 289.913 36.9597C289.913 41.6486 293.069 46.4714 299.382 46.4714C302.813 46.4714 309.537 44.9978 309.537 36.9597ZM360.999 51.2972V36.4267C360.999 27.0489 356.47 18.8769 346.04 18.8769C341.237 18.8769 337.943 20.6185 334.787 23.5658V22.494C334.787 20.6185 333.826 19.6807 332.042 19.6807H327.788C325.867 19.6807 324.906 20.7525 324.906 22.494V51.2972C324.906 53.1727 326.004 54.1105 327.788 54.1105H332.042C333.826 54.1105 334.787 53.0388 334.787 51.2972V39.7759C334.787 30.934 340.276 27.1829 344.805 27.1829C349.471 27.1829 350.981 31.202 350.981 37.0965V51.2972C350.981 53.1727 352.079 54.1105 353.863 54.1105H358.117C360.038 54.1105 360.999 53.0388 360.999 51.2972Z" fill="#594740"/>
<path d="M5.54688 82.1348C4.375 82.1348 3.4375 81.5801 2.92188 80.6426H2.79688V81.9863H1.4375V70.2207H2.79688V74.8926H2.92188C3.38281 73.9941 4.39062 73.416 5.54688 73.416C7.6875 73.416 9.07812 75.127 9.07812 77.7676V77.7832C9.07812 80.4082 7.67969 82.1348 5.54688 82.1348ZM5.23438 80.9316C6.77344 80.9316 7.6875 79.7441 7.6875 77.7832V77.7676C7.6875 75.8066 6.77344 74.6191 5.23438 74.6191C3.70312 74.6191 2.76562 75.8223 2.76562 77.7676V77.7832C2.76562 79.7285 3.70312 80.9316 5.23438 80.9316ZM11.5938 84.9395C11.4141 84.9395 11.1797 84.9238 10.9922 84.8926V83.7754C11.1562 83.8066 11.3672 83.8145 11.5547 83.8145C12.3281 83.8145 12.7969 83.4629 13.1016 82.4941L13.2578 81.9941L10.1406 73.5645H11.5938L13.9062 80.4941H14.0312L16.3359 73.5645H17.7656L14.4766 82.502C13.7812 84.3926 13.0859 84.9395 11.5938 84.9395ZM24.2344 81.9863V70.7129H28.5391C30.7109 70.7129 32.1328 72.041 32.1328 74.0645V74.0801C32.1328 75.6426 31.2812 76.8613 29.8672 77.3066L32.4766 81.9863H30.8281L28.4141 77.5254H25.6406V81.9863H24.2344ZM25.6406 76.2754H28.4141C29.8594 76.2754 30.6797 75.502 30.6797 74.127V74.1113C30.6797 72.7676 29.8047 71.9629 28.3516 71.9629H25.6406V76.2754ZM37.7188 82.1348C35.3125 82.1348 33.8594 80.4473 33.8594 77.8066V77.7988C33.8594 75.1973 35.3438 73.416 37.6328 73.416C39.9219 73.416 41.3125 75.1191 41.3125 77.6348V78.166H35.25C35.2891 79.9082 36.25 80.9238 37.75 80.9238C38.8906 80.9238 39.5938 80.3848 39.8203 79.877L39.8516 79.8066H41.2109L41.1953 79.8691C40.9062 81.0098 39.7031 82.1348 37.7188 82.1348ZM37.625 74.627C36.375 74.627 35.4219 75.4785 35.2734 77.0801H39.9297C39.7891 75.416 38.8672 74.627 37.625 74.627ZM43.5 81.9863V70.2207H44.8594V74.8301H44.9844C45.4062 73.9395 46.1953 73.416 47.4375 73.416C49.3281 73.416 50.3828 74.5332 50.3828 76.5332V81.9863H49.0234V76.8613C49.0234 75.3457 48.3984 74.6191 47.0547 74.6191C45.7109 74.6191 44.8594 75.5254 44.8594 77.002V81.9863H43.5ZM55.1562 82.1348C53.5547 82.1348 52.3438 81.166 52.3438 79.6348V79.6191C52.3438 78.1191 53.4531 77.252 55.4141 77.1348L57.8281 76.9863V76.2207C57.8281 75.1816 57.1953 74.6191 55.9375 74.6191C54.9297 74.6191 54.2656 74.9941 54.0469 75.6504L54.0391 75.6738H52.6797L52.6875 75.627C52.9062 74.3066 54.1875 73.416 55.9844 73.416C58.0391 73.416 59.1875 74.4707 59.1875 76.2207V81.9863H57.8281V80.7441H57.7031C57.1719 81.6426 56.2891 82.1348 55.1562 82.1348ZM53.7344 79.6035C53.7344 80.4551 54.4609 80.9551 55.4375 80.9551C56.8203 80.9551 57.8281 80.0488 57.8281 78.8457V78.0801L55.5781 78.2207C54.2969 78.2988 53.7344 78.752 53.7344 79.5879V79.6035ZM61.6719 81.9863V73.5645H63.0312V74.8301H63.1562C63.5781 73.9395 64.3672 73.416 65.6094 73.416C67.5 73.416 68.5547 74.5332 68.5547 76.5332V81.9863H67.1953V76.8613C67.1953 75.3457 66.5703 74.6191 65.2266 74.6191C63.8828 74.6191 63.0312 75.5254 63.0312 77.002V81.9863H61.6719ZM75.6875 81.9863V70.7129H77.3203L81.1797 80.1191H81.3047L85.1641 70.7129H86.7969V81.9863H85.4844V73.377H85.3984L81.8359 81.9863H80.6484L77.0859 73.377H77V81.9863H75.6875ZM92.9609 82.1348C90.5625 82.1348 89.0781 80.4785 89.0781 77.7832V77.7676C89.0781 75.0645 90.5625 73.416 92.9609 73.416C95.3594 73.416 96.8438 75.0645 96.8438 77.7676V77.7832C96.8438 80.4785 95.3594 82.1348 92.9609 82.1348ZM92.9609 80.9316C94.5547 80.9316 95.4531 79.7676 95.4531 77.7832V77.7676C95.4531 75.7754 94.5547 74.6191 92.9609 74.6191C91.3672 74.6191 90.4688 75.7754 90.4688 77.7676V77.7832C90.4688 79.7676 91.3672 80.9316 92.9609 80.9316ZM98.9531 81.9863V73.5645H100.312V74.8457H100.438C100.812 73.9395 101.609 73.416 102.711 73.416C103.852 73.416 104.648 74.0176 105.039 74.8926H105.164C105.617 74.002 106.578 73.416 107.742 73.416C109.461 73.416 110.422 74.4004 110.422 76.166V81.9863H109.062V76.4785C109.062 75.2363 108.492 74.6191 107.305 74.6191C106.133 74.6191 105.359 75.502 105.359 76.5723V81.9863H104V76.2676C104 75.2676 103.312 74.6191 102.25 74.6191C101.148 74.6191 100.312 75.5801 100.312 76.7676V81.9863H98.9531ZM113.594 71.9395C113.078 71.9395 112.656 71.5176 112.656 71.002C112.656 70.4863 113.078 70.0645 113.594 70.0645C114.109 70.0645 114.531 70.4863 114.531 71.002C114.531 71.5176 114.109 71.9395 113.594 71.9395ZM112.906 81.9863V73.5645H114.266V81.9863H112.906ZM116.828 81.9863V73.5645H118.188V74.8301H118.312C118.734 73.9395 119.523 73.416 120.766 73.416C122.656 73.416 123.711 74.5332 123.711 76.5332V81.9863H122.352V76.8613C122.352 75.3457 121.727 74.6191 120.383 74.6191C119.039 74.6191 118.188 75.5254 118.188 77.002V81.9863H116.828Z" fill="#828282"/>
</svg>
