<svg width="25" height="25" viewBox="0 0 25 25" fill="none" xmlns="http://www.w3.org/2000/svg">
<path opacity="0.3" d="M18.9856 16.1679L14.0856 21.6079C13.9476 21.7635 13.7783 21.888 13.5887 21.9733C13.3991 22.0586 13.1935 22.1027 12.9856 22.1027C12.7777 22.1027 12.5721 22.0586 12.3825 21.9733C12.1929 21.888 12.0235 21.7635 11.8856 21.6079L6.98558 16.1679C6.21037 15.3105 5.63016 14.2953 5.2849 13.1922C4.93964 12.0891 4.83752 10.9242 4.98558 9.77788C5.17175 8.55448 5.6392 7.39095 6.35116 6.37879C7.06313 5.36662 8.00019 4.53343 9.08867 3.94472C10.1772 3.35601 11.3874 3.02784 12.6241 2.98602C13.8609 2.94419 15.0905 3.18986 16.2163 3.70369C17.3421 4.21752 18.3333 4.9855 19.112 5.94726C19.8907 6.90901 20.4357 8.0383 20.7041 9.24633C20.9725 10.4544 20.957 11.7082 20.6588 12.9092C20.3606 14.1102 19.7878 15.2257 18.9856 16.1679Z" fill="black"/>
<path d="M13.6056 6.29781C13.4257 6.16617 13.2085 6.09521 12.9856 6.09521C12.7627 6.09521 12.5455 6.16617 12.3656 6.29781L9.9856 8.08781C9.67453 8.32013 9.4221 8.62198 9.24847 8.96924C9.07484 9.3165 8.98482 9.69956 8.9856 10.0878V12.8378C8.9856 13.103 9.09096 13.3574 9.27849 13.5449C9.46603 13.7324 9.72038 13.8378 9.9856 13.8378H11.9856V10.8378C11.9856 10.5726 12.091 10.3182 12.2785 10.1307C12.466 9.94316 12.7204 9.83781 12.9856 9.83781C13.2508 9.83781 13.5052 9.94316 13.6927 10.1307C13.8802 10.3182 13.9856 10.5726 13.9856 10.8378V13.8378H15.9856C16.2508 13.8378 16.5052 13.7324 16.6927 13.5449C16.8802 13.3574 16.9856 13.103 16.9856 12.8378V10.0878C16.9864 9.69956 16.8964 9.3165 16.7227 8.96924C16.5491 8.62198 16.2967 8.32013 15.9856 8.08781L13.6056 6.29781Z" fill="black"/>
</svg>
