<svg width="81" height="81" viewBox="0 0 81 81" fill="none" xmlns="http://www.w3.org/2000/svg">
<path d="M40.8322 80.5302C62.9815 80.5302 80.9222 62.5746 80.9222 40.4402C80.9222 18.3057 62.9545 0.350159 40.8322 0.350159C18.6829 0.350159 0.742218 18.3057 0.742218 40.4402C0.715239 62.5746 18.6829 80.5302 40.8322 80.5302Z" fill="url(#paint0_linear_4297_5398)"/>
<path d="M66.0579 28.7664C63.3331 23.4552 55.2125 21.3253 49.628 25.3424C44.0435 29.3595 38.1622 35.5873 37.2179 47.369C36.2737 59.1507 42.4787 65.055 42.4787 65.055C42.5327 65.1089 42.5596 65.1628 42.6136 65.2167C42.7215 62.7633 43.2611 59.7977 44.556 56.1311C45.2575 53.8934 45.9859 52.1679 46.8222 50.8199C46.8222 50.8199 46.8222 50.8199 46.8222 50.793C49.0884 47.8273 53.6748 45.8323 56.9392 44.7538C58.369 44.2686 60.7161 43.5406 62.3348 42.7318C67.2449 40.3054 68.7557 34.0506 66.0579 28.7664Z" fill="url(#paint1_linear_4297_5398)"/>
<path d="M26.5322 19.7077C20.8398 18.3867 16.4962 22.0263 15.8487 25.4772C14.6077 31.9747 19.8955 35.2099 25.4261 35.6143C30.9567 35.9917 33.4387 40.3593 33.4387 40.3593C33.4387 40.3593 36.0826 35.3447 35.7858 30.6536C35.4621 25.3424 31.7391 20.894 26.5322 19.7077Z" fill="#467A96"/>
<path d="M42.613 65.1898C44.8522 67.8319 49.9781 68.1015 52.4062 65.9716C54.8882 63.8148 55.6166 60.4717 53.6472 57.2904C51.9475 54.5674 48.6832 53.8664 46.8216 50.793C45.3108 52.3297 43.6921 55.511 43.1256 57.6679C42.0465 61.7119 42.2623 63.033 42.613 65.1898Z" fill="url(#paint2_linear_4297_5398)"/>
<defs>
<linearGradient id="paint0_linear_4297_5398" x1="69.1909" y1="12.0959" x2="12.4882" y2="68.8101" gradientUnits="userSpaceOnUse">
<stop stop-color="#FF6008"/>
<stop offset="1" stop-color="#F94C00"/>
</linearGradient>
<linearGradient id="paint1_linear_4297_5398" x1="31.6252" y1="48.3516" x2="61.0452" y2="41.2318" gradientUnits="userSpaceOnUse">
<stop offset="0.05" stop-color="#C6C6C6"/>
<stop offset="0.24" stop-color="#EDEDED"/>
<stop offset="0.34" stop-color="white"/>
</linearGradient>
<linearGradient id="paint2_linear_4297_5398" x1="43.4379" y1="57.0271" x2="53.168" y2="64.791" gradientUnits="userSpaceOnUse">
<stop offset="0.12" stop-color="#2B5B70"/>
<stop offset="0.39" stop-color="#396B84"/>
<stop offset="0.67" stop-color="#467A96"/>
</linearGradient>
</defs>
</svg>
