<svg width="22" height="22" viewBox="0 0 22 22" fill="none" xmlns="http://www.w3.org/2000/svg">
<g opacity="0.3">
<path d="M16.2613 3.20837H5.73801C3.58134 3.20837 1.83301 4.9567 1.83301 7.11337V14.8867C1.83301 17.0434 3.58134 18.7917 5.73801 18.7917H16.2613C18.418 18.7917 20.1663 17.0434 20.1663 14.8867V7.11337C20.1663 4.9567 18.418 3.20837 16.2613 3.20837Z" fill="#4F4F4F"/>
</g>
<path d="M10.9997 11.9167C10.2698 11.9138 9.56359 11.6579 9.00135 11.1925L5.88469 8.61669C5.7449 8.49513 5.65912 8.32302 5.64623 8.13822C5.63333 7.95341 5.69438 7.77106 5.81594 7.63127C5.9375 7.49148 6.10961 7.4057 6.29441 7.39281C6.47921 7.37992 6.66156 7.44096 6.80135 7.56252L9.89969 10.1384C10.2153 10.404 10.6146 10.5497 11.0272 10.5497C11.4397 10.5497 11.8391 10.404 12.1547 10.1384L15.1705 7.58085C15.3046 7.47572 15.4733 7.42489 15.6432 7.43848C15.813 7.45207 15.9715 7.52907 16.0872 7.65419C16.2044 7.79359 16.2624 7.97335 16.2487 8.15497C16.235 8.33659 16.1507 8.50562 16.0139 8.62585L12.998 11.1834C12.439 11.6554 11.7314 11.9151 10.9997 11.9167Z" fill="#4F4F4F"/>
</svg>
