<svg width="17" height="17" viewBox="0 0 17 17" fill="none" xmlns="http://www.w3.org/2000/svg">
<path opacity="0.3" d="M11.7674 0.134766H5.01742C2.279 0.134766 0.059082 2.35469 0.059082 5.0931V11.8431C0.059082 14.5815 2.279 16.8014 5.01742 16.8014H11.7674C14.5058 16.8014 16.7257 14.5815 16.7257 11.8431V5.0931C16.7257 2.35469 14.5058 0.134766 11.7674 0.134766Z" fill="black"/>
<path d="M16.2172 2.91797L3.31715 16.368L3.25049 16.468C3.69817 16.6475 4.16994 16.7598 4.65049 16.8013L10.2505 10.968L14.6172 15.4096C14.7285 15.5203 14.877 15.5856 15.0338 15.593C15.2667 15.3838 15.4814 15.1552 15.6755 14.9096C15.6713 14.7676 15.6114 14.6329 15.5088 14.5346L11.1172 10.068L16.6505 4.3013C16.5751 3.82134 16.429 3.35518 16.2172 2.91797Z" fill="black"/>
<path d="M5.63409 2.48474C4.97102 2.56644 4.35347 2.86476 3.87731 3.33339C3.40115 3.80201 3.09302 4.41473 3.00076 5.07641C2.94301 5.5063 2.97942 5.94361 3.10749 6.35802C3.23556 6.77244 3.45221 7.15405 3.74242 7.47641L5.26742 9.19308C5.35729 9.29299 5.46717 9.37288 5.58992 9.42757C5.71267 9.48225 5.84554 9.51052 5.97992 9.51052C6.1143 9.51052 6.24718 9.48225 6.36993 9.42757C6.49268 9.37288 6.60256 9.29299 6.69242 9.19308L8.22576 7.47641C8.72007 6.92763 8.99325 6.21499 8.99242 5.47641C8.99164 5.0519 8.90126 4.63233 8.72721 4.24514C8.55315 3.85794 8.29934 3.51185 7.98235 3.22947C7.66537 2.9471 7.29236 2.73481 6.88771 2.60648C6.48306 2.47814 6.05587 2.43666 5.63409 2.48474ZM5.98409 6.60141C5.76159 6.60141 5.54408 6.53543 5.35907 6.41181C5.17407 6.2882 5.02987 6.1125 4.94473 5.90693C4.85958 5.70136 4.8373 5.47516 4.88071 5.25693C4.92411 5.03871 5.03126 4.83825 5.18859 4.68092C5.34593 4.52358 5.54638 4.41644 5.76461 4.37303C5.98284 4.32962 6.20904 4.3519 6.41461 4.43705C6.62018 4.52219 6.79588 4.66639 6.91949 4.85139C7.04311 5.0364 7.10909 5.25391 7.10909 5.47641C7.10909 5.77478 6.99056 6.06093 6.77959 6.27191C6.56861 6.48288 6.28246 6.60141 5.98409 6.60141Z" fill="black"/>
</svg>
