<svg width="82" height="31" viewBox="0 0 82 31" fill="none" xmlns="http://www.w3.org/2000/svg">
<path d="M15 30.4402C23.2873 30.4402 30 23.722 30 15.4402C30 7.15841 23.2773 0.440186 15 0.440186C6.71266 0.440186 1.13525e-05 7.15841 1.13525e-05 15.4402C-0.0100829 23.722 6.71266 30.4402 15 30.4402Z" fill="url(#paint0_linear_4297_5411)"/>
<path d="M24.4376 11.0723C23.4181 9.08511 20.3798 8.28821 18.2903 9.79123C16.2008 11.2943 14.0002 13.6245 13.6469 18.0327C13.2936 22.4409 15.6153 24.65 15.6153 24.65C15.6355 24.6702 15.6456 24.6904 15.6658 24.7105C15.7062 23.7926 15.908 22.683 16.3926 21.3111C16.655 20.4738 16.9276 19.8282 17.2405 19.3239C17.2405 19.3239 17.2405 19.3239 17.2405 19.3138C18.0884 18.2041 19.8044 17.4577 21.0258 17.0542C21.5608 16.8726 22.439 16.6002 23.0446 16.2976C24.8818 15.3898 25.4471 13.0495 24.4376 11.0723Z" fill="url(#paint1_linear_4297_5411)"/>
<path d="M9.64966 7.68298C7.51978 7.1887 5.89461 8.5505 5.65235 9.84169C5.18802 12.2728 7.16648 13.4833 9.2358 13.6346C11.3051 13.7758 12.2338 15.41 12.2338 15.41C12.2338 15.41 13.223 13.5337 13.112 11.7785C12.9908 9.79126 11.5978 8.12683 9.64966 7.68298Z" fill="#467A96"/>
<path d="M15.6665 24.7004C16.5043 25.689 18.4222 25.7898 19.3307 24.9929C20.2594 24.1859 20.5319 22.9351 19.7951 21.7448C19.1591 20.726 17.9377 20.4637 17.2412 19.3137C16.6759 19.8887 16.0703 21.079 15.8583 21.886C15.4545 23.3991 15.5353 23.8934 15.6665 24.7004Z" fill="url(#paint2_linear_4297_5411)"/>
<path fill-rule="evenodd" clip-rule="evenodd" d="M68.3056 7.94019L66.2166 8.34637V19.5891H68.3056V7.94019ZM44.2099 8.11426C44.8482 8.11426 45.2834 8.54947 45.2834 9.20227C45.2834 9.85508 44.8482 10.2758 44.2099 10.2758C43.5716 10.2758 43.1364 9.84057 43.1364 9.20227C43.1364 8.54947 43.5571 8.11426 44.2099 8.11426ZM45.2544 11.3203V19.5891H43.1654V11.7265L45.2544 11.3203ZM37 14.976C37 12.6984 38.2331 11.3203 40.293 11.3203C41.4681 11.3203 42.3095 11.5669 42.3095 11.5669L41.8888 13.4963C41.8888 13.4963 41.1344 13.2497 40.4091 13.2497C39.5242 13.2497 39.0745 13.7719 39.0745 14.8454V19.6036H37V14.976ZM69.7418 14.976C69.7418 12.6984 70.9749 11.3203 73.0348 11.3203C74.2099 11.3203 75.0513 11.5669 75.0513 11.5669L74.6306 13.4963C74.6306 13.4963 73.8762 13.2497 73.1509 13.2497C72.266 13.2497 71.8162 13.7719 71.8162 14.8454V19.6036H69.7273L69.7418 14.976ZM78.765 18.0369C76.9226 18.0369 76.0232 17.5727 76.0232 17.5727L75.617 19.357C75.617 19.357 76.7631 19.9228 78.7505 19.9228C80.9265 19.9228 81.9565 19.1539 81.9565 17.6742C81.9565 16.4412 81.3617 15.7158 79.7079 14.8599C79.4758 14.7439 79.2437 14.6278 79.0261 14.5263C78.2573 14.1491 77.6335 13.8589 77.6335 13.4963C77.6335 13.2061 77.9236 13.0176 78.5184 13.0176C80.1576 13.0176 81.0135 13.5833 81.0135 13.5833L81.4197 11.8135C81.4197 11.8135 80.2302 11.2477 78.5329 11.2477C76.4439 11.2477 75.559 11.9586 75.559 13.4092C75.559 14.5553 76.0087 15.2371 78.4458 16.4557C78.4894 16.4847 78.5474 16.4992 78.5909 16.5282C79.1132 16.7893 79.882 17.1665 79.882 17.5727C79.882 17.8918 79.4613 18.0369 78.765 18.0369ZM46.3133 15.4547C46.3279 12.7129 48.0251 11.2767 50.4478 11.2767C52.8704 11.2767 55.0319 12.7274 55.0319 15.6143C55.0319 18.3415 53.0155 19.7922 51.0135 19.7922C49.94 19.7922 48.823 19.3715 48.4023 18.7187V22.9257H46.3133V15.4547ZM52.9429 15.5562C52.9429 13.9605 51.7389 13.2061 50.6654 13.2061C49.5919 13.2061 48.3878 13.9605 48.3878 15.5562C48.3878 17.152 49.5774 17.8628 50.6654 17.8628C51.7679 17.8628 52.9429 17.123 52.9429 15.5562ZM60.5445 11.2913C58.1219 11.2913 56.4246 12.7274 56.4101 15.4692V22.9402H58.499V18.7332C58.9197 19.386 60.0368 19.8067 61.1103 19.8067C63.1122 19.8067 65.1286 18.356 65.1286 15.6288C65.1286 12.7274 62.9671 11.2913 60.5445 11.2913ZM60.7621 13.2061C61.8356 13.2061 63.0397 13.9605 63.0397 15.5562C63.0397 17.123 61.8501 17.8628 60.7621 17.8628C59.6741 17.8628 58.4845 17.1375 58.4845 15.5562C58.499 13.9605 59.6886 13.2061 60.7621 13.2061Z" fill="#467A96"/>
<defs>
<linearGradient id="paint0_linear_4297_5411" x1="25.6106" y1="4.83496" x2="4.39485" y2="26.055" gradientUnits="userSpaceOnUse">
<stop stop-color="#FF6008"/>
<stop offset="1" stop-color="#F94C00"/>
</linearGradient>
<linearGradient id="paint1_linear_4297_5411" x1="11.5544" y1="18.4003" x2="22.5621" y2="15.7364" gradientUnits="userSpaceOnUse">
<stop offset="0.05" stop-color="#C6C6C6"/>
<stop offset="0.24" stop-color="#EDEDED"/>
<stop offset="0.34" stop-color="white"/>
</linearGradient>
<linearGradient id="paint2_linear_4297_5411" x1="15.9752" y1="21.6463" x2="19.6158" y2="24.5512" gradientUnits="userSpaceOnUse">
<stop offset="0.12" stop-color="#2B5B70"/>
<stop offset="0.39" stop-color="#396B84"/>
<stop offset="0.67" stop-color="#467A96"/>
</linearGradient>
</defs>
</svg>
