<svg width="40" height="44" viewBox="0 0 40 44" fill="none" xmlns="http://www.w3.org/2000/svg">
<rect x="0.5" y="4.5" width="39" height="39" rx="7.95" stroke="#66727E"/>
<rect x="15.7734" y="0.695312" width="8.20898" height="8.20898" rx="4.10449" fill="#7CC590"/>
<path d="M20.1299 23.385C19.9318 23.3824 19.7425 23.3026 19.6024 23.1625C19.4623 23.0224 19.3825 22.8331 19.3799 22.635V19.505C19.3799 19.3061 19.4589 19.1153 19.5996 18.9747C19.7402 18.834 19.931 18.755 20.1299 18.755C20.3288 18.755 20.5196 18.834 20.6602 18.9747C20.8009 19.1153 20.8799 19.3061 20.8799 19.505V22.635C20.8773 22.8331 20.7974 23.0224 20.6573 23.1625C20.5173 23.3026 20.328 23.3824 20.1299 23.385Z" fill="#E48068"/>
<g opacity="0.3">
<path d="M27.1901 25.655C26.2879 24.3003 25.8204 22.7025 25.8501 21.075V20.895C25.8474 19.9681 25.615 19.0562 25.1738 18.241C24.7325 17.4257 24.0961 16.7326 23.3215 16.2234C22.5469 15.7142 21.6581 15.405 20.7347 15.3232C19.8114 15.2415 18.8821 15.3899 18.0301 15.755C17.032 16.1677 16.1808 16.8708 15.5871 17.773C14.9933 18.6753 14.6843 19.7351 14.7001 20.815V20.885C14.7124 22.6286 14.1618 24.3295 13.1301 25.735L12.4501 26.655C12.1804 27.0195 12.0365 27.4617 12.0401 27.915C12.0504 28.4652 12.2743 28.9898 12.6643 29.3779C13.0543 29.7661 13.5799 29.9874 14.1301 29.995H26.1301C26.4085 29.995 26.6842 29.9402 26.9414 29.8337C27.1986 29.7271 27.4323 29.571 27.6292 29.3741C27.826 29.1773 27.9822 28.9435 28.0887 28.6863C28.1953 28.4291 28.2501 28.1535 28.2501 27.875V27.815C28.2525 27.3989 28.1307 26.9915 27.9001 26.645L27.1901 25.655Z" fill="#E48068"/>
</g>
<path d="M18.2002 30.995C18.3153 31.4187 18.5667 31.7927 18.9155 32.0594C19.2643 32.326 19.6911 32.4705 20.1302 32.4705C20.5692 32.4705 20.9961 32.326 21.3449 32.0594C21.6937 31.7927 21.9451 31.4187 22.0602 30.995H18.2002Z" fill="#E48068"/>
</svg>
