<svg width="22" height="22" viewBox="0 0 22 22" fill="none" xmlns="http://www.w3.org/2000/svg">
<path d="M16.959 10.0834H18.7923C19.0354 10.0834 19.2686 10.18 19.4405 10.3519C19.6124 10.5238 19.709 10.7569 19.709 11V12.8334C19.709 13.0765 19.6124 13.3096 19.4405 13.4816C19.2686 13.6535 19.0354 13.75 18.7923 13.75H16.959V10.0834Z" fill="#4F4F4F"/>
<path d="M19.709 5.50004V7.33337C19.709 7.57649 19.6124 7.80965 19.4405 7.98156C19.2686 8.15346 19.0354 8.25004 18.7923 8.25004H16.959V4.58337H18.7923C19.0354 4.58337 19.2686 4.67995 19.4405 4.85186C19.6124 5.02377 19.709 5.25693 19.709 5.50004Z" fill="#4F4F4F"/>
<path opacity="0.3" d="M14.3187 20.1667H4.93199C4.23182 20.1667 3.56033 19.8886 3.06523 19.3935C2.57013 18.8984 2.29199 18.2269 2.29199 17.5267V4.47337C2.29199 3.7732 2.57013 3.10171 3.06523 2.60661C3.56033 2.11152 4.23182 1.83337 4.93199 1.83337H14.3187C15.0188 1.83337 15.6903 2.11152 16.1854 2.60661C16.6805 3.10171 16.9587 3.7732 16.9587 4.47337V17.5267C16.9587 18.2269 16.6805 18.8984 16.1854 19.3935C15.6903 19.8886 15.0188 20.1667 14.3187 20.1667ZM9.62533 6.41671C9.26273 6.41671 8.90827 6.52423 8.60678 6.72568C8.30529 6.92713 8.07031 7.21346 7.93155 7.54845C7.79279 7.88345 7.75648 8.25207 7.82722 8.60771C7.89796 8.96334 8.07257 9.29001 8.32896 9.5464C8.58536 9.8028 8.91203 9.97741 9.26766 10.0481C9.62329 10.1189 9.99191 10.0826 10.3269 9.94382C10.6619 9.80506 10.9482 9.57008 11.1497 9.26859C11.3511 8.9671 11.4587 8.61264 11.4587 8.25004C11.4587 7.76381 11.2655 7.29749 10.9217 6.95368C10.5779 6.60986 10.1116 6.41671 9.62533 6.41671ZM12.6228 14.6667C12.7746 14.6759 12.9262 14.6471 13.0641 14.5831C13.202 14.5191 13.3218 14.4218 13.4127 14.2999C13.5036 14.1781 13.5628 14.0356 13.5849 13.8852C13.6071 13.7348 13.5915 13.5812 13.5395 13.4384C13.2031 12.6891 12.6511 12.057 11.954 11.6227C11.2568 11.1885 10.4462 10.9717 9.62533 11C8.81035 10.9776 8.00688 11.1962 7.31552 11.6283C6.62416 12.0604 6.07565 12.6868 5.73866 13.4292C5.50033 14.025 5.98616 14.6667 7.14116 14.6667H12.6228Z" fill="#4F4F4F"/>
</svg>
