<svg width="30" height="30" viewBox="0 0 30 30" fill="none" xmlns="http://www.w3.org/2000/svg">
<rect x="0.00683594" width="30" height="30" rx="7" fill="#FFEBEB"/>
<path opacity="0.3" d="M13.1767 25.0299L7.67668 21.8499C7.11956 21.5295 6.65694 21.0675 6.3356 20.5109C6.01426 19.9543 5.84561 19.3227 5.84668 18.6799V12.3199C5.84561 11.6772 6.01426 11.0456 6.3356 10.489C6.65694 9.93233 7.11956 9.47042 7.67668 9.14994L13.1767 5.96994C13.7337 5.65065 14.3646 5.48267 15.0067 5.48267C15.6487 5.48267 16.2796 5.65065 16.8367 5.96994L22.3367 9.14994C22.8938 9.47042 23.3564 9.93233 23.6778 10.489C23.9991 11.0456 24.1678 11.6772 24.1667 12.3199V18.6799C24.1678 19.3227 23.9991 19.9543 23.6778 20.5109C23.3564 21.0675 22.8938 21.5295 22.3367 21.8499L16.8367 25.0299C16.2796 25.3492 15.6487 25.5172 15.0067 25.5172C14.3646 25.5172 13.7337 25.3492 13.1767 25.0299Z" fill="#EC305E"/>
<path d="M15.0068 16.9C15.2721 16.9 15.5264 16.7946 15.7139 16.6071C15.9015 16.4196 16.0068 16.1652 16.0068 15.9V11.24C16.0068 10.9748 15.9015 10.7204 15.7139 10.5329C15.5264 10.3453 15.2721 10.24 15.0068 10.24C14.7416 10.24 14.4873 10.3453 14.2997 10.5329C14.1122 10.7204 14.0068 10.9748 14.0068 11.24V15.9C14.0068 16.1652 14.1122 16.4196 14.2997 16.6071C14.4873 16.7946 14.7416 16.9 15.0068 16.9Z" fill="#EC305E"/>
<path d="M15.0068 20.76C15.6972 20.76 16.2568 20.2004 16.2568 19.51C16.2568 18.8197 15.6972 18.26 15.0068 18.26C14.3165 18.26 13.7568 18.8197 13.7568 19.51C13.7568 20.2004 14.3165 20.76 15.0068 20.76Z" fill="#EC305E"/>
</svg>
