<svg width="36" height="36" viewBox="0 0 36 36" fill="none" xmlns="http://www.w3.org/2000/svg">
<g clip-path="url(#clip0_690_3796)">
<path d="M26.5543 34.5469C26.2709 34.5469 25.9814 34.5109 25.6946 34.4359L2.49806 28.2241C0.708622 27.7305 -0.357902 25.8796 0.110127 24.0915L2.66012 14.3129C2.81613 13.7127 3.42973 13.3482 4.03262 13.5089C4.63276 13.6649 4.99422 14.2799 4.83684 14.8814L2.28657 24.6617C2.12919 25.2646 2.48763 25.887 3.08777 26.0521L26.2709 32.2609C26.8663 32.4182 27.4813 32.0642 27.6373 31.4717L28.4292 28.2766C28.5794 27.6737 29.1884 27.3075 29.7912 27.4548C30.3944 27.6047 30.7619 28.2137 30.6133 28.8166L29.8184 32.0268C29.4177 33.5463 28.0499 34.5469 26.5543 34.5469Z" fill="#7CC590"/>
<path d="M32.6248 25.5467H9.37411C7.5127 25.5467 5.99902 24.033 5.99902 22.1716V4.92098C5.99902 3.05958 7.5127 1.5459 9.37411 1.5459H32.6248C34.4862 1.5459 35.9999 3.05958 35.9999 4.92098V22.1716C35.9999 24.033 34.4862 25.5467 32.6248 25.5467ZM9.37411 3.79595C8.75309 3.79595 8.24908 4.29996 8.24908 4.92098V22.1716C8.24908 22.7926 8.75309 23.2966 9.37411 23.2966H32.6248C33.2458 23.2966 33.7498 22.7926 33.7498 22.1716V4.92098C33.7498 4.29996 33.2458 3.79595 32.6248 3.79595H9.37411Z" fill="#7CC590"/>
<path d="M13.4992 12.0464C11.8446 12.0464 10.499 10.7008 10.499 9.04619C10.499 7.3916 11.8446 6.04602 13.4992 6.04602C15.1538 6.04602 16.4991 7.3916 16.4991 9.04619C16.4991 10.7008 15.1538 12.0464 13.4992 12.0464ZM13.4992 8.29608C13.085 8.29608 12.7491 8.63227 12.7491 9.04619C12.7491 9.46011 13.085 9.7963 13.4992 9.7963C13.9131 9.7963 14.249 9.46011 14.249 9.04619C14.249 8.63227 13.9131 8.29608 13.4992 8.29608Z" fill="#7CC590"/>
<path d="M7.15377 24.0165C6.86593 24.0165 6.5778 23.9069 6.35889 23.6866C5.91943 23.2472 5.91943 22.5344 6.35889 22.0949L13.139 15.3148C14.1651 14.2887 15.8346 14.2887 16.8591 15.3148L18.6727 17.1284L24.2437 10.4412C24.7417 9.84405 25.4723 9.49907 26.2479 9.49468C27.0818 9.44826 27.7569 9.82757 28.2593 10.4173L35.7266 19.1294C36.1315 19.6004 36.076 20.3115 35.6049 20.7164C35.1325 21.1215 34.4231 21.066 34.0179 20.595L26.5479 11.8799C26.4487 11.7612 26.3273 11.7673 26.2597 11.7461C26.1955 11.7461 26.0708 11.7656 25.9719 11.8826L19.6118 19.518C19.409 19.7608 19.1138 19.908 18.7987 19.9215C18.4777 19.9394 18.1747 19.8163 17.9525 19.593L15.2677 16.9079C15.077 16.7173 14.9197 16.7173 14.729 16.9079L7.94893 23.6866C7.72975 23.9069 7.4419 24.0165 7.15377 24.0165Z" fill="#7CC590"/>
</g>
<defs>
<clipPath id="clip0_690_3796">
<rect width="36" height="36" fill="white"/>
</clipPath>
</defs>
</svg>
