<svg width="22" height="23" viewBox="0 0 22 23" fill="none" xmlns="http://www.w3.org/2000/svg">
<path d="M10.569 14.9383C10.6758 14.9391 10.7814 14.9145 10.8769 14.8668C10.9725 14.819 11.0555 14.7493 11.119 14.6634L14.2357 10.6025C14.3572 10.4518 14.4139 10.2589 14.3933 10.0664C14.3727 9.87386 14.2764 9.69741 14.1257 9.57585C13.9749 9.45429 13.7821 9.39759 13.5895 9.41822C13.397 9.43885 13.2205 9.53512 13.099 9.68585L10.5323 13.0408L8.86399 11.0883C8.73753 10.9615 8.56805 10.8867 8.38909 10.8788C8.21014 10.8709 8.03473 10.9305 7.89759 11.0457C7.76045 11.161 7.67156 11.3235 7.64852 11.5011C7.62548 11.6788 7.66996 11.8586 7.77316 12.005L10.019 14.6908C10.0875 14.7692 10.1721 14.8319 10.267 14.8746C10.3619 14.9173 10.4649 14.939 10.569 14.9383Z" fill="black"/>
<path opacity="0.3" d="M15.4183 3.81921V4.06671C15.4183 4.55294 15.2251 5.01926 14.8813 5.36308C14.5375 5.70689 14.0712 5.90005 13.585 5.90005H8.39663C7.9104 5.90005 7.44409 5.70689 7.10027 5.36308C6.75645 5.01926 6.5633 4.55294 6.5633 4.06671V3.81921C5.43766 4.05513 4.42762 4.67151 3.70307 5.56468C2.97852 6.45784 2.58368 7.57329 2.58496 8.72338V15.5067C2.58496 16.8317 3.11131 18.1024 4.04821 19.0393C4.98511 19.9762 6.25582 20.5025 7.5808 20.5025H14.4191C15.0755 20.5038 15.7257 20.3754 16.3324 20.1247C16.939 19.8741 17.4903 19.5061 17.9544 19.042C18.4186 18.5778 18.7865 18.0266 19.0371 17.42C19.2878 16.8133 19.4162 16.1631 19.415 15.5067V8.72338C19.4154 7.57073 19.0179 6.45326 18.2898 5.55974C17.5616 4.66623 16.5473 4.05143 15.4183 3.81921Z" fill="black"/>
<path d="M14.502 4.0484V3.12256C14.502 2.63149 14.1039 2.2334 13.6128 2.2334L8.39695 2.2334C7.90588 2.2334 7.50779 2.63149 7.50779 3.12256V4.0484C7.50779 4.53947 7.90588 4.93756 8.39695 4.93756H13.6128C14.1039 4.93756 14.502 4.53947 14.502 4.0484Z" fill="black"/>
</svg>
