<svg width="16" height="16" viewBox="0 0 16 16" fill="none" xmlns="http://www.w3.org/2000/svg">
<g opacity="0.3">
<path d="M5.72595 3.81383L4.72953 8.16794C4.33363 9.89789 5.4151 11.6212 7.14505 12.0171L9.76402 12.6165C11.494 13.0124 13.2173 11.9309 13.6132 10.2009L14.6096 5.84683C15.0055 4.11688 13.9241 2.39354 12.1941 1.99764L9.57514 1.3983C7.84518 1.00241 6.12184 2.08387 5.72595 3.81383Z" fill="#E48068"/>
</g>
<path d="M9.75965 12.6134L7.14631 12.0001C6.31476 11.8094 5.59287 11.2965 5.13914 10.5741C4.68541 9.8516 4.53693 8.9786 4.72631 8.14676L5.72631 3.79342C5.79038 3.56317 5.88217 3.34155 5.99965 3.13342L3.63965 3.80009C3.23811 3.91589 2.86334 4.10969 2.53676 4.37043C2.21018 4.63116 1.93819 4.95371 1.73635 5.31963C1.5345 5.68555 1.40676 6.08766 1.36043 6.50298C1.31409 6.9183 1.35007 7.33868 1.46631 7.74009L2.61965 11.7401C2.84827 12.5502 3.38811 13.2369 4.1213 13.6503C4.8545 14.0638 5.72149 14.1703 6.53298 13.9468L9.28631 13.1534C9.62864 13.0446 9.95072 12.8802 10.2396 12.6668C10.0785 12.6621 9.91793 12.6442 9.75965 12.6134Z" fill="#E48068"/>
<path d="M11.5997 6.94009C11.5577 6.94629 11.515 6.94629 11.473 6.94009L8.33966 6.14009C8.21059 6.10738 8.09979 6.02473 8.03166 5.91034C7.96352 5.79594 7.94361 5.65916 7.97632 5.53009C8.00903 5.40101 8.09168 5.29022 8.20607 5.22208C8.32047 5.15395 8.45725 5.13404 8.58632 5.16675L11.7263 5.97342C11.8409 6.00669 11.9398 6.07984 12.0052 6.17965C12.0705 6.27946 12.0981 6.39935 12.0828 6.51768C12.0675 6.636 12.0104 6.74496 11.9218 6.82487C11.8332 6.90478 11.7189 6.95037 11.5997 6.95342V6.94009Z" fill="#E48068"/>
<path d="M9.6595 9.21335H9.53283L7.6795 8.73335C7.55043 8.70064 7.43964 8.61799 7.3715 8.5036C7.30336 8.3892 7.28346 8.25242 7.31617 8.12335C7.34888 7.99428 7.43152 7.88348 7.54592 7.81535C7.66032 7.74721 7.7971 7.72731 7.92617 7.76002L9.78617 8.24668C9.91419 8.27967 10.0239 8.36201 10.0914 8.4757C10.1589 8.58939 10.1786 8.72518 10.1462 8.85335C10.1137 8.95719 10.049 9.04801 9.96155 9.11272C9.87407 9.17742 9.7683 9.21266 9.6595 9.21335Z" fill="#E48068"/>
</svg>
