<svg width="22" height="23" viewBox="0 0 22 23" fill="none" xmlns="http://www.w3.org/2000/svg">
<path d="M10.569 15.338C10.6758 15.3387 10.7814 15.3142 10.8769 15.2664C10.9725 15.2186 11.0555 15.1489 11.119 15.063L14.2357 11.0022C14.3572 10.8514 14.4139 10.6586 14.3933 10.4661C14.3727 10.2735 14.2764 10.0971 14.1257 9.97551C13.9749 9.85395 13.7821 9.79725 13.5895 9.81788C13.397 9.83851 13.2205 9.93478 13.099 10.0855L10.5323 13.4405L8.86399 11.488C8.73753 11.3611 8.56805 11.2864 8.38909 11.2785C8.21014 11.2706 8.03473 11.3301 7.89759 11.4454C7.76045 11.5606 7.67156 11.7231 7.64852 11.9008C7.62548 12.0784 7.66996 12.2583 7.77316 12.4047L10.019 15.0905C10.0875 15.1689 10.1721 15.2315 10.267 15.2742C10.3619 15.317 10.4649 15.3387 10.569 15.338Z" fill="black"/>
<path opacity="0.3" d="M15.4183 4.21899V4.46649C15.4183 4.95272 15.2251 5.41904 14.8813 5.76286C14.5375 6.10667 14.0712 6.29983 13.585 6.29983H8.39663C7.9104 6.29983 7.44409 6.10667 7.10027 5.76286C6.75645 5.41904 6.5633 4.95272 6.5633 4.46649V4.21899C5.43766 4.45491 4.42762 5.07129 3.70307 5.96446C2.97852 6.85762 2.58368 7.97307 2.58496 9.12316V15.9065C2.58496 17.2315 3.11131 18.5022 4.04821 19.4391C4.98511 20.376 6.25582 20.9023 7.5808 20.9023H14.4191C15.0755 20.9035 15.7257 20.7751 16.3324 20.5245C16.939 20.2739 17.4903 19.9059 17.9544 19.4418C18.4186 18.9776 18.7865 18.4264 19.0371 17.8197C19.2878 17.2131 19.4162 16.5629 19.415 15.9065V9.12316C19.4154 7.97051 19.0179 6.85304 18.2898 5.95952C17.5616 5.06601 16.5473 4.45121 15.4183 4.21899Z" fill="black"/>
<path d="M14.5015 4.44806V3.52222C14.5015 3.03115 14.1034 2.63306 13.6123 2.63306L8.39646 2.63306C7.90539 2.63306 7.5073 3.03115 7.5073 3.52222V4.44806C7.5073 4.93913 7.90539 5.33722 8.39646 5.33722H13.6123C14.1034 5.33722 14.5015 4.93913 14.5015 4.44806Z" fill="black"/>
<circle cx="17.6106" cy="16.5129" r="4.3894" fill="#E48068"/>
</svg>
