<svg width="30" height="30" viewBox="0 0 30 30" fill="none" xmlns="http://www.w3.org/2000/svg">
<rect x="0.00683594" width="30" height="30" rx="7" fill="#FFEBEB"/>
<path d="M21.8169 5.13808L6.50691 10.6581C6.09444 10.8141 5.73498 11.0845 5.47067 11.4375C5.20635 11.7906 5.04813 12.2116 5.01455 12.6513C4.98097 13.0911 5.07341 13.5312 5.28105 13.9203C5.48869 14.3094 5.80292 14.6312 6.18691 14.8481L10.4469 17.1881C11.0871 17.5518 11.8322 17.6866 12.5593 17.5703C13.2864 17.4539 13.9521 17.0934 14.4469 16.5481L24.4469 5.80808C24.1335 5.43568 23.7112 5.1708 23.2395 5.05063C22.7678 4.93046 22.2703 4.96105 21.8169 5.13808Z" fill="#FC3C00"/>
<path opacity="0.3" d="M19.4167 23.5186L24.8567 8.26859C25.0089 7.8538 25.0446 7.40526 24.96 6.97161C24.8753 6.53796 24.6736 6.13575 24.3767 5.80859L14.2467 16.7086C13.7819 17.2144 13.4808 17.8487 13.3826 18.5286C13.2845 19.2084 13.394 19.902 13.6967 20.5186L15.2867 23.7586C15.4799 24.1567 15.7868 24.4887 16.1686 24.7126C16.5504 24.9365 16.9899 25.0423 17.4318 25.0166C17.8736 24.991 18.2979 24.835 18.6512 24.5684C19.0045 24.3017 19.2708 23.9365 19.4167 23.5186Z" fill="#FC3C00"/>
</svg>
