<svg width="76" height="76" viewBox="0 0 76 76" fill="none" xmlns="http://www.w3.org/2000/svg">
<circle cx="38" cy="38" r="38" fill="#FFEFEF"/>
<path fill-rule="evenodd" clip-rule="evenodd" d="M51.6485 38.085C51.6485 46.1401 45.1186 52.67 37.0635 52.67C29.0084 52.67 22.4785 46.1401 22.4785 38.085C22.4785 30.0299 29.0084 23.5 37.0635 23.5C45.1186 23.5 51.6485 30.0299 51.6485 38.085ZM42.5688 43.5261C42.367 43.7267 42.0939 43.8393 41.8093 43.8393C41.5248 43.8393 41.2517 43.7267 41.0499 43.5261L37.2202 39.7412L33.3694 43.601C33.1637 43.8096 32.8836 43.9279 32.5906 43.9299C32.2977 43.9319 32.016 43.8175 31.8074 43.6118C31.5989 43.4061 31.4806 43.126 31.4785 42.833C31.4765 42.5401 31.5909 42.2584 31.7966 42.0498L35.649 38.1884L31.8505 34.4344C31.7496 34.3343 31.6694 34.2151 31.6147 34.0839C31.5601 33.9526 31.5319 33.8118 31.5319 33.6696C31.5319 33.5274 31.5601 33.3866 31.6147 33.2553C31.6694 33.124 31.7496 33.0049 31.8505 32.9048C32.0524 32.7041 32.3254 32.5915 32.61 32.5915C32.8946 32.5915 33.1676 32.7041 33.3694 32.9048L37.1715 36.6624L40.996 32.8289C41.2017 32.6203 41.4818 32.502 41.7748 32.5C42.0677 32.498 42.3494 32.6124 42.558 32.8181C42.7665 33.0238 42.8848 33.304 42.8869 33.5969C42.8889 33.8898 42.7744 34.1715 42.5687 34.3801L38.7427 38.2151L42.5688 41.9964C42.6697 42.0966 42.7499 42.2157 42.8046 42.347C42.8593 42.4782 42.8874 42.619 42.8874 42.7612C42.8874 42.9034 42.8593 43.0442 42.8046 43.1755C42.7499 43.3068 42.6697 43.4259 42.5688 43.5261Z" fill="#EB5757"/>
</svg>
