<svg width="22" height="23" viewBox="0 0 22 23" fill="none" xmlns="http://www.w3.org/2000/svg">
<path opacity="0.3" d="M14.7122 2.03333H7.28717C4.27492 2.03333 1.83301 4.47524 1.83301 7.48749V14.9217C1.83301 17.9339 4.27492 20.3758 7.28717 20.3758H14.7122C17.7244 20.3758 20.1663 17.9339 20.1663 14.9217V7.48749C20.1663 4.47524 17.7244 2.03333 14.7122 2.03333Z" fill="black"/>
<path d="M6.41589 10.1274C6.24736 10.1252 6.08503 10.0635 5.95755 9.95327L4.72922 8.8441C4.58925 8.71752 4.50422 8.54131 4.49223 8.35297C4.48025 8.16464 4.54226 7.97907 4.66505 7.83577C4.7241 7.76425 4.79701 7.70542 4.87939 7.66282C4.96177 7.62022 5.05192 7.59473 5.14441 7.58788C5.2369 7.58102 5.32982 7.59296 5.41757 7.62296C5.50533 7.65295 5.58611 7.7004 5.65505 7.76243L6.28755 8.3216L7.40589 6.48827C7.45376 6.40847 7.51714 6.33908 7.59228 6.28418C7.66741 6.22928 7.75279 6.18999 7.84336 6.16863C7.93393 6.14727 8.02786 6.14427 8.11961 6.15981C8.21136 6.17534 8.29907 6.20911 8.37755 6.2591C8.53291 6.36547 8.64206 6.52689 8.6829 6.71069C8.72375 6.89449 8.69324 7.08694 8.59755 7.2491L7.03922 9.76077C6.98775 9.85022 6.91628 9.92655 6.83041 9.9838C6.74454 10.041 6.64659 10.0777 6.54422 10.0908L6.41589 10.1274ZM17.1592 8.68827C17.162 8.50717 17.095 8.33195 16.9721 8.19886C16.8493 8.06578 16.68 7.98501 16.4992 7.97327H10.9992C10.8417 8.00964 10.7012 8.09833 10.6005 8.22485C10.4999 8.35137 10.4451 8.50827 10.4451 8.66993C10.4451 8.8316 10.4999 8.98849 10.6005 9.11502C10.7012 9.24154 10.8417 9.33023 10.9992 9.3666H16.4992C16.6737 9.35537 16.8378 9.27976 16.9598 9.15444C17.0817 9.02912 17.1528 8.863 17.1592 8.68827ZM6.51672 15.1049C6.61118 15.1014 6.70389 15.0784 6.78906 15.0374C6.87423 14.9964 6.95003 14.9382 7.01172 14.8666L8.57005 12.3458C8.66798 12.1842 8.69976 11.991 8.65877 11.8066C8.61778 11.6222 8.50719 11.4607 8.35005 11.3558C8.27157 11.3058 8.18386 11.272 8.09211 11.2565C8.00036 11.2409 7.90643 11.2439 7.81586 11.2653C7.72529 11.2867 7.63991 11.3259 7.56478 11.3808C7.48964 11.4357 7.42626 11.5051 7.37839 11.5849L6.26005 13.4183L5.62755 12.8591C5.55861 12.7971 5.47783 12.7496 5.39007 12.7196C5.30232 12.6896 5.2094 12.6777 5.11691 12.6845C5.02442 12.6914 4.93427 12.7169 4.85189 12.7595C4.76951 12.8021 4.6966 12.8609 4.63755 12.9324C4.51693 13.0767 4.45634 13.2618 4.46828 13.4494C4.48022 13.6371 4.56379 13.813 4.70172 13.9408L5.95755 14.9858C6.08503 15.096 6.24736 15.1577 6.41589 15.1599L6.51672 15.1049ZM17.1867 13.6749C17.171 13.5022 17.0922 13.3413 16.9654 13.2229C16.8386 13.1046 16.6726 13.0371 16.4992 13.0333H10.9992C10.8096 13.0333 10.6277 13.1086 10.4936 13.2427C10.3595 13.3768 10.2842 13.5586 10.2842 13.7483C10.2842 13.9379 10.3595 14.1198 10.4936 14.2538C10.6277 14.3879 10.8096 14.4633 10.9992 14.4633H16.4992C16.5935 14.4609 16.6864 14.4397 16.7724 14.4009C16.8584 14.3621 16.9357 14.3064 16.9998 14.2372C17.0639 14.168 17.1134 14.0866 17.1455 13.9979C17.1776 13.9092 17.1916 13.815 17.1867 13.7208V13.6749Z" fill="black"/>
</svg>
