<svg width="115" height="115" viewBox="0 0 115 115" fill="none" xmlns="http://www.w3.org/2000/svg">
<circle cx="57.5" cy="57.5" r="57" fill="white" stroke="#7CC590"/>
<path d="M50.8337 79.1683C49.8336 79.1683 49.1669 78.835 48.5002 78.1683L25.1651 54.8332C23.8317 53.4998 23.8317 51.4995 25.1651 50.1661C26.4985 48.8327 28.4987 48.8327 29.8321 50.1661L53.1672 73.5012C54.5006 74.8346 54.5006 76.8348 53.1672 78.1683C52.5005 78.835 51.8338 79.1683 50.8337 79.1683Z" fill="#7CC590"/>
<path d="M50.8336 79.1683C49.8335 79.1683 49.1668 78.835 48.5001 78.1683C47.1666 76.8348 47.1666 74.8346 48.5001 73.5012L85.1695 36.8317C86.5029 35.4983 88.5031 35.4983 89.8365 36.8317C91.1699 38.1652 91.1699 40.1654 89.8365 41.4988L53.1671 78.1683C52.5004 78.835 51.8336 79.1683 50.8336 79.1683Z" fill="#7CC590"/>
</svg>
