<svg width="20" height="20" viewBox="0 0 20 20" fill="none" xmlns="http://www.w3.org/2000/svg">
<path opacity="0.3" d="M17.9162 16.1833L15.2745 13.6833C14.7723 14.33 14.1703 14.8926 13.4912 15.35L16.2079 17.9334C16.3221 18.0668 16.4634 18.1744 16.6223 18.2492C16.7812 18.324 16.9542 18.3643 17.1298 18.3673C17.3054 18.3703 17.4796 18.336 17.641 18.2667C17.8024 18.1974 17.9473 18.0946 18.066 17.9652C18.1847 17.8358 18.2747 17.6826 18.3299 17.5159C18.385 17.3491 18.4042 17.1726 18.3861 16.9979C18.368 16.8232 18.3131 16.6543 18.2249 16.5024C18.1367 16.3505 18.0173 16.219 17.8745 16.1167L17.9162 16.1833Z" fill="#999999"/>
<path d="M9.28321 1.66663C7.79985 1.66663 6.3498 2.10649 5.11643 2.9306C3.88306 3.75471 2.92177 4.92605 2.35411 6.2965C1.78645 7.66695 1.63793 9.17495 1.92732 10.6298C2.21671 12.0847 2.93101 13.421 3.97991 14.4699C5.0288 15.5188 6.36517 16.2331 7.82003 16.5225C9.27489 16.8119 10.7829 16.6634 12.1533 16.0957C13.5238 15.5281 14.6951 14.5668 15.5192 13.3334C16.3433 12.1 16.7832 10.65 16.7832 9.16663C16.7832 7.1775 15.993 5.26985 14.5865 3.86333C13.18 2.4568 11.2723 1.66663 9.28321 1.66663ZM9.28321 14.4666C8.23697 14.4666 7.21421 14.1565 6.34418 13.5754C5.47415 12.9943 4.7959 12.1684 4.39515 11.2019C3.99439 10.2355 3.88911 9.17192 4.09262 8.14567C4.29612 7.11941 4.79928 6.17651 5.5385 5.43613C6.27772 4.69575 7.21982 4.19111 8.24575 3.98599C9.27169 3.78087 10.3354 3.88447 11.3025 4.28371C12.2695 4.68295 13.0966 5.35989 13.679 6.22901C14.2615 7.09812 14.5732 8.12039 14.5749 9.16663C14.5771 9.86255 14.4418 10.552 14.1767 11.1955C13.9117 11.839 13.5221 12.4238 13.0304 12.9162C12.5387 13.4087 11.9545 13.7992 11.3115 14.0653C10.6684 14.3313 9.97913 14.4677 9.28321 14.4666Z" fill="#66727E"/>
</svg>
