<svg width="15" height="15" viewBox="0 0 15 15" fill="none" xmlns="http://www.w3.org/2000/svg">
<circle cx="7.71313" cy="7.05029" r="6.5" fill="white" stroke="#EC305E"/>
<path d="M10.2993 9.70793C10.2024 9.80428 10.0713 9.85836 9.93459 9.85836C9.79792 9.85836 9.6668 9.80428 9.56987 9.70793L5.15181 5.3416C5.10332 5.29351 5.06483 5.23629 5.03857 5.17325C5.0123 5.1102 4.99878 5.04259 4.99878 4.97429C4.99878 4.906 5.0123 4.83838 5.03857 4.77533C5.06483 4.71229 5.10332 4.65507 5.15181 4.60698C5.24874 4.51063 5.37986 4.45654 5.51653 4.45654C5.6532 4.45654 5.78432 4.51063 5.88125 4.60698L10.2993 8.97331C10.3478 9.0214 10.3863 9.07862 10.4126 9.14166C10.4388 9.2047 10.4523 9.27232 10.4523 9.34062C10.4523 9.40891 10.4388 9.47653 10.4126 9.53957C10.3863 9.60261 10.3478 9.65983 10.2993 9.70793Z" fill="#EC305E"/>
<path d="M5.88173 9.74442C5.78294 9.84458 5.64841 9.90139 5.50773 9.90236C5.36705 9.90333 5.23175 9.84838 5.13159 9.74959C5.03143 9.6508 4.97462 9.51627 4.97365 9.37559C4.97268 9.23491 5.02763 9.09961 5.12642 8.99945L9.54448 4.57104C9.64327 4.47088 9.7778 4.41407 9.91847 4.4131C10.0592 4.41213 10.1945 4.46708 10.2946 4.56587C10.3948 4.66466 10.4516 4.79919 10.4526 4.93987C10.4535 5.08055 10.3986 5.21585 10.2998 5.31601L5.88173 9.74442Z" fill="#EC305E"/>
</svg>
