<svg width="30" height="31" viewBox="0 0 30 31" fill="none" xmlns="http://www.w3.org/2000/svg">
<rect y="0.648193" width="30" height="30" rx="9" fill="#EFEDE5"/>
<g clip-path="url(#clip0_1928_5166)">
<path d="M15.4834 7.97473C11.0719 7.97473 7.4834 11.5633 7.4834 15.9747C7.4834 20.3862 11.0719 23.9747 15.4834 23.9747C19.8949 23.9747 23.4834 20.3856 23.4834 15.9747C23.4834 11.5639 19.8949 7.97473 15.4834 7.97473ZM15.4834 22.7354C11.7561 22.7354 8.72274 19.7027 8.72274 15.9747C8.72274 12.2468 11.7561 9.21408 15.4834 9.21408C19.2114 9.21408 22.2441 12.2468 22.2441 15.9747C22.2441 19.7027 19.2107 22.7354 15.4834 22.7354Z" fill="#7CC590"/>
<path d="M19.1542 13.1924C18.902 12.9631 18.5097 12.9811 18.2792 13.2345L14.4992 17.3969L12.673 15.5404C12.4319 15.2962 12.0403 15.2925 11.7968 15.5329C11.5526 15.7727 11.5489 16.165 11.7894 16.4091L14.0753 18.7329C14.1924 18.8519 14.3511 18.9182 14.5171 18.9182C14.5209 18.9182 14.5252 18.9182 14.5289 18.9188C14.6999 18.9151 14.8611 18.842 14.9757 18.7156L19.1963 14.068C19.4262 13.8139 19.4076 13.4223 19.1542 13.1924Z" fill="#7CC590"/>
</g>
<defs>
<clipPath id="clip0_1928_5166">
<rect width="16" height="16" fill="white" transform="translate(7.4834 7.97473)"/>
</clipPath>
</defs>
</svg>
