<svg width="77" height="81" viewBox="0 0 77 81" fill="none" xmlns="http://www.w3.org/2000/svg">
<circle cx="38.521" cy="42.3684" r="38" fill="#F6C000" fill-opacity="0.3"/>
<path fill-rule="evenodd" clip-rule="evenodd" d="M53.106 42.3684C53.106 50.4235 46.5761 56.9534 38.521 56.9534C30.466 56.9534 23.936 50.4235 23.936 42.3684C23.936 34.3134 30.466 27.7834 38.521 27.7834C46.5761 27.7834 53.106 34.3134 53.106 42.3684ZM44.0263 47.8095C43.8245 48.0101 43.5515 48.1228 43.2669 48.1228C42.9823 48.1228 42.7093 48.0101 42.5074 47.8095L38.6777 44.0246L34.8269 47.8845C34.6212 48.093 34.3411 48.2113 34.0481 48.2133C33.7552 48.2154 33.4735 48.1009 33.2649 47.8952C33.0564 47.6895 32.9381 47.4094 32.9361 47.1165C32.934 46.8236 33.0485 46.5418 33.2542 46.3333L37.1066 42.4719L33.3081 38.7179C33.2071 38.6177 33.127 38.4986 33.0723 38.3673C33.0176 38.236 32.9894 38.0952 32.9894 37.953C32.9894 37.8108 33.0176 37.67 33.0723 37.5388C33.127 37.4075 33.2071 37.2884 33.3081 37.1882C33.5099 36.9876 33.7829 36.875 34.0675 36.875C34.3521 36.875 34.6251 36.9876 34.8269 37.1882L38.629 40.9458L42.4535 37.1124C42.6592 36.9038 42.9394 36.7855 43.2323 36.7835C43.5252 36.7815 43.8069 36.8959 44.0155 37.1016C44.2241 37.3073 44.3424 37.5874 44.3444 37.8803C44.3464 38.1732 44.232 38.455 44.0263 38.6635L40.2002 42.4986L44.0263 46.2799C44.1273 46.38 44.2074 46.4991 44.2621 46.6304C44.3168 46.7617 44.3449 46.9025 44.3449 47.0447C44.3449 47.1869 44.3168 47.3277 44.2621 47.459C44.2074 47.5902 44.1273 47.7094 44.0263 47.8095Z" fill="#F6C000"/>
</svg>
