<svg width="22" height="22" viewBox="0 0 22 22" fill="none" xmlns="http://www.w3.org/2000/svg">
<path opacity="0.3" d="M10.9997 20.1667C16.0623 20.1667 20.1663 16.0627 20.1663 11C20.1663 5.93743 16.0623 1.83337 10.9997 1.83337C5.93706 1.83337 1.83301 5.93743 1.83301 11C1.83301 16.0627 5.93706 20.1667 10.9997 20.1667Z" fill="#4F4F4F"/>
<path d="M10.9999 12.7784C12.9237 12.7784 14.4833 11.2189 14.4833 9.2951C14.4833 7.37131 12.9237 5.81177 10.9999 5.81177C9.07614 5.81177 7.5166 7.37131 7.5166 9.2951C7.5166 11.2189 9.07614 12.7784 10.9999 12.7784Z" fill="#4F4F4F"/>
<path d="M10.9993 20.1667C13.1862 20.1691 15.301 19.385 16.9577 17.9575C16.5282 16.7193 15.7236 15.6457 14.6557 14.8859C13.5879 14.1261 12.3099 13.7178 10.9993 13.7178C9.68879 13.7178 8.41078 14.1261 7.34295 14.8859C6.27513 15.6457 5.47054 16.7193 5.04102 17.9575C6.69766 19.385 8.81248 20.1691 10.9993 20.1667Z" fill="#4F4F4F"/>
</svg>
