<svg width="22" height="23" viewBox="0 0 22 23" fill="none" xmlns="http://www.w3.org/2000/svg">
<path opacity="0.3" d="M19.0113 10.1409H18.1405C17.9598 9.35584 17.6501 8.60621 17.2238 7.92259L17.838 7.30842C18.0541 7.09189 18.1754 6.79849 18.1754 6.49259C18.1754 6.18669 18.0541 5.89329 17.838 5.67676L17.123 4.96176C16.9065 4.74569 16.6131 4.62434 16.3072 4.62434C16.0013 4.62434 15.7079 4.74569 15.4913 4.96176L14.8772 5.57592C14.1936 5.1497 13.4439 4.83994 12.6588 4.65926V3.74259C12.6448 3.44504 12.5172 3.16421 12.3023 2.95788C12.0875 2.75155 11.8017 2.63544 11.5038 2.63342H10.4955C10.1899 2.63582 9.89754 2.75828 9.68145 2.97436C9.46536 3.19045 9.3429 3.48284 9.34051 3.78842V4.70509C8.55543 4.88577 7.80579 5.19554 7.12217 5.62176L6.50801 4.96176C6.29147 4.74569 5.99807 4.62434 5.69217 4.62434C5.38628 4.62434 5.09287 4.74569 4.87634 4.96176L4.16134 5.67676C3.94527 5.89329 3.82392 6.18669 3.82392 6.49259C3.82392 6.79849 3.94527 7.09189 4.16134 7.30842L4.77551 7.92259C4.34929 8.60621 4.03952 9.35584 3.85884 10.1409H2.94217C2.64463 10.155 2.36379 10.2826 2.15747 10.4974C1.95114 10.7123 1.83502 10.998 1.83301 11.2959V12.3043C1.8354 12.6098 1.95786 12.9022 2.17395 13.1183C2.39004 13.3344 2.68242 13.4569 2.98801 13.4593H3.90467C4.08536 14.2443 4.39512 14.994 4.82134 15.6776L4.20717 16.2918C3.9911 16.5083 3.86976 16.8017 3.86976 17.1076C3.86976 17.4135 3.9911 17.7069 4.20717 17.9234L4.92217 18.6384C5.13871 18.8545 5.43211 18.9758 5.73801 18.9758C6.0439 18.9758 6.33731 18.8545 6.55384 18.6384L7.16801 18.0243C7.85163 18.4505 8.60126 18.7602 9.38634 18.9409V19.8118C9.38835 20.1096 9.50447 20.3954 9.7108 20.6102C9.91712 20.8251 10.198 20.9527 10.4955 20.9668H11.5038C11.8094 20.9644 12.1018 20.8419 12.3179 20.6258C12.534 20.4097 12.6564 20.1173 12.6588 19.8118V18.9409C13.4439 18.7602 14.1936 18.4505 14.8772 18.0243L15.4913 18.6384C15.7079 18.8545 16.0013 18.9758 16.3072 18.9758C16.6131 18.9758 16.9065 18.8545 17.123 18.6384L17.838 17.9234C18.0541 17.7069 18.1754 17.4135 18.1754 17.1076C18.1754 16.8017 18.0541 16.5083 17.838 16.2918L17.2238 15.6776C17.6501 14.994 17.9598 14.2443 18.1405 13.4593H19.0113C19.3169 13.4569 19.6093 13.3344 19.8254 13.1183C20.0415 12.9022 20.1639 12.6098 20.1663 12.3043V11.2959C20.1639 10.9903 20.0415 10.698 19.8254 10.4819C19.6093 10.2658 19.3169 10.1433 19.0113 10.1409ZM10.9997 15.2009C10.3271 15.2009 9.66954 15.0015 9.11027 14.6278C8.55101 14.2541 8.11511 13.723 7.85771 13.1015C7.60031 12.4801 7.53296 11.7963 7.66419 11.1366C7.79541 10.4769 8.11931 9.87095 8.59492 9.39534C9.07054 8.91972 9.67651 8.59582 10.3362 8.4646C10.9959 8.33338 11.6797 8.40073 12.3011 8.65813C12.9225 8.91553 13.4537 9.35142 13.8274 9.91069C14.2011 10.47 14.4005 11.1275 14.4005 11.8001C14.4005 12.702 14.0422 13.5671 13.4044 14.2048C12.7666 14.8426 11.9016 15.2009 10.9997 15.2009Z" fill="black"/>
<path d="M10.9997 15.2009C10.0977 15.2009 9.2327 14.8426 8.59492 14.2048C7.95714 13.5671 7.59884 12.702 7.59884 11.8001C7.59884 10.8981 7.95714 10.0331 8.59492 9.39534C9.2327 8.75756 10.0977 8.39926 10.9997 8.39926V2.63342H10.4955C10.1899 2.63582 9.89754 2.75828 9.68145 2.97436C9.46536 3.19045 9.3429 3.48284 9.34051 3.78842V4.70509C8.55543 4.88577 7.80579 5.19554 7.12217 5.62176L6.50801 4.96176C6.29147 4.74569 5.99807 4.62434 5.69217 4.62434C5.38628 4.62434 5.09287 4.74569 4.87634 4.96176L4.16134 5.67676C3.94527 5.89329 3.82392 6.18669 3.82392 6.49259C3.82392 6.79849 3.94527 7.09189 4.16134 7.30842L4.77551 7.92259C4.34929 8.60621 4.03952 9.35584 3.85884 10.1409H2.94217C2.64463 10.155 2.36379 10.2826 2.15747 10.4974C1.95114 10.7123 1.83502 10.998 1.83301 11.2959V12.3043C1.8354 12.6098 1.95786 12.9022 2.17395 13.1183C2.39004 13.3344 2.68242 13.4569 2.98801 13.4593H3.90467C4.08536 14.2443 4.39512 14.994 4.82134 15.6776L4.20717 16.2918C3.9911 16.5083 3.86976 16.8017 3.86976 17.1076C3.86976 17.4135 3.9911 17.7069 4.20717 17.9234L4.92217 18.6384C5.13871 18.8545 5.43211 18.9758 5.73801 18.9758C6.0439 18.9758 6.33731 18.8545 6.55384 18.6384L7.16801 18.0243C7.85163 18.4505 8.60126 18.7602 9.38634 18.9409V19.8118C9.38835 20.1096 9.50447 20.3954 9.7108 20.6102C9.91712 20.8251 10.198 20.9527 10.4955 20.9668H10.9997V15.2009Z" fill="black"/>
</svg>
