<svg width="30" height="30" viewBox="0 0 30 30" fill="none" xmlns="http://www.w3.org/2000/svg">
<rect width="30" height="30" rx="9" fill="#EFEDE5"/>
<path d="M14.9996 19.6266C14.8672 19.6274 14.7376 19.5887 14.6272 19.5155C14.5169 19.4423 14.4308 19.3379 14.3801 19.2156C14.3293 19.0933 14.3161 18.9587 14.3421 18.8288C14.3682 18.699 14.4323 18.5799 14.5263 18.4866L18.013 15L14.5263 11.5133C14.4021 11.3884 14.3325 11.2194 14.3325 11.0433C14.3325 10.8672 14.4021 10.6982 14.5263 10.5733C14.5883 10.5108 14.662 10.4612 14.7433 10.4274C14.8245 10.3935 14.9116 10.3761 14.9996 10.3761C15.0877 10.3761 15.1748 10.3935 15.256 10.4274C15.3373 10.4612 15.411 10.5108 15.473 10.5733L19.4263 14.5266C19.4893 14.5884 19.5394 14.662 19.5737 14.7433C19.6081 14.8245 19.6259 14.9118 19.6263 15C19.6259 15.0882 19.6081 15.1754 19.5737 15.2567C19.5394 15.3379 19.4893 15.4116 19.4263 15.4733L15.473 19.4266C15.4112 19.4896 15.3376 19.5397 15.2564 19.5741C15.1751 19.6084 15.0879 19.6263 14.9996 19.6266Z" fill="#66727E"/>
<path opacity="0.3" d="M18.9597 15.6666H11.0397C10.8629 15.6666 10.6933 15.5963 10.5683 15.4713C10.4433 15.3463 10.373 15.1767 10.373 14.9999C10.373 14.8231 10.4433 14.6535 10.5683 14.5285C10.6933 14.4035 10.8629 14.3333 11.0397 14.3333H18.9597C19.1365 14.3333 19.3061 14.4035 19.4311 14.5285C19.5561 14.6535 19.6264 14.8231 19.6264 14.9999C19.6264 15.1767 19.5561 15.3463 19.4311 15.4713C19.3061 15.5963 19.1365 15.6666 18.9597 15.6666Z" fill="#66727E"/>
</svg>
