<svg width="9" height="9" viewBox="0 0 9 9" fill="none" xmlns="http://www.w3.org/2000/svg">
<path d="M7.10255 6.47598L9 8.37344L8.37344 9L6.47598 7.10255C5.79373 7.64839 4.9285 7.97491 3.98746 7.97491C1.78638 7.97491 0 6.18853 0 3.98746C0 1.78638 1.78638 0 3.98746 0C6.18853 0 7.97491 1.78638 7.97491 3.98746C7.97491 4.9285 7.64839 5.79373 7.10255 6.47598ZM6.21365 6.14724C6.75542 5.58891 7.08881 4.8273 7.08881 3.98746C7.08881 2.27396 5.70096 0.886101 3.98746 0.886101C2.27396 0.886101 0.886101 2.27396 0.886101 3.98746C0.886101 5.70096 2.27396 7.08881 3.98746 7.08881C4.8273 7.08881 5.58891 6.75542 6.14724 6.21365L6.21365 6.14724ZM3.54441 3.54441V2.21525H4.43051V3.54441H5.75966V4.43051H4.43051V5.75966H3.54441V4.43051H2.21525V3.54441H3.54441Z" fill="#415160"/>
</svg>
